<?xml version="1.0" encoding="UTF-8" standalone="no"?>
<!DOCTYPE svg PUBLIC "-//W3C//DTD SVG 1.1//EN"
 "http://www.w3.org/Graphics/SVG/1.1/DTD/svg11.dtd">
<!-- Generated by graphviz version 2.40.1 (20161225.0304)
 -->
<!-- Title: dependencies Pages: 1 -->
<svg width="504pt" height="211pt"
 viewBox="0.00 0.00 504.00 211.00" xmlns="http://www.w3.org/2000/svg" xmlns:xlink="http://www.w3.org/1999/xlink">
<g id="graph0" class="graph" transform="scale(1 1) rotate(0) translate(4 207)">
<title>dependencies</title>
<polygon fill="#ffffff" stroke="transparent" points="-4,4 -4,-207 500,-207 500,4 -4,4"/>
<text text-anchor="start" x="227.0091" y="-42.4" font-family="sans-serif" font-weight="bold" font-size="14.00" fill="#000000">Legend</text>
<polygon fill="#ffffb3" stroke="transparent" points="14,-10 14,-30 34,-30 34,-10 14,-10"/>
<text text-anchor="start" x="37.629" y="-15.4" font-family="sans-serif" font-size="14.00" fill="#000000"> &#160;Declarations</text>
<polygon fill="#8dd3c7" stroke="transparent" points="127,-10 127,-30 147,-30 147,-10 127,-10"/>
<text text-anchor="start" x="150.7251" y="-15.4" font-family="sans-serif" font-size="14.00" fill="#000000"> &#160;Module</text>
<polygon fill="#80b1d3" stroke="transparent" points="213,-10 213,-30 233,-30 233,-10 213,-10"/>
<text text-anchor="start" x="236.7812" y="-15.4" font-family="sans-serif" font-size="14.00" fill="#000000"> &#160;Bootstrap</text>
<polygon fill="#fdb462" stroke="transparent" points="310,-10 310,-30 330,-30 330,-10 310,-10"/>
<text text-anchor="start" x="333.6732" y="-15.4" font-family="sans-serif" font-size="14.00" fill="#000000"> &#160;Providers</text>
<polygon fill="#fb8072" stroke="transparent" points="406,-10 406,-30 426,-30 426,-10 406,-10"/>
<text text-anchor="start" x="429.7258" y="-15.4" font-family="sans-serif" font-size="14.00" fill="#000000"> &#160;Exports</text>
<g id="clust1" class="cluster">
<title>cluster_GroupingModule</title>
<polygon fill="none" stroke="#000000" stroke-dasharray="1,5" points="78,-70 78,-195 418,-195 418,-70 78,-70"/>
</g>
<g id="clust6" class="cluster">
<title>cluster_GroupingModule_providers</title>
<polygon fill="none" stroke="#000000" points="86,-78 86,-130 410,-130 410,-78 86,-78"/>
</g>
<!-- SortingService -->
<g id="node1" class="node">
<title>SortingService</title>
<ellipse fill="#fdb462" stroke="#000000" cx="334" cy="-104" rx="68.3555" ry="18"/>
<text text-anchor="middle" x="334" y="-99.8" font-family="Times,serif" font-size="14.00" fill="#000000">SortingService</text>
</g>
<!-- GroupingModule -->
<g id="node3" class="node">
<title>GroupingModule</title>
<polygon fill="#8dd3c7" stroke="#000000" points="308.7078,-187 305.7078,-191 284.7078,-191 281.7078,-187 195.2922,-187 195.2922,-151 308.7078,-151 308.7078,-187"/>
<text text-anchor="middle" x="252" y="-164.8" font-family="Times,serif" font-size="14.00" fill="#000000">GroupingModule</text>
</g>
<!-- SortingService&#45;&gt;GroupingModule -->
<g id="edge1" class="edge">
<title>SortingService&#45;&gt;GroupingModule</title>
<path fill="none" stroke="#000000" d="M287.088,-117.1537C287.088,-117.1537 287.088,-140.6938 287.088,-140.6938"/>
<polygon fill="#000000" stroke="#000000" points="283.5881,-140.6938 287.088,-150.6938 290.5881,-140.6939 283.5881,-140.6938"/>
</g>
<!-- GroupingService -->
<g id="node2" class="node">
<title>GroupingService</title>
<ellipse fill="#fdb462" stroke="#000000" cx="171" cy="-104" rx="77.0081" ry="18"/>
<text text-anchor="middle" x="171" y="-99.8" font-family="Times,serif" font-size="14.00" fill="#000000">GroupingService</text>
</g>
<!-- GroupingService&#45;&gt;GroupingModule -->
<g id="edge2" class="edge">
<title>GroupingService&#45;&gt;GroupingModule</title>
<path fill="none" stroke="#000000" d="M221.7001,-117.7848C221.7001,-117.7848 221.7001,-140.5475 221.7001,-140.5475"/>
<polygon fill="#000000" stroke="#000000" points="218.2002,-140.5474 221.7001,-150.5475 225.2002,-140.5475 218.2002,-140.5474"/>
</g>
</g>
</svg>
