<?xml version="1.0" encoding="UTF-8" standalone="no"?>
<!DOCTYPE svg PUBLIC "-//W3C//DTD SVG 1.1//EN"
 "http://www.w3.org/Graphics/SVG/1.1/DTD/svg11.dtd">
<!-- Generated by graphviz version 2.40.1 (20161225.0304)
 -->
<!-- Title: dependencies Pages: 1 -->
<svg width="504pt" height="284pt"
 viewBox="0.00 0.00 504.00 284.00" xmlns="http://www.w3.org/2000/svg" xmlns:xlink="http://www.w3.org/1999/xlink">
<g id="graph0" class="graph" transform="scale(1 1) rotate(0) translate(4 280)">
<title>dependencies</title>
<polygon fill="#ffffff" stroke="transparent" points="-4,4 -4,-280 500,-280 500,4 -4,4"/>
<text text-anchor="start" x="227.0091" y="-42.4" font-family="sans-serif" font-weight="bold" font-size="14.00" fill="#000000">Legend</text>
<polygon fill="#ffffb3" stroke="transparent" points="14,-10 14,-30 34,-30 34,-10 14,-10"/>
<text text-anchor="start" x="37.629" y="-15.4" font-family="sans-serif" font-size="14.00" fill="#000000"> &#160;Declarations</text>
<polygon fill="#8dd3c7" stroke="transparent" points="127,-10 127,-30 147,-30 147,-10 127,-10"/>
<text text-anchor="start" x="150.7251" y="-15.4" font-family="sans-serif" font-size="14.00" fill="#000000"> &#160;Module</text>
<polygon fill="#80b1d3" stroke="transparent" points="213,-10 213,-30 233,-30 233,-10 213,-10"/>
<text text-anchor="start" x="236.7812" y="-15.4" font-family="sans-serif" font-size="14.00" fill="#000000"> &#160;Bootstrap</text>
<polygon fill="#fdb462" stroke="transparent" points="310,-10 310,-30 330,-30 330,-10 310,-10"/>
<text text-anchor="start" x="333.6732" y="-15.4" font-family="sans-serif" font-size="14.00" fill="#000000"> &#160;Providers</text>
<polygon fill="#fb8072" stroke="transparent" points="406,-10 406,-30 426,-30 426,-10 406,-10"/>
<text text-anchor="start" x="429.7258" y="-15.4" font-family="sans-serif" font-size="14.00" fill="#000000"> &#160;Exports</text>
<g id="clust1" class="cluster">
<title>cluster_DejaDragDropModule</title>
<polygon fill="none" stroke="#000000" stroke-dasharray="1,5" points="66,-70 66,-268 430,-268 430,-70 66,-70"/>
</g>
<g id="clust2" class="cluster">
<title>cluster_DejaDragDropModule_declarations</title>
<polygon fill="none" stroke="#000000" points="78,-78 78,-130 418,-130 418,-78 78,-78"/>
</g>
<g id="clust6" class="cluster">
<title>cluster_DejaDragDropModule_exports</title>
<polygon fill="none" stroke="#000000" points="74,-208 74,-260 422,-260 422,-208 74,-208"/>
</g>
<!-- DejaDraggableDirective -->
<g id="node1" class="node">
<title>DejaDraggableDirective</title>
<polygon fill="#ffffb3" stroke="#000000" points="410.3109,-122 257.6891,-122 257.6891,-86 410.3109,-86 410.3109,-122"/>
<text text-anchor="middle" x="334" y="-99.8" font-family="Times,serif" font-size="14.00" fill="#000000">DejaDraggableDirective</text>
</g>
<!-- DejaDragDropModule -->
<g id="node3" class="node">
<title>DejaDragDropModule</title>
<polygon fill="#8dd3c7" stroke="#000000" points="235.2255,-187 232.2255,-191 211.2255,-191 208.2255,-187 92.7745,-187 92.7745,-151 235.2255,-151 235.2255,-187"/>
<text text-anchor="middle" x="164" y="-164.8" font-family="Times,serif" font-size="14.00" fill="#000000">DejaDragDropModule</text>
</g>
<!-- DejaDraggableDirective&#45;&gt;DejaDragDropModule -->
<g id="edge1" class="edge">
<title>DejaDraggableDirective&#45;&gt;DejaDragDropModule</title>
<path fill="none" stroke="#000000" d="M359.5518,-122.0225C359.5518,-139.3734 359.5518,-163 359.5518,-163 359.5518,-163 245.4288,-163 245.4288,-163"/>
<polygon fill="#000000" stroke="#000000" points="245.4288,-159.5001 235.4288,-163 245.4287,-166.5001 245.4288,-159.5001"/>
</g>
<!-- DejaDroppableDirective -->
<g id="node2" class="node">
<title>DejaDroppableDirective</title>
<polygon fill="#ffffb3" stroke="#000000" points="239.5967,-122 86.4033,-122 86.4033,-86 239.5967,-86 239.5967,-122"/>
<text text-anchor="middle" x="163" y="-99.8" font-family="Times,serif" font-size="14.00" fill="#000000">DejaDroppableDirective</text>
</g>
<!-- DejaDroppableDirective&#45;&gt;DejaDragDropModule -->
<g id="edge2" class="edge">
<title>DejaDroppableDirective&#45;&gt;DejaDragDropModule</title>
<path fill="none" stroke="#000000" d="M164,-122.1061C164,-122.1061 164,-140.991 164,-140.991"/>
<polygon fill="#000000" stroke="#000000" points="160.5001,-140.9909 164,-150.991 167.5001,-140.991 160.5001,-140.9909"/>
</g>
<!-- DejaDraggableDirective  -->
<g id="node4" class="node">
<title>DejaDraggableDirective </title>
<polygon fill="#fb8072" stroke="#000000" points="414.3111,-252 257.6889,-252 257.6889,-216 414.3111,-216 414.3111,-252"/>
<text text-anchor="middle" x="336" y="-229.8" font-family="Times,serif" font-size="14.00" fill="#000000">DejaDraggableDirective </text>
</g>
<!-- DejaDragDropModule&#45;&gt;DejaDraggableDirective  -->
<g id="edge3" class="edge">
<title>DejaDragDropModule&#45;&gt;DejaDraggableDirective </title>
<path fill="none" stroke="#000000" stroke-dasharray="5,2" d="M235.5013,-175C271.9562,-175 308.6982,-175 308.6982,-175 308.6982,-175 308.6982,-205.9775 308.6982,-205.9775"/>
<polygon fill="#000000" stroke="#000000" points="305.1983,-205.9774 308.6982,-215.9775 312.1983,-205.9775 305.1983,-205.9774"/>
</g>
<!-- DejaDroppableDirective  -->
<g id="node5" class="node">
<title>DejaDroppableDirective </title>
<polygon fill="#fb8072" stroke="#000000" points="239.5962,-252 82.4038,-252 82.4038,-216 239.5962,-216 239.5962,-252"/>
<text text-anchor="middle" x="161" y="-229.8" font-family="Times,serif" font-size="14.00" fill="#000000">DejaDroppableDirective </text>
</g>
<!-- DejaDragDropModule&#45;&gt;DejaDroppableDirective  -->
<g id="edge4" class="edge">
<title>DejaDragDropModule&#45;&gt;DejaDroppableDirective </title>
<path fill="none" stroke="#000000" stroke-dasharray="5,2" d="M164,-187.1061C164,-187.1061 164,-205.991 164,-205.991"/>
<polygon fill="#000000" stroke="#000000" points="160.5001,-205.9909 164,-215.991 167.5001,-205.991 160.5001,-205.9909"/>
</g>
</g>
</svg>
