<?xml version="1.0" encoding="UTF-8" standalone="no"?>
<!DOCTYPE svg PUBLIC "-//W3C//DTD SVG 1.1//EN"
 "http://www.w3.org/Graphics/SVG/1.1/DTD/svg11.dtd">
<!-- Generated by graphviz version 2.40.1 (20161225.0304)
 -->
<!-- Title: dependencies Pages: 1 -->
<svg width="504pt" height="284pt"
 viewBox="0.00 0.00 504.00 284.00" xmlns="http://www.w3.org/2000/svg" xmlns:xlink="http://www.w3.org/1999/xlink">
<g id="graph0" class="graph" transform="scale(1 1) rotate(0) translate(4 280)">
<title>dependencies</title>
<polygon fill="#ffffff" stroke="transparent" points="-4,4 -4,-280 500,-280 500,4 -4,4"/>
<text text-anchor="start" x="227.0091" y="-42.4" font-family="sans-serif" font-weight="bold" font-size="14.00" fill="#000000">Legend</text>
<polygon fill="#ffffb3" stroke="transparent" points="14,-10 14,-30 34,-30 34,-10 14,-10"/>
<text text-anchor="start" x="37.629" y="-15.4" font-family="sans-serif" font-size="14.00" fill="#000000"> &#160;Declarations</text>
<polygon fill="#8dd3c7" stroke="transparent" points="127,-10 127,-30 147,-30 147,-10 127,-10"/>
<text text-anchor="start" x="150.7251" y="-15.4" font-family="sans-serif" font-size="14.00" fill="#000000"> &#160;Module</text>
<polygon fill="#80b1d3" stroke="transparent" points="213,-10 213,-30 233,-30 233,-10 213,-10"/>
<text text-anchor="start" x="236.7812" y="-15.4" font-family="sans-serif" font-size="14.00" fill="#000000"> &#160;Bootstrap</text>
<polygon fill="#fdb462" stroke="transparent" points="310,-10 310,-30 330,-30 330,-10 310,-10"/>
<text text-anchor="start" x="333.6732" y="-15.4" font-family="sans-serif" font-size="14.00" fill="#000000"> &#160;Providers</text>
<polygon fill="#fb8072" stroke="transparent" points="406,-10 406,-30 426,-30 426,-10 406,-10"/>
<text text-anchor="start" x="429.7258" y="-15.4" font-family="sans-serif" font-size="14.00" fill="#000000"> &#160;Exports</text>
<g id="clust1" class="cluster">
<title>cluster_DejaBackdropModule</title>
<polygon fill="none" stroke="#000000" stroke-dasharray="1,5" points="26.5,-70 26.5,-268 469.5,-268 469.5,-70 26.5,-70"/>
</g>
<g id="clust2" class="cluster">
<title>cluster_DejaBackdropModule_declarations</title>
<polygon fill="none" stroke="#000000" points="283.5,-78 283.5,-130 461.5,-130 461.5,-78 283.5,-78"/>
</g>
<g id="clust4" class="cluster">
<title>cluster_DejaBackdropModule_imports</title>
<polygon fill="none" stroke="#000000" points="34.5,-78 34.5,-130 275.5,-130 275.5,-78 34.5,-78"/>
</g>
<g id="clust5" class="cluster">
<title>cluster_DejaBackdropModule_exports</title>
<polygon fill="none" stroke="#000000" points="120.5,-208 120.5,-260 302.5,-260 302.5,-208 120.5,-208"/>
</g>
<!-- DejaBackdropComponent -->
<g id="node1" class="node">
<title>DejaBackdropComponent</title>
<polygon fill="#ffffb3" stroke="#000000" points="453.6853,-122 291.3147,-122 291.3147,-86 453.6853,-86 453.6853,-122"/>
<text text-anchor="middle" x="372.5" y="-99.8" font-family="Times,serif" font-size="14.00" fill="#000000">DejaBackdropComponent</text>
</g>
<!-- DejaBackdropModule -->
<g id="node2" class="node">
<title>DejaBackdropModule</title>
<polygon fill="#8dd3c7" stroke="#000000" points="281.9032,-187 278.9032,-191 257.9032,-191 254.9032,-187 141.0968,-187 141.0968,-151 281.9032,-151 281.9032,-187"/>
<text text-anchor="middle" x="211.5" y="-164.8" font-family="Times,serif" font-size="14.00" fill="#000000">DejaBackdropModule</text>
</g>
<!-- DejaBackdropComponent&#45;&gt;DejaBackdropModule -->
<g id="edge1" class="edge">
<title>DejaBackdropComponent&#45;&gt;DejaBackdropModule</title>
<path fill="none" stroke="#000000" d="M291.1389,-104C281.229,-104 274.5176,-104 274.5176,-104 274.5176,-104 274.5176,-140.8939 274.5176,-140.8939"/>
<polygon fill="#000000" stroke="#000000" points="271.0176,-140.8938 274.5176,-150.8939 278.0176,-140.8939 271.0176,-140.8938"/>
</g>
<!-- DejaBackdropComponent  -->
<g id="node5" class="node">
<title>DejaBackdropComponent </title>
<polygon fill="#fb8072" stroke="#000000" points="294.1855,-252 128.8145,-252 128.8145,-216 294.1855,-216 294.1855,-252"/>
<text text-anchor="middle" x="211.5" y="-229.8" font-family="Times,serif" font-size="14.00" fill="#000000">DejaBackdropComponent </text>
</g>
<!-- DejaBackdropModule&#45;&gt;DejaBackdropComponent  -->
<g id="edge4" class="edge">
<title>DejaBackdropModule&#45;&gt;DejaBackdropComponent </title>
<path fill="none" stroke="#000000" stroke-dasharray="5,2" d="M211.5,-187.1061C211.5,-187.1061 211.5,-205.991 211.5,-205.991"/>
<polygon fill="#000000" stroke="#000000" points="208.0001,-205.9909 211.5,-215.991 215.0001,-205.991 208.0001,-205.9909"/>
</g>
<!-- CommonModule -->
<g id="node3" class="node">
<title>CommonModule</title>
<polygon fill="#8dd3c7" stroke="#000000" points="267.1681,-122 264.1681,-126 243.1681,-126 240.1681,-122 155.8319,-122 155.8319,-86 267.1681,-86 267.1681,-122"/>
<text text-anchor="middle" x="211.5" y="-99.8" font-family="Times,serif" font-size="14.00" fill="#000000">CommonModule</text>
</g>
<!-- CommonModule&#45;&gt;DejaBackdropModule -->
<g id="edge2" class="edge">
<title>CommonModule&#45;&gt;DejaBackdropModule</title>
<path fill="none" stroke="#000000" d="M211.5,-122.1061C211.5,-122.1061 211.5,-140.991 211.5,-140.991"/>
<polygon fill="#000000" stroke="#000000" points="208.0001,-140.9909 211.5,-150.991 215.0001,-140.991 208.0001,-140.9909"/>
</g>
<!-- FormsModule -->
<g id="node4" class="node">
<title>FormsModule</title>
<polygon fill="#8dd3c7" stroke="#000000" points="138.3288,-122 135.3288,-126 114.3288,-126 111.3288,-122 42.6712,-122 42.6712,-86 138.3288,-86 138.3288,-122"/>
<text text-anchor="middle" x="90.5" y="-99.8" font-family="Times,serif" font-size="14.00" fill="#000000">FormsModule</text>
</g>
<!-- FormsModule&#45;&gt;DejaBackdropModule -->
<g id="edge3" class="edge">
<title>FormsModule&#45;&gt;DejaBackdropModule</title>
<path fill="none" stroke="#000000" d="M133.4108,-122.1061C133.4108,-141.3391 133.4108,-169 133.4108,-169 133.4108,-169 134.188,-169 134.188,-169"/>
<polygon fill="#000000" stroke="#000000" points="131.1838,-172.5001 141.1837,-169 131.1837,-165.5001 131.1838,-172.5001"/>
</g>
</g>
</svg>
