<?xml version="1.0" encoding="UTF-8" standalone="no"?>
<!DOCTYPE svg PUBLIC "-//W3C//DTD SVG 1.1//EN"
 "http://www.w3.org/Graphics/SVG/1.1/DTD/svg11.dtd">
<!-- Generated by graphviz version 2.40.1 (20161225.0304)
 -->
<!-- Title: dependencies Pages: 1 -->
<svg width="580pt" height="284pt"
 viewBox="0.00 0.00 580.00 284.00" xmlns="http://www.w3.org/2000/svg" xmlns:xlink="http://www.w3.org/1999/xlink">
<g id="graph0" class="graph" transform="scale(1 1) rotate(0) translate(4 280)">
<title>dependencies</title>
<polygon fill="#ffffff" stroke="transparent" points="-4,4 -4,-280 576,-280 576,4 -4,4"/>
<text text-anchor="start" x="265.0091" y="-42.4" font-family="sans-serif" font-weight="bold" font-size="14.00" fill="#000000">Legend</text>
<polygon fill="#ffffb3" stroke="transparent" points="52,-10 52,-30 72,-30 72,-10 52,-10"/>
<text text-anchor="start" x="75.629" y="-15.4" font-family="sans-serif" font-size="14.00" fill="#000000"> &#160;Declarations</text>
<polygon fill="#8dd3c7" stroke="transparent" points="165,-10 165,-30 185,-30 185,-10 165,-10"/>
<text text-anchor="start" x="188.7251" y="-15.4" font-family="sans-serif" font-size="14.00" fill="#000000"> &#160;Module</text>
<polygon fill="#80b1d3" stroke="transparent" points="251,-10 251,-30 271,-30 271,-10 251,-10"/>
<text text-anchor="start" x="274.7812" y="-15.4" font-family="sans-serif" font-size="14.00" fill="#000000"> &#160;Bootstrap</text>
<polygon fill="#fdb462" stroke="transparent" points="348,-10 348,-30 368,-30 368,-10 348,-10"/>
<text text-anchor="start" x="371.6732" y="-15.4" font-family="sans-serif" font-size="14.00" fill="#000000"> &#160;Providers</text>
<polygon fill="#fb8072" stroke="transparent" points="444,-10 444,-30 464,-30 464,-10 444,-10"/>
<text text-anchor="start" x="467.7258" y="-15.4" font-family="sans-serif" font-size="14.00" fill="#000000"> &#160;Exports</text>
<g id="clust1" class="cluster">
<title>cluster_DejaDateSelectorModule</title>
<polygon fill="none" stroke="#000000" stroke-dasharray="1,5" points="8,-70 8,-268 564,-268 564,-70 8,-70"/>
</g>
<g id="clust2" class="cluster">
<title>cluster_DejaDateSelectorModule_declarations</title>
<polygon fill="none" stroke="#000000" points="208,-78 208,-130 556,-130 556,-78 208,-78"/>
</g>
<g id="clust5" class="cluster">
<title>cluster_DejaDateSelectorModule_imports</title>
<polygon fill="none" stroke="#000000" points="16,-78 16,-130 200,-130 200,-78 16,-78"/>
</g>
<g id="clust6" class="cluster">
<title>cluster_DejaDateSelectorModule_exports</title>
<polygon fill="none" stroke="#000000" points="206,-208 206,-260 406,-260 406,-208 206,-208"/>
</g>
<!-- DejaDateFormatPipe -->
<g id="node1" class="node">
<title>DejaDateFormatPipe</title>
<polygon fill="#ffffb3" stroke="#000000" points="548.1797,-122 413.8203,-122 413.8203,-86 548.1797,-86 548.1797,-122"/>
<text text-anchor="middle" x="481" y="-99.8" font-family="Times,serif" font-size="14.00" fill="#000000">DejaDateFormatPipe</text>
</g>
<!-- DejaDateSelectorModule -->
<g id="node3" class="node">
<title>DejaDateSelectorModule</title>
<polygon fill="#8dd3c7" stroke="#000000" points="385.271,-187 382.271,-191 361.271,-191 358.271,-187 226.729,-187 226.729,-151 385.271,-151 385.271,-187"/>
<text text-anchor="middle" x="306" y="-164.8" font-family="Times,serif" font-size="14.00" fill="#000000">DejaDateSelectorModule</text>
</g>
<!-- DejaDateFormatPipe&#45;&gt;DejaDateSelectorModule -->
<g id="edge1" class="edge">
<title>DejaDateFormatPipe&#45;&gt;DejaDateSelectorModule</title>
<path fill="none" stroke="#000000" d="M481,-122.1061C481,-141.3391 481,-169 481,-169 481,-169 395.3076,-169 395.3076,-169"/>
<polygon fill="#000000" stroke="#000000" points="395.3076,-165.5001 385.3076,-169 395.3075,-172.5001 395.3076,-165.5001"/>
</g>
<!-- DejaDateSelectorComponent -->
<g id="node2" class="node">
<title>DejaDateSelectorComponent</title>
<polygon fill="#ffffb3" stroke="#000000" points="396.0534,-122 215.9466,-122 215.9466,-86 396.0534,-86 396.0534,-122"/>
<text text-anchor="middle" x="306" y="-99.8" font-family="Times,serif" font-size="14.00" fill="#000000">DejaDateSelectorComponent</text>
</g>
<!-- DejaDateSelectorComponent&#45;&gt;DejaDateSelectorModule -->
<g id="edge2" class="edge">
<title>DejaDateSelectorComponent&#45;&gt;DejaDateSelectorModule</title>
<path fill="none" stroke="#000000" d="M306,-122.1061C306,-122.1061 306,-140.991 306,-140.991"/>
<polygon fill="#000000" stroke="#000000" points="302.5001,-140.9909 306,-150.991 309.5001,-140.991 302.5001,-140.9909"/>
</g>
<!-- DejaDateSelectorComponent  -->
<g id="node5" class="node">
<title>DejaDateSelectorComponent </title>
<polygon fill="#fb8072" stroke="#000000" points="397.5539,-252 214.4461,-252 214.4461,-216 397.5539,-216 397.5539,-252"/>
<text text-anchor="middle" x="306" y="-229.8" font-family="Times,serif" font-size="14.00" fill="#000000">DejaDateSelectorComponent </text>
</g>
<!-- DejaDateSelectorModule&#45;&gt;DejaDateSelectorComponent  -->
<g id="edge4" class="edge">
<title>DejaDateSelectorModule&#45;&gt;DejaDateSelectorComponent </title>
<path fill="none" stroke="#000000" stroke-dasharray="5,2" d="M306,-187.1061C306,-187.1061 306,-205.991 306,-205.991"/>
<polygon fill="#000000" stroke="#000000" points="302.5001,-205.9909 306,-215.991 309.5001,-205.991 302.5001,-205.9909"/>
</g>
<!-- DejaCircularPickerModule -->
<g id="node4" class="node">
<title>DejaCircularPickerModule</title>
<polygon fill="#8dd3c7" stroke="#000000" points="191.6079,-122 188.6079,-126 167.6079,-126 164.6079,-122 24.3921,-122 24.3921,-86 191.6079,-86 191.6079,-122"/>
<text text-anchor="middle" x="108" y="-99.8" font-family="Times,serif" font-size="14.00" fill="#000000">DejaCircularPickerModule</text>
</g>
<!-- DejaCircularPickerModule&#45;&gt;DejaDateSelectorModule -->
<g id="edge3" class="edge">
<title>DejaCircularPickerModule&#45;&gt;DejaDateSelectorModule</title>
<path fill="none" stroke="#000000" d="M108,-122.1061C108,-141.3391 108,-169 108,-169 108,-169 216.6067,-169 216.6067,-169"/>
<polygon fill="#000000" stroke="#000000" points="216.6067,-172.5001 226.6067,-169 216.6067,-165.5001 216.6067,-172.5001"/>
</g>
</g>
</svg>
