<?xml version="1.0" encoding="UTF-8" standalone="no"?>
<!DOCTYPE svg PUBLIC "-//W3C//DTD SVG 1.1//EN"
 "http://www.w3.org/Graphics/SVG/1.1/DTD/svg11.dtd">
<!-- Generated by graphviz version 2.40.1 (20161225.0304)
 -->
<!-- Title: dependencies Pages: 1 -->
<svg width="927pt" height="284pt"
 viewBox="0.00 0.00 927.00 284.00" xmlns="http://www.w3.org/2000/svg" xmlns:xlink="http://www.w3.org/1999/xlink">
<g id="graph0" class="graph" transform="scale(1 1) rotate(0) translate(4 280)">
<title>dependencies</title>
<polygon fill="#ffffff" stroke="transparent" points="-4,4 -4,-280 923,-280 923,4 -4,4"/>
<text text-anchor="start" x="438.5091" y="-42.4" font-family="sans-serif" font-weight="bold" font-size="14.00" fill="#000000">Legend</text>
<polygon fill="#ffffb3" stroke="transparent" points="225.5,-10 225.5,-30 245.5,-30 245.5,-10 225.5,-10"/>
<text text-anchor="start" x="249.129" y="-15.4" font-family="sans-serif" font-size="14.00" fill="#000000"> &#160;Declarations</text>
<polygon fill="#8dd3c7" stroke="transparent" points="338.5,-10 338.5,-30 358.5,-30 358.5,-10 338.5,-10"/>
<text text-anchor="start" x="362.2251" y="-15.4" font-family="sans-serif" font-size="14.00" fill="#000000"> &#160;Module</text>
<polygon fill="#80b1d3" stroke="transparent" points="424.5,-10 424.5,-30 444.5,-30 444.5,-10 424.5,-10"/>
<text text-anchor="start" x="448.2812" y="-15.4" font-family="sans-serif" font-size="14.00" fill="#000000"> &#160;Bootstrap</text>
<polygon fill="#fdb462" stroke="transparent" points="521.5,-10 521.5,-30 541.5,-30 541.5,-10 521.5,-10"/>
<text text-anchor="start" x="545.1732" y="-15.4" font-family="sans-serif" font-size="14.00" fill="#000000"> &#160;Providers</text>
<polygon fill="#fb8072" stroke="transparent" points="617.5,-10 617.5,-30 637.5,-30 637.5,-10 617.5,-10"/>
<text text-anchor="start" x="641.2258" y="-15.4" font-family="sans-serif" font-size="14.00" fill="#000000"> &#160;Exports</text>
<g id="clust1" class="cluster">
<title>cluster_DejaDateSelectorModule</title>
<polygon fill="none" stroke="#000000" stroke-dasharray="1,5" points="8,-70 8,-268 911,-268 911,-70 8,-70"/>
</g>
<g id="clust2" class="cluster">
<title>cluster_DejaDateSelectorModule_declarations</title>
<polygon fill="none" stroke="#000000" points="707,-78 707,-130 903,-130 903,-78 707,-78"/>
</g>
<g id="clust4" class="cluster">
<title>cluster_DejaDateSelectorModule_imports</title>
<polygon fill="none" stroke="#000000" points="16,-78 16,-130 699,-130 699,-78 16,-78"/>
</g>
<g id="clust5" class="cluster">
<title>cluster_DejaDateSelectorModule_exports</title>
<polygon fill="none" stroke="#000000" points="288,-208 288,-260 488,-260 488,-208 288,-208"/>
</g>
<!-- DejaDateSelectorComponent -->
<g id="node1" class="node">
<title>DejaDateSelectorComponent</title>
<polygon fill="#ffffb3" stroke="#000000" points="895.0534,-122 714.9466,-122 714.9466,-86 895.0534,-86 895.0534,-122"/>
<text text-anchor="middle" x="805" y="-99.8" font-family="Times,serif" font-size="14.00" fill="#000000">DejaDateSelectorComponent</text>
</g>
<!-- DejaDateSelectorModule -->
<g id="node2" class="node">
<title>DejaDateSelectorModule</title>
<polygon fill="#8dd3c7" stroke="#000000" points="467.271,-187 464.271,-191 443.271,-191 440.271,-187 308.729,-187 308.729,-151 467.271,-151 467.271,-187"/>
<text text-anchor="middle" x="388" y="-164.8" font-family="Times,serif" font-size="14.00" fill="#000000">DejaDateSelectorModule</text>
</g>
<!-- DejaDateSelectorComponent&#45;&gt;DejaDateSelectorModule -->
<g id="edge1" class="edge">
<title>DejaDateSelectorComponent&#45;&gt;DejaDateSelectorModule</title>
<path fill="none" stroke="#000000" d="M805,-122.2843C805,-143.3211 805,-175 805,-175 805,-175 477.416,-175 477.416,-175"/>
<polygon fill="#000000" stroke="#000000" points="477.4161,-171.5001 467.416,-175 477.416,-178.5001 477.4161,-171.5001"/>
</g>
<!-- DejaDateSelectorComponent  -->
<g id="node8" class="node">
<title>DejaDateSelectorComponent </title>
<polygon fill="#fb8072" stroke="#000000" points="479.5539,-252 296.4461,-252 296.4461,-216 479.5539,-216 479.5539,-252"/>
<text text-anchor="middle" x="388" y="-229.8" font-family="Times,serif" font-size="14.00" fill="#000000">DejaDateSelectorComponent </text>
</g>
<!-- DejaDateSelectorModule&#45;&gt;DejaDateSelectorComponent  -->
<g id="edge7" class="edge">
<title>DejaDateSelectorModule&#45;&gt;DejaDateSelectorComponent </title>
<path fill="none" stroke="#000000" stroke-dasharray="5,2" d="M388,-187.1061C388,-187.1061 388,-205.991 388,-205.991"/>
<polygon fill="#000000" stroke="#000000" points="384.5001,-205.9909 388,-215.991 391.5001,-205.991 384.5001,-205.9909"/>
</g>
<!-- DejaCircularPickerModule -->
<g id="node3" class="node">
<title>DejaCircularPickerModule</title>
<polygon fill="#8dd3c7" stroke="#000000" points="690.6079,-122 687.6079,-126 666.6079,-126 663.6079,-122 523.3921,-122 523.3921,-86 690.6079,-86 690.6079,-122"/>
<text text-anchor="middle" x="607" y="-99.8" font-family="Times,serif" font-size="14.00" fill="#000000">DejaCircularPickerModule</text>
</g>
<!-- DejaCircularPickerModule&#45;&gt;DejaDateSelectorModule -->
<g id="edge2" class="edge">
<title>DejaCircularPickerModule&#45;&gt;DejaDateSelectorModule</title>
<path fill="none" stroke="#000000" d="M607,-122.0225C607,-139.3734 607,-163 607,-163 607,-163 477.3737,-163 477.3737,-163"/>
<polygon fill="#000000" stroke="#000000" points="477.3737,-159.5001 467.3737,-163 477.3736,-166.5001 477.3737,-159.5001"/>
</g>
<!-- CommonModule -->
<g id="node4" class="node">
<title>CommonModule</title>
<polygon fill="#8dd3c7" stroke="#000000" points="504.6681,-122 501.6681,-126 480.6681,-126 477.6681,-122 393.3319,-122 393.3319,-86 504.6681,-86 504.6681,-122"/>
<text text-anchor="middle" x="449" y="-99.8" font-family="Times,serif" font-size="14.00" fill="#000000">CommonModule</text>
</g>
<!-- CommonModule&#45;&gt;DejaDateSelectorModule -->
<g id="edge3" class="edge">
<title>CommonModule&#45;&gt;DejaDateSelectorModule</title>
<path fill="none" stroke="#000000" d="M430.1508,-122.1061C430.1508,-122.1061 430.1508,-140.991 430.1508,-140.991"/>
<polygon fill="#000000" stroke="#000000" points="426.6509,-140.9909 430.1508,-150.991 433.6509,-140.991 426.6509,-140.9909"/>
</g>
<!-- FormsModule -->
<g id="node5" class="node">
<title>FormsModule</title>
<polygon fill="#8dd3c7" stroke="#000000" points="375.8288,-122 372.8288,-126 351.8288,-126 348.8288,-122 280.1712,-122 280.1712,-86 375.8288,-86 375.8288,-122"/>
<text text-anchor="middle" x="328" y="-99.8" font-family="Times,serif" font-size="14.00" fill="#000000">FormsModule</text>
</g>
<!-- FormsModule&#45;&gt;DejaDateSelectorModule -->
<g id="edge4" class="edge">
<title>FormsModule&#45;&gt;DejaDateSelectorModule</title>
<path fill="none" stroke="#000000" d="M342.2644,-122.1061C342.2644,-122.1061 342.2644,-140.991 342.2644,-140.991"/>
<polygon fill="#000000" stroke="#000000" points="338.7644,-140.9909 342.2644,-150.991 345.7644,-140.991 338.7644,-140.9909"/>
</g>
<!-- MdButtonModule -->
<g id="node6" class="node">
<title>MdButtonModule</title>
<polygon fill="#8dd3c7" stroke="#000000" points="262.6123,-122 259.6123,-126 238.6123,-126 235.6123,-122 145.3877,-122 145.3877,-86 262.6123,-86 262.6123,-122"/>
<text text-anchor="middle" x="204" y="-99.8" font-family="Times,serif" font-size="14.00" fill="#000000">MdButtonModule</text>
</g>
<!-- MdButtonModule&#45;&gt;DejaDateSelectorModule -->
<g id="edge5" class="edge">
<title>MdButtonModule&#45;&gt;DejaDateSelectorModule</title>
<path fill="none" stroke="#000000" d="M204,-122.0225C204,-139.3734 204,-163 204,-163 204,-163 298.6324,-163 298.6324,-163"/>
<polygon fill="#000000" stroke="#000000" points="298.6324,-166.5001 308.6324,-163 298.6324,-159.5001 298.6324,-166.5001"/>
</g>
<!-- MdIconModule -->
<g id="node7" class="node">
<title>MdIconModule</title>
<polygon fill="#8dd3c7" stroke="#000000" points="127.8697,-122 124.8697,-126 103.8697,-126 100.8697,-122 24.1303,-122 24.1303,-86 127.8697,-86 127.8697,-122"/>
<text text-anchor="middle" x="76" y="-99.8" font-family="Times,serif" font-size="14.00" fill="#000000">MdIconModule</text>
</g>
<!-- MdIconModule&#45;&gt;DejaDateSelectorModule -->
<g id="edge6" class="edge">
<title>MdIconModule&#45;&gt;DejaDateSelectorModule</title>
<path fill="none" stroke="#000000" d="M76,-122.2843C76,-143.3211 76,-175 76,-175 76,-175 298.462,-175 298.462,-175"/>
<polygon fill="#000000" stroke="#000000" points="298.462,-178.5001 308.462,-175 298.4619,-171.5001 298.462,-178.5001"/>
</g>
</g>
</svg>
