<?xml version="1.0" encoding="UTF-8" standalone="no"?>
<!DOCTYPE svg PUBLIC "-//W3C//DTD SVG 1.1//EN"
 "http://www.w3.org/Graphics/SVG/1.1/DTD/svg11.dtd">
<!-- Generated by graphviz version 2.40.1 (20161225.0304)
 -->
<!-- Title: dependencies Pages: 1 -->
<svg width="504pt" height="284pt"
 viewBox="0.00 0.00 504.00 284.00" xmlns="http://www.w3.org/2000/svg" xmlns:xlink="http://www.w3.org/1999/xlink">
<g id="graph0" class="graph" transform="scale(1 1) rotate(0) translate(4 280)">
<title>dependencies</title>
<polygon fill="#ffffff" stroke="transparent" points="-4,4 -4,-280 500,-280 500,4 -4,4"/>
<text text-anchor="start" x="227.0091" y="-42.4" font-family="sans-serif" font-weight="bold" font-size="14.00" fill="#000000">Legend</text>
<polygon fill="#ffffb3" stroke="transparent" points="14,-10 14,-30 34,-30 34,-10 14,-10"/>
<text text-anchor="start" x="37.629" y="-15.4" font-family="sans-serif" font-size="14.00" fill="#000000"> &#160;Declarations</text>
<polygon fill="#8dd3c7" stroke="transparent" points="127,-10 127,-30 147,-30 147,-10 127,-10"/>
<text text-anchor="start" x="150.7251" y="-15.4" font-family="sans-serif" font-size="14.00" fill="#000000"> &#160;Module</text>
<polygon fill="#80b1d3" stroke="transparent" points="213,-10 213,-30 233,-30 233,-10 213,-10"/>
<text text-anchor="start" x="236.7812" y="-15.4" font-family="sans-serif" font-size="14.00" fill="#000000"> &#160;Bootstrap</text>
<polygon fill="#fdb462" stroke="transparent" points="310,-10 310,-30 330,-30 330,-10 310,-10"/>
<text text-anchor="start" x="333.6732" y="-15.4" font-family="sans-serif" font-size="14.00" fill="#000000"> &#160;Providers</text>
<polygon fill="#fb8072" stroke="transparent" points="406,-10 406,-30 426,-30 426,-10 406,-10"/>
<text text-anchor="start" x="429.7258" y="-15.4" font-family="sans-serif" font-size="14.00" fill="#000000"> &#160;Exports</text>
<g id="clust1" class="cluster">
<title>cluster_DejaColorSelectorModule</title>
<polygon fill="none" stroke="#000000" stroke-dasharray="1,5" points="46,-70 46,-268 450,-268 450,-70 46,-70"/>
</g>
<g id="clust2" class="cluster">
<title>cluster_DejaColorSelectorModule_declarations</title>
<polygon fill="none" stroke="#000000" points="58,-78 58,-130 438,-130 438,-78 58,-78"/>
</g>
<g id="clust6" class="cluster">
<title>cluster_DejaColorSelectorModule_exports</title>
<polygon fill="none" stroke="#000000" points="54,-208 54,-260 442,-260 442,-208 54,-208"/>
</g>
<!-- DejaColorSelectorComponent -->
<g id="node1" class="node">
<title>DejaColorSelectorComponent</title>
<polygon fill="#ffffb3" stroke="#000000" points="429.5154,-122 244.4846,-122 244.4846,-86 429.5154,-86 429.5154,-122"/>
<text text-anchor="middle" x="337" y="-99.8" font-family="Times,serif" font-size="14.00" fill="#000000">DejaColorSelectorComponent</text>
</g>
<!-- DejaColorSelectorModule -->
<g id="node3" class="node">
<title>DejaColorSelectorModule</title>
<polygon fill="#8dd3c7" stroke="#000000" points="228.7324,-187 225.7324,-191 204.7324,-191 201.7324,-187 65.2676,-187 65.2676,-151 228.7324,-151 228.7324,-187"/>
<text text-anchor="middle" x="147" y="-164.8" font-family="Times,serif" font-size="14.00" fill="#000000">DejaColorSelectorModule</text>
</g>
<!-- DejaColorSelectorComponent&#45;&gt;DejaColorSelectorModule -->
<g id="edge1" class="edge">
<title>DejaColorSelectorComponent&#45;&gt;DejaColorSelectorModule</title>
<path fill="none" stroke="#000000" d="M368.0025,-122.0225C368.0025,-139.3734 368.0025,-163 368.0025,-163 368.0025,-163 238.9791,-163 238.9791,-163"/>
<polygon fill="#000000" stroke="#000000" points="238.9791,-159.5001 228.9791,-163 238.9791,-166.5001 238.9791,-159.5001"/>
</g>
<!-- DejaColorFabComponent -->
<g id="node2" class="node">
<title>DejaColorFabComponent</title>
<polygon fill="#ffffb3" stroke="#000000" points="226.1442,-122 65.8558,-122 65.8558,-86 226.1442,-86 226.1442,-122"/>
<text text-anchor="middle" x="146" y="-99.8" font-family="Times,serif" font-size="14.00" fill="#000000">DejaColorFabComponent</text>
</g>
<!-- DejaColorFabComponent&#45;&gt;DejaColorSelectorModule -->
<g id="edge2" class="edge">
<title>DejaColorFabComponent&#45;&gt;DejaColorSelectorModule</title>
<path fill="none" stroke="#000000" d="M146,-122.1061C146,-122.1061 146,-140.991 146,-140.991"/>
<polygon fill="#000000" stroke="#000000" points="142.5001,-140.9909 146,-150.991 149.5001,-140.991 142.5001,-140.9909"/>
</g>
<!-- DejaColorSelectorComponent  -->
<g id="node4" class="node">
<title>DejaColorSelectorComponent </title>
<polygon fill="#fb8072" stroke="#000000" points="433.5148,-252 244.4852,-252 244.4852,-216 433.5148,-216 433.5148,-252"/>
<text text-anchor="middle" x="339" y="-229.8" font-family="Times,serif" font-size="14.00" fill="#000000">DejaColorSelectorComponent </text>
</g>
<!-- DejaColorSelectorModule&#45;&gt;DejaColorSelectorComponent  -->
<g id="edge3" class="edge">
<title>DejaColorSelectorModule&#45;&gt;DejaColorSelectorComponent </title>
<path fill="none" stroke="#000000" stroke-dasharray="5,2" d="M228.9562,-175C267.9756,-175 306.2475,-175 306.2475,-175 306.2475,-175 306.2475,-205.9775 306.2475,-205.9775"/>
<polygon fill="#000000" stroke="#000000" points="302.7476,-205.9774 306.2475,-215.9775 309.7476,-205.9775 302.7476,-205.9774"/>
</g>
<!-- DejaColorFabComponent  -->
<g id="node5" class="node">
<title>DejaColorFabComponent </title>
<polygon fill="#fb8072" stroke="#000000" points="226.1439,-252 61.8561,-252 61.8561,-216 226.1439,-216 226.1439,-252"/>
<text text-anchor="middle" x="144" y="-229.8" font-family="Times,serif" font-size="14.00" fill="#000000">DejaColorFabComponent </text>
</g>
<!-- DejaColorSelectorModule&#45;&gt;DejaColorFabComponent  -->
<g id="edge4" class="edge">
<title>DejaColorSelectorModule&#45;&gt;DejaColorFabComponent </title>
<path fill="none" stroke="#000000" stroke-dasharray="5,2" d="M145.6029,-187.1061C145.6029,-187.1061 145.6029,-205.991 145.6029,-205.991"/>
<polygon fill="#000000" stroke="#000000" points="142.103,-205.9909 145.6029,-215.991 149.103,-205.991 142.103,-205.9909"/>
</g>
</g>
</svg>
