<?xml version="1.0" encoding="UTF-8" standalone="no"?>
<!DOCTYPE svg PUBLIC "-//W3C//DTD SVG 1.1//EN"
 "http://www.w3.org/Graphics/SVG/1.1/DTD/svg11.dtd">
<!-- Generated by graphviz version 2.40.1 (20161225.0304)
 -->
<!-- Title: dependencies Pages: 1 -->
<svg width="504pt" height="284pt"
 viewBox="0.00 0.00 504.00 284.00" xmlns="http://www.w3.org/2000/svg" xmlns:xlink="http://www.w3.org/1999/xlink">
<g id="graph0" class="graph" transform="scale(1 1) rotate(0) translate(4 280)">
<title>dependencies</title>
<polygon fill="#ffffff" stroke="transparent" points="-4,4 -4,-280 500,-280 500,4 -4,4"/>
<text text-anchor="start" x="227.0091" y="-42.4" font-family="sans-serif" font-weight="bold" font-size="14.00" fill="#000000">Legend</text>
<polygon fill="#ffffb3" stroke="transparent" points="14,-10 14,-30 34,-30 34,-10 14,-10"/>
<text text-anchor="start" x="37.629" y="-15.4" font-family="sans-serif" font-size="14.00" fill="#000000"> &#160;Declarations</text>
<polygon fill="#8dd3c7" stroke="transparent" points="127,-10 127,-30 147,-30 147,-10 127,-10"/>
<text text-anchor="start" x="150.7251" y="-15.4" font-family="sans-serif" font-size="14.00" fill="#000000"> &#160;Module</text>
<polygon fill="#80b1d3" stroke="transparent" points="213,-10 213,-30 233,-30 233,-10 213,-10"/>
<text text-anchor="start" x="236.7812" y="-15.4" font-family="sans-serif" font-size="14.00" fill="#000000"> &#160;Bootstrap</text>
<polygon fill="#fdb462" stroke="transparent" points="310,-10 310,-30 330,-30 330,-10 310,-10"/>
<text text-anchor="start" x="333.6732" y="-15.4" font-family="sans-serif" font-size="14.00" fill="#000000"> &#160;Providers</text>
<polygon fill="#fb8072" stroke="transparent" points="406,-10 406,-30 426,-30 426,-10 406,-10"/>
<text text-anchor="start" x="429.7258" y="-15.4" font-family="sans-serif" font-size="14.00" fill="#000000"> &#160;Exports</text>
<g id="clust1" class="cluster">
<title>cluster_DejaColorSelectorModule</title>
<polygon fill="none" stroke="#000000" stroke-dasharray="1,5" points="46,-70 46,-268 450,-268 450,-70 46,-70"/>
</g>
<g id="clust2" class="cluster">
<title>cluster_DejaColorSelectorModule_declarations</title>
<polygon fill="none" stroke="#000000" points="58,-78 58,-130 438,-130 438,-78 58,-78"/>
</g>
<g id="clust6" class="cluster">
<title>cluster_DejaColorSelectorModule_exports</title>
<polygon fill="none" stroke="#000000" points="54,-208 54,-260 442,-260 442,-208 54,-208"/>
</g>
<!-- DejaColorFabComponent -->
<g id="node1" class="node">
<title>DejaColorFabComponent</title>
<polygon fill="#ffffb3" stroke="#000000" points="430.1442,-122 269.8558,-122 269.8558,-86 430.1442,-86 430.1442,-122"/>
<text text-anchor="middle" x="350" y="-99.8" font-family="Times,serif" font-size="14.00" fill="#000000">DejaColorFabComponent</text>
</g>
<!-- DejaColorSelectorModule -->
<g id="node3" class="node">
<title>DejaColorSelectorModule</title>
<polygon fill="#8dd3c7" stroke="#000000" points="241.7324,-187 238.7324,-191 217.7324,-191 214.7324,-187 78.2676,-187 78.2676,-151 241.7324,-151 241.7324,-187"/>
<text text-anchor="middle" x="160" y="-164.8" font-family="Times,serif" font-size="14.00" fill="#000000">DejaColorSelectorModule</text>
</g>
<!-- DejaColorFabComponent&#45;&gt;DejaColorSelectorModule -->
<g id="edge1" class="edge">
<title>DejaColorFabComponent&#45;&gt;DejaColorSelectorModule</title>
<path fill="none" stroke="#000000" d="M376.8573,-122.0225C376.8573,-139.3734 376.8573,-163 376.8573,-163 376.8573,-163 251.9844,-163 251.9844,-163"/>
<polygon fill="#000000" stroke="#000000" points="251.9845,-159.5001 241.9844,-163 251.9844,-166.5001 251.9845,-159.5001"/>
</g>
<!-- DejaColorSelectorComponent -->
<g id="node2" class="node">
<title>DejaColorSelectorComponent</title>
<polygon fill="#ffffb3" stroke="#000000" points="251.5154,-122 66.4846,-122 66.4846,-86 251.5154,-86 251.5154,-122"/>
<text text-anchor="middle" x="159" y="-99.8" font-family="Times,serif" font-size="14.00" fill="#000000">DejaColorSelectorComponent</text>
</g>
<!-- DejaColorSelectorComponent&#45;&gt;DejaColorSelectorModule -->
<g id="edge2" class="edge">
<title>DejaColorSelectorComponent&#45;&gt;DejaColorSelectorModule</title>
<path fill="none" stroke="#000000" d="M160,-122.1061C160,-122.1061 160,-140.991 160,-140.991"/>
<polygon fill="#000000" stroke="#000000" points="156.5001,-140.9909 160,-150.991 163.5001,-140.991 156.5001,-140.9909"/>
</g>
<!-- DejaColorFabComponent  -->
<g id="node4" class="node">
<title>DejaColorFabComponent </title>
<polygon fill="#fb8072" stroke="#000000" points="434.1439,-252 269.8561,-252 269.8561,-216 434.1439,-216 434.1439,-252"/>
<text text-anchor="middle" x="352" y="-229.8" font-family="Times,serif" font-size="14.00" fill="#000000">DejaColorFabComponent </text>
</g>
<!-- DejaColorSelectorModule&#45;&gt;DejaColorFabComponent  -->
<g id="edge3" class="edge">
<title>DejaColorSelectorModule&#45;&gt;DejaColorFabComponent </title>
<path fill="none" stroke="#000000" stroke-dasharray="5,2" d="M242.175,-175C282.863,-175 323.3927,-175 323.3927,-175 323.3927,-175 323.3927,-205.9775 323.3927,-205.9775"/>
<polygon fill="#000000" stroke="#000000" points="319.8928,-205.9774 323.3927,-215.9775 326.8928,-205.9775 319.8928,-205.9774"/>
</g>
<!-- DejaColorSelectorComponent  -->
<g id="node5" class="node">
<title>DejaColorSelectorComponent </title>
<polygon fill="#fb8072" stroke="#000000" points="251.5148,-252 62.4852,-252 62.4852,-216 251.5148,-216 251.5148,-252"/>
<text text-anchor="middle" x="157" y="-229.8" font-family="Times,serif" font-size="14.00" fill="#000000">DejaColorSelectorComponent </text>
</g>
<!-- DejaColorSelectorModule&#45;&gt;DejaColorSelectorComponent  -->
<g id="edge4" class="edge">
<title>DejaColorSelectorModule&#45;&gt;DejaColorSelectorComponent </title>
<path fill="none" stroke="#000000" stroke-dasharray="5,2" d="M160,-187.1061C160,-187.1061 160,-205.991 160,-205.991"/>
<polygon fill="#000000" stroke="#000000" points="156.5001,-205.9909 160,-215.991 163.5001,-205.991 156.5001,-205.9909"/>
</g>
</g>
</svg>
