<?xml version="1.0" encoding="UTF-8" standalone="no"?>
<!DOCTYPE svg PUBLIC "-//W3C//DTD SVG 1.1//EN"
 "http://www.w3.org/Graphics/SVG/1.1/DTD/svg11.dtd">
<!-- Generated by graphviz version 2.40.1 (20161225.0304)
 -->
<!-- Title: dependencies Pages: 1 -->
<svg width="669pt" height="284pt"
 viewBox="0.00 0.00 669.00 284.00" xmlns="http://www.w3.org/2000/svg" xmlns:xlink="http://www.w3.org/1999/xlink">
<g id="graph0" class="graph" transform="scale(1 1) rotate(0) translate(4 280)">
<title>dependencies</title>
<polygon fill="#ffffff" stroke="transparent" points="-4,4 -4,-280 665,-280 665,4 -4,4"/>
<text text-anchor="start" x="309.5091" y="-42.4" font-family="sans-serif" font-weight="bold" font-size="14.00" fill="#000000">Legend</text>
<polygon fill="#ffffb3" stroke="transparent" points="96.5,-10 96.5,-30 116.5,-30 116.5,-10 96.5,-10"/>
<text text-anchor="start" x="120.129" y="-15.4" font-family="sans-serif" font-size="14.00" fill="#000000"> &#160;Declarations</text>
<polygon fill="#8dd3c7" stroke="transparent" points="209.5,-10 209.5,-30 229.5,-30 229.5,-10 209.5,-10"/>
<text text-anchor="start" x="233.2251" y="-15.4" font-family="sans-serif" font-size="14.00" fill="#000000"> &#160;Module</text>
<polygon fill="#80b1d3" stroke="transparent" points="295.5,-10 295.5,-30 315.5,-30 315.5,-10 295.5,-10"/>
<text text-anchor="start" x="319.2812" y="-15.4" font-family="sans-serif" font-size="14.00" fill="#000000"> &#160;Bootstrap</text>
<polygon fill="#fdb462" stroke="transparent" points="392.5,-10 392.5,-30 412.5,-30 412.5,-10 392.5,-10"/>
<text text-anchor="start" x="416.1732" y="-15.4" font-family="sans-serif" font-size="14.00" fill="#000000"> &#160;Providers</text>
<polygon fill="#fb8072" stroke="transparent" points="488.5,-10 488.5,-30 508.5,-30 508.5,-10 488.5,-10"/>
<text text-anchor="start" x="512.2258" y="-15.4" font-family="sans-serif" font-size="14.00" fill="#000000"> &#160;Exports</text>
<g id="clust1" class="cluster">
<title>cluster_DejaColorSelectorModule</title>
<polygon fill="none" stroke="#000000" stroke-dasharray="1,5" points="8,-70 8,-268 653,-268 653,-70 8,-70"/>
</g>
<g id="clust2" class="cluster">
<title>cluster_DejaColorSelectorModule_declarations</title>
<polygon fill="none" stroke="#000000" points="265,-78 265,-130 645,-130 645,-78 265,-78"/>
</g>
<g id="clust5" class="cluster">
<title>cluster_DejaColorSelectorModule_imports</title>
<polygon fill="none" stroke="#000000" points="16,-78 16,-130 257,-130 257,-78 16,-78"/>
</g>
<g id="clust6" class="cluster">
<title>cluster_DejaColorSelectorModule_exports</title>
<polygon fill="none" stroke="#000000" points="98,-208 98,-260 486,-260 486,-208 98,-208"/>
</g>
<!-- DejaColorSelectorComponent -->
<g id="node1" class="node">
<title>DejaColorSelectorComponent</title>
<polygon fill="#ffffb3" stroke="#000000" points="636.5154,-122 451.4846,-122 451.4846,-86 636.5154,-86 636.5154,-122"/>
<text text-anchor="middle" x="544" y="-99.8" font-family="Times,serif" font-size="14.00" fill="#000000">DejaColorSelectorComponent</text>
</g>
<!-- DejaColorSelectorModule -->
<g id="node3" class="node">
<title>DejaColorSelectorModule</title>
<polygon fill="#8dd3c7" stroke="#000000" points="351.7324,-187 348.7324,-191 327.7324,-191 324.7324,-187 188.2676,-187 188.2676,-151 351.7324,-151 351.7324,-187"/>
<text text-anchor="middle" x="270" y="-164.8" font-family="Times,serif" font-size="14.00" fill="#000000">DejaColorSelectorModule</text>
</g>
<!-- DejaColorSelectorComponent&#45;&gt;DejaColorSelectorModule -->
<g id="edge1" class="edge">
<title>DejaColorSelectorComponent&#45;&gt;DejaColorSelectorModule</title>
<path fill="none" stroke="#000000" d="M464.375,-122.1061C464.375,-141.3391 464.375,-169 464.375,-169 464.375,-169 361.8691,-169 361.8691,-169"/>
<polygon fill="#000000" stroke="#000000" points="361.8692,-165.5001 351.8691,-169 361.8691,-172.5001 361.8692,-165.5001"/>
</g>
<!-- DejaColorFabComponent -->
<g id="node2" class="node">
<title>DejaColorFabComponent</title>
<polygon fill="#ffffb3" stroke="#000000" points="433.1442,-122 272.8558,-122 272.8558,-86 433.1442,-86 433.1442,-122"/>
<text text-anchor="middle" x="353" y="-99.8" font-family="Times,serif" font-size="14.00" fill="#000000">DejaColorFabComponent</text>
</g>
<!-- DejaColorFabComponent&#45;&gt;DejaColorSelectorModule -->
<g id="edge2" class="edge">
<title>DejaColorFabComponent&#45;&gt;DejaColorSelectorModule</title>
<path fill="none" stroke="#000000" d="M312.2721,-122.1061C312.2721,-122.1061 312.2721,-140.991 312.2721,-140.991"/>
<polygon fill="#000000" stroke="#000000" points="308.7722,-140.9909 312.2721,-150.991 315.7722,-140.991 308.7722,-140.9909"/>
</g>
<!-- DejaColorSelectorComponent  -->
<g id="node6" class="node">
<title>DejaColorSelectorComponent </title>
<polygon fill="#fb8072" stroke="#000000" points="477.5148,-252 288.4852,-252 288.4852,-216 477.5148,-216 477.5148,-252"/>
<text text-anchor="middle" x="383" y="-229.8" font-family="Times,serif" font-size="14.00" fill="#000000">DejaColorSelectorComponent </text>
</g>
<!-- DejaColorSelectorModule&#45;&gt;DejaColorSelectorComponent  -->
<g id="edge5" class="edge">
<title>DejaColorSelectorModule&#45;&gt;DejaColorSelectorComponent </title>
<path fill="none" stroke="#000000" stroke-dasharray="5,2" d="M320.1794,-187.1061C320.1794,-187.1061 320.1794,-205.991 320.1794,-205.991"/>
<polygon fill="#000000" stroke="#000000" points="316.6794,-205.9909 320.1794,-215.991 323.6794,-205.991 316.6794,-205.9909"/>
</g>
<!-- DejaColorFabComponent  -->
<g id="node7" class="node">
<title>DejaColorFabComponent </title>
<polygon fill="#fb8072" stroke="#000000" points="270.1439,-252 105.8561,-252 105.8561,-216 270.1439,-216 270.1439,-252"/>
<text text-anchor="middle" x="188" y="-229.8" font-family="Times,serif" font-size="14.00" fill="#000000">DejaColorFabComponent </text>
</g>
<!-- DejaColorSelectorModule&#45;&gt;DejaColorFabComponent  -->
<g id="edge6" class="edge">
<title>DejaColorSelectorModule&#45;&gt;DejaColorFabComponent </title>
<path fill="none" stroke="#000000" stroke-dasharray="5,2" d="M229.1029,-187.1061C229.1029,-187.1061 229.1029,-205.991 229.1029,-205.991"/>
<polygon fill="#000000" stroke="#000000" points="225.603,-205.9909 229.1029,-215.991 232.603,-205.991 225.603,-205.9909"/>
</g>
<!-- CommonModule -->
<g id="node4" class="node">
<title>CommonModule</title>
<polygon fill="#8dd3c7" stroke="#000000" points="248.6681,-122 245.6681,-126 224.6681,-126 221.6681,-122 137.3319,-122 137.3319,-86 248.6681,-86 248.6681,-122"/>
<text text-anchor="middle" x="193" y="-99.8" font-family="Times,serif" font-size="14.00" fill="#000000">CommonModule</text>
</g>
<!-- CommonModule&#45;&gt;DejaColorSelectorModule -->
<g id="edge3" class="edge">
<title>CommonModule&#45;&gt;DejaColorSelectorModule</title>
<path fill="none" stroke="#000000" d="M218.4839,-122.1061C218.4839,-122.1061 218.4839,-140.991 218.4839,-140.991"/>
<polygon fill="#000000" stroke="#000000" points="214.9839,-140.9909 218.4839,-150.991 221.9839,-140.991 214.9839,-140.9909"/>
</g>
<!-- FormsModule -->
<g id="node5" class="node">
<title>FormsModule</title>
<polygon fill="#8dd3c7" stroke="#000000" points="119.8288,-122 116.8288,-126 95.8288,-126 92.8288,-122 24.1712,-122 24.1712,-86 119.8288,-86 119.8288,-122"/>
<text text-anchor="middle" x="72" y="-99.8" font-family="Times,serif" font-size="14.00" fill="#000000">FormsModule</text>
</g>
<!-- FormsModule&#45;&gt;DejaColorSelectorModule -->
<g id="edge4" class="edge">
<title>FormsModule&#45;&gt;DejaColorSelectorModule</title>
<path fill="none" stroke="#000000" d="M112.7961,-122.1061C112.7961,-141.3391 112.7961,-169 112.7961,-169 112.7961,-169 178.1749,-169 178.1749,-169"/>
<polygon fill="#000000" stroke="#000000" points="178.175,-172.5001 188.1749,-169 178.1749,-165.5001 178.175,-172.5001"/>
</g>
</g>
</svg>
