<?xml version="1.0" encoding="UTF-8" standalone="no"?>
<!DOCTYPE svg PUBLIC "-//W3C//DTD SVG 1.1//EN"
 "http://www.w3.org/Graphics/SVG/1.1/DTD/svg11.dtd">
<!-- Generated by graphviz version 2.40.1 (20161225.0304)
 -->
<!-- Title: dependencies Pages: 1 -->
<svg width="628pt" height="284pt"
 viewBox="0.00 0.00 628.00 284.00" xmlns="http://www.w3.org/2000/svg" xmlns:xlink="http://www.w3.org/1999/xlink">
<g id="graph0" class="graph" transform="scale(1 1) rotate(0) translate(4 280)">
<title>dependencies</title>
<polygon fill="#ffffff" stroke="transparent" points="-4,4 -4,-280 624,-280 624,4 -4,4"/>
<text text-anchor="start" x="289.0091" y="-42.4" font-family="sans-serif" font-weight="bold" font-size="14.00" fill="#000000">Legend</text>
<polygon fill="#ffffb3" stroke="transparent" points="76,-10 76,-30 96,-30 96,-10 76,-10"/>
<text text-anchor="start" x="99.629" y="-15.4" font-family="sans-serif" font-size="14.00" fill="#000000"> &#160;Declarations</text>
<polygon fill="#8dd3c7" stroke="transparent" points="189,-10 189,-30 209,-30 209,-10 189,-10"/>
<text text-anchor="start" x="212.7251" y="-15.4" font-family="sans-serif" font-size="14.00" fill="#000000"> &#160;Module</text>
<polygon fill="#80b1d3" stroke="transparent" points="275,-10 275,-30 295,-30 295,-10 275,-10"/>
<text text-anchor="start" x="298.7812" y="-15.4" font-family="sans-serif" font-size="14.00" fill="#000000"> &#160;Bootstrap</text>
<polygon fill="#fdb462" stroke="transparent" points="372,-10 372,-30 392,-30 392,-10 372,-10"/>
<text text-anchor="start" x="395.6732" y="-15.4" font-family="sans-serif" font-size="14.00" fill="#000000"> &#160;Providers</text>
<polygon fill="#fb8072" stroke="transparent" points="468,-10 468,-30 488,-30 488,-10 468,-10"/>
<text text-anchor="start" x="491.7258" y="-15.4" font-family="sans-serif" font-size="14.00" fill="#000000"> &#160;Exports</text>
<g id="clust1" class="cluster">
<title>cluster_DejaSplitterModule</title>
<polygon fill="none" stroke="#000000" stroke-dasharray="1,5" points="8,-70 8,-268 612,-268 612,-70 8,-70"/>
</g>
<g id="clust2" class="cluster">
<title>cluster_DejaSplitterModule_declarations</title>
<polygon fill="none" stroke="#000000" points="152,-78 152,-130 604,-130 604,-78 152,-78"/>
</g>
<g id="clust6" class="cluster">
<title>cluster_DejaSplitterModule_imports</title>
<polygon fill="none" stroke="#000000" points="16,-78 16,-130 144,-130 144,-78 16,-78"/>
</g>
<g id="clust7" class="cluster">
<title>cluster_DejaSplitterModule_exports</title>
<polygon fill="none" stroke="#000000" points="78,-208 78,-260 542,-260 542,-208 78,-208"/>
</g>
<!-- DejaSplitterComponent -->
<g id="node1" class="node">
<title>DejaSplitterComponent</title>
<polygon fill="#ffffb3" stroke="#000000" points="596.479,-122 447.521,-122 447.521,-86 596.479,-86 596.479,-122"/>
<text text-anchor="middle" x="522" y="-99.8" font-family="Times,serif" font-size="14.00" fill="#000000">DejaSplitterComponent</text>
</g>
<!-- DejaSplitterModule -->
<g id="node4" class="node">
<title>DejaSplitterModule</title>
<polygon fill="#8dd3c7" stroke="#000000" points="364.6966,-187 361.6966,-191 340.6966,-191 337.6966,-187 237.3034,-187 237.3034,-151 364.6966,-151 364.6966,-187"/>
<text text-anchor="middle" x="301" y="-164.8" font-family="Times,serif" font-size="14.00" fill="#000000">DejaSplitterModule</text>
</g>
<!-- DejaSplitterComponent&#45;&gt;DejaSplitterModule -->
<g id="edge1" class="edge">
<title>DejaSplitterComponent&#45;&gt;DejaSplitterModule</title>
<path fill="none" stroke="#000000" d="M490.875,-122.0225C490.875,-139.3734 490.875,-163 490.875,-163 490.875,-163 374.7538,-163 374.7538,-163"/>
<polygon fill="#000000" stroke="#000000" points="374.7539,-159.5001 364.7538,-163 374.7538,-166.5001 374.7539,-159.5001"/>
</g>
<!-- SplitAreaDirective -->
<g id="node2" class="node">
<title>SplitAreaDirective</title>
<polygon fill="#ffffb3" stroke="#000000" points="429.7339,-122 308.2661,-122 308.2661,-86 429.7339,-86 429.7339,-122"/>
<text text-anchor="middle" x="369" y="-99.8" font-family="Times,serif" font-size="14.00" fill="#000000">SplitAreaDirective</text>
</g>
<!-- SplitAreaDirective&#45;&gt;DejaSplitterModule -->
<g id="edge2" class="edge">
<title>SplitAreaDirective&#45;&gt;DejaSplitterModule</title>
<path fill="none" stroke="#000000" d="M336.3657,-122.1061C336.3657,-122.1061 336.3657,-140.991 336.3657,-140.991"/>
<polygon fill="#000000" stroke="#000000" points="332.8658,-140.9909 336.3657,-150.991 339.8658,-140.991 332.8658,-140.9909"/>
</g>
<!-- SplitGutterDirective -->
<g id="node3" class="node">
<title>SplitGutterDirective</title>
<polygon fill="#ffffb3" stroke="#000000" points="290.3005,-122 159.6995,-122 159.6995,-86 290.3005,-86 290.3005,-122"/>
<text text-anchor="middle" x="225" y="-99.8" font-family="Times,serif" font-size="14.00" fill="#000000">SplitGutterDirective</text>
</g>
<!-- SplitGutterDirective&#45;&gt;DejaSplitterModule -->
<g id="edge3" class="edge">
<title>SplitGutterDirective&#45;&gt;DejaSplitterModule</title>
<path fill="none" stroke="#000000" d="M263.7759,-122.1061C263.7759,-122.1061 263.7759,-140.991 263.7759,-140.991"/>
<polygon fill="#000000" stroke="#000000" points="260.276,-140.9909 263.7759,-150.991 267.276,-140.991 260.276,-140.9909"/>
</g>
<!-- DejaSplitterComponent  -->
<g id="node6" class="node">
<title>DejaSplitterComponent </title>
<polygon fill="#fb8072" stroke="#000000" points="534.4798,-252 381.5202,-252 381.5202,-216 534.4798,-216 534.4798,-252"/>
<text text-anchor="middle" x="458" y="-229.8" font-family="Times,serif" font-size="14.00" fill="#000000">DejaSplitterComponent </text>
</g>
<!-- DejaSplitterModule&#45;&gt;DejaSplitterComponent  -->
<g id="edge5" class="edge">
<title>DejaSplitterModule&#45;&gt;DejaSplitterComponent </title>
<path fill="none" stroke="#000000" stroke-dasharray="5,2" d="M364.6893,-175C386.6373,-175 405.8137,-175 405.8137,-175 405.8137,-175 405.8137,-205.9775 405.8137,-205.9775"/>
<polygon fill="#000000" stroke="#000000" points="402.3137,-205.9774 405.8137,-215.9775 409.3137,-205.9775 402.3137,-205.9774"/>
</g>
<!-- SplitAreaDirective  -->
<g id="node7" class="node">
<title>SplitAreaDirective </title>
<polygon fill="#fb8072" stroke="#000000" points="363.7338,-252 238.2662,-252 238.2662,-216 363.7338,-216 363.7338,-252"/>
<text text-anchor="middle" x="301" y="-229.8" font-family="Times,serif" font-size="14.00" fill="#000000">SplitAreaDirective </text>
</g>
<!-- DejaSplitterModule&#45;&gt;SplitAreaDirective  -->
<g id="edge6" class="edge">
<title>DejaSplitterModule&#45;&gt;SplitAreaDirective </title>
<path fill="none" stroke="#000000" stroke-dasharray="5,2" d="M301,-187.1061C301,-187.1061 301,-205.991 301,-205.991"/>
<polygon fill="#000000" stroke="#000000" points="297.5001,-205.9909 301,-215.991 304.5001,-205.991 297.5001,-205.9909"/>
</g>
<!-- SplitGutterDirective  -->
<g id="node8" class="node">
<title>SplitGutterDirective </title>
<polygon fill="#fb8072" stroke="#000000" points="219.8003,-252 86.1997,-252 86.1997,-216 219.8003,-216 219.8003,-252"/>
<text text-anchor="middle" x="153" y="-229.8" font-family="Times,serif" font-size="14.00" fill="#000000">SplitGutterDirective </text>
</g>
<!-- DejaSplitterModule&#45;&gt;SplitGutterDirective  -->
<g id="edge7" class="edge">
<title>DejaSplitterModule&#45;&gt;SplitGutterDirective </title>
<path fill="none" stroke="#000000" stroke-dasharray="5,2" d="M237.3243,-175C212.4952,-175 189.875,-175 189.875,-175 189.875,-175 189.875,-205.9775 189.875,-205.9775"/>
<polygon fill="#000000" stroke="#000000" points="186.3751,-205.9774 189.875,-215.9775 193.3751,-205.9775 186.3751,-205.9774"/>
</g>
<!-- CommonModule -->
<g id="node5" class="node">
<title>CommonModule</title>
<polygon fill="#8dd3c7" stroke="#000000" points="135.6681,-122 132.6681,-126 111.6681,-126 108.6681,-122 24.3319,-122 24.3319,-86 135.6681,-86 135.6681,-122"/>
<text text-anchor="middle" x="80" y="-99.8" font-family="Times,serif" font-size="14.00" fill="#000000">CommonModule</text>
</g>
<!-- CommonModule&#45;&gt;DejaSplitterModule -->
<g id="edge4" class="edge">
<title>CommonModule&#45;&gt;DejaSplitterModule</title>
<path fill="none" stroke="#000000" d="M110.9669,-122.0225C110.9669,-139.3734 110.9669,-163 110.9669,-163 110.9669,-163 227.1931,-163 227.1931,-163"/>
<polygon fill="#000000" stroke="#000000" points="227.1931,-166.5001 237.1931,-163 227.193,-159.5001 227.1931,-166.5001"/>
</g>
</g>
</svg>
