<?xml version="1.0" encoding="UTF-8" standalone="no"?>
<!DOCTYPE svg PUBLIC "-//W3C//DTD SVG 1.1//EN"
 "http://www.w3.org/Graphics/SVG/1.1/DTD/svg11.dtd">
<!-- Generated by graphviz version 2.40.1 (20161225.0304)
 -->
<!-- Title: dependencies Pages: 1 -->
<svg width="1681pt" height="284pt"
 viewBox="0.00 0.00 1681.00 284.00" xmlns="http://www.w3.org/2000/svg" xmlns:xlink="http://www.w3.org/1999/xlink">
<g id="graph0" class="graph" transform="scale(1 1) rotate(0) translate(4 280)">
<title>dependencies</title>
<polygon fill="#ffffff" stroke="transparent" points="-4,4 -4,-280 1677,-280 1677,4 -4,4"/>
<text text-anchor="start" x="815.5091" y="-42.4" font-family="sans-serif" font-weight="bold" font-size="14.00" fill="#000000">Legend</text>
<polygon fill="#ffffb3" stroke="transparent" points="602.5,-10 602.5,-30 622.5,-30 622.5,-10 602.5,-10"/>
<text text-anchor="start" x="626.129" y="-15.4" font-family="sans-serif" font-size="14.00" fill="#000000"> &#160;Declarations</text>
<polygon fill="#8dd3c7" stroke="transparent" points="715.5,-10 715.5,-30 735.5,-30 735.5,-10 715.5,-10"/>
<text text-anchor="start" x="739.2251" y="-15.4" font-family="sans-serif" font-size="14.00" fill="#000000"> &#160;Module</text>
<polygon fill="#80b1d3" stroke="transparent" points="801.5,-10 801.5,-30 821.5,-30 821.5,-10 801.5,-10"/>
<text text-anchor="start" x="825.2812" y="-15.4" font-family="sans-serif" font-size="14.00" fill="#000000"> &#160;Bootstrap</text>
<polygon fill="#fdb462" stroke="transparent" points="898.5,-10 898.5,-30 918.5,-30 918.5,-10 898.5,-10"/>
<text text-anchor="start" x="922.1732" y="-15.4" font-family="sans-serif" font-size="14.00" fill="#000000"> &#160;Providers</text>
<polygon fill="#fb8072" stroke="transparent" points="994.5,-10 994.5,-30 1014.5,-30 1014.5,-10 994.5,-10"/>
<text text-anchor="start" x="1018.2258" y="-15.4" font-family="sans-serif" font-size="14.00" fill="#000000"> &#160;Exports</text>
<g id="clust1" class="cluster">
<title>cluster_DejaDatePickerModule</title>
<polygon fill="none" stroke="#000000" stroke-dasharray="1,5" points="8,-70 8,-268 1665,-268 1665,-70 8,-70"/>
</g>
<g id="clust2" class="cluster">
<title>cluster_DejaDatePickerModule_declarations</title>
<polygon fill="none" stroke="#000000" points="1471,-78 1471,-130 1657,-130 1657,-78 1471,-78"/>
</g>
<g id="clust4" class="cluster">
<title>cluster_DejaDatePickerModule_imports</title>
<polygon fill="none" stroke="#000000" points="16,-78 16,-130 1463,-130 1463,-78 16,-78"/>
</g>
<g id="clust5" class="cluster">
<title>cluster_DejaDatePickerModule_exports</title>
<polygon fill="none" stroke="#000000" points="810,-208 810,-260 1000,-260 1000,-208 810,-208"/>
</g>
<!-- DejaDatePickerComponent -->
<g id="node1" class="node">
<title>DejaDatePickerComponent</title>
<polygon fill="#ffffb3" stroke="#000000" points="1648.9482,-122 1479.0518,-122 1479.0518,-86 1648.9482,-86 1648.9482,-122"/>
<text text-anchor="middle" x="1564" y="-99.8" font-family="Times,serif" font-size="14.00" fill="#000000">DejaDatePickerComponent</text>
</g>
<!-- DejaDatePickerModule -->
<g id="node2" class="node">
<title>DejaDatePickerModule</title>
<polygon fill="#8dd3c7" stroke="#000000" points="979.1657,-187 976.1657,-191 955.1657,-191 952.1657,-187 830.8343,-187 830.8343,-151 979.1657,-151 979.1657,-187"/>
<text text-anchor="middle" x="905" y="-164.8" font-family="Times,serif" font-size="14.00" fill="#000000">DejaDatePickerModule</text>
</g>
<!-- DejaDatePickerComponent&#45;&gt;DejaDatePickerModule -->
<g id="edge1" class="edge">
<title>DejaDatePickerComponent&#45;&gt;DejaDatePickerModule</title>
<path fill="none" stroke="#000000" d="M1564,-122.2479C1564,-145.0179 1564,-181 1564,-181 1564,-181 989.3147,-181 989.3147,-181"/>
<polygon fill="#000000" stroke="#000000" points="989.3147,-177.5001 979.3147,-181 989.3146,-184.5001 989.3147,-177.5001"/>
</g>
<!-- DejaDatePickerComponent  -->
<g id="node13" class="node">
<title>DejaDatePickerComponent </title>
<polygon fill="#fb8072" stroke="#000000" points="991.9488,-252 818.0512,-252 818.0512,-216 991.9488,-216 991.9488,-252"/>
<text text-anchor="middle" x="905" y="-229.8" font-family="Times,serif" font-size="14.00" fill="#000000">DejaDatePickerComponent </text>
</g>
<!-- DejaDatePickerModule&#45;&gt;DejaDatePickerComponent  -->
<g id="edge12" class="edge">
<title>DejaDatePickerModule&#45;&gt;DejaDatePickerComponent </title>
<path fill="none" stroke="#000000" stroke-dasharray="5,2" d="M905,-187.1061C905,-187.1061 905,-205.991 905,-205.991"/>
<polygon fill="#000000" stroke="#000000" points="901.5001,-205.9909 905,-215.991 908.5001,-205.991 901.5001,-205.9909"/>
</g>
<!-- CommonModule -->
<g id="node3" class="node">
<title>CommonModule</title>
<polygon fill="#8dd3c7" stroke="#000000" points="1454.6681,-122 1451.6681,-126 1430.6681,-126 1427.6681,-122 1343.3319,-122 1343.3319,-86 1454.6681,-86 1454.6681,-122"/>
<text text-anchor="middle" x="1399" y="-99.8" font-family="Times,serif" font-size="14.00" fill="#000000">CommonModule</text>
</g>
<!-- CommonModule&#45;&gt;DejaDatePickerModule -->
<g id="edge2" class="edge">
<title>CommonModule&#45;&gt;DejaDatePickerModule</title>
<path fill="none" stroke="#000000" d="M1399,-122.2843C1399,-143.3211 1399,-175 1399,-175 1399,-175 989.224,-175 989.224,-175"/>
<polygon fill="#000000" stroke="#000000" points="989.2241,-171.5001 979.224,-175 989.224,-178.5001 989.2241,-171.5001"/>
</g>
<!-- FormsModule -->
<g id="node4" class="node">
<title>FormsModule</title>
<polygon fill="#8dd3c7" stroke="#000000" points="1325.8288,-122 1322.8288,-126 1301.8288,-126 1298.8288,-122 1230.1712,-122 1230.1712,-86 1325.8288,-86 1325.8288,-122"/>
<text text-anchor="middle" x="1278" y="-99.8" font-family="Times,serif" font-size="14.00" fill="#000000">FormsModule</text>
</g>
<!-- FormsModule&#45;&gt;DejaDatePickerModule -->
<g id="edge3" class="edge">
<title>FormsModule&#45;&gt;DejaDatePickerModule</title>
<path fill="none" stroke="#000000" d="M1278,-122.1061C1278,-141.3391 1278,-169 1278,-169 1278,-169 989.1388,-169 989.1388,-169"/>
<polygon fill="#000000" stroke="#000000" points="989.1388,-165.5001 979.1388,-169 989.1387,-172.5001 989.1388,-165.5001"/>
</g>
<!-- MdIconModule -->
<g id="node5" class="node">
<title>MdIconModule</title>
<polygon fill="#8dd3c7" stroke="#000000" points="1211.8697,-122 1208.8697,-126 1187.8697,-126 1184.8697,-122 1108.1303,-122 1108.1303,-86 1211.8697,-86 1211.8697,-122"/>
<text text-anchor="middle" x="1160" y="-99.8" font-family="Times,serif" font-size="14.00" fill="#000000">MdIconModule</text>
</g>
<!-- MdIconModule&#45;&gt;DejaDatePickerModule -->
<g id="edge4" class="edge">
<title>MdIconModule&#45;&gt;DejaDatePickerModule</title>
<path fill="none" stroke="#000000" d="M1160,-122.0225C1160,-139.3734 1160,-163 1160,-163 1160,-163 989.0991,-163 989.0991,-163"/>
<polygon fill="#000000" stroke="#000000" points="989.0991,-159.5001 979.0991,-163 989.0991,-166.5001 989.0991,-159.5001"/>
</g>
<!-- MdInputModule -->
<g id="node6" class="node">
<title>MdInputModule</title>
<polygon fill="#8dd3c7" stroke="#000000" points="1090.0465,-122 1087.0465,-126 1066.0465,-126 1063.0465,-122 981.9535,-122 981.9535,-86 1090.0465,-86 1090.0465,-122"/>
<text text-anchor="middle" x="1036" y="-99.8" font-family="Times,serif" font-size="14.00" fill="#000000">MdInputModule</text>
</g>
<!-- MdInputModule&#45;&gt;DejaDatePickerModule -->
<g id="edge5" class="edge">
<title>MdInputModule&#45;&gt;DejaDatePickerModule</title>
<path fill="none" stroke="#000000" d="M986.7257,-122.2396C986.7257,-137.5706 986.7257,-157 986.7257,-157 986.7257,-157 985.9714,-157 985.9714,-157"/>
<polygon fill="#000000" stroke="#000000" points="989.1836,-153.5001 979.1836,-157 989.1835,-160.5001 989.1836,-153.5001"/>
</g>
<!-- MdButtonModule -->
<g id="node7" class="node">
<title>MdButtonModule</title>
<polygon fill="#8dd3c7" stroke="#000000" points="963.6123,-122 960.6123,-126 939.6123,-126 936.6123,-122 846.3877,-122 846.3877,-86 963.6123,-86 963.6123,-122"/>
<text text-anchor="middle" x="905" y="-99.8" font-family="Times,serif" font-size="14.00" fill="#000000">MdButtonModule</text>
</g>
<!-- MdButtonModule&#45;&gt;DejaDatePickerModule -->
<g id="edge6" class="edge">
<title>MdButtonModule&#45;&gt;DejaDatePickerModule</title>
<path fill="none" stroke="#000000" d="M905,-122.1061C905,-122.1061 905,-140.991 905,-140.991"/>
<polygon fill="#000000" stroke="#000000" points="901.5001,-140.9909 905,-150.991 908.5001,-140.991 901.5001,-140.9909"/>
</g>
<!-- DejaBackdropModule -->
<g id="node8" class="node">
<title>DejaBackdropModule</title>
<polygon fill="#8dd3c7" stroke="#000000" points="828.4032,-122 825.4032,-126 804.4032,-126 801.4032,-122 687.5968,-122 687.5968,-86 828.4032,-86 828.4032,-122"/>
<text text-anchor="middle" x="758" y="-99.8" font-family="Times,serif" font-size="14.00" fill="#000000">DejaBackdropModule</text>
</g>
<!-- DejaBackdropModule&#45;&gt;DejaDatePickerModule -->
<g id="edge7" class="edge">
<title>DejaBackdropModule&#45;&gt;DejaDatePickerModule</title>
<path fill="none" stroke="#000000" d="M823.2386,-122.2396C823.2386,-137.5706 823.2386,-157 823.2386,-157 823.2386,-157 823.9931,-157 823.9931,-157"/>
<polygon fill="#000000" stroke="#000000" points="820.784,-160.5001 830.784,-157 820.7839,-153.5001 820.784,-160.5001"/>
</g>
<!-- DejaCircularPickerModule -->
<g id="node9" class="node">
<title>DejaCircularPickerModule</title>
<polygon fill="#8dd3c7" stroke="#000000" points="669.6079,-122 666.6079,-126 645.6079,-126 642.6079,-122 502.3921,-122 502.3921,-86 669.6079,-86 669.6079,-122"/>
<text text-anchor="middle" x="586" y="-99.8" font-family="Times,serif" font-size="14.00" fill="#000000">DejaCircularPickerModule</text>
</g>
<!-- DejaCircularPickerModule&#45;&gt;DejaDatePickerModule -->
<g id="edge8" class="edge">
<title>DejaCircularPickerModule&#45;&gt;DejaDatePickerModule</title>
<path fill="none" stroke="#000000" d="M586,-122.0225C586,-139.3734 586,-163 586,-163 586,-163 820.6113,-163 820.6113,-163"/>
<polygon fill="#000000" stroke="#000000" points="820.6113,-166.5001 830.6113,-163 820.6112,-159.5001 820.6113,-166.5001"/>
</g>
<!-- DejaDateSelectorModule -->
<g id="node10" class="node">
<title>DejaDateSelectorModule</title>
<polygon fill="#8dd3c7" stroke="#000000" points="484.271,-122 481.271,-126 460.271,-126 457.271,-122 325.729,-122 325.729,-86 484.271,-86 484.271,-122"/>
<text text-anchor="middle" x="405" y="-99.8" font-family="Times,serif" font-size="14.00" fill="#000000">DejaDateSelectorModule</text>
</g>
<!-- DejaDateSelectorModule&#45;&gt;DejaDatePickerModule -->
<g id="edge9" class="edge">
<title>DejaDateSelectorModule&#45;&gt;DejaDatePickerModule</title>
<path fill="none" stroke="#000000" d="M405,-122.1061C405,-141.3391 405,-169 405,-169 405,-169 820.6848,-169 820.6848,-169"/>
<polygon fill="#000000" stroke="#000000" points="820.6849,-172.5001 830.6848,-169 820.6848,-165.5001 820.6849,-172.5001"/>
</g>
<!-- DejaDropDownModule -->
<g id="node11" class="node">
<title>DejaDropDownModule</title>
<polygon fill="#8dd3c7" stroke="#000000" points="307.4566,-122 304.4566,-126 283.4566,-126 280.4566,-122 158.5434,-122 158.5434,-86 307.4566,-86 307.4566,-122"/>
<text text-anchor="middle" x="233" y="-99.8" font-family="Times,serif" font-size="14.00" fill="#000000">DejaDropDownModule</text>
</g>
<!-- DejaDropDownModule&#45;&gt;DejaDatePickerModule -->
<g id="edge10" class="edge">
<title>DejaDropDownModule&#45;&gt;DejaDatePickerModule</title>
<path fill="none" stroke="#000000" d="M233,-122.2843C233,-143.3211 233,-175 233,-175 233,-175 820.8396,-175 820.8396,-175"/>
<polygon fill="#000000" stroke="#000000" points="820.8396,-178.5001 830.8396,-175 820.8396,-171.5001 820.8396,-178.5001"/>
</g>
<!-- TextMaskModule -->
<g id="node12" class="node">
<title>TextMaskModule</title>
<polygon fill="#8dd3c7" stroke="#000000" points="140.3118,-122 137.3118,-126 116.3118,-126 113.3118,-122 23.6882,-122 23.6882,-86 140.3118,-86 140.3118,-122"/>
<text text-anchor="middle" x="82" y="-99.8" font-family="Times,serif" font-size="14.00" fill="#000000">TextMaskModule</text>
</g>
<!-- TextMaskModule&#45;&gt;DejaDatePickerModule -->
<g id="edge11" class="edge">
<title>TextMaskModule&#45;&gt;DejaDatePickerModule</title>
<path fill="none" stroke="#000000" d="M82,-122.2479C82,-145.0179 82,-181 82,-181 82,-181 820.8767,-181 820.8767,-181"/>
<polygon fill="#000000" stroke="#000000" points="820.8767,-184.5001 830.8767,-181 820.8767,-177.5001 820.8767,-184.5001"/>
</g>
</g>
</svg>
