<?xml version="1.0" encoding="UTF-8" standalone="no"?>
<!DOCTYPE svg PUBLIC "-//W3C//DTD SVG 1.1//EN"
 "http://www.w3.org/Graphics/SVG/1.1/DTD/svg11.dtd">
<!-- Generated by graphviz version 2.40.1 (20161225.0304)
 -->
<!-- Title: dependencies Pages: 1 -->
<svg width="746pt" height="349pt"
 viewBox="0.00 0.00 746.00 349.00" xmlns="http://www.w3.org/2000/svg" xmlns:xlink="http://www.w3.org/1999/xlink">
<g id="graph0" class="graph" transform="scale(1 1) rotate(0) translate(4 345)">
<title>dependencies</title>
<polygon fill="#ffffff" stroke="transparent" points="-4,4 -4,-345 742,-345 742,4 -4,4"/>
<text text-anchor="start" x="348.0091" y="-42.4" font-family="sans-serif" font-weight="bold" font-size="14.00" fill="#000000">Legend</text>
<polygon fill="#ffffb3" stroke="transparent" points="135,-10 135,-30 155,-30 155,-10 135,-10"/>
<text text-anchor="start" x="158.629" y="-15.4" font-family="sans-serif" font-size="14.00" fill="#000000"> &#160;Declarations</text>
<polygon fill="#8dd3c7" stroke="transparent" points="248,-10 248,-30 268,-30 268,-10 248,-10"/>
<text text-anchor="start" x="271.7251" y="-15.4" font-family="sans-serif" font-size="14.00" fill="#000000"> &#160;Module</text>
<polygon fill="#80b1d3" stroke="transparent" points="334,-10 334,-30 354,-30 354,-10 334,-10"/>
<text text-anchor="start" x="357.7812" y="-15.4" font-family="sans-serif" font-size="14.00" fill="#000000"> &#160;Bootstrap</text>
<polygon fill="#fdb462" stroke="transparent" points="431,-10 431,-30 451,-30 451,-10 431,-10"/>
<text text-anchor="start" x="454.6732" y="-15.4" font-family="sans-serif" font-size="14.00" fill="#000000"> &#160;Providers</text>
<polygon fill="#fb8072" stroke="transparent" points="527,-10 527,-30 547,-30 547,-10 527,-10"/>
<text text-anchor="start" x="550.7258" y="-15.4" font-family="sans-serif" font-size="14.00" fill="#000000"> &#160;Exports</text>
<g id="clust1" class="cluster">
<title>cluster_DejaDatePickerModule</title>
<polygon fill="none" stroke="#000000" stroke-dasharray="1,5" points="8,-70 8,-333 730,-333 730,-70 8,-70"/>
</g>
<g id="clust2" class="cluster">
<title>cluster_DejaDatePickerModule_declarations</title>
<polygon fill="none" stroke="#000000" points="536,-143 536,-195 722,-195 722,-143 536,-143"/>
</g>
<g id="clust3" class="cluster">
<title>cluster_DejaDatePickerModule_DejaDatePickerComponent_providers</title>
<polygon fill="none" stroke="#000000" points="92,-78 92,-130 722,-130 722,-78 92,-78"/>
</g>
<g id="clust4" class="cluster">
<title>cluster_DejaDatePickerModule_imports</title>
<polygon fill="none" stroke="#000000" points="16,-143 16,-195 528,-195 528,-143 16,-143"/>
</g>
<g id="clust5" class="cluster">
<title>cluster_DejaDatePickerModule_exports</title>
<polygon fill="none" stroke="#000000" points="249,-273 249,-325 439,-325 439,-273 249,-273"/>
</g>
<!-- DejaDatePickerComponent -->
<g id="node1" class="node">
<title>DejaDatePickerComponent</title>
<polygon fill="#ffffb3" stroke="#000000" points="713.9482,-187 544.0518,-187 544.0518,-151 713.9482,-151 713.9482,-187"/>
<text text-anchor="middle" x="629" y="-164.8" font-family="Times,serif" font-size="14.00" fill="#000000">DejaDatePickerComponent</text>
</g>
<!-- DejaDatePickerModule -->
<g id="node2" class="node">
<title>DejaDatePickerModule</title>
<polygon fill="#8dd3c7" stroke="#000000" points="418.1657,-252 415.1657,-256 394.1657,-256 391.1657,-252 269.8343,-252 269.8343,-216 418.1657,-216 418.1657,-252"/>
<text text-anchor="middle" x="344" y="-229.8" font-family="Times,serif" font-size="14.00" fill="#000000">DejaDatePickerModule</text>
</g>
<!-- DejaDatePickerComponent&#45;&gt;DejaDatePickerModule -->
<g id="edge1" class="edge">
<title>DejaDatePickerComponent&#45;&gt;DejaDatePickerModule</title>
<path fill="none" stroke="#000000" d="M629,-187.1061C629,-206.3391 629,-234 629,-234 629,-234 428.1364,-234 428.1364,-234"/>
<polygon fill="#000000" stroke="#000000" points="428.1364,-230.5001 418.1364,-234 428.1364,-237.5001 428.1364,-230.5001"/>
</g>
<!-- DejaDatePickerComponent  -->
<g id="node7" class="node">
<title>DejaDatePickerComponent </title>
<polygon fill="#fb8072" stroke="#000000" points="430.9488,-317 257.0512,-317 257.0512,-281 430.9488,-281 430.9488,-317"/>
<text text-anchor="middle" x="344" y="-294.8" font-family="Times,serif" font-size="14.00" fill="#000000">DejaDatePickerComponent </text>
</g>
<!-- DejaDatePickerModule&#45;&gt;DejaDatePickerComponent  -->
<g id="edge6" class="edge">
<title>DejaDatePickerModule&#45;&gt;DejaDatePickerComponent </title>
<path fill="none" stroke="#000000" stroke-dasharray="5,2" d="M344,-252.1061C344,-252.1061 344,-270.991 344,-270.991"/>
<polygon fill="#000000" stroke="#000000" points="340.5001,-270.9909 344,-280.991 347.5001,-270.991 340.5001,-270.9909"/>
</g>
<!-- { provide: MatFormFieldControl, useExisting: DejaDatePickerComponent } -->
<g id="node3" class="node">
<title>{ provide: MatFormFieldControl, useExisting: DejaDatePickerComponent }</title>
<ellipse fill="#fdb462" stroke="#000000" cx="407" cy="-104" rx="306.9935" ry="18"/>
<text text-anchor="middle" x="407" y="-99.8" font-family="Times,serif" font-size="14.00" fill="#000000">{ provide: MatFormFieldControl, useExisting: DejaDatePickerComponent }</text>
</g>
<!-- { provide: MatFormFieldControl, useExisting: DejaDatePickerComponent }&#45;&gt;DejaDatePickerComponent -->
<g id="edge2" class="edge">
<title>{ provide: MatFormFieldControl, useExisting: DejaDatePickerComponent }&#45;&gt;DejaDatePickerComponent</title>
<path fill="none" stroke="#000000" d="M628.8863,-116.5327C628.8863,-116.5327 628.8863,-140.8507 628.8863,-140.8507"/>
<polygon fill="#000000" stroke="#000000" points="625.3864,-140.8506 628.8863,-150.8507 632.3864,-140.8507 625.3864,-140.8506"/>
</g>
<!-- DejaChildValidatorModule -->
<g id="node4" class="node">
<title>DejaChildValidatorModule</title>
<polygon fill="#8dd3c7" stroke="#000000" points="519.9622,-187 516.9622,-191 495.9622,-191 492.9622,-187 350.0378,-187 350.0378,-151 519.9622,-151 519.9622,-187"/>
<text text-anchor="middle" x="435" y="-164.8" font-family="Times,serif" font-size="14.00" fill="#000000">DejaChildValidatorModule</text>
</g>
<!-- DejaChildValidatorModule&#45;&gt;DejaDatePickerModule -->
<g id="edge3" class="edge">
<title>DejaChildValidatorModule&#45;&gt;DejaDatePickerModule</title>
<path fill="none" stroke="#000000" d="M384.0509,-187.1061C384.0509,-187.1061 384.0509,-205.991 384.0509,-205.991"/>
<polygon fill="#000000" stroke="#000000" points="380.5509,-205.9909 384.0509,-215.991 387.5509,-205.991 380.5509,-205.9909"/>
</g>
<!-- DejaDateSelectorModule -->
<g id="node5" class="node">
<title>DejaDateSelectorModule</title>
<polygon fill="#8dd3c7" stroke="#000000" points="332.271,-187 329.271,-191 308.271,-191 305.271,-187 173.729,-187 173.729,-151 332.271,-151 332.271,-187"/>
<text text-anchor="middle" x="253" y="-164.8" font-family="Times,serif" font-size="14.00" fill="#000000">DejaDateSelectorModule</text>
</g>
<!-- DejaDateSelectorModule&#45;&gt;DejaDatePickerModule -->
<g id="edge4" class="edge">
<title>DejaDateSelectorModule&#45;&gt;DejaDatePickerModule</title>
<path fill="none" stroke="#000000" d="M301.0263,-187.1061C301.0263,-187.1061 301.0263,-205.991 301.0263,-205.991"/>
<polygon fill="#000000" stroke="#000000" points="297.5264,-205.9909 301.0263,-215.991 304.5264,-205.991 297.5264,-205.9909"/>
</g>
<!-- DejaOverlayModule -->
<g id="node6" class="node">
<title>DejaOverlayModule</title>
<polygon fill="#8dd3c7" stroke="#000000" points="155.5632,-187 152.5632,-191 131.5632,-191 128.5632,-187 24.4368,-187 24.4368,-151 155.5632,-151 155.5632,-187"/>
<text text-anchor="middle" x="90" y="-164.8" font-family="Times,serif" font-size="14.00" fill="#000000">DejaOverlayModule</text>
</g>
<!-- DejaOverlayModule&#45;&gt;DejaDatePickerModule -->
<g id="edge5" class="edge">
<title>DejaOverlayModule&#45;&gt;DejaDatePickerModule</title>
<path fill="none" stroke="#000000" d="M90,-187.1061C90,-206.3391 90,-234 90,-234 90,-234 259.8499,-234 259.8499,-234"/>
<polygon fill="#000000" stroke="#000000" points="259.8499,-237.5001 269.8499,-234 259.8498,-230.5001 259.8499,-237.5001"/>
</g>
</g>
</svg>
