<?xml version="1.0" encoding="UTF-8" standalone="no"?>
<!DOCTYPE svg PUBLIC "-//W3C//DTD SVG 1.1//EN"
 "http://www.w3.org/Graphics/SVG/1.1/DTD/svg11.dtd">
<!-- Generated by graphviz version 2.40.1 (20161225.0304)
 -->
<!-- Title: dependencies Pages: 1 -->
<svg width="932pt" height="284pt"
 viewBox="0.00 0.00 932.00 284.00" xmlns="http://www.w3.org/2000/svg" xmlns:xlink="http://www.w3.org/1999/xlink">
<g id="graph0" class="graph" transform="scale(1 1) rotate(0) translate(4 280)">
<title>dependencies</title>
<polygon fill="#ffffff" stroke="transparent" points="-4,4 -4,-280 928,-280 928,4 -4,4"/>
<text text-anchor="start" x="441.0091" y="-42.4" font-family="sans-serif" font-weight="bold" font-size="14.00" fill="#000000">Legend</text>
<polygon fill="#ffffb3" stroke="transparent" points="228,-10 228,-30 248,-30 248,-10 228,-10"/>
<text text-anchor="start" x="251.629" y="-15.4" font-family="sans-serif" font-size="14.00" fill="#000000"> &#160;Declarations</text>
<polygon fill="#8dd3c7" stroke="transparent" points="341,-10 341,-30 361,-30 361,-10 341,-10"/>
<text text-anchor="start" x="364.7251" y="-15.4" font-family="sans-serif" font-size="14.00" fill="#000000"> &#160;Module</text>
<polygon fill="#80b1d3" stroke="transparent" points="427,-10 427,-30 447,-30 447,-10 427,-10"/>
<text text-anchor="start" x="450.7812" y="-15.4" font-family="sans-serif" font-size="14.00" fill="#000000"> &#160;Bootstrap</text>
<polygon fill="#fdb462" stroke="transparent" points="524,-10 524,-30 544,-30 544,-10 524,-10"/>
<text text-anchor="start" x="547.6732" y="-15.4" font-family="sans-serif" font-size="14.00" fill="#000000"> &#160;Providers</text>
<polygon fill="#fb8072" stroke="transparent" points="620,-10 620,-30 640,-30 640,-10 620,-10"/>
<text text-anchor="start" x="643.7258" y="-15.4" font-family="sans-serif" font-size="14.00" fill="#000000"> &#160;Exports</text>
<g id="clust1" class="cluster">
<title>cluster_DejaDatePickerModule</title>
<polygon fill="none" stroke="#000000" stroke-dasharray="1,5" points="8,-70 8,-268 916,-268 916,-70 8,-70"/>
</g>
<g id="clust2" class="cluster">
<title>cluster_DejaDatePickerModule_declarations</title>
<polygon fill="none" stroke="#000000" points="722,-78 722,-130 908,-130 908,-78 722,-78"/>
</g>
<g id="clust4" class="cluster">
<title>cluster_DejaDatePickerModule_imports</title>
<polygon fill="none" stroke="#000000" points="16,-78 16,-130 714,-130 714,-78 16,-78"/>
</g>
<g id="clust5" class="cluster">
<title>cluster_DejaDatePickerModule_exports</title>
<polygon fill="none" stroke="#000000" points="339,-208 339,-260 529,-260 529,-208 339,-208"/>
</g>
<!-- DejaDatePickerComponent -->
<g id="node1" class="node">
<title>DejaDatePickerComponent</title>
<polygon fill="#ffffb3" stroke="#000000" points="899.9482,-122 730.0518,-122 730.0518,-86 899.9482,-86 899.9482,-122"/>
<text text-anchor="middle" x="815" y="-99.8" font-family="Times,serif" font-size="14.00" fill="#000000">DejaDatePickerComponent</text>
</g>
<!-- DejaDatePickerModule -->
<g id="node2" class="node">
<title>DejaDatePickerModule</title>
<polygon fill="#8dd3c7" stroke="#000000" points="508.1657,-187 505.1657,-191 484.1657,-191 481.1657,-187 359.8343,-187 359.8343,-151 508.1657,-151 508.1657,-187"/>
<text text-anchor="middle" x="434" y="-164.8" font-family="Times,serif" font-size="14.00" fill="#000000">DejaDatePickerModule</text>
</g>
<!-- DejaDatePickerComponent&#45;&gt;DejaDatePickerModule -->
<g id="edge1" class="edge">
<title>DejaDatePickerComponent&#45;&gt;DejaDatePickerModule</title>
<path fill="none" stroke="#000000" d="M815,-122.2843C815,-143.3211 815,-175 815,-175 815,-175 518.3651,-175 518.3651,-175"/>
<polygon fill="#000000" stroke="#000000" points="518.3651,-171.5001 508.3651,-175 518.3651,-178.5001 518.3651,-171.5001"/>
</g>
<!-- DejaDatePickerComponent  -->
<g id="node7" class="node">
<title>DejaDatePickerComponent </title>
<polygon fill="#fb8072" stroke="#000000" points="520.9488,-252 347.0512,-252 347.0512,-216 520.9488,-216 520.9488,-252"/>
<text text-anchor="middle" x="434" y="-229.8" font-family="Times,serif" font-size="14.00" fill="#000000">DejaDatePickerComponent </text>
</g>
<!-- DejaDatePickerModule&#45;&gt;DejaDatePickerComponent  -->
<g id="edge6" class="edge">
<title>DejaDatePickerModule&#45;&gt;DejaDatePickerComponent </title>
<path fill="none" stroke="#000000" stroke-dasharray="5,2" d="M434,-187.1061C434,-187.1061 434,-205.991 434,-205.991"/>
<polygon fill="#000000" stroke="#000000" points="430.5001,-205.9909 434,-215.991 437.5001,-205.991 430.5001,-205.9909"/>
</g>
<!-- DejaChildValidatorModule -->
<g id="node3" class="node">
<title>DejaChildValidatorModule</title>
<polygon fill="#8dd3c7" stroke="#000000" points="705.9622,-122 702.9622,-126 681.9622,-126 678.9622,-122 536.0378,-122 536.0378,-86 705.9622,-86 705.9622,-122"/>
<text text-anchor="middle" x="621" y="-99.8" font-family="Times,serif" font-size="14.00" fill="#000000">DejaChildValidatorModule</text>
</g>
<!-- DejaChildValidatorModule&#45;&gt;DejaDatePickerModule -->
<g id="edge2" class="edge">
<title>DejaChildValidatorModule&#45;&gt;DejaDatePickerModule</title>
<path fill="none" stroke="#000000" d="M621,-122.0225C621,-139.3734 621,-163 621,-163 621,-163 518.1759,-163 518.1759,-163"/>
<polygon fill="#000000" stroke="#000000" points="518.176,-159.5001 508.1759,-163 518.1759,-166.5001 518.176,-159.5001"/>
</g>
<!-- DejaCircularPickerModule -->
<g id="node4" class="node">
<title>DejaCircularPickerModule</title>
<polygon fill="#8dd3c7" stroke="#000000" points="517.6079,-122 514.6079,-126 493.6079,-126 490.6079,-122 350.3921,-122 350.3921,-86 517.6079,-86 517.6079,-122"/>
<text text-anchor="middle" x="434" y="-99.8" font-family="Times,serif" font-size="14.00" fill="#000000">DejaCircularPickerModule</text>
</g>
<!-- DejaCircularPickerModule&#45;&gt;DejaDatePickerModule -->
<g id="edge3" class="edge">
<title>DejaCircularPickerModule&#45;&gt;DejaDatePickerModule</title>
<path fill="none" stroke="#000000" d="M434,-122.1061C434,-122.1061 434,-140.991 434,-140.991"/>
<polygon fill="#000000" stroke="#000000" points="430.5001,-140.9909 434,-150.991 437.5001,-140.991 430.5001,-140.9909"/>
</g>
<!-- DejaDateSelectorModule -->
<g id="node5" class="node">
<title>DejaDateSelectorModule</title>
<polygon fill="#8dd3c7" stroke="#000000" points="332.271,-122 329.271,-126 308.271,-126 305.271,-122 173.729,-122 173.729,-86 332.271,-86 332.271,-122"/>
<text text-anchor="middle" x="253" y="-99.8" font-family="Times,serif" font-size="14.00" fill="#000000">DejaDateSelectorModule</text>
</g>
<!-- DejaDateSelectorModule&#45;&gt;DejaDatePickerModule -->
<g id="edge4" class="edge">
<title>DejaDateSelectorModule&#45;&gt;DejaDatePickerModule</title>
<path fill="none" stroke="#000000" d="M253,-122.0225C253,-139.3734 253,-163 253,-163 253,-163 349.8581,-163 349.8581,-163"/>
<polygon fill="#000000" stroke="#000000" points="349.8582,-166.5001 359.8581,-163 349.8581,-159.5001 349.8582,-166.5001"/>
</g>
<!-- DejaOverlayModule -->
<g id="node6" class="node">
<title>DejaOverlayModule</title>
<polygon fill="#8dd3c7" stroke="#000000" points="155.5632,-122 152.5632,-126 131.5632,-126 128.5632,-122 24.4368,-122 24.4368,-86 155.5632,-86 155.5632,-122"/>
<text text-anchor="middle" x="90" y="-99.8" font-family="Times,serif" font-size="14.00" fill="#000000">DejaOverlayModule</text>
</g>
<!-- DejaOverlayModule&#45;&gt;DejaDatePickerModule -->
<g id="edge5" class="edge">
<title>DejaOverlayModule&#45;&gt;DejaDatePickerModule</title>
<path fill="none" stroke="#000000" d="M90,-122.2843C90,-143.3211 90,-175 90,-175 90,-175 349.7806,-175 349.7806,-175"/>
<polygon fill="#000000" stroke="#000000" points="349.7807,-178.5001 359.7806,-175 349.7806,-171.5001 349.7807,-178.5001"/>
</g>
</g>
</svg>
