<?xml version="1.0" encoding="UTF-8" standalone="no"?>
<!DOCTYPE svg PUBLIC "-//W3C//DTD SVG 1.1//EN"
 "http://www.w3.org/Graphics/SVG/1.1/DTD/svg11.dtd">
<!-- Generated by graphviz version 2.40.1 (20161225.0304)
 -->
<!-- Title: dependencies Pages: 1 -->
<svg width="965pt" height="284pt"
 viewBox="0.00 0.00 965.00 284.00" xmlns="http://www.w3.org/2000/svg" xmlns:xlink="http://www.w3.org/1999/xlink">
<g id="graph0" class="graph" transform="scale(1 1) rotate(0) translate(4 280)">
<title>dependencies</title>
<polygon fill="#ffffff" stroke="transparent" points="-4,4 -4,-280 961,-280 961,4 -4,4"/>
<text text-anchor="start" x="457.5091" y="-42.4" font-family="sans-serif" font-weight="bold" font-size="14.00" fill="#000000">Legend</text>
<polygon fill="#ffffb3" stroke="transparent" points="244.5,-10 244.5,-30 264.5,-30 264.5,-10 244.5,-10"/>
<text text-anchor="start" x="268.129" y="-15.4" font-family="sans-serif" font-size="14.00" fill="#000000"> &#160;Declarations</text>
<polygon fill="#8dd3c7" stroke="transparent" points="357.5,-10 357.5,-30 377.5,-30 377.5,-10 357.5,-10"/>
<text text-anchor="start" x="381.2251" y="-15.4" font-family="sans-serif" font-size="14.00" fill="#000000"> &#160;Module</text>
<polygon fill="#80b1d3" stroke="transparent" points="443.5,-10 443.5,-30 463.5,-30 463.5,-10 443.5,-10"/>
<text text-anchor="start" x="467.2812" y="-15.4" font-family="sans-serif" font-size="14.00" fill="#000000"> &#160;Bootstrap</text>
<polygon fill="#fdb462" stroke="transparent" points="540.5,-10 540.5,-30 560.5,-30 560.5,-10 540.5,-10"/>
<text text-anchor="start" x="564.1732" y="-15.4" font-family="sans-serif" font-size="14.00" fill="#000000"> &#160;Providers</text>
<polygon fill="#fb8072" stroke="transparent" points="636.5,-10 636.5,-30 656.5,-30 656.5,-10 636.5,-10"/>
<text text-anchor="start" x="660.2258" y="-15.4" font-family="sans-serif" font-size="14.00" fill="#000000"> &#160;Exports</text>
<g id="clust1" class="cluster">
<title>cluster_DejaColorPickerModule</title>
<polygon fill="none" stroke="#000000" stroke-dasharray="1,5" points="8,-70 8,-268 949,-268 949,-70 8,-70"/>
</g>
<g id="clust2" class="cluster">
<title>cluster_DejaColorPickerModule_declarations</title>
<polygon fill="none" stroke="#000000" points="749,-78 749,-130 941,-130 941,-78 749,-78"/>
</g>
<g id="clust4" class="cluster">
<title>cluster_DejaColorPickerModule_imports</title>
<polygon fill="none" stroke="#000000" points="16,-78 16,-130 741,-130 741,-78 16,-78"/>
</g>
<g id="clust5" class="cluster">
<title>cluster_DejaColorPickerModule_exports</title>
<polygon fill="none" stroke="#000000" points="385,-208 385,-260 579,-260 579,-208 385,-208"/>
</g>
<!-- DejaColorPickerComponent -->
<g id="node1" class="node">
<title>DejaColorPickerComponent</title>
<polygon fill="#ffffb3" stroke="#000000" points="932.9101,-122 757.0899,-122 757.0899,-86 932.9101,-86 932.9101,-122"/>
<text text-anchor="middle" x="845" y="-99.8" font-family="Times,serif" font-size="14.00" fill="#000000">DejaColorPickerComponent</text>
</g>
<!-- DejaColorPickerModule -->
<g id="node2" class="node">
<title>DejaColorPickerModule</title>
<polygon fill="#8dd3c7" stroke="#000000" points="558.6275,-187 555.6275,-191 534.6275,-191 531.6275,-187 405.3725,-187 405.3725,-151 558.6275,-151 558.6275,-187"/>
<text text-anchor="middle" x="482" y="-164.8" font-family="Times,serif" font-size="14.00" fill="#000000">DejaColorPickerModule</text>
</g>
<!-- DejaColorPickerComponent&#45;&gt;DejaColorPickerModule -->
<g id="edge1" class="edge">
<title>DejaColorPickerComponent&#45;&gt;DejaColorPickerModule</title>
<path fill="none" stroke="#000000" d="M845,-122.2843C845,-143.3211 845,-175 845,-175 845,-175 568.983,-175 568.983,-175"/>
<polygon fill="#000000" stroke="#000000" points="568.983,-171.5001 558.983,-175 568.9829,-178.5001 568.983,-171.5001"/>
</g>
<!-- DejaColorPickerComponent  -->
<g id="node8" class="node">
<title>DejaColorPickerComponent </title>
<polygon fill="#fb8072" stroke="#000000" points="571.4096,-252 392.5904,-252 392.5904,-216 571.4096,-216 571.4096,-252"/>
<text text-anchor="middle" x="482" y="-229.8" font-family="Times,serif" font-size="14.00" fill="#000000">DejaColorPickerComponent </text>
</g>
<!-- DejaColorPickerModule&#45;&gt;DejaColorPickerComponent  -->
<g id="edge7" class="edge">
<title>DejaColorPickerModule&#45;&gt;DejaColorPickerComponent </title>
<path fill="none" stroke="#000000" stroke-dasharray="5,2" d="M482,-187.1061C482,-187.1061 482,-205.991 482,-205.991"/>
<polygon fill="#000000" stroke="#000000" points="478.5001,-205.9909 482,-215.991 485.5001,-205.991 478.5001,-205.9909"/>
</g>
<!-- CommonModule -->
<g id="node3" class="node">
<title>CommonModule</title>
<polygon fill="#8dd3c7" stroke="#000000" points="732.6681,-122 729.6681,-126 708.6681,-126 705.6681,-122 621.3319,-122 621.3319,-86 732.6681,-86 732.6681,-122"/>
<text text-anchor="middle" x="677" y="-99.8" font-family="Times,serif" font-size="14.00" fill="#000000">CommonModule</text>
</g>
<!-- CommonModule&#45;&gt;DejaColorPickerModule -->
<g id="edge2" class="edge">
<title>CommonModule&#45;&gt;DejaColorPickerModule</title>
<path fill="none" stroke="#000000" d="M677,-122.0225C677,-139.3734 677,-163 677,-163 677,-163 568.7892,-163 568.7892,-163"/>
<polygon fill="#000000" stroke="#000000" points="568.7893,-159.5001 558.7892,-163 568.7892,-166.5001 568.7893,-159.5001"/>
</g>
<!-- FormsModule -->
<g id="node4" class="node">
<title>FormsModule</title>
<polygon fill="#8dd3c7" stroke="#000000" points="603.8288,-122 600.8288,-126 579.8288,-126 576.8288,-122 508.1712,-122 508.1712,-86 603.8288,-86 603.8288,-122"/>
<text text-anchor="middle" x="556" y="-99.8" font-family="Times,serif" font-size="14.00" fill="#000000">FormsModule</text>
</g>
<!-- FormsModule&#45;&gt;DejaColorPickerModule -->
<g id="edge3" class="edge">
<title>FormsModule&#45;&gt;DejaColorPickerModule</title>
<path fill="none" stroke="#000000" d="M533.5747,-122.1061C533.5747,-122.1061 533.5747,-140.991 533.5747,-140.991"/>
<polygon fill="#000000" stroke="#000000" points="530.0748,-140.9909 533.5747,-150.991 537.0748,-140.991 530.0748,-140.9909"/>
</g>
<!-- DejaColorSelectorModule -->
<g id="node5" class="node">
<title>DejaColorSelectorModule</title>
<polygon fill="#8dd3c7" stroke="#000000" points="489.7324,-122 486.7324,-126 465.7324,-126 462.7324,-122 326.2676,-122 326.2676,-86 489.7324,-86 489.7324,-122"/>
<text text-anchor="middle" x="408" y="-99.8" font-family="Times,serif" font-size="14.00" fill="#000000">DejaColorSelectorModule</text>
</g>
<!-- DejaColorSelectorModule&#45;&gt;DejaColorPickerModule -->
<g id="edge4" class="edge">
<title>DejaColorSelectorModule&#45;&gt;DejaColorPickerModule</title>
<path fill="none" stroke="#000000" d="M447.5263,-122.1061C447.5263,-122.1061 447.5263,-140.991 447.5263,-140.991"/>
<polygon fill="#000000" stroke="#000000" points="444.0264,-140.9909 447.5263,-150.991 451.0264,-140.991 444.0264,-140.9909"/>
</g>
<!-- DejaDropDownModule -->
<g id="node6" class="node">
<title>DejaDropDownModule</title>
<polygon fill="#8dd3c7" stroke="#000000" points="308.4566,-122 305.4566,-126 284.4566,-126 281.4566,-122 159.5434,-122 159.5434,-86 308.4566,-86 308.4566,-122"/>
<text text-anchor="middle" x="234" y="-99.8" font-family="Times,serif" font-size="14.00" fill="#000000">DejaDropDownModule</text>
</g>
<!-- DejaDropDownModule&#45;&gt;DejaColorPickerModule -->
<g id="edge5" class="edge">
<title>DejaDropDownModule&#45;&gt;DejaColorPickerModule</title>
<path fill="none" stroke="#000000" d="M234,-122.0225C234,-139.3734 234,-163 234,-163 234,-163 395.2296,-163 395.2296,-163"/>
<polygon fill="#000000" stroke="#000000" points="395.2297,-166.5001 405.2296,-163 395.2296,-159.5001 395.2297,-166.5001"/>
</g>
<!-- MdButtonModule -->
<g id="node7" class="node">
<title>MdButtonModule</title>
<polygon fill="#8dd3c7" stroke="#000000" points="141.6123,-122 138.6123,-126 117.6123,-126 114.6123,-122 24.3877,-122 24.3877,-86 141.6123,-86 141.6123,-122"/>
<text text-anchor="middle" x="83" y="-99.8" font-family="Times,serif" font-size="14.00" fill="#000000">MdButtonModule</text>
</g>
<!-- MdButtonModule&#45;&gt;DejaColorPickerModule -->
<g id="edge6" class="edge">
<title>MdButtonModule&#45;&gt;DejaColorPickerModule</title>
<path fill="none" stroke="#000000" d="M83,-122.2843C83,-143.3211 83,-175 83,-175 83,-175 395.0688,-175 395.0688,-175"/>
<polygon fill="#000000" stroke="#000000" points="395.0688,-178.5001 405.0688,-175 395.0688,-171.5001 395.0688,-178.5001"/>
</g>
</g>
</svg>
