<?xml version="1.0" encoding="UTF-8" standalone="no"?>
<!DOCTYPE svg PUBLIC "-//W3C//DTD SVG 1.1//EN"
 "http://www.w3.org/Graphics/SVG/1.1/DTD/svg11.dtd">
<!-- Generated by graphviz version 2.40.1 (20161225.0304)
 -->
<!-- Title: dependencies Pages: 1 -->
<svg width="569pt" height="284pt"
 viewBox="0.00 0.00 569.00 284.00" xmlns="http://www.w3.org/2000/svg" xmlns:xlink="http://www.w3.org/1999/xlink">
<g id="graph0" class="graph" transform="scale(1 1) rotate(0) translate(4 280)">
<title>dependencies</title>
<polygon fill="#ffffff" stroke="transparent" points="-4,4 -4,-280 565,-280 565,4 -4,4"/>
<text text-anchor="start" x="259.5091" y="-42.4" font-family="sans-serif" font-weight="bold" font-size="14.00" fill="#000000">Legend</text>
<polygon fill="#ffffb3" stroke="transparent" points="46.5,-10 46.5,-30 66.5,-30 66.5,-10 46.5,-10"/>
<text text-anchor="start" x="70.129" y="-15.4" font-family="sans-serif" font-size="14.00" fill="#000000"> &#160;Declarations</text>
<polygon fill="#8dd3c7" stroke="transparent" points="159.5,-10 159.5,-30 179.5,-30 179.5,-10 159.5,-10"/>
<text text-anchor="start" x="183.2251" y="-15.4" font-family="sans-serif" font-size="14.00" fill="#000000"> &#160;Module</text>
<polygon fill="#80b1d3" stroke="transparent" points="245.5,-10 245.5,-30 265.5,-30 265.5,-10 245.5,-10"/>
<text text-anchor="start" x="269.2812" y="-15.4" font-family="sans-serif" font-size="14.00" fill="#000000"> &#160;Bootstrap</text>
<polygon fill="#fdb462" stroke="transparent" points="342.5,-10 342.5,-30 362.5,-30 362.5,-10 342.5,-10"/>
<text text-anchor="start" x="366.1732" y="-15.4" font-family="sans-serif" font-size="14.00" fill="#000000"> &#160;Providers</text>
<polygon fill="#fb8072" stroke="transparent" points="438.5,-10 438.5,-30 458.5,-30 458.5,-10 438.5,-10"/>
<text text-anchor="start" x="462.2258" y="-15.4" font-family="sans-serif" font-size="14.00" fill="#000000"> &#160;Exports</text>
<g id="clust1" class="cluster">
<title>cluster_DejaColorPickerModule</title>
<polygon fill="none" stroke="#000000" stroke-dasharray="1,5" points="8,-70 8,-268 553,-268 553,-70 8,-70"/>
</g>
<g id="clust2" class="cluster">
<title>cluster_DejaColorPickerModule_declarations</title>
<polygon fill="none" stroke="#000000" points="353,-78 353,-130 545,-130 545,-78 353,-78"/>
</g>
<g id="clust4" class="cluster">
<title>cluster_DejaColorPickerModule_imports</title>
<polygon fill="none" stroke="#000000" points="16,-78 16,-130 345,-130 345,-78 16,-78"/>
</g>
<g id="clust5" class="cluster">
<title>cluster_DejaColorPickerModule_exports</title>
<polygon fill="none" stroke="#000000" points="158,-208 158,-260 352,-260 352,-208 158,-208"/>
</g>
<!-- DejaColorPickerComponent -->
<g id="node1" class="node">
<title>DejaColorPickerComponent</title>
<polygon fill="#ffffb3" stroke="#000000" points="536.9101,-122 361.0899,-122 361.0899,-86 536.9101,-86 536.9101,-122"/>
<text text-anchor="middle" x="449" y="-99.8" font-family="Times,serif" font-size="14.00" fill="#000000">DejaColorPickerComponent</text>
</g>
<!-- DejaColorPickerModule -->
<g id="node2" class="node">
<title>DejaColorPickerModule</title>
<polygon fill="#8dd3c7" stroke="#000000" points="331.6275,-187 328.6275,-191 307.6275,-191 304.6275,-187 178.3725,-187 178.3725,-151 331.6275,-151 331.6275,-187"/>
<text text-anchor="middle" x="255" y="-164.8" font-family="Times,serif" font-size="14.00" fill="#000000">DejaColorPickerModule</text>
</g>
<!-- DejaColorPickerComponent&#45;&gt;DejaColorPickerModule -->
<g id="edge1" class="edge">
<title>DejaColorPickerComponent&#45;&gt;DejaColorPickerModule</title>
<path fill="none" stroke="#000000" d="M449,-122.1061C449,-141.3391 449,-169 449,-169 449,-169 341.6739,-169 341.6739,-169"/>
<polygon fill="#000000" stroke="#000000" points="341.674,-165.5001 331.6739,-169 341.6739,-172.5001 341.674,-165.5001"/>
</g>
<!-- DejaColorPickerComponent  -->
<g id="node5" class="node">
<title>DejaColorPickerComponent </title>
<polygon fill="#fb8072" stroke="#000000" points="344.4096,-252 165.5904,-252 165.5904,-216 344.4096,-216 344.4096,-252"/>
<text text-anchor="middle" x="255" y="-229.8" font-family="Times,serif" font-size="14.00" fill="#000000">DejaColorPickerComponent </text>
</g>
<!-- DejaColorPickerModule&#45;&gt;DejaColorPickerComponent  -->
<g id="edge4" class="edge">
<title>DejaColorPickerModule&#45;&gt;DejaColorPickerComponent </title>
<path fill="none" stroke="#000000" stroke-dasharray="5,2" d="M255,-187.1061C255,-187.1061 255,-205.991 255,-205.991"/>
<polygon fill="#000000" stroke="#000000" points="251.5001,-205.9909 255,-215.991 258.5001,-205.991 251.5001,-205.9909"/>
</g>
<!-- DejaColorSelectorModule -->
<g id="node3" class="node">
<title>DejaColorSelectorModule</title>
<polygon fill="#8dd3c7" stroke="#000000" points="336.7324,-122 333.7324,-126 312.7324,-126 309.7324,-122 173.2676,-122 173.2676,-86 336.7324,-86 336.7324,-122"/>
<text text-anchor="middle" x="255" y="-99.8" font-family="Times,serif" font-size="14.00" fill="#000000">DejaColorSelectorModule</text>
</g>
<!-- DejaColorSelectorModule&#45;&gt;DejaColorPickerModule -->
<g id="edge2" class="edge">
<title>DejaColorSelectorModule&#45;&gt;DejaColorPickerModule</title>
<path fill="none" stroke="#000000" d="M255,-122.1061C255,-122.1061 255,-140.991 255,-140.991"/>
<polygon fill="#000000" stroke="#000000" points="251.5001,-140.9909 255,-150.991 258.5001,-140.991 251.5001,-140.9909"/>
</g>
<!-- DejaOverlayModule -->
<g id="node4" class="node">
<title>DejaOverlayModule</title>
<polygon fill="#8dd3c7" stroke="#000000" points="155.5632,-122 152.5632,-126 131.5632,-126 128.5632,-122 24.4368,-122 24.4368,-86 155.5632,-86 155.5632,-122"/>
<text text-anchor="middle" x="90" y="-99.8" font-family="Times,serif" font-size="14.00" fill="#000000">DejaOverlayModule</text>
</g>
<!-- DejaOverlayModule&#45;&gt;DejaColorPickerModule -->
<g id="edge3" class="edge">
<title>DejaOverlayModule&#45;&gt;DejaColorPickerModule</title>
<path fill="none" stroke="#000000" d="M90,-122.1061C90,-141.3391 90,-169 90,-169 90,-169 168.2965,-169 168.2965,-169"/>
<polygon fill="#000000" stroke="#000000" points="168.2966,-172.5001 178.2965,-169 168.2965,-165.5001 168.2966,-172.5001"/>
</g>
</g>
</svg>
