<?xml version="1.0" encoding="UTF-8" standalone="no"?>
<!DOCTYPE svg PUBLIC "-//W3C//DTD SVG 1.1//EN"
 "http://www.w3.org/Graphics/SVG/1.1/DTD/svg11.dtd">
<!-- Generated by graphviz version 2.40.1 (20161225.0304)
 -->
<!-- Title: dependencies Pages: 1 -->
<svg width="504pt" height="284pt"
 viewBox="0.00 0.00 504.00 284.00" xmlns="http://www.w3.org/2000/svg" xmlns:xlink="http://www.w3.org/1999/xlink">
<g id="graph0" class="graph" transform="scale(1 1) rotate(0) translate(4 280)">
<title>dependencies</title>
<polygon fill="#ffffff" stroke="transparent" points="-4,4 -4,-280 500,-280 500,4 -4,4"/>
<text text-anchor="start" x="227.0091" y="-42.4" font-family="sans-serif" font-weight="bold" font-size="14.00" fill="#000000">Legend</text>
<polygon fill="#ffffb3" stroke="transparent" points="14,-10 14,-30 34,-30 34,-10 14,-10"/>
<text text-anchor="start" x="37.629" y="-15.4" font-family="sans-serif" font-size="14.00" fill="#000000"> &#160;Declarations</text>
<polygon fill="#8dd3c7" stroke="transparent" points="127,-10 127,-30 147,-30 147,-10 127,-10"/>
<text text-anchor="start" x="150.7251" y="-15.4" font-family="sans-serif" font-size="14.00" fill="#000000"> &#160;Module</text>
<polygon fill="#80b1d3" stroke="transparent" points="213,-10 213,-30 233,-30 233,-10 213,-10"/>
<text text-anchor="start" x="236.7812" y="-15.4" font-family="sans-serif" font-size="14.00" fill="#000000"> &#160;Bootstrap</text>
<polygon fill="#fdb462" stroke="transparent" points="310,-10 310,-30 330,-30 330,-10 310,-10"/>
<text text-anchor="start" x="333.6732" y="-15.4" font-family="sans-serif" font-size="14.00" fill="#000000"> &#160;Providers</text>
<polygon fill="#fb8072" stroke="transparent" points="406,-10 406,-30 426,-30 426,-10 406,-10"/>
<text text-anchor="start" x="429.7258" y="-15.4" font-family="sans-serif" font-size="14.00" fill="#000000"> &#160;Exports</text>
<g id="clust1" class="cluster">
<title>cluster_DejaCircularPickerModule</title>
<polygon fill="none" stroke="#000000" stroke-dasharray="1,5" points="12.5,-70 12.5,-268 483.5,-268 483.5,-70 12.5,-70"/>
</g>
<g id="clust2" class="cluster">
<title>cluster_DejaCircularPickerModule_declarations</title>
<polygon fill="none" stroke="#000000" points="269.5,-78 269.5,-130 475.5,-130 475.5,-78 269.5,-78"/>
</g>
<g id="clust4" class="cluster">
<title>cluster_DejaCircularPickerModule_imports</title>
<polygon fill="none" stroke="#000000" points="20.5,-78 20.5,-130 261.5,-130 261.5,-78 20.5,-78"/>
</g>
<g id="clust5" class="cluster">
<title>cluster_DejaCircularPickerModule_exports</title>
<polygon fill="none" stroke="#000000" points="93.5,-208 93.5,-260 301.5,-260 301.5,-208 93.5,-208"/>
</g>
<!-- DejaCircularPickerComponent -->
<g id="node1" class="node">
<title>DejaCircularPickerComponent</title>
<polygon fill="#ffffb3" stroke="#000000" points="467.3904,-122 277.6096,-122 277.6096,-86 467.3904,-86 467.3904,-122"/>
<text text-anchor="middle" x="372.5" y="-99.8" font-family="Times,serif" font-size="14.00" fill="#000000">DejaCircularPickerComponent</text>
</g>
<!-- DejaCircularPickerModule -->
<g id="node2" class="node">
<title>DejaCircularPickerModule</title>
<polygon fill="#8dd3c7" stroke="#000000" points="281.1079,-187 278.1079,-191 257.1079,-191 254.1079,-187 113.8921,-187 113.8921,-151 281.1079,-151 281.1079,-187"/>
<text text-anchor="middle" x="197.5" y="-164.8" font-family="Times,serif" font-size="14.00" fill="#000000">DejaCircularPickerModule</text>
</g>
<!-- DejaCircularPickerComponent&#45;&gt;DejaCircularPickerModule -->
<g id="edge1" class="edge">
<title>DejaCircularPickerComponent&#45;&gt;DejaCircularPickerModule</title>
<path fill="none" stroke="#000000" d="M287.6244,-122.1061C287.6244,-141.3391 287.6244,-169 287.6244,-169 287.6244,-169 286.9762,-169 286.9762,-169"/>
<polygon fill="#000000" stroke="#000000" points="291.1429,-165.5002 281.1428,-169 291.1428,-172.5002 291.1429,-165.5002"/>
</g>
<!-- DejaCircularPickerComponent  -->
<g id="node5" class="node">
<title>DejaCircularPickerComponent </title>
<polygon fill="#fb8072" stroke="#000000" points="293.89,-252 101.11,-252 101.11,-216 293.89,-216 293.89,-252"/>
<text text-anchor="middle" x="197.5" y="-229.8" font-family="Times,serif" font-size="14.00" fill="#000000">DejaCircularPickerComponent </text>
</g>
<!-- DejaCircularPickerModule&#45;&gt;DejaCircularPickerComponent  -->
<g id="edge4" class="edge">
<title>DejaCircularPickerModule&#45;&gt;DejaCircularPickerComponent </title>
<path fill="none" stroke="#000000" stroke-dasharray="5,2" d="M197.5,-187.1061C197.5,-187.1061 197.5,-205.991 197.5,-205.991"/>
<polygon fill="#000000" stroke="#000000" points="194.0001,-205.9909 197.5,-215.991 201.0001,-205.991 194.0001,-205.9909"/>
</g>
<!-- CommonModule -->
<g id="node3" class="node">
<title>CommonModule</title>
<polygon fill="#8dd3c7" stroke="#000000" points="253.1681,-122 250.1681,-126 229.1681,-126 226.1681,-122 141.8319,-122 141.8319,-86 253.1681,-86 253.1681,-122"/>
<text text-anchor="middle" x="197.5" y="-99.8" font-family="Times,serif" font-size="14.00" fill="#000000">CommonModule</text>
</g>
<!-- CommonModule&#45;&gt;DejaCircularPickerModule -->
<g id="edge2" class="edge">
<title>CommonModule&#45;&gt;DejaCircularPickerModule</title>
<path fill="none" stroke="#000000" d="M197.5,-122.1061C197.5,-122.1061 197.5,-140.991 197.5,-140.991"/>
<polygon fill="#000000" stroke="#000000" points="194.0001,-140.9909 197.5,-150.991 201.0001,-140.991 194.0001,-140.9909"/>
</g>
<!-- FormsModule -->
<g id="node4" class="node">
<title>FormsModule</title>
<polygon fill="#8dd3c7" stroke="#000000" points="124.3288,-122 121.3288,-126 100.3288,-126 97.3288,-122 28.6712,-122 28.6712,-86 124.3288,-86 124.3288,-122"/>
<text text-anchor="middle" x="76.5" y="-99.8" font-family="Times,serif" font-size="14.00" fill="#000000">FormsModule</text>
</g>
<!-- FormsModule&#45;&gt;DejaCircularPickerModule -->
<g id="edge3" class="edge">
<title>FormsModule&#45;&gt;DejaCircularPickerModule</title>
<path fill="none" stroke="#000000" d="M118.9302,-122.1061C118.9302,-122.1061 118.9302,-140.991 118.9302,-140.991"/>
<polygon fill="#000000" stroke="#000000" points="115.4303,-140.9909 118.9302,-150.991 122.4303,-140.991 115.4303,-140.9909"/>
</g>
</g>
</svg>
