<?xml version="1.0" encoding="UTF-8" standalone="no"?>
<!DOCTYPE svg PUBLIC "-//W3C//DTD SVG 1.1//EN"
 "http://www.w3.org/Graphics/SVG/1.1/DTD/svg11.dtd">
<!-- Generated by graphviz version 2.40.1 (20161225.0304)
 -->
<!-- Title: dependencies Pages: 1 -->
<svg width="504pt" height="284pt"
 viewBox="0.00 0.00 504.00 284.00" xmlns="http://www.w3.org/2000/svg" xmlns:xlink="http://www.w3.org/1999/xlink">
<g id="graph0" class="graph" transform="scale(1 1) rotate(0) translate(4 280)">
<title>dependencies</title>
<polygon fill="#ffffff" stroke="transparent" points="-4,4 -4,-280 500,-280 500,4 -4,4"/>
<text text-anchor="start" x="227.0091" y="-42.4" font-family="sans-serif" font-weight="bold" font-size="14.00" fill="#000000">Legend</text>
<polygon fill="#ffffb3" stroke="transparent" points="14,-10 14,-30 34,-30 34,-10 14,-10"/>
<text text-anchor="start" x="37.629" y="-15.4" font-family="sans-serif" font-size="14.00" fill="#000000"> &#160;Declarations</text>
<polygon fill="#8dd3c7" stroke="transparent" points="127,-10 127,-30 147,-30 147,-10 127,-10"/>
<text text-anchor="start" x="150.7251" y="-15.4" font-family="sans-serif" font-size="14.00" fill="#000000"> &#160;Module</text>
<polygon fill="#80b1d3" stroke="transparent" points="213,-10 213,-30 233,-30 233,-10 213,-10"/>
<text text-anchor="start" x="236.7812" y="-15.4" font-family="sans-serif" font-size="14.00" fill="#000000"> &#160;Bootstrap</text>
<polygon fill="#fdb462" stroke="transparent" points="310,-10 310,-30 330,-30 330,-10 310,-10"/>
<text text-anchor="start" x="333.6732" y="-15.4" font-family="sans-serif" font-size="14.00" fill="#000000"> &#160;Providers</text>
<polygon fill="#fb8072" stroke="transparent" points="406,-10 406,-30 426,-30 426,-10 406,-10"/>
<text text-anchor="start" x="429.7258" y="-15.4" font-family="sans-serif" font-size="14.00" fill="#000000"> &#160;Exports</text>
<g id="clust1" class="cluster">
<title>cluster_DejaIFrameModule</title>
<polygon fill="none" stroke="#000000" stroke-dasharray="1,5" points="90,-70 90,-268 406,-268 406,-70 90,-70"/>
</g>
<g id="clust2" class="cluster">
<title>cluster_DejaIFrameModule_declarations</title>
<polygon fill="none" stroke="#000000" points="234,-78 234,-130 398,-130 398,-78 234,-78"/>
</g>
<g id="clust4" class="cluster">
<title>cluster_DejaIFrameModule_imports</title>
<polygon fill="none" stroke="#000000" points="98,-78 98,-130 226,-130 226,-78 98,-78"/>
</g>
<g id="clust5" class="cluster">
<title>cluster_DejaIFrameModule_exports</title>
<polygon fill="none" stroke="#000000" points="164,-208 164,-260 332,-260 332,-208 164,-208"/>
</g>
<!-- DejaIFrameComponent -->
<g id="node1" class="node">
<title>DejaIFrameComponent</title>
<polygon fill="#ffffb3" stroke="#000000" points="390.1825,-122 241.8175,-122 241.8175,-86 390.1825,-86 390.1825,-122"/>
<text text-anchor="middle" x="316" y="-99.8" font-family="Times,serif" font-size="14.00" fill="#000000">DejaIFrameComponent</text>
</g>
<!-- DejaIFrameModule -->
<g id="node2" class="node">
<title>DejaIFrameModule</title>
<polygon fill="#8dd3c7" stroke="#000000" points="311.4004,-187 308.4004,-191 287.4004,-191 284.4004,-187 184.5996,-187 184.5996,-151 311.4004,-151 311.4004,-187"/>
<text text-anchor="middle" x="248" y="-164.8" font-family="Times,serif" font-size="14.00" fill="#000000">DejaIFrameModule</text>
</g>
<!-- DejaIFrameComponent&#45;&gt;DejaIFrameModule -->
<g id="edge1" class="edge">
<title>DejaIFrameComponent&#45;&gt;DejaIFrameModule</title>
<path fill="none" stroke="#000000" d="M276.5544,-122.1061C276.5544,-122.1061 276.5544,-140.991 276.5544,-140.991"/>
<polygon fill="#000000" stroke="#000000" points="273.0544,-140.9909 276.5544,-150.991 280.0544,-140.991 273.0544,-140.9909"/>
</g>
<!-- DejaIFrameComponent  -->
<g id="node4" class="node">
<title>DejaIFrameComponent </title>
<polygon fill="#fb8072" stroke="#000000" points="323.6827,-252 172.3173,-252 172.3173,-216 323.6827,-216 323.6827,-252"/>
<text text-anchor="middle" x="248" y="-229.8" font-family="Times,serif" font-size="14.00" fill="#000000">DejaIFrameComponent </text>
</g>
<!-- DejaIFrameModule&#45;&gt;DejaIFrameComponent  -->
<g id="edge3" class="edge">
<title>DejaIFrameModule&#45;&gt;DejaIFrameComponent </title>
<path fill="none" stroke="#000000" stroke-dasharray="5,2" d="M248,-187.1061C248,-187.1061 248,-205.991 248,-205.991"/>
<polygon fill="#000000" stroke="#000000" points="244.5001,-205.9909 248,-215.991 251.5001,-205.991 244.5001,-205.9909"/>
</g>
<!-- CommonModule -->
<g id="node3" class="node">
<title>CommonModule</title>
<polygon fill="#8dd3c7" stroke="#000000" points="217.6681,-122 214.6681,-126 193.6681,-126 190.6681,-122 106.3319,-122 106.3319,-86 217.6681,-86 217.6681,-122"/>
<text text-anchor="middle" x="162" y="-99.8" font-family="Times,serif" font-size="14.00" fill="#000000">CommonModule</text>
</g>
<!-- CommonModule&#45;&gt;DejaIFrameModule -->
<g id="edge2" class="edge">
<title>CommonModule&#45;&gt;DejaIFrameModule</title>
<path fill="none" stroke="#000000" d="M201.317,-122.1061C201.317,-122.1061 201.317,-140.991 201.317,-140.991"/>
<polygon fill="#000000" stroke="#000000" points="197.817,-140.9909 201.317,-150.991 204.817,-140.991 197.817,-140.9909"/>
</g>
</g>
</svg>
