<?xml version="1.0" encoding="UTF-8" standalone="no"?>
<!DOCTYPE svg PUBLIC "-//W3C//DTD SVG 1.1//EN"
 "http://www.w3.org/Graphics/SVG/1.1/DTD/svg11.dtd">
<!-- Generated by graphviz version 2.40.1 (20161225.0304)
 -->
<!-- Title: dependencies Pages: 1 -->
<svg width="596pt" height="284pt"
 viewBox="0.00 0.00 596.00 284.00" xmlns="http://www.w3.org/2000/svg" xmlns:xlink="http://www.w3.org/1999/xlink">
<g id="graph0" class="graph" transform="scale(1 1) rotate(0) translate(4 280)">
<title>dependencies</title>
<polygon fill="#ffffff" stroke="transparent" points="-4,4 -4,-280 592,-280 592,4 -4,4"/>
<text text-anchor="start" x="273.0091" y="-42.4" font-family="sans-serif" font-weight="bold" font-size="14.00" fill="#000000">Legend</text>
<polygon fill="#ffffb3" stroke="transparent" points="60,-10 60,-30 80,-30 80,-10 60,-10"/>
<text text-anchor="start" x="83.629" y="-15.4" font-family="sans-serif" font-size="14.00" fill="#000000"> &#160;Declarations</text>
<polygon fill="#8dd3c7" stroke="transparent" points="173,-10 173,-30 193,-30 193,-10 173,-10"/>
<text text-anchor="start" x="196.7251" y="-15.4" font-family="sans-serif" font-size="14.00" fill="#000000"> &#160;Module</text>
<polygon fill="#80b1d3" stroke="transparent" points="259,-10 259,-30 279,-30 279,-10 259,-10"/>
<text text-anchor="start" x="282.7812" y="-15.4" font-family="sans-serif" font-size="14.00" fill="#000000"> &#160;Bootstrap</text>
<polygon fill="#fdb462" stroke="transparent" points="356,-10 356,-30 376,-30 376,-10 356,-10"/>
<text text-anchor="start" x="379.6732" y="-15.4" font-family="sans-serif" font-size="14.00" fill="#000000"> &#160;Providers</text>
<polygon fill="#fb8072" stroke="transparent" points="452,-10 452,-30 472,-30 472,-10 452,-10"/>
<text text-anchor="start" x="475.7258" y="-15.4" font-family="sans-serif" font-size="14.00" fill="#000000"> &#160;Exports</text>
<g id="clust1" class="cluster">
<title>cluster_DejaMonacoEditorModule</title>
<polygon fill="none" stroke="#000000" stroke-dasharray="1,5" points="8,-70 8,-268 580,-268 580,-70 8,-70"/>
</g>
<g id="clust2" class="cluster">
<title>cluster_DejaMonacoEditorModule_declarations</title>
<polygon fill="none" stroke="#000000" points="368,-78 368,-130 572,-130 572,-78 368,-78"/>
</g>
<g id="clust4" class="cluster">
<title>cluster_DejaMonacoEditorModule_imports</title>
<polygon fill="none" stroke="#000000" points="232,-78 232,-130 360,-130 360,-78 232,-78"/>
</g>
<g id="clust5" class="cluster">
<title>cluster_DejaMonacoEditorModule_exports</title>
<polygon fill="none" stroke="#000000" points="192,-208 192,-260 400,-260 400,-208 192,-208"/>
</g>
<g id="clust7" class="cluster">
<title>cluster_DejaMonacoEditorModule_providers</title>
<polygon fill="none" stroke="#000000" points="16,-78 16,-130 224,-130 224,-78 16,-78"/>
</g>
<!-- DejaMonacoEditorComponent -->
<g id="node1" class="node">
<title>DejaMonacoEditorComponent</title>
<polygon fill="#ffffb3" stroke="#000000" points="564.1274,-122 375.8726,-122 375.8726,-86 564.1274,-86 564.1274,-122"/>
<text text-anchor="middle" x="470" y="-99.8" font-family="Times,serif" font-size="14.00" fill="#000000">DejaMonacoEditorComponent</text>
</g>
<!-- DejaMonacoEditorModule -->
<g id="node2" class="node">
<title>DejaMonacoEditorModule</title>
<polygon fill="#8dd3c7" stroke="#000000" points="379.3445,-187 376.3445,-191 355.3445,-191 352.3445,-187 212.6555,-187 212.6555,-151 379.3445,-151 379.3445,-187"/>
<text text-anchor="middle" x="296" y="-164.8" font-family="Times,serif" font-size="14.00" fill="#000000">DejaMonacoEditorModule</text>
</g>
<!-- DejaMonacoEditorComponent&#45;&gt;DejaMonacoEditorModule -->
<g id="edge1" class="edge">
<title>DejaMonacoEditorComponent&#45;&gt;DejaMonacoEditorModule</title>
<path fill="none" stroke="#000000" d="M385.7428,-122.1061C385.7428,-141.3391 385.7428,-169 385.7428,-169 385.7428,-169 385.126,-169 385.126,-169"/>
<polygon fill="#000000" stroke="#000000" points="389.5745,-165.5002 379.5745,-169 389.5744,-172.5002 389.5745,-165.5002"/>
</g>
<!-- DejaMonacoEditorComponent  -->
<g id="node4" class="node">
<title>DejaMonacoEditorComponent </title>
<polygon fill="#fb8072" stroke="#000000" points="392.127,-252 199.873,-252 199.873,-216 392.127,-216 392.127,-252"/>
<text text-anchor="middle" x="296" y="-229.8" font-family="Times,serif" font-size="14.00" fill="#000000">DejaMonacoEditorComponent </text>
</g>
<!-- DejaMonacoEditorModule&#45;&gt;DejaMonacoEditorComponent  -->
<g id="edge3" class="edge">
<title>DejaMonacoEditorModule&#45;&gt;DejaMonacoEditorComponent </title>
<path fill="none" stroke="#000000" stroke-dasharray="5,2" d="M296,-187.1061C296,-187.1061 296,-205.991 296,-205.991"/>
<polygon fill="#000000" stroke="#000000" points="292.5001,-205.9909 296,-215.991 299.5001,-205.991 292.5001,-205.9909"/>
</g>
<!-- CommonModule -->
<g id="node3" class="node">
<title>CommonModule</title>
<polygon fill="#8dd3c7" stroke="#000000" points="351.6681,-122 348.6681,-126 327.6681,-126 324.6681,-122 240.3319,-122 240.3319,-86 351.6681,-86 351.6681,-122"/>
<text text-anchor="middle" x="296" y="-99.8" font-family="Times,serif" font-size="14.00" fill="#000000">CommonModule</text>
</g>
<!-- CommonModule&#45;&gt;DejaMonacoEditorModule -->
<g id="edge2" class="edge">
<title>CommonModule&#45;&gt;DejaMonacoEditorModule</title>
<path fill="none" stroke="#000000" d="M296,-122.1061C296,-122.1061 296,-140.991 296,-140.991"/>
<polygon fill="#000000" stroke="#000000" points="292.5001,-140.9909 296,-150.991 299.5001,-140.991 292.5001,-140.9909"/>
</g>
<!-- MonacoEditorService -->
<g id="node5" class="node">
<title>MonacoEditorService</title>
<ellipse fill="#fdb462" stroke="#000000" cx="120" cy="-104" rx="95.5471" ry="18"/>
<text text-anchor="middle" x="120" y="-99.8" font-family="Times,serif" font-size="14.00" fill="#000000">MonacoEditorService</text>
</g>
<!-- MonacoEditorService&#45;&gt;DejaMonacoEditorModule -->
<g id="edge4" class="edge">
<title>MonacoEditorService&#45;&gt;DejaMonacoEditorModule</title>
<path fill="none" stroke="#000000" d="M206.2572,-111.9703C206.2572,-129.3271 206.2572,-169 206.2572,-169 206.2572,-169 206.874,-169 206.874,-169"/>
<polygon fill="#000000" stroke="#000000" points="202.4256,-172.5002 212.4255,-169 202.4255,-165.5002 202.4256,-172.5002"/>
</g>
</g>
</svg>
