<?xml version="1.0" encoding="UTF-8" standalone="no"?>
<!DOCTYPE svg PUBLIC "-//W3C//DTD SVG 1.1//EN"
 "http://www.w3.org/Graphics/SVG/1.1/DTD/svg11.dtd">
<!-- Generated by graphviz version 2.40.1 (20161225.0304)
 -->
<!-- Title: dependencies Pages: 1 -->
<svg width="504pt" height="284pt"
 viewBox="0.00 0.00 504.00 284.00" xmlns="http://www.w3.org/2000/svg" xmlns:xlink="http://www.w3.org/1999/xlink">
<g id="graph0" class="graph" transform="scale(1 1) rotate(0) translate(4 280)">
<title>dependencies</title>
<polygon fill="#ffffff" stroke="transparent" points="-4,4 -4,-280 500,-280 500,4 -4,4"/>
<text text-anchor="start" x="227.0091" y="-42.4" font-family="sans-serif" font-weight="bold" font-size="14.00" fill="#000000">Legend</text>
<polygon fill="#ffffb3" stroke="transparent" points="14,-10 14,-30 34,-30 34,-10 14,-10"/>
<text text-anchor="start" x="37.629" y="-15.4" font-family="sans-serif" font-size="14.00" fill="#000000"> &#160;Declarations</text>
<polygon fill="#8dd3c7" stroke="transparent" points="127,-10 127,-30 147,-30 147,-10 127,-10"/>
<text text-anchor="start" x="150.7251" y="-15.4" font-family="sans-serif" font-size="14.00" fill="#000000"> &#160;Module</text>
<polygon fill="#80b1d3" stroke="transparent" points="213,-10 213,-30 233,-30 233,-10 213,-10"/>
<text text-anchor="start" x="236.7812" y="-15.4" font-family="sans-serif" font-size="14.00" fill="#000000"> &#160;Bootstrap</text>
<polygon fill="#fdb462" stroke="transparent" points="310,-10 310,-30 330,-30 330,-10 310,-10"/>
<text text-anchor="start" x="333.6732" y="-15.4" font-family="sans-serif" font-size="14.00" fill="#000000"> &#160;Providers</text>
<polygon fill="#fb8072" stroke="transparent" points="406,-10 406,-30 426,-30 426,-10 406,-10"/>
<text text-anchor="start" x="429.7258" y="-15.4" font-family="sans-serif" font-size="14.00" fill="#000000"> &#160;Exports</text>
<g id="clust1" class="cluster">
<title>cluster_DejaDialogModule</title>
<polygon fill="none" stroke="#000000" stroke-dasharray="1,5" points="12,-70 12,-268 484,-268 484,-70 12,-70"/>
</g>
<g id="clust2" class="cluster">
<title>cluster_DejaDialogModule_declarations</title>
<polygon fill="none" stroke="#000000" points="314,-78 314,-130 476,-130 476,-78 314,-78"/>
</g>
<g id="clust4" class="cluster">
<title>cluster_DejaDialogModule_imports</title>
<polygon fill="none" stroke="#000000" points="20,-78 20,-130 306,-130 306,-78 20,-78"/>
</g>
<g id="clust5" class="cluster">
<title>cluster_DejaDialogModule_exports</title>
<polygon fill="none" stroke="#000000" points="159,-208 159,-260 325,-260 325,-208 159,-208"/>
</g>
<!-- DejaDialogComponent -->
<g id="node1" class="node">
<title>DejaDialogComponent</title>
<polygon fill="#ffffb3" stroke="#000000" points="467.8613,-122 322.1387,-122 322.1387,-86 467.8613,-86 467.8613,-122"/>
<text text-anchor="middle" x="395" y="-99.8" font-family="Times,serif" font-size="14.00" fill="#000000">DejaDialogComponent</text>
</g>
<!-- DejaDialogModule -->
<g id="node2" class="node">
<title>DejaDialogModule</title>
<polygon fill="#8dd3c7" stroke="#000000" points="304.0786,-187 301.0786,-191 280.0786,-191 277.0786,-187 179.9214,-187 179.9214,-151 304.0786,-151 304.0786,-187"/>
<text text-anchor="middle" x="242" y="-164.8" font-family="Times,serif" font-size="14.00" fill="#000000">DejaDialogModule</text>
</g>
<!-- DejaDialogComponent&#45;&gt;DejaDialogModule -->
<g id="edge1" class="edge">
<title>DejaDialogComponent&#45;&gt;DejaDialogModule</title>
<path fill="none" stroke="#000000" d="M395,-122.1061C395,-141.3391 395,-169 395,-169 395,-169 314.231,-169 314.231,-169"/>
<polygon fill="#000000" stroke="#000000" points="314.231,-165.5001 304.231,-169 314.2309,-172.5001 314.231,-165.5001"/>
</g>
<!-- DejaDialogComponent  -->
<g id="node5" class="node">
<title>DejaDialogComponent </title>
<polygon fill="#fb8072" stroke="#000000" points="316.8616,-252 167.1384,-252 167.1384,-216 316.8616,-216 316.8616,-252"/>
<text text-anchor="middle" x="242" y="-229.8" font-family="Times,serif" font-size="14.00" fill="#000000">DejaDialogComponent </text>
</g>
<!-- DejaDialogModule&#45;&gt;DejaDialogComponent  -->
<g id="edge4" class="edge">
<title>DejaDialogModule&#45;&gt;DejaDialogComponent </title>
<path fill="none" stroke="#000000" stroke-dasharray="5,2" d="M242,-187.1061C242,-187.1061 242,-205.991 242,-205.991"/>
<polygon fill="#000000" stroke="#000000" points="238.5001,-205.9909 242,-215.991 245.5001,-205.991 238.5001,-205.9909"/>
</g>
<!-- CommonModule -->
<g id="node3" class="node">
<title>CommonModule</title>
<polygon fill="#8dd3c7" stroke="#000000" points="297.6681,-122 294.6681,-126 273.6681,-126 270.6681,-122 186.3319,-122 186.3319,-86 297.6681,-86 297.6681,-122"/>
<text text-anchor="middle" x="242" y="-99.8" font-family="Times,serif" font-size="14.00" fill="#000000">CommonModule</text>
</g>
<!-- CommonModule&#45;&gt;DejaDialogModule -->
<g id="edge2" class="edge">
<title>CommonModule&#45;&gt;DejaDialogModule</title>
<path fill="none" stroke="#000000" d="M242,-122.1061C242,-122.1061 242,-140.991 242,-140.991"/>
<polygon fill="#000000" stroke="#000000" points="238.5001,-140.9909 242,-150.991 245.5001,-140.991 238.5001,-140.9909"/>
</g>
<!-- DejaBackdropModule -->
<g id="node4" class="node">
<title>DejaBackdropModule</title>
<polygon fill="#8dd3c7" stroke="#000000" points="168.4032,-122 165.4032,-126 144.4032,-126 141.4032,-122 27.5968,-122 27.5968,-86 168.4032,-86 168.4032,-122"/>
<text text-anchor="middle" x="98" y="-99.8" font-family="Times,serif" font-size="14.00" fill="#000000">DejaBackdropModule</text>
</g>
<!-- DejaBackdropModule&#45;&gt;DejaDialogModule -->
<g id="edge3" class="edge">
<title>DejaBackdropModule&#45;&gt;DejaDialogModule</title>
<path fill="none" stroke="#000000" d="M97.5591,-122.1061C97.5591,-141.3391 97.5591,-169 97.5591,-169 97.5591,-169 169.9058,-169 169.9058,-169"/>
<polygon fill="#000000" stroke="#000000" points="169.9058,-172.5001 179.9058,-169 169.9057,-165.5001 169.9058,-172.5001"/>
</g>
</g>
</svg>
