<?xml version="1.0" encoding="UTF-8" standalone="no"?>
<!DOCTYPE svg PUBLIC "-//W3C//DTD SVG 1.1//EN"
 "http://www.w3.org/Graphics/SVG/1.1/DTD/svg11.dtd">
<!-- Generated by graphviz version 2.40.1 (20161225.0304)
 -->
<!-- Title: dependencies Pages: 1 -->
<svg width="770pt" height="284pt"
 viewBox="0.00 0.00 770.00 284.00" xmlns="http://www.w3.org/2000/svg" xmlns:xlink="http://www.w3.org/1999/xlink">
<g id="graph0" class="graph" transform="scale(1 1) rotate(0) translate(4 280)">
<title>dependencies</title>
<polygon fill="#ffffff" stroke="transparent" points="-4,4 -4,-280 766,-280 766,4 -4,4"/>
<text text-anchor="start" x="360.0091" y="-42.4" font-family="sans-serif" font-weight="bold" font-size="14.00" fill="#000000">Legend</text>
<polygon fill="#ffffb3" stroke="transparent" points="147,-10 147,-30 167,-30 167,-10 147,-10"/>
<text text-anchor="start" x="170.629" y="-15.4" font-family="sans-serif" font-size="14.00" fill="#000000"> &#160;Declarations</text>
<polygon fill="#8dd3c7" stroke="transparent" points="260,-10 260,-30 280,-30 280,-10 260,-10"/>
<text text-anchor="start" x="283.7251" y="-15.4" font-family="sans-serif" font-size="14.00" fill="#000000"> &#160;Module</text>
<polygon fill="#80b1d3" stroke="transparent" points="346,-10 346,-30 366,-30 366,-10 346,-10"/>
<text text-anchor="start" x="369.7812" y="-15.4" font-family="sans-serif" font-size="14.00" fill="#000000"> &#160;Bootstrap</text>
<polygon fill="#fdb462" stroke="transparent" points="443,-10 443,-30 463,-30 463,-10 443,-10"/>
<text text-anchor="start" x="466.6732" y="-15.4" font-family="sans-serif" font-size="14.00" fill="#000000"> &#160;Providers</text>
<polygon fill="#fb8072" stroke="transparent" points="539,-10 539,-30 559,-30 559,-10 539,-10"/>
<text text-anchor="start" x="562.7258" y="-15.4" font-family="sans-serif" font-size="14.00" fill="#000000"> &#160;Exports</text>
<g id="clust1" class="cluster">
<title>cluster_DejaMenuModule</title>
<polygon fill="none" stroke="#000000" stroke-dasharray="1,5" points="8,-70 8,-268 754,-268 754,-70 8,-70"/>
</g>
<g id="clust2" class="cluster">
<title>cluster_DejaMenuModule_declarations</title>
<polygon fill="none" stroke="#000000" points="590,-78 590,-130 746,-130 746,-78 590,-78"/>
</g>
<g id="clust4" class="cluster">
<title>cluster_DejaMenuModule_imports</title>
<polygon fill="none" stroke="#000000" points="16,-78 16,-130 582,-130 582,-78 16,-78"/>
</g>
<g id="clust5" class="cluster">
<title>cluster_DejaMenuModule_exports</title>
<polygon fill="none" stroke="#000000" points="317,-208 317,-260 477,-260 477,-208 317,-208"/>
</g>
<!-- DejaMenuComponent -->
<g id="node1" class="node">
<title>DejaMenuComponent</title>
<polygon fill="#ffffb3" stroke="#000000" points="738.4186,-122 597.5814,-122 597.5814,-86 738.4186,-86 738.4186,-122"/>
<text text-anchor="middle" x="668" y="-99.8" font-family="Times,serif" font-size="14.00" fill="#000000">DejaMenuComponent</text>
</g>
<!-- DejaMenuModule -->
<g id="node2" class="node">
<title>DejaMenuModule</title>
<polygon fill="#8dd3c7" stroke="#000000" points="456.136,-187 453.136,-191 432.136,-191 429.136,-187 337.864,-187 337.864,-151 456.136,-151 456.136,-187"/>
<text text-anchor="middle" x="397" y="-164.8" font-family="Times,serif" font-size="14.00" fill="#000000">DejaMenuModule</text>
</g>
<!-- DejaMenuComponent&#45;&gt;DejaMenuModule -->
<g id="edge1" class="edge">
<title>DejaMenuComponent&#45;&gt;DejaMenuModule</title>
<path fill="none" stroke="#000000" d="M668,-122.1061C668,-141.3391 668,-169 668,-169 668,-169 466.1372,-169 466.1372,-169"/>
<polygon fill="#000000" stroke="#000000" points="466.1373,-165.5001 456.1372,-169 466.1372,-172.5001 466.1373,-165.5001"/>
</g>
<!-- DejaMenuComponent  -->
<g id="node7" class="node">
<title>DejaMenuComponent </title>
<polygon fill="#fb8072" stroke="#000000" points="468.918,-252 325.082,-252 325.082,-216 468.918,-216 468.918,-252"/>
<text text-anchor="middle" x="397" y="-229.8" font-family="Times,serif" font-size="14.00" fill="#000000">DejaMenuComponent </text>
</g>
<!-- DejaMenuModule&#45;&gt;DejaMenuComponent  -->
<g id="edge6" class="edge">
<title>DejaMenuModule&#45;&gt;DejaMenuComponent </title>
<path fill="none" stroke="#000000" stroke-dasharray="5,2" d="M397,-187.1061C397,-187.1061 397,-205.991 397,-205.991"/>
<polygon fill="#000000" stroke="#000000" points="393.5001,-205.9909 397,-215.991 400.5001,-205.991 393.5001,-205.9909"/>
</g>
<!-- CommonModule -->
<g id="node3" class="node">
<title>CommonModule</title>
<polygon fill="#8dd3c7" stroke="#000000" points="573.6681,-122 570.6681,-126 549.6681,-126 546.6681,-122 462.3319,-122 462.3319,-86 573.6681,-86 573.6681,-122"/>
<text text-anchor="middle" x="518" y="-99.8" font-family="Times,serif" font-size="14.00" fill="#000000">CommonModule</text>
</g>
<!-- CommonModule&#45;&gt;DejaMenuModule -->
<g id="edge2" class="edge">
<title>CommonModule&#45;&gt;DejaMenuModule</title>
<path fill="none" stroke="#000000" d="M462.2501,-104C455.2541,-104 450.4909,-104 450.4909,-104 450.4909,-104 450.4909,-140.8939 450.4909,-140.8939"/>
<polygon fill="#000000" stroke="#000000" points="446.991,-140.8938 450.4909,-150.8939 453.991,-140.8939 446.991,-140.8938"/>
</g>
<!-- FormsModule -->
<g id="node4" class="node">
<title>FormsModule</title>
<polygon fill="#8dd3c7" stroke="#000000" points="444.8288,-122 441.8288,-126 420.8288,-126 417.8288,-122 349.1712,-122 349.1712,-86 444.8288,-86 444.8288,-122"/>
<text text-anchor="middle" x="397" y="-99.8" font-family="Times,serif" font-size="14.00" fill="#000000">FormsModule</text>
</g>
<!-- FormsModule&#45;&gt;DejaMenuModule -->
<g id="edge3" class="edge">
<title>FormsModule&#45;&gt;DejaMenuModule</title>
<path fill="none" stroke="#000000" d="M397,-122.1061C397,-122.1061 397,-140.991 397,-140.991"/>
<polygon fill="#000000" stroke="#000000" points="393.5001,-140.9909 397,-150.991 400.5001,-140.991 393.5001,-140.9909"/>
</g>
<!-- DejaDropDownModule -->
<g id="node5" class="node">
<title>DejaDropDownModule</title>
<polygon fill="#8dd3c7" stroke="#000000" points="331.4566,-122 328.4566,-126 307.4566,-126 304.4566,-122 182.5434,-122 182.5434,-86 331.4566,-86 331.4566,-122"/>
<text text-anchor="middle" x="257" y="-99.8" font-family="Times,serif" font-size="14.00" fill="#000000">DejaDropDownModule</text>
</g>
<!-- DejaDropDownModule&#45;&gt;DejaMenuModule -->
<g id="edge4" class="edge">
<title>DejaDropDownModule&#45;&gt;DejaMenuModule</title>
<path fill="none" stroke="#000000" d="M331.4804,-104C338.757,-104 343.5091,-104 343.5091,-104 343.5091,-104 343.5091,-140.8939 343.5091,-140.8939"/>
<polygon fill="#000000" stroke="#000000" points="340.0092,-140.8938 343.5091,-150.8939 347.0092,-140.8939 340.0092,-140.8938"/>
</g>
<!-- DejaBackdropModule -->
<g id="node6" class="node">
<title>DejaBackdropModule</title>
<polygon fill="#8dd3c7" stroke="#000000" points="164.4032,-122 161.4032,-126 140.4032,-126 137.4032,-122 23.5968,-122 23.5968,-86 164.4032,-86 164.4032,-122"/>
<text text-anchor="middle" x="94" y="-99.8" font-family="Times,serif" font-size="14.00" fill="#000000">DejaBackdropModule</text>
</g>
<!-- DejaBackdropModule&#45;&gt;DejaMenuModule -->
<g id="edge5" class="edge">
<title>DejaBackdropModule&#45;&gt;DejaMenuModule</title>
<path fill="none" stroke="#000000" d="M94,-122.1061C94,-141.3391 94,-169 94,-169 94,-169 327.8593,-169 327.8593,-169"/>
<polygon fill="#000000" stroke="#000000" points="327.8593,-172.5001 337.8593,-169 327.8592,-165.5001 327.8593,-172.5001"/>
</g>
</g>
</svg>
