<?xml version="1.0" encoding="UTF-8" standalone="no"?>
<!DOCTYPE svg PUBLIC "-//W3C//DTD SVG 1.1//EN"
 "http://www.w3.org/Graphics/SVG/1.1/DTD/svg11.dtd">
<!-- Generated by graphviz version 2.40.1 (20161225.0304)
 -->
<!-- Title: dependencies Pages: 1 -->
<svg width="924pt" height="396pt"
 viewBox="0.00 0.00 924.00 395.59" xmlns="http://www.w3.org/2000/svg" xmlns:xlink="http://www.w3.org/1999/xlink">
<g id="graph0" class="graph" transform="scale(1 1) rotate(0) translate(4 391.5901)">
<title>dependencies</title>
<polygon fill="#ffffff" stroke="transparent" points="-4,4 -4,-391.5901 920,-391.5901 920,4 -4,4"/>
<text text-anchor="start" x="437.0091" y="-42.4" font-family="sans-serif" font-weight="bold" font-size="14.00" fill="#000000">Legend</text>
<polygon fill="#ffffb3" stroke="transparent" points="224,-10 224,-30 244,-30 244,-10 224,-10"/>
<text text-anchor="start" x="247.629" y="-15.4" font-family="sans-serif" font-size="14.00" fill="#000000"> &#160;Declarations</text>
<polygon fill="#8dd3c7" stroke="transparent" points="337,-10 337,-30 357,-30 357,-10 337,-10"/>
<text text-anchor="start" x="360.7251" y="-15.4" font-family="sans-serif" font-size="14.00" fill="#000000"> &#160;Module</text>
<polygon fill="#80b1d3" stroke="transparent" points="423,-10 423,-30 443,-30 443,-10 423,-10"/>
<text text-anchor="start" x="446.7812" y="-15.4" font-family="sans-serif" font-size="14.00" fill="#000000"> &#160;Bootstrap</text>
<polygon fill="#fdb462" stroke="transparent" points="520,-10 520,-30 540,-30 540,-10 520,-10"/>
<text text-anchor="start" x="543.6732" y="-15.4" font-family="sans-serif" font-size="14.00" fill="#000000"> &#160;Providers</text>
<polygon fill="#fb8072" stroke="transparent" points="616,-10 616,-30 636,-30 636,-10 616,-10"/>
<text text-anchor="start" x="639.7258" y="-15.4" font-family="sans-serif" font-size="14.00" fill="#000000"> &#160;Exports</text>
<g id="clust1" class="cluster">
<title>cluster_DejaChildValidatorModule</title>
<polygon fill="none" stroke="#000000" stroke-dasharray="1,5" points="8,-70 8,-379.5901 908,-379.5901 908,-70 8,-70"/>
</g>
<g id="clust2" class="cluster">
<title>cluster_DejaChildValidatorModule_declarations</title>
<polygon fill="none" stroke="#000000" points="361,-189.5901 361,-241.5901 555,-241.5901 555,-189.5901 361,-189.5901"/>
</g>
<g id="clust3" class="cluster">
<title>cluster_DejaChildValidatorModule_DejaChildValidatorDirective_providers</title>
<polygon fill="none" stroke="#000000" points="16,-78 16,-176.5901 900,-176.5901 900,-78 16,-78"/>
</g>
<g id="clust5" class="cluster">
<title>cluster_DejaChildValidatorModule_exports</title>
<polygon fill="none" stroke="#000000" points="359,-319.5901 359,-371.5901 557,-371.5901 557,-319.5901 359,-319.5901"/>
</g>
<!-- DejaChildValidatorDirective -->
<g id="node1" class="node">
<title>DejaChildValidatorDirective</title>
<polygon fill="#ffffb3" stroke="#000000" points="547.4959,-233.5901 368.5041,-233.5901 368.5041,-197.5901 547.4959,-197.5901 547.4959,-233.5901"/>
<text text-anchor="middle" x="458" y="-211.3901" font-family="Times,serif" font-size="14.00" fill="#000000">DejaChildValidatorDirective</text>
</g>
<!-- DejaChildValidatorModule -->
<g id="node2" class="node">
<title>DejaChildValidatorModule</title>
<polygon fill="#8dd3c7" stroke="#000000" points="542.9622,-298.5901 539.9622,-302.5901 518.9622,-302.5901 515.9622,-298.5901 373.0378,-298.5901 373.0378,-262.5901 542.9622,-262.5901 542.9622,-298.5901"/>
<text text-anchor="middle" x="458" y="-276.3901" font-family="Times,serif" font-size="14.00" fill="#000000">DejaChildValidatorModule</text>
</g>
<!-- DejaChildValidatorDirective&#45;&gt;DejaChildValidatorModule -->
<g id="edge1" class="edge">
<title>DejaChildValidatorDirective&#45;&gt;DejaChildValidatorModule</title>
<path fill="none" stroke="#000000" d="M458,-233.6962C458,-233.6962 458,-252.581 458,-252.581"/>
<polygon fill="#000000" stroke="#000000" points="454.5001,-252.581 458,-262.581 461.5001,-252.5811 454.5001,-252.581"/>
</g>
<!-- DejaChildValidatorDirective  -->
<g id="node4" class="node">
<title>DejaChildValidatorDirective </title>
<polygon fill="#fb8072" stroke="#000000" points="548.9952,-363.5901 367.0048,-363.5901 367.0048,-327.5901 548.9952,-327.5901 548.9952,-363.5901"/>
<text text-anchor="middle" x="458" y="-341.3901" font-family="Times,serif" font-size="14.00" fill="#000000">DejaChildValidatorDirective </text>
</g>
<!-- DejaChildValidatorModule&#45;&gt;DejaChildValidatorDirective  -->
<g id="edge3" class="edge">
<title>DejaChildValidatorModule&#45;&gt;DejaChildValidatorDirective </title>
<path fill="none" stroke="#000000" stroke-dasharray="5,2" d="M458,-298.6962C458,-298.6962 458,-317.581 458,-317.581"/>
<polygon fill="#000000" stroke="#000000" points="454.5001,-317.581 458,-327.581 461.5001,-317.5811 454.5001,-317.581"/>
</g>
<!-- {
 &#160;&#160;&#160;provide: NG_VALIDATORS, useExisting: forwardRef(() =&gt; DejaChildValidatorDirective), multi: true,
} -->
<g id="node3" class="node">
<title>{
 &#160;&#160;&#160;provide: NG_VALIDATORS, useExisting: forwardRef(() =&gt; DejaChildValidatorDirective), multi: true,
}</title>
<ellipse fill="#fdb462" stroke="#000000" cx="458" cy="-127.295" rx="434.0631" ry="41.0911"/>
<text text-anchor="middle" x="458" y="-139.895" font-family="Times,serif" font-size="14.00" fill="#000000">{</text>
<text text-anchor="middle" x="458" y="-123.095" font-family="Times,serif" font-size="14.00" fill="#000000"> &#160;&#160;&#160;provide: NG_VALIDATORS, useExisting: forwardRef(() =&gt; DejaChildValidatorDirective), multi: true,</text>
<text text-anchor="middle" x="458" y="-106.295" font-family="Times,serif" font-size="14.00" fill="#000000">}</text>
</g>
<!-- {
 &#160;&#160;&#160;provide: NG_VALIDATORS, useExisting: forwardRef(() =&gt; DejaChildValidatorDirective), multi: true,
}&#45;&gt;DejaChildValidatorDirective -->
<g id="edge2" class="edge">
<title>{
 &#160;&#160;&#160;provide: NG_VALIDATORS, useExisting: forwardRef(() =&gt; DejaChildValidatorDirective), multi: true,
}&#45;&gt;DejaChildValidatorDirective</title>
<path fill="none" stroke="#000000" d="M458,-168.5989C458,-168.5989 458,-187.2551 458,-187.2551"/>
<polygon fill="#000000" stroke="#000000" points="454.5001,-187.255 458,-197.2551 461.5001,-187.2551 454.5001,-187.255"/>
</g>
</g>
</svg>
