<?xml version="1.0" encoding="UTF-8" standalone="no"?>
<!DOCTYPE svg PUBLIC "-//W3C//DTD SVG 1.1//EN"
 "http://www.w3.org/Graphics/SVG/1.1/DTD/svg11.dtd">
<!-- Generated by graphviz version 2.40.1 (20161225.0304)
 -->
<!-- Title: dependencies Pages: 1 -->
<svg width="649pt" height="349pt"
 viewBox="0.00 0.00 649.00 349.00" xmlns="http://www.w3.org/2000/svg" xmlns:xlink="http://www.w3.org/1999/xlink">
<g id="graph0" class="graph" transform="scale(1 1) rotate(0) translate(4 345)">
<title>dependencies</title>
<polygon fill="#ffffff" stroke="transparent" points="-4,4 -4,-345 645,-345 645,4 -4,4"/>
<text text-anchor="start" x="299.5091" y="-42.4" font-family="sans-serif" font-weight="bold" font-size="14.00" fill="#000000">Legend</text>
<polygon fill="#ffffb3" stroke="transparent" points="86.5,-10 86.5,-30 106.5,-30 106.5,-10 86.5,-10"/>
<text text-anchor="start" x="110.129" y="-15.4" font-family="sans-serif" font-size="14.00" fill="#000000"> &#160;Declarations</text>
<polygon fill="#8dd3c7" stroke="transparent" points="199.5,-10 199.5,-30 219.5,-30 219.5,-10 199.5,-10"/>
<text text-anchor="start" x="223.2251" y="-15.4" font-family="sans-serif" font-size="14.00" fill="#000000"> &#160;Module</text>
<polygon fill="#80b1d3" stroke="transparent" points="285.5,-10 285.5,-30 305.5,-30 305.5,-10 285.5,-10"/>
<text text-anchor="start" x="309.2812" y="-15.4" font-family="sans-serif" font-size="14.00" fill="#000000"> &#160;Bootstrap</text>
<polygon fill="#fdb462" stroke="transparent" points="382.5,-10 382.5,-30 402.5,-30 402.5,-10 382.5,-10"/>
<text text-anchor="start" x="406.1732" y="-15.4" font-family="sans-serif" font-size="14.00" fill="#000000"> &#160;Providers</text>
<polygon fill="#fb8072" stroke="transparent" points="478.5,-10 478.5,-30 498.5,-30 498.5,-10 478.5,-10"/>
<text text-anchor="start" x="502.2258" y="-15.4" font-family="sans-serif" font-size="14.00" fill="#000000"> &#160;Exports</text>
<g id="clust1" class="cluster">
<title>cluster_DejaChildValidatorModule</title>
<polygon fill="none" stroke="#000000" stroke-dasharray="1,5" points="8,-70 8,-333 633,-333 633,-70 8,-70"/>
</g>
<g id="clust2" class="cluster">
<title>cluster_DejaChildValidatorModule_declarations</title>
<polygon fill="none" stroke="#000000" points="265,-143 265,-195 625,-195 625,-143 265,-143"/>
</g>
<g id="clust3" class="cluster">
<title>cluster_DejaChildValidatorModule_DejaChildValidatorDirective_providers</title>
<polygon fill="none" stroke="#000000" points="136,-78 136,-130 602,-130 602,-78 136,-78"/>
</g>
<g id="clust5" class="cluster">
<title>cluster_DejaChildValidatorModule_imports</title>
<polygon fill="none" stroke="#000000" points="16,-143 16,-195 257,-195 257,-143 16,-143"/>
</g>
<g id="clust6" class="cluster">
<title>cluster_DejaChildValidatorModule_exports</title>
<polygon fill="none" stroke="#000000" points="63,-273 63,-325 429,-325 429,-273 63,-273"/>
</g>
<!-- DejaChildValidatorDirective -->
<g id="node1" class="node">
<title>DejaChildValidatorDirective</title>
<polygon fill="#ffffb3" stroke="#000000" points="617.4959,-187 438.5041,-187 438.5041,-151 617.4959,-151 617.4959,-187"/>
<text text-anchor="middle" x="528" y="-164.8" font-family="Times,serif" font-size="14.00" fill="#000000">DejaChildValidatorDirective</text>
</g>
<!-- DejaChildValidatorModule -->
<g id="node3" class="node">
<title>DejaChildValidatorModule</title>
<polygon fill="#8dd3c7" stroke="#000000" points="345.9622,-252 342.9622,-256 321.9622,-256 318.9622,-252 176.0378,-252 176.0378,-216 345.9622,-216 345.9622,-252"/>
<text text-anchor="middle" x="261" y="-229.8" font-family="Times,serif" font-size="14.00" fill="#000000">DejaChildValidatorModule</text>
</g>
<!-- DejaChildValidatorDirective&#45;&gt;DejaChildValidatorModule -->
<g id="edge1" class="edge">
<title>DejaChildValidatorDirective&#45;&gt;DejaChildValidatorModule</title>
<path fill="none" stroke="#000000" d="M528,-187.1061C528,-206.3391 528,-234 528,-234 528,-234 356.2146,-234 356.2146,-234"/>
<polygon fill="#000000" stroke="#000000" points="356.2146,-230.5001 346.2146,-234 356.2145,-237.5001 356.2146,-230.5001"/>
</g>
<!-- DateValidatorDirective -->
<g id="node2" class="node">
<title>DateValidatorDirective</title>
<polygon fill="#ffffb3" stroke="#000000" points="420.8779,-187 273.1221,-187 273.1221,-151 420.8779,-151 420.8779,-187"/>
<text text-anchor="middle" x="347" y="-164.8" font-family="Times,serif" font-size="14.00" fill="#000000">DateValidatorDirective</text>
</g>
<!-- DateValidatorDirective&#45;&gt;DejaChildValidatorModule -->
<g id="edge3" class="edge">
<title>DateValidatorDirective&#45;&gt;DejaChildValidatorModule</title>
<path fill="none" stroke="#000000" d="M309.6462,-187.1061C309.6462,-187.1061 309.6462,-205.991 309.6462,-205.991"/>
<polygon fill="#000000" stroke="#000000" points="306.1463,-205.9909 309.6462,-215.991 313.1463,-205.991 306.1463,-205.9909"/>
</g>
<!-- DejaChildValidatorDirective  -->
<g id="node7" class="node">
<title>DejaChildValidatorDirective </title>
<polygon fill="#fb8072" stroke="#000000" points="420.9952,-317 239.0048,-317 239.0048,-281 420.9952,-281 420.9952,-317"/>
<text text-anchor="middle" x="330" y="-294.8" font-family="Times,serif" font-size="14.00" fill="#000000">DejaChildValidatorDirective </text>
</g>
<!-- DejaChildValidatorModule&#45;&gt;DejaChildValidatorDirective  -->
<g id="edge7" class="edge">
<title>DejaChildValidatorModule&#45;&gt;DejaChildValidatorDirective </title>
<path fill="none" stroke="#000000" stroke-dasharray="5,2" d="M292.4918,-252.1061C292.4918,-252.1061 292.4918,-270.991 292.4918,-270.991"/>
<polygon fill="#000000" stroke="#000000" points="288.9918,-270.9909 292.4918,-280.991 295.9918,-270.991 288.9918,-270.9909"/>
</g>
<!-- DateValidatorDirective  -->
<g id="node8" class="node">
<title>DateValidatorDirective </title>
<polygon fill="#fb8072" stroke="#000000" points="221.3774,-317 70.6226,-317 70.6226,-281 221.3774,-281 221.3774,-317"/>
<text text-anchor="middle" x="146" y="-294.8" font-family="Times,serif" font-size="14.00" fill="#000000">DateValidatorDirective </text>
</g>
<!-- DejaChildValidatorModule&#45;&gt;DateValidatorDirective  -->
<g id="edge8" class="edge">
<title>DejaChildValidatorModule&#45;&gt;DateValidatorDirective </title>
<path fill="none" stroke="#000000" stroke-dasharray="5,2" d="M198.7288,-252.1061C198.7288,-252.1061 198.7288,-270.991 198.7288,-270.991"/>
<polygon fill="#000000" stroke="#000000" points="195.2289,-270.9909 198.7288,-280.991 202.2289,-270.991 195.2289,-270.9909"/>
</g>
<!-- { provide: NG_VALIDATORS, useExisting: , multi: &#160;} -->
<g id="node4" class="node">
<title>{ provide: NG_VALIDATORS, useExisting: , multi: &#160;}</title>
<ellipse fill="#fdb462" stroke="#000000" cx="369" cy="-104" rx="225.4746" ry="18"/>
<text text-anchor="middle" x="369" y="-99.8" font-family="Times,serif" font-size="14.00" fill="#000000">{ provide: NG_VALIDATORS, useExisting: , multi: &#160;}</text>
</g>
<!-- { provide: NG_VALIDATORS, useExisting: , multi: &#160;}&#45;&gt;DejaChildValidatorDirective -->
<g id="edge2" class="edge">
<title>{ provide: NG_VALIDATORS, useExisting: , multi: &#160;}&#45;&gt;DejaChildValidatorDirective</title>
<path fill="none" stroke="#000000" d="M516.6199,-117.7848C516.6199,-117.7848 516.6199,-140.5475 516.6199,-140.5475"/>
<polygon fill="#000000" stroke="#000000" points="513.12,-140.5474 516.6199,-150.5475 520.12,-140.5475 513.12,-140.5474"/>
</g>
<!-- { provide: NG_VALIDATORS, useExisting: , multi: &#160;}&#45;&gt;DateValidatorDirective -->
<g id="edge4" class="edge">
<title>{ provide: NG_VALIDATORS, useExisting: , multi: &#160;}&#45;&gt;DateValidatorDirective</title>
<path fill="none" stroke="#000000" d="M347,-122.1061C347,-122.1061 347,-140.991 347,-140.991"/>
<polygon fill="#000000" stroke="#000000" points="343.5001,-140.9909 347,-150.991 350.5001,-140.991 343.5001,-140.9909"/>
</g>
<!-- CommonModule -->
<g id="node5" class="node">
<title>CommonModule</title>
<polygon fill="#8dd3c7" stroke="#000000" points="248.6681,-187 245.6681,-191 224.6681,-191 221.6681,-187 137.3319,-187 137.3319,-151 248.6681,-151 248.6681,-187"/>
<text text-anchor="middle" x="193" y="-164.8" font-family="Times,serif" font-size="14.00" fill="#000000">CommonModule</text>
</g>
<!-- CommonModule&#45;&gt;DejaChildValidatorModule -->
<g id="edge5" class="edge">
<title>CommonModule&#45;&gt;DejaChildValidatorModule</title>
<path fill="none" stroke="#000000" d="M212.4264,-187.1061C212.4264,-187.1061 212.4264,-205.991 212.4264,-205.991"/>
<polygon fill="#000000" stroke="#000000" points="208.9264,-205.9909 212.4264,-215.991 215.9264,-205.991 208.9264,-205.9909"/>
</g>
<!-- FormsModule -->
<g id="node6" class="node">
<title>FormsModule</title>
<polygon fill="#8dd3c7" stroke="#000000" points="119.8288,-187 116.8288,-191 95.8288,-191 92.8288,-187 24.1712,-187 24.1712,-151 119.8288,-151 119.8288,-187"/>
<text text-anchor="middle" x="72" y="-164.8" font-family="Times,serif" font-size="14.00" fill="#000000">FormsModule</text>
</g>
<!-- FormsModule&#45;&gt;DejaChildValidatorModule -->
<g id="edge6" class="edge">
<title>FormsModule&#45;&gt;DejaChildValidatorModule</title>
<path fill="none" stroke="#000000" d="M95.1127,-187.1061C95.1127,-206.3391 95.1127,-234 95.1127,-234 95.1127,-234 165.6267,-234 165.6267,-234"/>
<polygon fill="#000000" stroke="#000000" points="165.6267,-237.5001 175.6267,-234 165.6266,-230.5001 165.6267,-237.5001"/>
</g>
</g>
</svg>
