<?xml version="1.0" encoding="UTF-8" standalone="no"?>
<!DOCTYPE svg PUBLIC "-//W3C//DTD SVG 1.1//EN"
 "http://www.w3.org/Graphics/SVG/1.1/DTD/svg11.dtd">
<!-- Generated by graphviz version 2.40.1 (20161225.0304)
 -->
<!-- Title: dependencies Pages: 1 -->
<svg width="1899pt" height="284pt"
 viewBox="0.00 0.00 1899.00 284.00" xmlns="http://www.w3.org/2000/svg" xmlns:xlink="http://www.w3.org/1999/xlink">
<g id="graph0" class="graph" transform="scale(1 1) rotate(0) translate(4 280)">
<title>dependencies</title>
<polygon fill="#ffffff" stroke="transparent" points="-4,4 -4,-280 1895,-280 1895,4 -4,4"/>
<text text-anchor="start" x="924.5091" y="-42.4" font-family="sans-serif" font-weight="bold" font-size="14.00" fill="#000000">Legend</text>
<polygon fill="#ffffb3" stroke="transparent" points="711.5,-10 711.5,-30 731.5,-30 731.5,-10 711.5,-10"/>
<text text-anchor="start" x="735.129" y="-15.4" font-family="sans-serif" font-size="14.00" fill="#000000"> &#160;Declarations</text>
<polygon fill="#8dd3c7" stroke="transparent" points="824.5,-10 824.5,-30 844.5,-30 844.5,-10 824.5,-10"/>
<text text-anchor="start" x="848.2251" y="-15.4" font-family="sans-serif" font-size="14.00" fill="#000000"> &#160;Module</text>
<polygon fill="#80b1d3" stroke="transparent" points="910.5,-10 910.5,-30 930.5,-30 930.5,-10 910.5,-10"/>
<text text-anchor="start" x="934.2812" y="-15.4" font-family="sans-serif" font-size="14.00" fill="#000000"> &#160;Bootstrap</text>
<polygon fill="#fdb462" stroke="transparent" points="1007.5,-10 1007.5,-30 1027.5,-30 1027.5,-10 1007.5,-10"/>
<text text-anchor="start" x="1031.1732" y="-15.4" font-family="sans-serif" font-size="14.00" fill="#000000"> &#160;Providers</text>
<polygon fill="#fb8072" stroke="transparent" points="1103.5,-10 1103.5,-30 1123.5,-30 1123.5,-10 1103.5,-10"/>
<text text-anchor="start" x="1127.2258" y="-15.4" font-family="sans-serif" font-size="14.00" fill="#000000"> &#160;Exports</text>
<g id="clust1" class="cluster">
<title>cluster_DejaPopupModule</title>
<polygon fill="none" stroke="#000000" stroke-dasharray="1,5" points="8,-70 8,-268 1883,-268 1883,-70 8,-70"/>
</g>
<g id="clust2" class="cluster">
<title>cluster_DejaPopupModule_declarations</title>
<polygon fill="none" stroke="#000000" points="506,-78 506,-130 1875,-130 1875,-78 506,-78"/>
</g>
<g id="clust10" class="cluster">
<title>cluster_DejaPopupModule_imports</title>
<polygon fill="none" stroke="#000000" points="206,-78 206,-130 498,-130 498,-78 206,-78"/>
</g>
<g id="clust11" class="cluster">
<title>cluster_DejaPopupModule_exports</title>
<polygon fill="none" stroke="#000000" points="311,-208 311,-260 1513,-260 1513,-208 311,-208"/>
</g>
<g id="clust13" class="cluster">
<title>cluster_DejaPopupModule_providers</title>
<polygon fill="none" stroke="#000000" points="16,-78 16,-130 198,-130 198,-78 16,-78"/>
</g>
<!-- DejaPopupActionsComponent -->
<g id="node1" class="node">
<title>DejaPopupActionsComponent</title>
<polygon fill="#ffffb3" stroke="#000000" points="1866.5884,-122 1679.4116,-122 1679.4116,-86 1866.5884,-86 1866.5884,-122"/>
<text text-anchor="middle" x="1773" y="-99.8" font-family="Times,serif" font-size="14.00" fill="#000000">DejaPopupActionsComponent</text>
</g>
<!-- DejaPopupModule -->
<g id="node8" class="node">
<title>DejaPopupModule</title>
<polygon fill="#8dd3c7" stroke="#000000" points="1062.759,-187 1059.759,-191 1038.759,-191 1035.759,-187 941.241,-187 941.241,-151 1062.759,-151 1062.759,-187"/>
<text text-anchor="middle" x="1002" y="-164.8" font-family="Times,serif" font-size="14.00" fill="#000000">DejaPopupModule</text>
</g>
<!-- DejaPopupActionsComponent&#45;&gt;DejaPopupModule -->
<g id="edge1" class="edge">
<title>DejaPopupActionsComponent&#45;&gt;DejaPopupModule</title>
<path fill="none" stroke="#000000" d="M1773,-122.0267C1773,-142.7672 1773,-174 1773,-174 1773,-174 1072.8209,-174 1072.8209,-174"/>
<polygon fill="#000000" stroke="#000000" points="1072.821,-170.5001 1062.8209,-174 1072.8209,-177.5001 1072.821,-170.5001"/>
</g>
<!-- DejaPopupAdvancedComponent -->
<g id="node2" class="node">
<title>DejaPopupAdvancedComponent</title>
<polygon fill="#ffffb3" stroke="#000000" points="1661.292,-122 1460.708,-122 1460.708,-86 1661.292,-86 1661.292,-122"/>
<text text-anchor="middle" x="1561" y="-99.8" font-family="Times,serif" font-size="14.00" fill="#000000">DejaPopupAdvancedComponent</text>
</g>
<!-- DejaPopupAdvancedComponent&#45;&gt;DejaPopupModule -->
<g id="edge2" class="edge">
<title>DejaPopupAdvancedComponent&#45;&gt;DejaPopupModule</title>
<path fill="none" stroke="#000000" d="M1483.0742,-122.1061C1483.0742,-141.3391 1483.0742,-169 1483.0742,-169 1483.0742,-169 1072.9284,-169 1072.9284,-169"/>
<polygon fill="#000000" stroke="#000000" points="1072.9284,-165.5001 1062.9284,-169 1072.9283,-172.5001 1072.9284,-165.5001"/>
</g>
<!-- DejaPopupBoxComponent -->
<g id="node3" class="node">
<title>DejaPopupBoxComponent</title>
<polygon fill="#ffffb3" stroke="#000000" points="1442.378,-122 1275.622,-122 1275.622,-86 1442.378,-86 1442.378,-122"/>
<text text-anchor="middle" x="1359" y="-99.8" font-family="Times,serif" font-size="14.00" fill="#000000">DejaPopupBoxComponent</text>
</g>
<!-- DejaPopupBoxComponent&#45;&gt;DejaPopupModule -->
<g id="edge3" class="edge">
<title>DejaPopupBoxComponent&#45;&gt;DejaPopupModule</title>
<path fill="none" stroke="#000000" d="M1286.2285,-122.302C1286.2285,-140.2699 1286.2285,-165 1286.2285,-165 1286.2285,-165 1072.9741,-165 1072.9741,-165"/>
<polygon fill="#000000" stroke="#000000" points="1072.9742,-161.5001 1062.9741,-165 1072.9741,-168.5001 1072.9742,-161.5001"/>
</g>
<!-- DejaPopupComponent -->
<g id="node4" class="node">
<title>DejaPopupComponent</title>
<polygon fill="#ffffb3" stroke="#000000" points="1257.5421,-122 1114.4579,-122 1114.4579,-86 1257.5421,-86 1257.5421,-122"/>
<text text-anchor="middle" x="1186" y="-99.8" font-family="Times,serif" font-size="14.00" fill="#000000">DejaPopupComponent</text>
</g>
<!-- DejaPopupComponent&#45;&gt;DejaPopupModule -->
<g id="edge4" class="edge">
<title>DejaPopupComponent&#45;&gt;DejaPopupModule</title>
<path fill="none" stroke="#000000" d="M1162.0764,-122.1871C1162.0764,-137.1824 1162.0764,-156 1162.0764,-156 1162.0764,-156 1072.9747,-156 1072.9747,-156"/>
<polygon fill="#000000" stroke="#000000" points="1072.9747,-152.5001 1062.9747,-156 1072.9746,-159.5001 1072.9747,-152.5001"/>
</g>
<!-- DejaPopupComponent&#45;&gt;DejaPopupModule -->
<g id="edge5" class="edge">
<title>DejaPopupComponent&#45;&gt;DejaPopupModule</title>
<path fill="none" stroke="#000000" d="M1209.9236,-122.027C1209.9236,-138.3976 1209.9236,-160 1209.9236,-160 1209.9236,-160 1072.979,-160 1072.979,-160"/>
<polygon fill="#000000" stroke="#000000" points="1072.9791,-156.5001 1062.979,-160 1072.979,-163.5001 1072.9791,-156.5001"/>
</g>
<!-- DejaPopupContentComponent -->
<g id="node5" class="node">
<title>DejaPopupContentComponent</title>
<polygon fill="#ffffb3" stroke="#000000" points="1095.8738,-122 908.1262,-122 908.1262,-86 1095.8738,-86 1095.8738,-122"/>
<text text-anchor="middle" x="1002" y="-99.8" font-family="Times,serif" font-size="14.00" fill="#000000">DejaPopupContentComponent</text>
</g>
<!-- DejaPopupContentComponent&#45;&gt;DejaPopupModule -->
<g id="edge6" class="edge">
<title>DejaPopupContentComponent&#45;&gt;DejaPopupModule</title>
<path fill="none" stroke="#000000" d="M1002,-122.1061C1002,-122.1061 1002,-140.991 1002,-140.991"/>
<polygon fill="#000000" stroke="#000000" points="998.5001,-140.9909 1002,-150.991 1005.5001,-140.991 998.5001,-140.9909"/>
</g>
<!-- DejaPopupToolbarComponent -->
<g id="node6" class="node">
<title>DejaPopupToolbarComponent</title>
<polygon fill="#ffffb3" stroke="#000000" points="889.8599,-122 702.1401,-122 702.1401,-86 889.8599,-86 889.8599,-122"/>
<text text-anchor="middle" x="796" y="-99.8" font-family="Times,serif" font-size="14.00" fill="#000000">DejaPopupToolbarComponent</text>
</g>
<!-- DejaPopupToolbarComponent&#45;&gt;DejaPopupModule -->
<g id="edge7" class="edge">
<title>DejaPopupToolbarComponent&#45;&gt;DejaPopupModule</title>
<path fill="none" stroke="#000000" d="M804.6215,-122.1243C804.6215,-136.7832 804.6215,-155 804.6215,-155 804.6215,-155 931.1694,-155 931.1694,-155"/>
<polygon fill="#000000" stroke="#000000" points="931.1694,-158.5001 941.1694,-155 931.1694,-151.5001 931.1694,-158.5001"/>
</g>
<!-- DejaPopupTrayComponent -->
<g id="node7" class="node">
<title>DejaPopupTrayComponent</title>
<polygon fill="#ffffb3" stroke="#000000" points="683.9692,-122 514.0308,-122 514.0308,-86 683.9692,-86 683.9692,-122"/>
<text text-anchor="middle" x="599" y="-99.8" font-family="Times,serif" font-size="14.00" fill="#000000">DejaPopupTrayComponent</text>
</g>
<!-- DejaPopupTrayComponent&#45;&gt;DejaPopupModule -->
<g id="edge8" class="edge">
<title>DejaPopupTrayComponent&#45;&gt;DejaPopupModule</title>
<path fill="none" stroke="#000000" d="M599,-122.0091C599,-138.0494 599,-159 599,-159 599,-159 931.2305,-159 931.2305,-159"/>
<polygon fill="#000000" stroke="#000000" points="931.2305,-162.5001 941.2305,-159 931.2305,-155.5001 931.2305,-162.5001"/>
</g>
<!-- DejaPopupActionsComponent  -->
<g id="node11" class="node">
<title>DejaPopupActionsComponent </title>
<polygon fill="#fb8072" stroke="#000000" points="1505.0888,-252 1314.9112,-252 1314.9112,-216 1505.0888,-216 1505.0888,-252"/>
<text text-anchor="middle" x="1410" y="-229.8" font-family="Times,serif" font-size="14.00" fill="#000000">DejaPopupActionsComponent </text>
</g>
<!-- DejaPopupModule&#45;&gt;DejaPopupActionsComponent  -->
<g id="edge11" class="edge">
<title>DejaPopupModule&#45;&gt;DejaPopupActionsComponent </title>
<path fill="none" stroke="#000000" stroke-dasharray="5,2" d="M1062.9214,-178C1169.4995,-178 1378.5724,-178 1378.5724,-178 1378.5724,-178 1378.5724,-205.973 1378.5724,-205.973"/>
<polygon fill="#000000" stroke="#000000" points="1375.0725,-205.973 1378.5724,-215.973 1382.0725,-205.973 1375.0725,-205.973"/>
</g>
<!-- DejaPopupAdvancedComponent  -->
<g id="node12" class="node">
<title>DejaPopupAdvancedComponent </title>
<polygon fill="#fb8072" stroke="#000000" points="1296.7919,-252 1093.2081,-252 1093.2081,-216 1296.7919,-216 1296.7919,-252"/>
<text text-anchor="middle" x="1195" y="-229.8" font-family="Times,serif" font-size="14.00" fill="#000000">DejaPopupAdvancedComponent </text>
</g>
<!-- DejaPopupModule&#45;&gt;DejaPopupAdvancedComponent  -->
<g id="edge12" class="edge">
<title>DejaPopupModule&#45;&gt;DejaPopupAdvancedComponent </title>
<path fill="none" stroke="#000000" stroke-dasharray="5,2" d="M1062.8578,-183C1085.1758,-183 1105.0831,-183 1105.0831,-183 1105.0831,-183 1105.0831,-205.8757 1105.0831,-205.8757"/>
<polygon fill="#000000" stroke="#000000" points="1101.5832,-205.8757 1105.0831,-215.8757 1108.5832,-205.8757 1101.5832,-205.8757"/>
</g>
<!-- DejaPopupComponent  -->
<g id="node13" class="node">
<title>DejaPopupComponent </title>
<polygon fill="#fb8072" stroke="#000000" points="1075.5414,-252 928.4586,-252 928.4586,-216 1075.5414,-216 1075.5414,-252"/>
<text text-anchor="middle" x="1002" y="-229.8" font-family="Times,serif" font-size="14.00" fill="#000000">DejaPopupComponent </text>
</g>
<!-- DejaPopupModule&#45;&gt;DejaPopupComponent  -->
<g id="edge13" class="edge">
<title>DejaPopupModule&#45;&gt;DejaPopupComponent </title>
<path fill="none" stroke="#000000" stroke-dasharray="5,2" d="M1022.2931,-187.1061C1022.2931,-187.1061 1022.2931,-205.991 1022.2931,-205.991"/>
<polygon fill="#000000" stroke="#000000" points="1018.7932,-205.9909 1022.2931,-215.991 1025.7932,-205.991 1018.7932,-205.9909"/>
</g>
<!-- DejaPopupModule&#45;&gt;DejaPopupComponent  -->
<g id="edge14" class="edge">
<title>DejaPopupModule&#45;&gt;DejaPopupComponent </title>
<path fill="none" stroke="#000000" stroke-dasharray="5,2" d="M981.7069,-187.1061C981.7069,-187.1061 981.7069,-205.991 981.7069,-205.991"/>
<polygon fill="#000000" stroke="#000000" points="978.207,-205.9909 981.7069,-215.991 985.207,-205.991 978.207,-205.9909"/>
</g>
<!-- DejaPopupContentComponent  -->
<g id="node14" class="node">
<title>DejaPopupContentComponent </title>
<polygon fill="#fb8072" stroke="#000000" points="910.8742,-252 719.1258,-252 719.1258,-216 910.8742,-216 910.8742,-252"/>
<text text-anchor="middle" x="815" y="-229.8" font-family="Times,serif" font-size="14.00" fill="#000000">DejaPopupContentComponent </text>
</g>
<!-- DejaPopupModule&#45;&gt;DejaPopupContentComponent  -->
<g id="edge15" class="edge">
<title>DejaPopupModule&#45;&gt;DejaPopupContentComponent </title>
<path fill="none" stroke="#000000" stroke-dasharray="5,2" d="M941.1892,-183C918.8884,-183 898.9965,-183 898.9965,-183 898.9965,-183 898.9965,-205.8757 898.9965,-205.8757"/>
<polygon fill="#000000" stroke="#000000" points="895.4966,-205.8757 898.9965,-215.8757 902.4966,-205.8757 895.4966,-205.8757"/>
</g>
<!-- DejaPopupToolbarComponent  -->
<g id="node15" class="node">
<title>DejaPopupToolbarComponent </title>
<polygon fill="#fb8072" stroke="#000000" points="701.8601,-252 510.1399,-252 510.1399,-216 701.8601,-216 701.8601,-252"/>
<text text-anchor="middle" x="606" y="-229.8" font-family="Times,serif" font-size="14.00" fill="#000000">DejaPopupToolbarComponent </text>
</g>
<!-- DejaPopupModule&#45;&gt;DejaPopupToolbarComponent  -->
<g id="edge16" class="edge">
<title>DejaPopupModule&#45;&gt;DejaPopupToolbarComponent </title>
<path fill="none" stroke="#000000" stroke-dasharray="5,2" d="M940.9184,-179C850.8175,-179 692.8322,-179 692.8322,-179 692.8322,-179 692.8322,-205.9909 692.8322,-205.9909"/>
<polygon fill="#000000" stroke="#000000" points="689.3323,-205.9909 692.8322,-215.9909 696.3323,-205.991 689.3323,-205.9909"/>
</g>
<!-- DejaPopupTrayComponent  -->
<g id="node16" class="node">
<title>DejaPopupTrayComponent </title>
<polygon fill="#fb8072" stroke="#000000" points="492.9698,-252 319.0302,-252 319.0302,-216 492.9698,-216 492.9698,-252"/>
<text text-anchor="middle" x="406" y="-229.8" font-family="Times,serif" font-size="14.00" fill="#000000">DejaPopupTrayComponent </text>
</g>
<!-- DejaPopupModule&#45;&gt;DejaPopupTrayComponent  -->
<g id="edge17" class="edge">
<title>DejaPopupModule&#45;&gt;DejaPopupTrayComponent </title>
<path fill="none" stroke="#000000" stroke-dasharray="5,2" d="M941.0116,-175C789.0943,-175 405.9334,-175 405.9334,-175 405.9334,-175 405.9334,-205.9775 405.9334,-205.9775"/>
<polygon fill="#000000" stroke="#000000" points="402.4335,-205.9774 405.9334,-215.9775 409.4335,-205.9775 402.4335,-205.9774"/>
</g>
<!-- DejaIFrameModule -->
<g id="node9" class="node">
<title>DejaIFrameModule</title>
<polygon fill="#8dd3c7" stroke="#000000" points="490.4004,-122 487.4004,-126 466.4004,-126 463.4004,-122 363.5996,-122 363.5996,-86 490.4004,-86 490.4004,-122"/>
<text text-anchor="middle" x="427" y="-99.8" font-family="Times,serif" font-size="14.00" fill="#000000">DejaIFrameModule</text>
</g>
<!-- DejaIFrameModule&#45;&gt;DejaPopupModule -->
<g id="edge9" class="edge">
<title>DejaIFrameModule&#45;&gt;DejaPopupModule</title>
<path fill="none" stroke="#000000" d="M448.0666,-122.0225C448.0666,-139.3734 448.0666,-163 448.0666,-163 448.0666,-163 931.1349,-163 931.1349,-163"/>
<polygon fill="#000000" stroke="#000000" points="931.1349,-166.5001 941.1349,-163 931.1349,-159.5001 931.1349,-166.5001"/>
</g>
<!-- DejaOverlayModule -->
<g id="node10" class="node">
<title>DejaOverlayModule</title>
<polygon fill="#8dd3c7" stroke="#000000" points="345.5632,-122 342.5632,-126 321.5632,-126 318.5632,-122 214.4368,-122 214.4368,-86 345.5632,-86 345.5632,-122"/>
<text text-anchor="middle" x="280" y="-99.8" font-family="Times,serif" font-size="14.00" fill="#000000">DejaOverlayModule</text>
</g>
<!-- DejaOverlayModule&#45;&gt;DejaPopupModule -->
<g id="edge10" class="edge">
<title>DejaOverlayModule&#45;&gt;DejaPopupModule</title>
<path fill="none" stroke="#000000" d="M332.3985,-122.2222C332.3985,-140.8285 332.3985,-167 332.3985,-167 332.3985,-167 931.0996,-167 931.0996,-167"/>
<polygon fill="#000000" stroke="#000000" points="931.0996,-170.5001 941.0996,-167 931.0996,-163.5001 931.0996,-170.5001"/>
</g>
<!-- DejaPopupService -->
<g id="node17" class="node">
<title>DejaPopupService</title>
<ellipse fill="#fdb462" stroke="#000000" cx="107" cy="-104" rx="82.8052" ry="18"/>
<text text-anchor="middle" x="107" y="-99.8" font-family="Times,serif" font-size="14.00" fill="#000000">DejaPopupService</text>
</g>
<!-- DejaPopupService&#45;&gt;DejaPopupModule -->
<g id="edge18" class="edge">
<title>DejaPopupService&#45;&gt;DejaPopupModule</title>
<path fill="none" stroke="#000000" d="M107,-122.308C107,-142.1455 107,-171 107,-171 107,-171 931.1867,-171 931.1867,-171"/>
<polygon fill="#000000" stroke="#000000" points="931.1867,-174.5001 941.1867,-171 931.1866,-167.5001 931.1867,-174.5001"/>
</g>
</g>
</svg>
