<?xml version="1.0" encoding="UTF-8" standalone="no"?>
<!DOCTYPE svg PUBLIC "-//W3C//DTD SVG 1.1//EN"
 "http://www.w3.org/Graphics/SVG/1.1/DTD/svg11.dtd">
<!-- Generated by graphviz version 2.40.1 (20161225.0304)
 -->
<!-- Title: dependencies Pages: 1 -->
<svg width="1898pt" height="284pt"
 viewBox="0.00 0.00 1898.00 284.00" xmlns="http://www.w3.org/2000/svg" xmlns:xlink="http://www.w3.org/1999/xlink">
<g id="graph0" class="graph" transform="scale(1 1) rotate(0) translate(4 280)">
<title>dependencies</title>
<polygon fill="#ffffff" stroke="transparent" points="-4,4 -4,-280 1894,-280 1894,4 -4,4"/>
<text text-anchor="start" x="924.0091" y="-42.4" font-family="sans-serif" font-weight="bold" font-size="14.00" fill="#000000">Legend</text>
<polygon fill="#ffffb3" stroke="transparent" points="711,-10 711,-30 731,-30 731,-10 711,-10"/>
<text text-anchor="start" x="734.629" y="-15.4" font-family="sans-serif" font-size="14.00" fill="#000000"> &#160;Declarations</text>
<polygon fill="#8dd3c7" stroke="transparent" points="824,-10 824,-30 844,-30 844,-10 824,-10"/>
<text text-anchor="start" x="847.7251" y="-15.4" font-family="sans-serif" font-size="14.00" fill="#000000"> &#160;Module</text>
<polygon fill="#80b1d3" stroke="transparent" points="910,-10 910,-30 930,-30 930,-10 910,-10"/>
<text text-anchor="start" x="933.7812" y="-15.4" font-family="sans-serif" font-size="14.00" fill="#000000"> &#160;Bootstrap</text>
<polygon fill="#fdb462" stroke="transparent" points="1007,-10 1007,-30 1027,-30 1027,-10 1007,-10"/>
<text text-anchor="start" x="1030.6732" y="-15.4" font-family="sans-serif" font-size="14.00" fill="#000000"> &#160;Providers</text>
<polygon fill="#fb8072" stroke="transparent" points="1103,-10 1103,-30 1123,-30 1123,-10 1103,-10"/>
<text text-anchor="start" x="1126.7258" y="-15.4" font-family="sans-serif" font-size="14.00" fill="#000000"> &#160;Exports</text>
<g id="clust1" class="cluster">
<title>cluster_DejaPopupModule</title>
<polygon fill="none" stroke="#000000" stroke-dasharray="1,5" points="8,-70 8,-268 1882,-268 1882,-70 8,-70"/>
</g>
<g id="clust2" class="cluster">
<title>cluster_DejaPopupModule_declarations</title>
<polygon fill="none" stroke="#000000" points="506,-78 506,-130 1874,-130 1874,-78 506,-78"/>
</g>
<g id="clust10" class="cluster">
<title>cluster_DejaPopupModule_imports</title>
<polygon fill="none" stroke="#000000" points="206,-78 206,-130 498,-130 498,-78 206,-78"/>
</g>
<g id="clust11" class="cluster">
<title>cluster_DejaPopupModule_exports</title>
<polygon fill="none" stroke="#000000" points="279,-208 279,-260 1483,-260 1483,-208 279,-208"/>
</g>
<g id="clust13" class="cluster">
<title>cluster_DejaPopupModule_providers</title>
<polygon fill="none" stroke="#000000" points="16,-78 16,-130 198,-130 198,-78 16,-78"/>
</g>
<!-- DejaPopupComponent -->
<g id="node1" class="node">
<title>DejaPopupComponent</title>
<polygon fill="#ffffb3" stroke="#000000" points="1865.5421,-122 1722.4579,-122 1722.4579,-86 1865.5421,-86 1865.5421,-122"/>
<text text-anchor="middle" x="1794" y="-99.8" font-family="Times,serif" font-size="14.00" fill="#000000">DejaPopupComponent</text>
</g>
<!-- DejaPopupModule -->
<g id="node8" class="node">
<title>DejaPopupModule</title>
<polygon fill="#8dd3c7" stroke="#000000" points="1058.759,-187 1055.759,-191 1034.759,-191 1031.759,-187 937.241,-187 937.241,-151 1058.759,-151 1058.759,-187"/>
<text text-anchor="middle" x="998" y="-164.8" font-family="Times,serif" font-size="14.00" fill="#000000">DejaPopupModule</text>
</g>
<!-- DejaPopupComponent&#45;&gt;DejaPopupModule -->
<g id="edge1" class="edge">
<title>DejaPopupComponent&#45;&gt;DejaPopupModule</title>
<path fill="none" stroke="#000000" d="M1817.9236,-122.308C1817.9236,-142.1455 1817.9236,-171 1817.9236,-171 1817.9236,-171 1068.9577,-171 1068.9577,-171"/>
<polygon fill="#000000" stroke="#000000" points="1068.9577,-167.5001 1058.9577,-171 1068.9576,-174.5001 1068.9577,-167.5001"/>
</g>
<!-- DejaPopupComponent&#45;&gt;DejaPopupModule -->
<g id="edge6" class="edge">
<title>DejaPopupComponent&#45;&gt;DejaPopupModule</title>
<path fill="none" stroke="#000000" d="M1770.0764,-122.2222C1770.0764,-140.8285 1770.0764,-167 1770.0764,-167 1770.0764,-167 1068.9059,-167 1068.9059,-167"/>
<polygon fill="#000000" stroke="#000000" points="1068.9059,-163.5001 1058.9059,-167 1068.9058,-170.5001 1068.9059,-163.5001"/>
</g>
<!-- DejaPopupToolbarComponent -->
<g id="node2" class="node">
<title>DejaPopupToolbarComponent</title>
<polygon fill="#ffffb3" stroke="#000000" points="1703.8599,-122 1516.1401,-122 1516.1401,-86 1703.8599,-86 1703.8599,-122"/>
<text text-anchor="middle" x="1610" y="-99.8" font-family="Times,serif" font-size="14.00" fill="#000000">DejaPopupToolbarComponent</text>
</g>
<!-- DejaPopupToolbarComponent&#45;&gt;DejaPopupModule -->
<g id="edge2" class="edge">
<title>DejaPopupToolbarComponent&#45;&gt;DejaPopupModule</title>
<path fill="none" stroke="#000000" d="M1610,-122.0225C1610,-139.3734 1610,-163 1610,-163 1610,-163 1068.9183,-163 1068.9183,-163"/>
<polygon fill="#000000" stroke="#000000" points="1068.9184,-159.5001 1058.9183,-163 1068.9183,-166.5001 1068.9184,-159.5001"/>
</g>
<!-- DejaPopupAdvancedComponent -->
<g id="node3" class="node">
<title>DejaPopupAdvancedComponent</title>
<polygon fill="#ffffb3" stroke="#000000" points="1498.292,-122 1297.708,-122 1297.708,-86 1498.292,-86 1498.292,-122"/>
<text text-anchor="middle" x="1398" y="-99.8" font-family="Times,serif" font-size="14.00" fill="#000000">DejaPopupAdvancedComponent</text>
</g>
<!-- DejaPopupAdvancedComponent&#45;&gt;DejaPopupModule -->
<g id="edge3" class="edge">
<title>DejaPopupAdvancedComponent&#45;&gt;DejaPopupModule</title>
<path fill="none" stroke="#000000" d="M1303.767,-122.0091C1303.767,-138.0494 1303.767,-159 1303.767,-159 1303.767,-159 1068.7753,-159 1068.7753,-159"/>
<polygon fill="#000000" stroke="#000000" points="1068.7753,-155.5001 1058.7753,-159 1068.7753,-162.5001 1068.7753,-155.5001"/>
</g>
<!-- DejaPopupTrayComponent -->
<g id="node4" class="node">
<title>DejaPopupTrayComponent</title>
<polygon fill="#ffffb3" stroke="#000000" points="1279.9692,-122 1110.0308,-122 1110.0308,-86 1279.9692,-86 1279.9692,-122"/>
<text text-anchor="middle" x="1195" y="-99.8" font-family="Times,serif" font-size="14.00" fill="#000000">DejaPopupTrayComponent</text>
</g>
<!-- DejaPopupTrayComponent&#45;&gt;DejaPopupModule -->
<g id="edge4" class="edge">
<title>DejaPopupTrayComponent&#45;&gt;DejaPopupModule</title>
<path fill="none" stroke="#000000" d="M1114.1678,-122.1243C1114.1678,-136.7832 1114.1678,-155 1114.1678,-155 1114.1678,-155 1068.8057,-155 1068.8057,-155"/>
<polygon fill="#000000" stroke="#000000" points="1068.8057,-151.5001 1058.8057,-155 1068.8056,-158.5001 1068.8057,-151.5001"/>
</g>
<!-- DejaPopupContentComponent -->
<g id="node5" class="node">
<title>DejaPopupContentComponent</title>
<polygon fill="#ffffb3" stroke="#000000" points="1091.8738,-122 904.1262,-122 904.1262,-86 1091.8738,-86 1091.8738,-122"/>
<text text-anchor="middle" x="998" y="-99.8" font-family="Times,serif" font-size="14.00" fill="#000000">DejaPopupContentComponent</text>
</g>
<!-- DejaPopupContentComponent&#45;&gt;DejaPopupModule -->
<g id="edge5" class="edge">
<title>DejaPopupContentComponent&#45;&gt;DejaPopupModule</title>
<path fill="none" stroke="#000000" d="M998,-122.1061C998,-122.1061 998,-140.991 998,-140.991"/>
<polygon fill="#000000" stroke="#000000" points="994.5001,-140.9909 998,-150.991 1001.5001,-140.991 994.5001,-140.9909"/>
</g>
<!-- DejaPopupBoxComponent -->
<g id="node6" class="node">
<title>DejaPopupBoxComponent</title>
<polygon fill="#ffffb3" stroke="#000000" points="886.378,-122 719.622,-122 719.622,-86 886.378,-86 886.378,-122"/>
<text text-anchor="middle" x="803" y="-99.8" font-family="Times,serif" font-size="14.00" fill="#000000">DejaPopupBoxComponent</text>
</g>
<!-- DejaPopupBoxComponent&#45;&gt;DejaPopupModule -->
<g id="edge7" class="edge">
<title>DejaPopupBoxComponent&#45;&gt;DejaPopupModule</title>
<path fill="none" stroke="#000000" d="M882.0868,-122.1243C882.0868,-136.7832 882.0868,-155 882.0868,-155 882.0868,-155 926.9884,-155 926.9884,-155"/>
<polygon fill="#000000" stroke="#000000" points="926.9884,-158.5001 936.9884,-155 926.9883,-151.5001 926.9884,-158.5001"/>
</g>
<!-- DejaPopupActionsComponent -->
<g id="node7" class="node">
<title>DejaPopupActionsComponent</title>
<polygon fill="#ffffb3" stroke="#000000" points="701.5884,-122 514.4116,-122 514.4116,-86 701.5884,-86 701.5884,-122"/>
<text text-anchor="middle" x="608" y="-99.8" font-family="Times,serif" font-size="14.00" fill="#000000">DejaPopupActionsComponent</text>
</g>
<!-- DejaPopupActionsComponent&#45;&gt;DejaPopupModule -->
<g id="edge8" class="edge">
<title>DejaPopupActionsComponent&#45;&gt;DejaPopupModule</title>
<path fill="none" stroke="#000000" d="M694.1156,-122.0091C694.1156,-138.0494 694.1156,-159 694.1156,-159 694.1156,-159 927.2348,-159 927.2348,-159"/>
<polygon fill="#000000" stroke="#000000" points="927.2348,-162.5001 937.2348,-159 927.2348,-155.5001 927.2348,-162.5001"/>
</g>
<!-- DejaPopupComponent  -->
<g id="node11" class="node">
<title>DejaPopupComponent </title>
<polygon fill="#fb8072" stroke="#000000" points="1474.5414,-252 1327.4586,-252 1327.4586,-216 1474.5414,-216 1474.5414,-252"/>
<text text-anchor="middle" x="1401" y="-229.8" font-family="Times,serif" font-size="14.00" fill="#000000">DejaPopupComponent </text>
</g>
<!-- DejaPopupModule&#45;&gt;DejaPopupComponent  -->
<g id="edge11" class="edge">
<title>DejaPopupModule&#45;&gt;DejaPopupComponent </title>
<path fill="none" stroke="#000000" stroke-dasharray="5,2" d="M1058.7973,-175C1176.8244,-175 1425.5069,-175 1425.5069,-175 1425.5069,-175 1425.5069,-205.9775 1425.5069,-205.9775"/>
<polygon fill="#000000" stroke="#000000" points="1422.007,-205.9774 1425.5069,-215.9775 1429.007,-205.9775 1422.007,-205.9774"/>
</g>
<!-- DejaPopupModule&#45;&gt;DejaPopupComponent  -->
<g id="edge16" class="edge">
<title>DejaPopupModule&#45;&gt;DejaPopupComponent </title>
<path fill="none" stroke="#000000" stroke-dasharray="5,2" d="M1058.8115,-179C1165.8027,-179 1376.4931,-179 1376.4931,-179 1376.4931,-179 1376.4931,-205.9909 1376.4931,-205.9909"/>
<polygon fill="#000000" stroke="#000000" points="1372.9932,-205.9909 1376.4931,-215.9909 1379.9932,-205.991 1372.9932,-205.9909"/>
</g>
<!-- DejaPopupToolbarComponent  -->
<g id="node12" class="node">
<title>DejaPopupToolbarComponent </title>
<polygon fill="#fb8072" stroke="#000000" points="1309.8601,-252 1118.1399,-252 1118.1399,-216 1309.8601,-216 1309.8601,-252"/>
<text text-anchor="middle" x="1214" y="-229.8" font-family="Times,serif" font-size="14.00" fill="#000000">DejaPopupToolbarComponent </text>
</g>
<!-- DejaPopupModule&#45;&gt;DejaPopupToolbarComponent  -->
<g id="edge12" class="edge">
<title>DejaPopupModule&#45;&gt;DejaPopupToolbarComponent </title>
<path fill="none" stroke="#000000" stroke-dasharray="5,2" d="M1058.8982,-183C1118.1026,-183 1199.1523,-183 1199.1523,-183 1199.1523,-183 1199.1523,-205.8757 1199.1523,-205.8757"/>
<polygon fill="#000000" stroke="#000000" points="1195.6524,-205.8757 1199.1523,-215.8757 1202.6524,-205.8757 1195.6524,-205.8757"/>
</g>
<!-- DejaPopupAdvancedComponent  -->
<g id="node13" class="node">
<title>DejaPopupAdvancedComponent </title>
<polygon fill="#fb8072" stroke="#000000" points="1099.7919,-252 896.2081,-252 896.2081,-216 1099.7919,-216 1099.7919,-252"/>
<text text-anchor="middle" x="998" y="-229.8" font-family="Times,serif" font-size="14.00" fill="#000000">DejaPopupAdvancedComponent </text>
</g>
<!-- DejaPopupModule&#45;&gt;DejaPopupAdvancedComponent  -->
<g id="edge13" class="edge">
<title>DejaPopupModule&#45;&gt;DejaPopupAdvancedComponent </title>
<path fill="none" stroke="#000000" stroke-dasharray="5,2" d="M998,-187.1061C998,-187.1061 998,-205.991 998,-205.991"/>
<polygon fill="#000000" stroke="#000000" points="994.5001,-205.9909 998,-215.991 1001.5001,-205.991 994.5001,-205.9909"/>
</g>
<!-- DejaPopupTrayComponent  -->
<g id="node14" class="node">
<title>DejaPopupTrayComponent </title>
<polygon fill="#fb8072" stroke="#000000" points="877.9698,-252 704.0302,-252 704.0302,-216 877.9698,-216 877.9698,-252"/>
<text text-anchor="middle" x="791" y="-229.8" font-family="Times,serif" font-size="14.00" fill="#000000">DejaPopupTrayComponent </text>
</g>
<!-- DejaPopupModule&#45;&gt;DejaPopupTrayComponent  -->
<g id="edge14" class="edge">
<title>DejaPopupModule&#45;&gt;DejaPopupTrayComponent </title>
<path fill="none" stroke="#000000" stroke-dasharray="5,2" d="M937.1046,-183C878.4787,-183 798.6478,-183 798.6478,-183 798.6478,-183 798.6478,-205.8757 798.6478,-205.8757"/>
<polygon fill="#000000" stroke="#000000" points="795.1479,-205.8757 798.6478,-215.8757 802.1479,-205.8757 795.1479,-205.8757"/>
</g>
<!-- DejaPopupContentComponent  -->
<g id="node15" class="node">
<title>DejaPopupContentComponent </title>
<polygon fill="#fb8072" stroke="#000000" points="686.8742,-252 495.1258,-252 495.1258,-216 686.8742,-216 686.8742,-252"/>
<text text-anchor="middle" x="591" y="-229.8" font-family="Times,serif" font-size="14.00" fill="#000000">DejaPopupContentComponent </text>
</g>
<!-- DejaPopupModule&#45;&gt;DejaPopupContentComponent  -->
<g id="edge15" class="edge">
<title>DejaPopupModule&#45;&gt;DejaPopupContentComponent </title>
<path fill="none" stroke="#000000" stroke-dasharray="5,2" d="M937.2065,-179C825.8749,-179 600.5714,-179 600.5714,-179 600.5714,-179 600.5714,-205.9909 600.5714,-205.9909"/>
<polygon fill="#000000" stroke="#000000" points="597.0714,-205.9909 600.5714,-215.9909 604.0714,-205.991 597.0714,-205.9909"/>
</g>
<!-- DejaPopupActionsComponent  -->
<g id="node16" class="node">
<title>DejaPopupActionsComponent </title>
<polygon fill="#fb8072" stroke="#000000" points="477.0888,-252 286.9112,-252 286.9112,-216 477.0888,-216 477.0888,-252"/>
<text text-anchor="middle" x="382" y="-229.8" font-family="Times,serif" font-size="14.00" fill="#000000">DejaPopupActionsComponent </text>
</g>
<!-- DejaPopupModule&#45;&gt;DejaPopupActionsComponent  -->
<g id="edge17" class="edge">
<title>DejaPopupModule&#45;&gt;DejaPopupActionsComponent </title>
<path fill="none" stroke="#000000" stroke-dasharray="5,2" d="M937.0217,-175C788.5847,-175 420.5472,-175 420.5472,-175 420.5472,-175 420.5472,-205.9775 420.5472,-205.9775"/>
<polygon fill="#000000" stroke="#000000" points="417.0472,-205.9774 420.5472,-215.9775 424.0472,-205.9775 417.0472,-205.9774"/>
</g>
<!-- DejaIFrameModule -->
<g id="node9" class="node">
<title>DejaIFrameModule</title>
<polygon fill="#8dd3c7" stroke="#000000" points="490.4004,-122 487.4004,-126 466.4004,-126 463.4004,-122 363.5996,-122 363.5996,-86 490.4004,-86 490.4004,-122"/>
<text text-anchor="middle" x="427" y="-99.8" font-family="Times,serif" font-size="14.00" fill="#000000">DejaIFrameModule</text>
</g>
<!-- DejaIFrameModule&#45;&gt;DejaPopupModule -->
<g id="edge9" class="edge">
<title>DejaIFrameModule&#45;&gt;DejaPopupModule</title>
<path fill="none" stroke="#000000" d="M483.7471,-122.0225C483.7471,-139.3734 483.7471,-163 483.747,-163 483.747,-163 926.989,-163 926.989,-163"/>
<polygon fill="#000000" stroke="#000000" points="926.989,-166.5001 936.989,-163 926.989,-159.5001 926.989,-166.5001"/>
</g>
<!-- DejaOverlayModule -->
<g id="node10" class="node">
<title>DejaOverlayModule</title>
<polygon fill="#8dd3c7" stroke="#000000" points="345.5632,-122 342.5632,-126 321.5632,-126 318.5632,-122 214.4368,-122 214.4368,-86 345.5632,-86 345.5632,-122"/>
<text text-anchor="middle" x="280" y="-99.8" font-family="Times,serif" font-size="14.00" fill="#000000">DejaOverlayModule</text>
</g>
<!-- DejaOverlayModule&#45;&gt;DejaPopupModule -->
<g id="edge10" class="edge">
<title>DejaOverlayModule&#45;&gt;DejaPopupModule</title>
<path fill="none" stroke="#000000" d="M316.1187,-122.2222C316.1187,-140.8285 316.1187,-167 316.1187,-167 316.1187,-167 927.1878,-167 927.1878,-167"/>
<polygon fill="#000000" stroke="#000000" points="927.1879,-170.5001 937.1878,-167 927.1878,-163.5001 927.1879,-170.5001"/>
</g>
<!-- DejaPopupService -->
<g id="node17" class="node">
<title>DejaPopupService</title>
<ellipse fill="#fdb462" stroke="#000000" cx="107" cy="-104" rx="82.8052" ry="18"/>
<text text-anchor="middle" x="107" y="-99.8" font-family="Times,serif" font-size="14.00" fill="#000000">DejaPopupService</text>
</g>
<!-- DejaPopupService&#45;&gt;DejaPopupModule -->
<g id="edge18" class="edge">
<title>DejaPopupService&#45;&gt;DejaPopupModule</title>
<path fill="none" stroke="#000000" d="M107,-122.308C107,-142.1455 107,-171 107,-171 107,-171 927.1086,-171 927.1086,-171"/>
<polygon fill="#000000" stroke="#000000" points="927.1087,-174.5001 937.1086,-171 927.1086,-167.5001 927.1087,-174.5001"/>
</g>
</g>
</svg>
