<?xml version="1.0" encoding="UTF-8" standalone="no"?>
<!DOCTYPE svg PUBLIC "-//W3C//DTD SVG 1.1//EN"
 "http://www.w3.org/Graphics/SVG/1.1/DTD/svg11.dtd">
<!-- Generated by graphviz version 2.40.1 (20161225.0304)
 -->
<!-- Title: dependencies Pages: 1 -->
<svg width="1327pt" height="284pt"
 viewBox="0.00 0.00 1327.00 284.00" xmlns="http://www.w3.org/2000/svg" xmlns:xlink="http://www.w3.org/1999/xlink">
<g id="graph0" class="graph" transform="scale(1 1) rotate(0) translate(4 280)">
<title>dependencies</title>
<polygon fill="#ffffff" stroke="transparent" points="-4,4 -4,-280 1323,-280 1323,4 -4,4"/>
<text text-anchor="start" x="638.5091" y="-42.4" font-family="sans-serif" font-weight="bold" font-size="14.00" fill="#000000">Legend</text>
<polygon fill="#ffffb3" stroke="transparent" points="425.5,-10 425.5,-30 445.5,-30 445.5,-10 425.5,-10"/>
<text text-anchor="start" x="449.129" y="-15.4" font-family="sans-serif" font-size="14.00" fill="#000000"> &#160;Declarations</text>
<polygon fill="#8dd3c7" stroke="transparent" points="538.5,-10 538.5,-30 558.5,-30 558.5,-10 538.5,-10"/>
<text text-anchor="start" x="562.2251" y="-15.4" font-family="sans-serif" font-size="14.00" fill="#000000"> &#160;Module</text>
<polygon fill="#80b1d3" stroke="transparent" points="624.5,-10 624.5,-30 644.5,-30 644.5,-10 624.5,-10"/>
<text text-anchor="start" x="648.2812" y="-15.4" font-family="sans-serif" font-size="14.00" fill="#000000"> &#160;Bootstrap</text>
<polygon fill="#fdb462" stroke="transparent" points="721.5,-10 721.5,-30 741.5,-30 741.5,-10 721.5,-10"/>
<text text-anchor="start" x="745.1732" y="-15.4" font-family="sans-serif" font-size="14.00" fill="#000000"> &#160;Providers</text>
<polygon fill="#fb8072" stroke="transparent" points="817.5,-10 817.5,-30 837.5,-30 837.5,-10 817.5,-10"/>
<text text-anchor="start" x="841.2258" y="-15.4" font-family="sans-serif" font-size="14.00" fill="#000000"> &#160;Exports</text>
<g id="clust1" class="cluster">
<title>cluster_DejaSidenavModule</title>
<polygon fill="none" stroke="#000000" stroke-dasharray="1,5" points="8,-70 8,-268 1311,-268 1311,-70 8,-70"/>
</g>
<g id="clust2" class="cluster">
<title>cluster_DejaSidenavModule_declarations</title>
<polygon fill="none" stroke="#000000" points="300,-78 300,-130 1303,-130 1303,-78 300,-78"/>
</g>
<g id="clust8" class="cluster">
<title>cluster_DejaSidenavModule_imports</title>
<polygon fill="none" stroke="#000000" points="16,-78 16,-130 292,-130 292,-78 16,-78"/>
</g>
<g id="clust9" class="cluster">
<title>cluster_DejaSidenavModule_exports</title>
<polygon fill="none" stroke="#000000" points="69,-208 69,-260 1089,-260 1089,-208 69,-208"/>
</g>
<!-- DejaSidenavComponent -->
<g id="node1" class="node">
<title>DejaSidenavComponent</title>
<polygon fill="#ffffb3" stroke="#000000" points="1295.3613,-122 1142.6387,-122 1142.6387,-86 1295.3613,-86 1295.3613,-122"/>
<text text-anchor="middle" x="1219" y="-99.8" font-family="Times,serif" font-size="14.00" fill="#000000">DejaSidenavComponent</text>
</g>
<!-- DejaSidenavModule -->
<g id="node6" class="node">
<title>DejaSidenavModule</title>
<polygon fill="#8dd3c7" stroke="#000000" points="684.5786,-187 681.5786,-191 660.5786,-191 657.5786,-187 553.4214,-187 553.4214,-151 684.5786,-151 684.5786,-187"/>
<text text-anchor="middle" x="619" y="-164.8" font-family="Times,serif" font-size="14.00" fill="#000000">DejaSidenavModule</text>
</g>
<!-- DejaSidenavComponent&#45;&gt;DejaSidenavModule -->
<g id="edge1" class="edge">
<title>DejaSidenavComponent&#45;&gt;DejaSidenavModule</title>
<path fill="none" stroke="#000000" d="M1219,-122.1061C1219,-141.3391 1219,-169 1219,-169 1219,-169 694.6395,-169 694.6395,-169"/>
<polygon fill="#000000" stroke="#000000" points="694.6395,-165.5001 684.6395,-169 694.6395,-172.5001 694.6395,-165.5001"/>
</g>
<!-- DejaSidenavMenuDirective -->
<g id="node2" class="node">
<title>DejaSidenavMenuDirective</title>
<polygon fill="#ffffb3" stroke="#000000" points="1124.271,-122 951.729,-122 951.729,-86 1124.271,-86 1124.271,-122"/>
<text text-anchor="middle" x="1038" y="-99.8" font-family="Times,serif" font-size="14.00" fill="#000000">DejaSidenavMenuDirective</text>
</g>
<!-- DejaSidenavMenuDirective&#45;&gt;DejaSidenavModule -->
<g id="edge2" class="edge">
<title>DejaSidenavMenuDirective&#45;&gt;DejaSidenavModule</title>
<path fill="none" stroke="#000000" d="M1016.5226,-122.0225C1016.5226,-139.3734 1016.5226,-163 1016.5226,-163 1016.5226,-163 694.6428,-163 694.6428,-163"/>
<polygon fill="#000000" stroke="#000000" points="694.6428,-159.5001 684.6428,-163 694.6427,-166.5001 694.6428,-159.5001"/>
</g>
<!-- DejaSidenavContentDirective -->
<g id="node3" class="node">
<title>DejaSidenavContentDirective</title>
<polygon fill="#ffffb3" stroke="#000000" points="933.944,-122 750.056,-122 750.056,-86 933.944,-86 933.944,-122"/>
<text text-anchor="middle" x="842" y="-99.8" font-family="Times,serif" font-size="14.00" fill="#000000">DejaSidenavContentDirective</text>
</g>
<!-- DejaSidenavContentDirective&#45;&gt;DejaSidenavModule -->
<g id="edge3" class="edge">
<title>DejaSidenavContentDirective&#45;&gt;DejaSidenavModule</title>
<path fill="none" stroke="#000000" d="M828.4567,-122.2396C828.4567,-137.5706 828.4567,-157 828.4567,-157 828.4567,-157 694.6987,-157 694.6987,-157"/>
<polygon fill="#000000" stroke="#000000" points="694.6988,-153.5001 684.6987,-157 694.6987,-160.5001 694.6988,-153.5001"/>
</g>
<!-- DejaSidenavMenuSeparatorDirective -->
<g id="node4" class="node">
<title>DejaSidenavMenuSeparatorDirective</title>
<polygon fill="#ffffb3" stroke="#000000" points="731.909,-122 506.091,-122 506.091,-86 731.909,-86 731.909,-122"/>
<text text-anchor="middle" x="619" y="-99.8" font-family="Times,serif" font-size="14.00" fill="#000000">DejaSidenavMenuSeparatorDirective</text>
</g>
<!-- DejaSidenavMenuSeparatorDirective&#45;&gt;DejaSidenavModule -->
<g id="edge4" class="edge">
<title>DejaSidenavMenuSeparatorDirective&#45;&gt;DejaSidenavModule</title>
<path fill="none" stroke="#000000" d="M619,-122.1061C619,-122.1061 619,-140.991 619,-140.991"/>
<polygon fill="#000000" stroke="#000000" points="615.5001,-140.9909 619,-150.991 622.5001,-140.991 615.5001,-140.9909"/>
</g>
<!-- DejaSidenavHeaderDirective -->
<g id="node5" class="node">
<title>DejaSidenavHeaderDirective</title>
<polygon fill="#ffffb3" stroke="#000000" points="488.0226,-122 307.9774,-122 307.9774,-86 488.0226,-86 488.0226,-122"/>
<text text-anchor="middle" x="398" y="-99.8" font-family="Times,serif" font-size="14.00" fill="#000000">DejaSidenavHeaderDirective</text>
</g>
<!-- DejaSidenavHeaderDirective&#45;&gt;DejaSidenavModule -->
<g id="edge5" class="edge">
<title>DejaSidenavHeaderDirective&#45;&gt;DejaSidenavModule</title>
<path fill="none" stroke="#000000" d="M398,-122.2396C398,-137.5706 398,-157 398,-157 398,-157 543.2911,-157 543.2911,-157"/>
<polygon fill="#000000" stroke="#000000" points="543.2911,-160.5001 553.2911,-157 543.291,-153.5001 543.2911,-160.5001"/>
</g>
<!-- DejaSidenavComponent  -->
<g id="node9" class="node">
<title>DejaSidenavComponent </title>
<polygon fill="#fb8072" stroke="#000000" points="1081.3616,-252 924.6384,-252 924.6384,-216 1081.3616,-216 1081.3616,-252"/>
<text text-anchor="middle" x="1003" y="-229.8" font-family="Times,serif" font-size="14.00" fill="#000000">DejaSidenavComponent </text>
</g>
<!-- DejaSidenavModule&#45;&gt;DejaSidenavComponent  -->
<g id="edge8" class="edge">
<title>DejaSidenavModule&#45;&gt;DejaSidenavComponent </title>
<path fill="none" stroke="#000000" stroke-dasharray="5,2" d="M684.8269,-175C775.9408,-175 929.3957,-175 929.3957,-175 929.3957,-175 929.3957,-205.9775 929.3957,-205.9775"/>
<polygon fill="#000000" stroke="#000000" points="925.8958,-205.9774 929.3957,-215.9775 932.8958,-205.9775 925.8958,-205.9774"/>
</g>
<!-- DejaSidenavMenuDirective  -->
<g id="node10" class="node">
<title>DejaSidenavMenuDirective </title>
<polygon fill="#fb8072" stroke="#000000" points="906.7709,-252 731.2291,-252 731.2291,-216 906.7709,-216 906.7709,-252"/>
<text text-anchor="middle" x="819" y="-229.8" font-family="Times,serif" font-size="14.00" fill="#000000">DejaSidenavMenuDirective </text>
</g>
<!-- DejaSidenavModule&#45;&gt;DejaSidenavMenuDirective  -->
<g id="edge9" class="edge">
<title>DejaSidenavModule&#45;&gt;DejaSidenavMenuDirective </title>
<path fill="none" stroke="#000000" stroke-dasharray="5,2" d="M684.6378,-181C713.5122,-181 740.9913,-181 740.9913,-181 740.9913,-181 740.9913,-205.7604 740.9913,-205.7604"/>
<polygon fill="#000000" stroke="#000000" points="737.4913,-205.7604 740.9913,-215.7604 744.4913,-205.7604 737.4913,-205.7604"/>
</g>
<!-- DejaSidenavContentDirective  -->
<g id="node11" class="node">
<title>DejaSidenavContentDirective </title>
<polygon fill="#fb8072" stroke="#000000" points="712.9445,-252 525.0555,-252 525.0555,-216 712.9445,-216 712.9445,-252"/>
<text text-anchor="middle" x="619" y="-229.8" font-family="Times,serif" font-size="14.00" fill="#000000">DejaSidenavContentDirective </text>
</g>
<!-- DejaSidenavModule&#45;&gt;DejaSidenavContentDirective  -->
<g id="edge10" class="edge">
<title>DejaSidenavModule&#45;&gt;DejaSidenavContentDirective </title>
<path fill="none" stroke="#000000" stroke-dasharray="5,2" d="M619,-187.1061C619,-187.1061 619,-205.991 619,-205.991"/>
<polygon fill="#000000" stroke="#000000" points="615.5001,-205.9909 619,-215.991 622.5001,-205.991 615.5001,-205.9909"/>
</g>
<!-- DejaSidenavMenuSeparatorDirective  -->
<g id="node12" class="node">
<title>DejaSidenavMenuSeparatorDirective </title>
<polygon fill="#fb8072" stroke="#000000" points="507.9094,-252 278.0906,-252 278.0906,-216 507.9094,-216 507.9094,-252"/>
<text text-anchor="middle" x="393" y="-229.8" font-family="Times,serif" font-size="14.00" fill="#000000">DejaSidenavMenuSeparatorDirective </text>
</g>
<!-- DejaSidenavModule&#45;&gt;DejaSidenavMenuSeparatorDirective  -->
<g id="edge11" class="edge">
<title>DejaSidenavModule&#45;&gt;DejaSidenavMenuSeparatorDirective </title>
<path fill="none" stroke="#000000" stroke-dasharray="5,2" d="M553.3728,-181C524.503,-181 497.0284,-181 497.0284,-181 497.0284,-181 497.0284,-205.7604 497.0284,-205.7604"/>
<polygon fill="#000000" stroke="#000000" points="493.5285,-205.7604 497.0284,-215.7604 500.5285,-205.7604 493.5285,-205.7604"/>
</g>
<!-- DejaSidenavHeaderDirective  -->
<g id="node13" class="node">
<title>DejaSidenavHeaderDirective </title>
<polygon fill="#fb8072" stroke="#000000" points="260.5232,-252 77.4768,-252 77.4768,-216 260.5232,-216 260.5232,-252"/>
<text text-anchor="middle" x="169" y="-229.8" font-family="Times,serif" font-size="14.00" fill="#000000">DejaSidenavHeaderDirective </text>
</g>
<!-- DejaSidenavModule&#45;&gt;DejaSidenavHeaderDirective  -->
<g id="edge12" class="edge">
<title>DejaSidenavModule&#45;&gt;DejaSidenavHeaderDirective </title>
<path fill="none" stroke="#000000" stroke-dasharray="5,2" d="M553.4222,-175C441.2593,-175 224.5521,-175 224.5521,-175 224.5521,-175 224.5521,-205.9775 224.5521,-205.9775"/>
<polygon fill="#000000" stroke="#000000" points="221.0522,-205.9774 224.5521,-215.9775 228.0522,-205.9775 221.0522,-205.9774"/>
</g>
<!-- MediaModule -->
<g id="node7" class="node">
<title>MediaModule</title>
<polygon fill="#8dd3c7" stroke="#000000" points="283.8147,-122 280.8147,-126 259.8147,-126 256.8147,-122 188.1853,-122 188.1853,-86 283.8147,-86 283.8147,-122"/>
<text text-anchor="middle" x="236" y="-99.8" font-family="Times,serif" font-size="14.00" fill="#000000">MediaModule</text>
</g>
<!-- MediaModule&#45;&gt;DejaSidenavModule -->
<g id="edge6" class="edge">
<title>MediaModule&#45;&gt;DejaSidenavModule</title>
<path fill="none" stroke="#000000" d="M269.5284,-122.0225C269.5284,-139.3734 269.5284,-163 269.5284,-163 269.5284,-163 543.2671,-163 543.2671,-163"/>
<polygon fill="#000000" stroke="#000000" points="543.2671,-166.5001 553.2671,-163 543.267,-159.5001 543.2671,-166.5001"/>
</g>
<!-- DejaSlimScrollModule -->
<g id="node8" class="node">
<title>DejaSlimScrollModule</title>
<polygon fill="#8dd3c7" stroke="#000000" points="169.8697,-122 166.8697,-126 145.8697,-126 142.8697,-122 24.1303,-122 24.1303,-86 169.8697,-86 169.8697,-122"/>
<text text-anchor="middle" x="97" y="-99.8" font-family="Times,serif" font-size="14.00" fill="#000000">DejaSlimScrollModule</text>
</g>
<!-- DejaSlimScrollModule&#45;&gt;DejaSidenavModule -->
<g id="edge7" class="edge">
<title>DejaSlimScrollModule&#45;&gt;DejaSidenavModule</title>
<path fill="none" stroke="#000000" d="M123.5868,-122.1061C123.5868,-141.3391 123.5868,-169 123.5868,-169 123.5868,-169 543.2129,-169 543.2129,-169"/>
<polygon fill="#000000" stroke="#000000" points="543.213,-172.5001 553.2129,-169 543.2129,-165.5001 543.213,-172.5001"/>
</g>
</g>
</svg>
