<?xml version="1.0" encoding="UTF-8" standalone="no"?>
<!DOCTYPE svg PUBLIC "-//W3C//DTD SVG 1.1//EN"
 "http://www.w3.org/Graphics/SVG/1.1/DTD/svg11.dtd">
<!-- Generated by graphviz version 2.40.1 (20161225.0304)
 -->
<!-- Title: dependencies Pages: 1 -->
<svg width="1213pt" height="284pt"
 viewBox="0.00 0.00 1213.00 284.00" xmlns="http://www.w3.org/2000/svg" xmlns:xlink="http://www.w3.org/1999/xlink">
<g id="graph0" class="graph" transform="scale(1 1) rotate(0) translate(4 280)">
<title>dependencies</title>
<polygon fill="#ffffff" stroke="transparent" points="-4,4 -4,-280 1209,-280 1209,4 -4,4"/>
<text text-anchor="start" x="581.5091" y="-42.4" font-family="sans-serif" font-weight="bold" font-size="14.00" fill="#000000">Legend</text>
<polygon fill="#ffffb3" stroke="transparent" points="368.5,-10 368.5,-30 388.5,-30 388.5,-10 368.5,-10"/>
<text text-anchor="start" x="392.129" y="-15.4" font-family="sans-serif" font-size="14.00" fill="#000000"> &#160;Declarations</text>
<polygon fill="#8dd3c7" stroke="transparent" points="481.5,-10 481.5,-30 501.5,-30 501.5,-10 481.5,-10"/>
<text text-anchor="start" x="505.2251" y="-15.4" font-family="sans-serif" font-size="14.00" fill="#000000"> &#160;Module</text>
<polygon fill="#80b1d3" stroke="transparent" points="567.5,-10 567.5,-30 587.5,-30 587.5,-10 567.5,-10"/>
<text text-anchor="start" x="591.2812" y="-15.4" font-family="sans-serif" font-size="14.00" fill="#000000"> &#160;Bootstrap</text>
<polygon fill="#fdb462" stroke="transparent" points="664.5,-10 664.5,-30 684.5,-30 684.5,-10 664.5,-10"/>
<text text-anchor="start" x="688.1732" y="-15.4" font-family="sans-serif" font-size="14.00" fill="#000000"> &#160;Providers</text>
<polygon fill="#fb8072" stroke="transparent" points="760.5,-10 760.5,-30 780.5,-30 780.5,-10 760.5,-10"/>
<text text-anchor="start" x="784.2258" y="-15.4" font-family="sans-serif" font-size="14.00" fill="#000000"> &#160;Exports</text>
<g id="clust1" class="cluster">
<title>cluster_DejaSidenavModule</title>
<polygon fill="none" stroke="#000000" stroke-dasharray="1,5" points="8,-70 8,-268 1197,-268 1197,-70 8,-70"/>
</g>
<g id="clust2" class="cluster">
<title>cluster_DejaSidenavModule_declarations</title>
<polygon fill="none" stroke="#000000" points="186,-78 186,-130 1189,-130 1189,-78 186,-78"/>
</g>
<g id="clust8" class="cluster">
<title>cluster_DejaSidenavModule_imports</title>
<polygon fill="none" stroke="#000000" points="16,-78 16,-130 178,-130 178,-78 16,-78"/>
</g>
<g id="clust9" class="cluster">
<title>cluster_DejaSidenavModule_exports</title>
<polygon fill="none" stroke="#000000" points="92,-208 92,-260 1112,-260 1112,-208 92,-208"/>
</g>
<!-- DejaSidenavComponent -->
<g id="node1" class="node">
<title>DejaSidenavComponent</title>
<polygon fill="#ffffb3" stroke="#000000" points="1181.3613,-122 1028.6387,-122 1028.6387,-86 1181.3613,-86 1181.3613,-122"/>
<text text-anchor="middle" x="1105" y="-99.8" font-family="Times,serif" font-size="14.00" fill="#000000">DejaSidenavComponent</text>
</g>
<!-- DejaSidenavModule -->
<g id="node6" class="node">
<title>DejaSidenavModule</title>
<polygon fill="#8dd3c7" stroke="#000000" points="707.5786,-187 704.5786,-191 683.5786,-191 680.5786,-187 576.4214,-187 576.4214,-151 707.5786,-151 707.5786,-187"/>
<text text-anchor="middle" x="642" y="-164.8" font-family="Times,serif" font-size="14.00" fill="#000000">DejaSidenavModule</text>
</g>
<!-- DejaSidenavComponent&#45;&gt;DejaSidenavModule -->
<g id="edge1" class="edge">
<title>DejaSidenavComponent&#45;&gt;DejaSidenavModule</title>
<path fill="none" stroke="#000000" d="M1066.375,-122.2667C1066.375,-140.5552 1066.375,-166 1066.375,-166 1066.375,-166 717.843,-166 717.843,-166"/>
<polygon fill="#000000" stroke="#000000" points="717.843,-162.5001 707.843,-166 717.8429,-169.5001 717.843,-162.5001"/>
</g>
<!-- DejaSidenavMenuDirective -->
<g id="node2" class="node">
<title>DejaSidenavMenuDirective</title>
<polygon fill="#ffffb3" stroke="#000000" points="1010.271,-122 837.729,-122 837.729,-86 1010.271,-86 1010.271,-122"/>
<text text-anchor="middle" x="924" y="-99.8" font-family="Times,serif" font-size="14.00" fill="#000000">DejaSidenavMenuDirective</text>
</g>
<!-- DejaSidenavMenuDirective&#45;&gt;DejaSidenavModule -->
<g id="edge2" class="edge">
<title>DejaSidenavMenuDirective&#45;&gt;DejaSidenavModule</title>
<path fill="none" stroke="#000000" d="M883.875,-122.0091C883.875,-138.0494 883.875,-159 883.875,-159 883.875,-159 717.7739,-159 717.7739,-159"/>
<polygon fill="#000000" stroke="#000000" points="717.7739,-155.5001 707.7739,-159 717.7739,-162.5001 717.7739,-155.5001"/>
</g>
<!-- DejaSidenavContentDirective -->
<g id="node3" class="node">
<title>DejaSidenavContentDirective</title>
<polygon fill="#ffffb3" stroke="#000000" points="819.944,-122 636.056,-122 636.056,-86 819.944,-86 819.944,-122"/>
<text text-anchor="middle" x="728" y="-99.8" font-family="Times,serif" font-size="14.00" fill="#000000">DejaSidenavContentDirective</text>
</g>
<!-- DejaSidenavContentDirective&#45;&gt;DejaSidenavModule -->
<g id="edge3" class="edge">
<title>DejaSidenavContentDirective&#45;&gt;DejaSidenavModule</title>
<path fill="none" stroke="#000000" d="M671.7837,-122.1061C671.7837,-122.1061 671.7837,-140.991 671.7837,-140.991"/>
<polygon fill="#000000" stroke="#000000" points="668.2837,-140.9909 671.7837,-150.991 675.2837,-140.991 668.2837,-140.9909"/>
</g>
<!-- DejaSidenavMenuSeparatorDirective -->
<g id="node4" class="node">
<title>DejaSidenavMenuSeparatorDirective</title>
<polygon fill="#ffffb3" stroke="#000000" points="617.909,-122 392.091,-122 392.091,-86 617.909,-86 617.909,-122"/>
<text text-anchor="middle" x="505" y="-99.8" font-family="Times,serif" font-size="14.00" fill="#000000">DejaSidenavMenuSeparatorDirective</text>
</g>
<!-- DejaSidenavMenuSeparatorDirective&#45;&gt;DejaSidenavModule -->
<g id="edge4" class="edge">
<title>DejaSidenavMenuSeparatorDirective&#45;&gt;DejaSidenavModule</title>
<path fill="none" stroke="#000000" d="M597.2076,-122.1061C597.2076,-122.1061 597.2076,-140.991 597.2076,-140.991"/>
<polygon fill="#000000" stroke="#000000" points="593.7077,-140.9909 597.2076,-150.991 600.7077,-140.991 593.7077,-140.9909"/>
</g>
<!-- DejaSidenavHeaderDirective -->
<g id="node5" class="node">
<title>DejaSidenavHeaderDirective</title>
<polygon fill="#ffffb3" stroke="#000000" points="374.0226,-122 193.9774,-122 193.9774,-86 374.0226,-86 374.0226,-122"/>
<text text-anchor="middle" x="284" y="-99.8" font-family="Times,serif" font-size="14.00" fill="#000000">DejaSidenavHeaderDirective</text>
</g>
<!-- DejaSidenavHeaderDirective&#45;&gt;DejaSidenavModule -->
<g id="edge5" class="edge">
<title>DejaSidenavHeaderDirective&#45;&gt;DejaSidenavModule</title>
<path fill="none" stroke="#000000" d="M337.6534,-122.0091C337.6534,-138.0494 337.6534,-159 337.6534,-159 337.6534,-159 566.336,-159 566.336,-159"/>
<polygon fill="#000000" stroke="#000000" points="566.3361,-162.5001 576.336,-159 566.336,-155.5001 566.3361,-162.5001"/>
</g>
<!-- DejaSidenavComponent  -->
<g id="node8" class="node">
<title>DejaSidenavComponent </title>
<polygon fill="#fb8072" stroke="#000000" points="1104.3616,-252 947.6384,-252 947.6384,-216 1104.3616,-216 1104.3616,-252"/>
<text text-anchor="middle" x="1026" y="-229.8" font-family="Times,serif" font-size="14.00" fill="#000000">DejaSidenavComponent </text>
</g>
<!-- DejaSidenavModule&#45;&gt;DejaSidenavComponent  -->
<g id="edge7" class="edge">
<title>DejaSidenavModule&#45;&gt;DejaSidenavComponent </title>
<path fill="none" stroke="#000000" stroke-dasharray="5,2" d="M707.7726,-173C805.8392,-173 978.9774,-173 978.9774,-173 978.9774,-173 978.9774,-205.698 978.9774,-205.698"/>
<polygon fill="#000000" stroke="#000000" points="975.4775,-205.698 978.9774,-215.698 982.4775,-205.698 975.4775,-205.698"/>
</g>
<!-- DejaSidenavMenuDirective  -->
<g id="node9" class="node">
<title>DejaSidenavMenuDirective </title>
<polygon fill="#fb8072" stroke="#000000" points="929.7709,-252 754.2291,-252 754.2291,-216 929.7709,-216 929.7709,-252"/>
<text text-anchor="middle" x="842" y="-229.8" font-family="Times,serif" font-size="14.00" fill="#000000">DejaSidenavMenuDirective </text>
</g>
<!-- DejaSidenavModule&#45;&gt;DejaSidenavMenuDirective  -->
<g id="edge8" class="edge">
<title>DejaSidenavModule&#45;&gt;DejaSidenavMenuDirective </title>
<path fill="none" stroke="#000000" stroke-dasharray="5,2" d="M707.7316,-180C746.1082,-180 787.0433,-180 787.0433,-180 787.0433,-180 787.0433,-205.7181 787.0433,-205.7181"/>
<polygon fill="#000000" stroke="#000000" points="783.5434,-205.718 787.0433,-215.7181 790.5434,-205.7181 783.5434,-205.718"/>
</g>
<!-- DejaSidenavContentDirective  -->
<g id="node10" class="node">
<title>DejaSidenavContentDirective </title>
<polygon fill="#fb8072" stroke="#000000" points="735.9445,-252 548.0555,-252 548.0555,-216 735.9445,-216 735.9445,-252"/>
<text text-anchor="middle" x="642" y="-229.8" font-family="Times,serif" font-size="14.00" fill="#000000">DejaSidenavContentDirective </text>
</g>
<!-- DejaSidenavModule&#45;&gt;DejaSidenavContentDirective  -->
<g id="edge9" class="edge">
<title>DejaSidenavModule&#45;&gt;DejaSidenavContentDirective </title>
<path fill="none" stroke="#000000" stroke-dasharray="5,2" d="M642,-187.1061C642,-187.1061 642,-205.991 642,-205.991"/>
<polygon fill="#000000" stroke="#000000" points="638.5001,-205.9909 642,-215.991 645.5001,-205.991 638.5001,-205.9909"/>
</g>
<!-- DejaSidenavMenuSeparatorDirective  -->
<g id="node11" class="node">
<title>DejaSidenavMenuSeparatorDirective </title>
<polygon fill="#fb8072" stroke="#000000" points="530.9094,-252 301.0906,-252 301.0906,-216 530.9094,-216 530.9094,-252"/>
<text text-anchor="middle" x="416" y="-229.8" font-family="Times,serif" font-size="14.00" fill="#000000">DejaSidenavMenuSeparatorDirective </text>
</g>
<!-- DejaSidenavModule&#45;&gt;DejaSidenavMenuSeparatorDirective  -->
<g id="edge10" class="edge">
<title>DejaSidenavModule&#45;&gt;DejaSidenavMenuSeparatorDirective </title>
<path fill="none" stroke="#000000" stroke-dasharray="5,2" d="M576.2793,-180C524.6341,-180 461.375,-180 461.375,-180 461.375,-180 461.375,-205.7181 461.375,-205.7181"/>
<polygon fill="#000000" stroke="#000000" points="457.8751,-205.718 461.375,-215.7181 464.8751,-205.7181 457.8751,-205.718"/>
</g>
<!-- DejaSidenavHeaderDirective  -->
<g id="node12" class="node">
<title>DejaSidenavHeaderDirective </title>
<polygon fill="#fb8072" stroke="#000000" points="283.5232,-252 100.4768,-252 100.4768,-216 283.5232,-216 283.5232,-252"/>
<text text-anchor="middle" x="192" y="-229.8" font-family="Times,serif" font-size="14.00" fill="#000000">DejaSidenavHeaderDirective </text>
</g>
<!-- DejaSidenavModule&#45;&gt;DejaSidenavHeaderDirective  -->
<g id="edge11" class="edge">
<title>DejaSidenavModule&#45;&gt;DejaSidenavHeaderDirective </title>
<path fill="none" stroke="#000000" stroke-dasharray="5,2" d="M576.3338,-173C462.1036,-173 238.875,-173 238.875,-173 238.875,-173 238.875,-205.698 238.875,-205.698"/>
<polygon fill="#000000" stroke="#000000" points="235.3751,-205.698 238.875,-215.698 242.3751,-205.698 235.3751,-205.698"/>
</g>
<!-- DejaSlimScrollModule -->
<g id="node7" class="node">
<title>DejaSlimScrollModule</title>
<polygon fill="#8dd3c7" stroke="#000000" points="169.8697,-122 166.8697,-126 145.8697,-126 142.8697,-122 24.1303,-122 24.1303,-86 169.8697,-86 169.8697,-122"/>
<text text-anchor="middle" x="97" y="-99.8" font-family="Times,serif" font-size="14.00" fill="#000000">DejaSlimScrollModule</text>
</g>
<!-- DejaSlimScrollModule&#45;&gt;DejaSidenavModule -->
<g id="edge6" class="edge">
<title>DejaSlimScrollModule&#45;&gt;DejaSidenavModule</title>
<path fill="none" stroke="#000000" d="M135.0868,-122.2667C135.0868,-140.5552 135.0868,-166 135.0868,-166 135.0868,-166 566.2496,-166 566.2496,-166"/>
<polygon fill="#000000" stroke="#000000" points="566.2497,-169.5001 576.2496,-166 566.2496,-162.5001 566.2497,-169.5001"/>
</g>
</g>
</svg>
