<?xml version="1.0" encoding="UTF-8" standalone="no"?>
<!DOCTYPE svg PUBLIC "-//W3C//DTD SVG 1.1//EN"
 "http://www.w3.org/Graphics/SVG/1.1/DTD/svg11.dtd">
<!-- Generated by graphviz version 2.40.1 (20161225.0304)
 -->
<!-- Title: dependencies Pages: 1 -->
<svg width="504pt" height="349pt"
 viewBox="0.00 0.00 504.00 349.00" xmlns="http://www.w3.org/2000/svg" xmlns:xlink="http://www.w3.org/1999/xlink">
<g id="graph0" class="graph" transform="scale(1 1) rotate(0) translate(4 345)">
<title>dependencies</title>
<polygon fill="#ffffff" stroke="transparent" points="-4,4 -4,-345 500,-345 500,4 -4,4"/>
<text text-anchor="start" x="227.0091" y="-42.4" font-family="sans-serif" font-weight="bold" font-size="14.00" fill="#000000">Legend</text>
<polygon fill="#ffffb3" stroke="transparent" points="14,-10 14,-30 34,-30 34,-10 14,-10"/>
<text text-anchor="start" x="37.629" y="-15.4" font-family="sans-serif" font-size="14.00" fill="#000000"> &#160;Declarations</text>
<polygon fill="#8dd3c7" stroke="transparent" points="127,-10 127,-30 147,-30 147,-10 127,-10"/>
<text text-anchor="start" x="150.7251" y="-15.4" font-family="sans-serif" font-size="14.00" fill="#000000"> &#160;Module</text>
<polygon fill="#80b1d3" stroke="transparent" points="213,-10 213,-30 233,-30 233,-10 213,-10"/>
<text text-anchor="start" x="236.7812" y="-15.4" font-family="sans-serif" font-size="14.00" fill="#000000"> &#160;Bootstrap</text>
<polygon fill="#fdb462" stroke="transparent" points="310,-10 310,-30 330,-30 330,-10 310,-10"/>
<text text-anchor="start" x="333.6732" y="-15.4" font-family="sans-serif" font-size="14.00" fill="#000000"> &#160;Providers</text>
<polygon fill="#fb8072" stroke="transparent" points="406,-10 406,-30 426,-30 426,-10 406,-10"/>
<text text-anchor="start" x="429.7258" y="-15.4" font-family="sans-serif" font-size="14.00" fill="#000000"> &#160;Exports</text>
<g id="clust1" class="cluster">
<title>cluster_DejaMatEditorModule</title>
<polygon fill="none" stroke="#000000" stroke-dasharray="1,5" points="60.5,-70 60.5,-333 435.5,-333 435.5,-70 60.5,-70"/>
</g>
<g id="clust2" class="cluster">
<title>cluster_DejaMatEditorModule_declarations</title>
<polygon fill="none" stroke="#000000" points="223.5,-143 223.5,-195 415.5,-195 415.5,-143 223.5,-143"/>
</g>
<g id="clust3" class="cluster">
<title>cluster_DejaMatEditorModule_DejaEditorSelectorDirective_providers</title>
<polygon fill="none" stroke="#000000" points="271.5,-78 271.5,-130 367.5,-130 367.5,-78 271.5,-78"/>
</g>
<g id="clust4" class="cluster">
<title>cluster_DejaMatEditorModule_imports</title>
<polygon fill="none" stroke="#000000" points="79.5,-143 79.5,-195 215.5,-195 215.5,-143 79.5,-143"/>
</g>
<g id="clust5" class="cluster">
<title>cluster_DejaMatEditorModule_exports</title>
<polygon fill="none" stroke="#000000" points="68.5,-273 68.5,-325 427.5,-325 427.5,-273 68.5,-273"/>
</g>
<!-- DejaEditorSelectorDirective -->
<g id="node1" class="node">
<title>DejaEditorSelectorDirective</title>
<polygon fill="#ffffb3" stroke="#000000" points="407.3722,-187 231.6278,-187 231.6278,-151 407.3722,-151 407.3722,-187"/>
<text text-anchor="middle" x="319.5" y="-164.8" font-family="Times,serif" font-size="14.00" fill="#000000">DejaEditorSelectorDirective</text>
</g>
<!-- DejaMatEditorModule -->
<g id="node2" class="node">
<title>DejaMatEditorModule</title>
<polygon fill="#8dd3c7" stroke="#000000" points="314.0212,-252 311.0212,-256 290.0212,-256 287.0212,-252 170.9788,-252 170.9788,-216 314.0212,-216 314.0212,-252"/>
<text text-anchor="middle" x="242.5" y="-229.8" font-family="Times,serif" font-size="14.00" fill="#000000">DejaMatEditorModule</text>
</g>
<!-- DejaEditorSelectorDirective&#45;&gt;DejaMatEditorModule -->
<g id="edge1" class="edge">
<title>DejaEditorSelectorDirective&#45;&gt;DejaMatEditorModule</title>
<path fill="none" stroke="#000000" d="M273.0372,-187.1061C273.0372,-187.1061 273.0372,-205.991 273.0372,-205.991"/>
<polygon fill="#000000" stroke="#000000" points="269.5372,-205.9909 273.0372,-215.991 276.5372,-205.991 269.5372,-205.9909"/>
</g>
<!-- DejaEditorComponent  -->
<g id="node5" class="node">
<title>DejaEditorComponent </title>
<polygon fill="#fb8072" stroke="#000000" points="419.7534,-317 273.2466,-317 273.2466,-281 419.7534,-281 419.7534,-317"/>
<text text-anchor="middle" x="346.5" y="-294.8" font-family="Times,serif" font-size="14.00" fill="#000000">DejaEditorComponent </text>
</g>
<!-- DejaMatEditorModule&#45;&gt;DejaEditorComponent  -->
<g id="edge4" class="edge">
<title>DejaMatEditorModule&#45;&gt;DejaEditorComponent </title>
<path fill="none" stroke="#000000" stroke-dasharray="5,2" d="M293.8168,-252.1061C293.8168,-252.1061 293.8168,-270.991 293.8168,-270.991"/>
<polygon fill="#000000" stroke="#000000" points="290.3169,-270.9909 293.8168,-280.991 297.3169,-270.991 290.3169,-270.9909"/>
</g>
<!-- DejaEditorSelectorDirective  -->
<g id="node6" class="node">
<title>DejaEditorSelectorDirective </title>
<polygon fill="#fb8072" stroke="#000000" points="254.8718,-317 76.1282,-317 76.1282,-281 254.8718,-281 254.8718,-317"/>
<text text-anchor="middle" x="165.5" y="-294.8" font-family="Times,serif" font-size="14.00" fill="#000000">DejaEditorSelectorDirective </text>
</g>
<!-- DejaMatEditorModule&#45;&gt;DejaEditorSelectorDirective  -->
<g id="edge5" class="edge">
<title>DejaMatEditorModule&#45;&gt;DejaEditorSelectorDirective </title>
<path fill="none" stroke="#000000" stroke-dasharray="5,2" d="M212.8379,-252.1061C212.8379,-252.1061 212.8379,-270.991 212.8379,-270.991"/>
<polygon fill="#000000" stroke="#000000" points="209.3379,-270.9909 212.8379,-280.991 216.3379,-270.991 209.3379,-270.9909"/>
</g>
<!-- { : , : &#160;} -->
<g id="node3" class="node">
<title>{ : , : &#160;}</title>
<ellipse fill="#fdb462" stroke="#000000" cx="319.5" cy="-104" rx="40.3166" ry="18"/>
<text text-anchor="middle" x="319.5" y="-99.8" font-family="Times,serif" font-size="14.00" fill="#000000">{ : , : &#160;}</text>
</g>
<!-- { : , : &#160;}&#45;&gt;DejaEditorSelectorDirective -->
<g id="edge2" class="edge">
<title>{ : , : &#160;}&#45;&gt;DejaEditorSelectorDirective</title>
<path fill="none" stroke="#000000" d="M319.5,-122.1061C319.5,-122.1061 319.5,-140.991 319.5,-140.991"/>
<polygon fill="#000000" stroke="#000000" points="316.0001,-140.9909 319.5,-150.991 323.0001,-140.991 316.0001,-140.9909"/>
</g>
<!-- DejaEditorModule -->
<g id="node4" class="node">
<title>DejaEditorModule</title>
<polygon fill="#8dd3c7" stroke="#000000" points="207.9706,-187 204.9706,-191 183.9706,-191 180.9706,-187 87.0294,-187 87.0294,-151 207.9706,-151 207.9706,-187"/>
<text text-anchor="middle" x="147.5" y="-164.8" font-family="Times,serif" font-size="14.00" fill="#000000">DejaEditorModule</text>
</g>
<!-- DejaEditorModule&#45;&gt;DejaMatEditorModule -->
<g id="edge3" class="edge">
<title>DejaEditorModule&#45;&gt;DejaMatEditorModule</title>
<path fill="none" stroke="#000000" d="M189.3626,-187.1061C189.3626,-187.1061 189.3626,-205.991 189.3626,-205.991"/>
<polygon fill="#000000" stroke="#000000" points="185.8626,-205.9909 189.3626,-215.991 192.8626,-205.991 185.8626,-205.9909"/>
</g>
</g>
</svg>
