<?xml version="1.0" encoding="UTF-8" standalone="no"?>
<!DOCTYPE svg PUBLIC "-//W3C//DTD SVG 1.1//EN"
 "http://www.w3.org/Graphics/SVG/1.1/DTD/svg11.dtd">
<!-- Generated by graphviz version 2.40.1 (20161225.0304)
 -->
<!-- Title: dependencies Pages: 1 -->
<svg width="684pt" height="396pt"
 viewBox="0.00 0.00 684.00 395.59" xmlns="http://www.w3.org/2000/svg" xmlns:xlink="http://www.w3.org/1999/xlink">
<g id="graph0" class="graph" transform="scale(1 1) rotate(0) translate(4 391.5901)">
<title>dependencies</title>
<polygon fill="#ffffff" stroke="transparent" points="-4,4 -4,-391.5901 680,-391.5901 680,4 -4,4"/>
<text text-anchor="start" x="317.0091" y="-42.4" font-family="sans-serif" font-weight="bold" font-size="14.00" fill="#000000">Legend</text>
<polygon fill="#ffffb3" stroke="transparent" points="104,-10 104,-30 124,-30 124,-10 104,-10"/>
<text text-anchor="start" x="127.629" y="-15.4" font-family="sans-serif" font-size="14.00" fill="#000000"> &#160;Declarations</text>
<polygon fill="#8dd3c7" stroke="transparent" points="217,-10 217,-30 237,-30 237,-10 217,-10"/>
<text text-anchor="start" x="240.7251" y="-15.4" font-family="sans-serif" font-size="14.00" fill="#000000"> &#160;Module</text>
<polygon fill="#80b1d3" stroke="transparent" points="303,-10 303,-30 323,-30 323,-10 303,-10"/>
<text text-anchor="start" x="326.7812" y="-15.4" font-family="sans-serif" font-size="14.00" fill="#000000"> &#160;Bootstrap</text>
<polygon fill="#fdb462" stroke="transparent" points="400,-10 400,-30 420,-30 420,-10 400,-10"/>
<text text-anchor="start" x="423.6732" y="-15.4" font-family="sans-serif" font-size="14.00" fill="#000000"> &#160;Providers</text>
<polygon fill="#fb8072" stroke="transparent" points="496,-10 496,-30 516,-30 516,-10 496,-10"/>
<text text-anchor="start" x="519.7258" y="-15.4" font-family="sans-serif" font-size="14.00" fill="#000000"> &#160;Exports</text>
<g id="clust1" class="cluster">
<title>cluster_DejaMatEditorModule</title>
<polygon fill="none" stroke="#000000" stroke-dasharray="1,5" points="8,-70 8,-379.5901 668,-379.5901 668,-70 8,-70"/>
</g>
<g id="clust2" class="cluster">
<title>cluster_DejaMatEditorModule_declarations</title>
<polygon fill="none" stroke="#000000" points="242,-189.5901 242,-241.5901 434,-241.5901 434,-189.5901 242,-189.5901"/>
</g>
<g id="clust3" class="cluster">
<title>cluster_DejaMatEditorModule_DejaEditorSelectorDirective_providers</title>
<polygon fill="none" stroke="#000000" points="16,-78 16,-176.5901 660,-176.5901 660,-78 16,-78"/>
</g>
<g id="clust4" class="cluster">
<title>cluster_DejaMatEditorModule_imports</title>
<polygon fill="none" stroke="#000000" points="98,-189.5901 98,-241.5901 234,-241.5901 234,-189.5901 98,-189.5901"/>
</g>
<g id="clust5" class="cluster">
<title>cluster_DejaMatEditorModule_exports</title>
<polygon fill="none" stroke="#000000" points="86,-319.5901 86,-371.5901 445,-371.5901 445,-319.5901 86,-319.5901"/>
</g>
<!-- DejaEditorSelectorDirective -->
<g id="node1" class="node">
<title>DejaEditorSelectorDirective</title>
<polygon fill="#ffffb3" stroke="#000000" points="425.8722,-233.5901 250.1278,-233.5901 250.1278,-197.5901 425.8722,-197.5901 425.8722,-233.5901"/>
<text text-anchor="middle" x="338" y="-211.3901" font-family="Times,serif" font-size="14.00" fill="#000000">DejaEditorSelectorDirective</text>
</g>
<!-- DejaMatEditorModule -->
<g id="node2" class="node">
<title>DejaMatEditorModule</title>
<polygon fill="#8dd3c7" stroke="#000000" points="323.5212,-298.5901 320.5212,-302.5901 299.5212,-302.5901 296.5212,-298.5901 180.4788,-298.5901 180.4788,-262.5901 323.5212,-262.5901 323.5212,-298.5901"/>
<text text-anchor="middle" x="252" y="-276.3901" font-family="Times,serif" font-size="14.00" fill="#000000">DejaMatEditorModule</text>
</g>
<!-- DejaEditorSelectorDirective&#45;&gt;DejaMatEditorModule -->
<g id="edge1" class="edge">
<title>DejaEditorSelectorDirective&#45;&gt;DejaMatEditorModule</title>
<path fill="none" stroke="#000000" d="M287.0372,-233.6962C287.0372,-233.6962 287.0372,-252.581 287.0372,-252.581"/>
<polygon fill="#000000" stroke="#000000" points="283.5372,-252.581 287.0372,-262.581 290.5372,-252.5811 283.5372,-252.581"/>
</g>
<!-- DejaEditorComponent  -->
<g id="node5" class="node">
<title>DejaEditorComponent </title>
<polygon fill="#fb8072" stroke="#000000" points="437.2534,-363.5901 290.7466,-363.5901 290.7466,-327.5901 437.2534,-327.5901 437.2534,-363.5901"/>
<text text-anchor="middle" x="364" y="-341.3901" font-family="Times,serif" font-size="14.00" fill="#000000">DejaEditorComponent </text>
</g>
<!-- DejaMatEditorModule&#45;&gt;DejaEditorComponent  -->
<g id="edge4" class="edge">
<title>DejaMatEditorModule&#45;&gt;DejaEditorComponent </title>
<path fill="none" stroke="#000000" stroke-dasharray="5,2" d="M307.3168,-298.6962C307.3168,-298.6962 307.3168,-317.581 307.3168,-317.581"/>
<polygon fill="#000000" stroke="#000000" points="303.8169,-317.581 307.3168,-327.581 310.8169,-317.5811 303.8169,-317.581"/>
</g>
<!-- DejaEditorSelectorDirective  -->
<g id="node6" class="node">
<title>DejaEditorSelectorDirective </title>
<polygon fill="#fb8072" stroke="#000000" points="272.3718,-363.5901 93.6282,-363.5901 93.6282,-327.5901 272.3718,-327.5901 272.3718,-363.5901"/>
<text text-anchor="middle" x="183" y="-341.3901" font-family="Times,serif" font-size="14.00" fill="#000000">DejaEditorSelectorDirective </text>
</g>
<!-- DejaMatEditorModule&#45;&gt;DejaEditorSelectorDirective  -->
<g id="edge5" class="edge">
<title>DejaMatEditorModule&#45;&gt;DejaEditorSelectorDirective </title>
<path fill="none" stroke="#000000" stroke-dasharray="5,2" d="M226.3379,-298.6962C226.3379,-298.6962 226.3379,-317.581 226.3379,-317.581"/>
<polygon fill="#000000" stroke="#000000" points="222.8379,-317.581 226.3379,-327.581 229.8379,-317.5811 222.8379,-317.581"/>
</g>
<!-- {
 &#160;&#160;&#160;provide: MatFormFieldControl, useExisting: DejaEditorSelectorDirective
} -->
<g id="node3" class="node">
<title>{
 &#160;&#160;&#160;provide: MatFormFieldControl, useExisting: DejaEditorSelectorDirective
}</title>
<ellipse fill="#fdb462" stroke="#000000" cx="338" cy="-127.295" rx="313.9689" ry="41.0911"/>
<text text-anchor="middle" x="338" y="-139.895" font-family="Times,serif" font-size="14.00" fill="#000000">{</text>
<text text-anchor="middle" x="338" y="-123.095" font-family="Times,serif" font-size="14.00" fill="#000000"> &#160;&#160;&#160;provide: MatFormFieldControl, useExisting: DejaEditorSelectorDirective</text>
<text text-anchor="middle" x="338" y="-106.295" font-family="Times,serif" font-size="14.00" fill="#000000">}</text>
</g>
<!-- {
 &#160;&#160;&#160;provide: MatFormFieldControl, useExisting: DejaEditorSelectorDirective
}&#45;&gt;DejaEditorSelectorDirective -->
<g id="edge2" class="edge">
<title>{
 &#160;&#160;&#160;provide: MatFormFieldControl, useExisting: DejaEditorSelectorDirective
}&#45;&gt;DejaEditorSelectorDirective</title>
<path fill="none" stroke="#000000" d="M338,-168.5989C338,-168.5989 338,-187.2551 338,-187.2551"/>
<polygon fill="#000000" stroke="#000000" points="334.5001,-187.255 338,-197.2551 341.5001,-187.2551 334.5001,-187.255"/>
</g>
<!-- DejaEditorModule -->
<g id="node4" class="node">
<title>DejaEditorModule</title>
<polygon fill="#8dd3c7" stroke="#000000" points="226.4706,-233.5901 223.4706,-237.5901 202.4706,-237.5901 199.4706,-233.5901 105.5294,-233.5901 105.5294,-197.5901 226.4706,-197.5901 226.4706,-233.5901"/>
<text text-anchor="middle" x="166" y="-211.3901" font-family="Times,serif" font-size="14.00" fill="#000000">DejaEditorModule</text>
</g>
<!-- DejaEditorModule&#45;&gt;DejaMatEditorModule -->
<g id="edge3" class="edge">
<title>DejaEditorModule&#45;&gt;DejaMatEditorModule</title>
<path fill="none" stroke="#000000" d="M203.3626,-233.6962C203.3626,-233.6962 203.3626,-252.581 203.3626,-252.581"/>
<polygon fill="#000000" stroke="#000000" points="199.8626,-252.581 203.3626,-262.581 206.8626,-252.5811 199.8626,-252.581"/>
</g>
</g>
</svg>
