<?xml version="1.0" encoding="UTF-8" standalone="no"?>
<!DOCTYPE svg PUBLIC "-//W3C//DTD SVG 1.1//EN"
 "http://www.w3.org/Graphics/SVG/1.1/DTD/svg11.dtd">
<!-- Generated by graphviz version 2.40.1 (20161225.0304)
 -->
<!-- Title: dependencies Pages: 1 -->
<svg width="504pt" height="396pt"
 viewBox="0.00 0.00 504.00 395.59" xmlns="http://www.w3.org/2000/svg" xmlns:xlink="http://www.w3.org/1999/xlink">
<g id="graph0" class="graph" transform="scale(1 1) rotate(0) translate(4 391.5901)">
<title>dependencies</title>
<polygon fill="#ffffff" stroke="transparent" points="-4,4 -4,-391.5901 500,-391.5901 500,4 -4,4"/>
<text text-anchor="start" x="227.0091" y="-42.4" font-family="sans-serif" font-weight="bold" font-size="14.00" fill="#000000">Legend</text>
<polygon fill="#ffffb3" stroke="transparent" points="14,-10 14,-30 34,-30 34,-10 14,-10"/>
<text text-anchor="start" x="37.629" y="-15.4" font-family="sans-serif" font-size="14.00" fill="#000000"> &#160;Declarations</text>
<polygon fill="#8dd3c7" stroke="transparent" points="127,-10 127,-30 147,-30 147,-10 127,-10"/>
<text text-anchor="start" x="150.7251" y="-15.4" font-family="sans-serif" font-size="14.00" fill="#000000"> &#160;Module</text>
<polygon fill="#80b1d3" stroke="transparent" points="213,-10 213,-30 233,-30 233,-10 213,-10"/>
<text text-anchor="start" x="236.7812" y="-15.4" font-family="sans-serif" font-size="14.00" fill="#000000"> &#160;Bootstrap</text>
<polygon fill="#fdb462" stroke="transparent" points="310,-10 310,-30 330,-30 330,-10 310,-10"/>
<text text-anchor="start" x="333.6732" y="-15.4" font-family="sans-serif" font-size="14.00" fill="#000000"> &#160;Providers</text>
<polygon fill="#fb8072" stroke="transparent" points="406,-10 406,-30 426,-30 426,-10 406,-10"/>
<text text-anchor="start" x="429.7258" y="-15.4" font-family="sans-serif" font-size="14.00" fill="#000000"> &#160;Exports</text>
<g id="clust1" class="cluster">
<title>cluster_DejaMatEditorModule</title>
<polygon fill="none" stroke="#000000" stroke-dasharray="1,5" points="60.5,-70 60.5,-379.5901 435.5,-379.5901 435.5,-70 60.5,-70"/>
</g>
<g id="clust2" class="cluster">
<title>cluster_DejaMatEditorModule_declarations</title>
<polygon fill="none" stroke="#000000" points="223.5,-189.5901 223.5,-241.5901 415.5,-241.5901 415.5,-189.5901 223.5,-189.5901"/>
</g>
<g id="clust3" class="cluster">
<title>cluster_DejaMatEditorModule_DejaEditorSelectorDirective_providers</title>
<polygon fill="none" stroke="#000000" points="274.5,-78 274.5,-176.5901 364.5,-176.5901 364.5,-78 274.5,-78"/>
</g>
<g id="clust4" class="cluster">
<title>cluster_DejaMatEditorModule_imports</title>
<polygon fill="none" stroke="#000000" points="79.5,-189.5901 79.5,-241.5901 215.5,-241.5901 215.5,-189.5901 79.5,-189.5901"/>
</g>
<g id="clust5" class="cluster">
<title>cluster_DejaMatEditorModule_exports</title>
<polygon fill="none" stroke="#000000" points="68.5,-319.5901 68.5,-371.5901 427.5,-371.5901 427.5,-319.5901 68.5,-319.5901"/>
</g>
<!-- DejaEditorSelectorDirective -->
<g id="node1" class="node">
<title>DejaEditorSelectorDirective</title>
<polygon fill="#ffffb3" stroke="#000000" points="407.3722,-233.5901 231.6278,-233.5901 231.6278,-197.5901 407.3722,-197.5901 407.3722,-233.5901"/>
<text text-anchor="middle" x="319.5" y="-211.3901" font-family="Times,serif" font-size="14.00" fill="#000000">DejaEditorSelectorDirective</text>
</g>
<!-- DejaMatEditorModule -->
<g id="node2" class="node">
<title>DejaMatEditorModule</title>
<polygon fill="#8dd3c7" stroke="#000000" points="314.0212,-298.5901 311.0212,-302.5901 290.0212,-302.5901 287.0212,-298.5901 170.9788,-298.5901 170.9788,-262.5901 314.0212,-262.5901 314.0212,-298.5901"/>
<text text-anchor="middle" x="242.5" y="-276.3901" font-family="Times,serif" font-size="14.00" fill="#000000">DejaMatEditorModule</text>
</g>
<!-- DejaEditorSelectorDirective&#45;&gt;DejaMatEditorModule -->
<g id="edge1" class="edge">
<title>DejaEditorSelectorDirective&#45;&gt;DejaMatEditorModule</title>
<path fill="none" stroke="#000000" d="M273.0372,-233.6962C273.0372,-233.6962 273.0372,-252.581 273.0372,-252.581"/>
<polygon fill="#000000" stroke="#000000" points="269.5372,-252.581 273.0372,-262.581 276.5372,-252.5811 269.5372,-252.581"/>
</g>
<!-- DejaEditorComponent  -->
<g id="node5" class="node">
<title>DejaEditorComponent </title>
<polygon fill="#fb8072" stroke="#000000" points="419.7534,-363.5901 273.2466,-363.5901 273.2466,-327.5901 419.7534,-327.5901 419.7534,-363.5901"/>
<text text-anchor="middle" x="346.5" y="-341.3901" font-family="Times,serif" font-size="14.00" fill="#000000">DejaEditorComponent </text>
</g>
<!-- DejaMatEditorModule&#45;&gt;DejaEditorComponent  -->
<g id="edge4" class="edge">
<title>DejaMatEditorModule&#45;&gt;DejaEditorComponent </title>
<path fill="none" stroke="#000000" stroke-dasharray="5,2" d="M293.8168,-298.6962C293.8168,-298.6962 293.8168,-317.581 293.8168,-317.581"/>
<polygon fill="#000000" stroke="#000000" points="290.3169,-317.581 293.8168,-327.581 297.3169,-317.5811 290.3169,-317.581"/>
</g>
<!-- DejaEditorSelectorDirective  -->
<g id="node6" class="node">
<title>DejaEditorSelectorDirective </title>
<polygon fill="#fb8072" stroke="#000000" points="254.8718,-363.5901 76.1282,-363.5901 76.1282,-327.5901 254.8718,-327.5901 254.8718,-363.5901"/>
<text text-anchor="middle" x="165.5" y="-341.3901" font-family="Times,serif" font-size="14.00" fill="#000000">DejaEditorSelectorDirective </text>
</g>
<!-- DejaMatEditorModule&#45;&gt;DejaEditorSelectorDirective  -->
<g id="edge5" class="edge">
<title>DejaMatEditorModule&#45;&gt;DejaEditorSelectorDirective </title>
<path fill="none" stroke="#000000" stroke-dasharray="5,2" d="M212.8379,-298.6962C212.8379,-298.6962 212.8379,-317.581 212.8379,-317.581"/>
<polygon fill="#000000" stroke="#000000" points="209.3379,-317.581 212.8379,-327.581 216.3379,-317.5811 209.3379,-317.581"/>
</g>
<!-- {
 &#160;&#160;&#160;: , : 
} -->
<g id="node3" class="node">
<title>{
 &#160;&#160;&#160;: , : 
}</title>
<ellipse fill="#fdb462" stroke="#000000" cx="319.5" cy="-127.295" rx="36.73" ry="41.0911"/>
<text text-anchor="middle" x="319.5" y="-139.895" font-family="Times,serif" font-size="14.00" fill="#000000">{</text>
<text text-anchor="middle" x="319.5" y="-123.095" font-family="Times,serif" font-size="14.00" fill="#000000"> &#160;&#160;&#160;: , : </text>
<text text-anchor="middle" x="319.5" y="-106.295" font-family="Times,serif" font-size="14.00" fill="#000000">}</text>
</g>
<!-- {
 &#160;&#160;&#160;: , : 
}&#45;&gt;DejaEditorSelectorDirective -->
<g id="edge2" class="edge">
<title>{
 &#160;&#160;&#160;: , : 
}&#45;&gt;DejaEditorSelectorDirective</title>
<path fill="none" stroke="#000000" d="M319.5,-168.5989C319.5,-168.5989 319.5,-187.2551 319.5,-187.2551"/>
<polygon fill="#000000" stroke="#000000" points="316.0001,-187.255 319.5,-197.2551 323.0001,-187.2551 316.0001,-187.255"/>
</g>
<!-- DejaEditorModule -->
<g id="node4" class="node">
<title>DejaEditorModule</title>
<polygon fill="#8dd3c7" stroke="#000000" points="207.9706,-233.5901 204.9706,-237.5901 183.9706,-237.5901 180.9706,-233.5901 87.0294,-233.5901 87.0294,-197.5901 207.9706,-197.5901 207.9706,-233.5901"/>
<text text-anchor="middle" x="147.5" y="-211.3901" font-family="Times,serif" font-size="14.00" fill="#000000">DejaEditorModule</text>
</g>
<!-- DejaEditorModule&#45;&gt;DejaMatEditorModule -->
<g id="edge3" class="edge">
<title>DejaEditorModule&#45;&gt;DejaMatEditorModule</title>
<path fill="none" stroke="#000000" d="M189.3626,-233.6962C189.3626,-233.6962 189.3626,-252.581 189.3626,-252.581"/>
<polygon fill="#000000" stroke="#000000" points="185.8626,-252.581 189.3626,-262.581 192.8626,-252.5811 185.8626,-252.581"/>
</g>
</g>
</svg>
