<?xml version="1.0" encoding="UTF-8" standalone="no"?>
<!DOCTYPE svg PUBLIC "-//W3C//DTD SVG 1.1//EN"
 "http://www.w3.org/Graphics/SVG/1.1/DTD/svg11.dtd">
<!-- Generated by graphviz version 2.40.1 (20161225.0304)
 -->
<!-- Title: dependencies Pages: 1 -->
<svg width="897pt" height="284pt"
 viewBox="0.00 0.00 897.00 284.00" xmlns="http://www.w3.org/2000/svg" xmlns:xlink="http://www.w3.org/1999/xlink">
<g id="graph0" class="graph" transform="scale(1 1) rotate(0) translate(4 280)">
<title>dependencies</title>
<polygon fill="#ffffff" stroke="transparent" points="-4,4 -4,-280 893,-280 893,4 -4,4"/>
<text text-anchor="start" x="423.5091" y="-42.4" font-family="sans-serif" font-weight="bold" font-size="14.00" fill="#000000">Legend</text>
<polygon fill="#ffffb3" stroke="transparent" points="210.5,-10 210.5,-30 230.5,-30 230.5,-10 210.5,-10"/>
<text text-anchor="start" x="234.129" y="-15.4" font-family="sans-serif" font-size="14.00" fill="#000000"> &#160;Declarations</text>
<polygon fill="#8dd3c7" stroke="transparent" points="323.5,-10 323.5,-30 343.5,-30 343.5,-10 323.5,-10"/>
<text text-anchor="start" x="347.2251" y="-15.4" font-family="sans-serif" font-size="14.00" fill="#000000"> &#160;Module</text>
<polygon fill="#80b1d3" stroke="transparent" points="409.5,-10 409.5,-30 429.5,-30 429.5,-10 409.5,-10"/>
<text text-anchor="start" x="433.2812" y="-15.4" font-family="sans-serif" font-size="14.00" fill="#000000"> &#160;Bootstrap</text>
<polygon fill="#fdb462" stroke="transparent" points="506.5,-10 506.5,-30 526.5,-30 526.5,-10 506.5,-10"/>
<text text-anchor="start" x="530.1732" y="-15.4" font-family="sans-serif" font-size="14.00" fill="#000000"> &#160;Providers</text>
<polygon fill="#fb8072" stroke="transparent" points="602.5,-10 602.5,-30 622.5,-30 622.5,-10 602.5,-10"/>
<text text-anchor="start" x="626.2258" y="-15.4" font-family="sans-serif" font-size="14.00" fill="#000000"> &#160;Exports</text>
<g id="clust1" class="cluster">
<title>cluster_DejaAccordionModule</title>
<polygon fill="none" stroke="#000000" stroke-dasharray="1,5" points="8,-70 8,-268 881,-268 881,-70 8,-70"/>
</g>
<g id="clust2" class="cluster">
<title>cluster_DejaAccordionModule_declarations</title>
<polygon fill="none" stroke="#000000" points="23,-78 23,-130 868,-130 868,-78 23,-78"/>
</g>
<g id="clust8" class="cluster">
<title>cluster_DejaAccordionModule_exports</title>
<polygon fill="none" stroke="#000000" points="16,-208 16,-260 873,-260 873,-208 16,-208"/>
</g>
<!-- DejaAccordionBodyComponent -->
<g id="node1" class="node">
<title>DejaAccordionBodyComponent</title>
<polygon fill="#ffffb3" stroke="#000000" points="859.6825,-122 662.3175,-122 662.3175,-86 859.6825,-86 859.6825,-122"/>
<text text-anchor="middle" x="761" y="-99.8" font-family="Times,serif" font-size="14.00" fill="#000000">DejaAccordionBodyComponent</text>
</g>
<!-- DejaAccordionModule -->
<g id="node5" class="node">
<title>DejaAccordionModule</title>
<polygon fill="#8dd3c7" stroke="#000000" points="432.5632,-187 429.5632,-191 408.5632,-191 405.5632,-187 287.4368,-187 287.4368,-151 432.5632,-151 432.5632,-187"/>
<text text-anchor="middle" x="360" y="-164.8" font-family="Times,serif" font-size="14.00" fill="#000000">DejaAccordionModule</text>
</g>
<!-- DejaAccordionBodyComponent&#45;&gt;DejaAccordionModule -->
<g id="edge1" class="edge">
<title>DejaAccordionBodyComponent&#45;&gt;DejaAccordionModule</title>
<path fill="none" stroke="#000000" d="M794.6137,-122.2667C794.6137,-140.5552 794.6137,-166 794.6137,-166 794.6137,-166 442.7446,-166 442.7446,-166"/>
<polygon fill="#000000" stroke="#000000" points="442.7446,-162.5001 432.7446,-166 442.7445,-169.5001 442.7446,-162.5001"/>
</g>
<!-- DejaAccordionComponent -->
<g id="node2" class="node">
<title>DejaAccordionComponent</title>
<polygon fill="#ffffb3" stroke="#000000" points="644.3459,-122 477.6541,-122 477.6541,-86 644.3459,-86 644.3459,-122"/>
<text text-anchor="middle" x="561" y="-99.8" font-family="Times,serif" font-size="14.00" fill="#000000">DejaAccordionComponent</text>
</g>
<!-- DejaAccordionComponent&#45;&gt;DejaAccordionModule -->
<g id="edge2" class="edge">
<title>DejaAccordionComponent&#45;&gt;DejaAccordionModule</title>
<path fill="none" stroke="#000000" d="M588.8076,-122.0091C588.8076,-138.0494 588.8076,-159 588.8076,-159 588.8076,-159 442.7105,-159 442.7105,-159"/>
<polygon fill="#000000" stroke="#000000" points="442.7106,-155.5001 432.7105,-159 442.7105,-162.5001 442.7106,-155.5001"/>
</g>
<!-- DejaAccordionGroupComponent -->
<g id="node3" class="node">
<title>DejaAccordionGroupComponent</title>
<polygon fill="#ffffb3" stroke="#000000" points="459.1134,-122 256.8866,-122 256.8866,-86 459.1134,-86 459.1134,-122"/>
<text text-anchor="middle" x="358" y="-99.8" font-family="Times,serif" font-size="14.00" fill="#000000">DejaAccordionGroupComponent</text>
</g>
<!-- DejaAccordionGroupComponent&#45;&gt;DejaAccordionModule -->
<g id="edge3" class="edge">
<title>DejaAccordionGroupComponent&#45;&gt;DejaAccordionModule</title>
<path fill="none" stroke="#000000" d="M360,-122.1061C360,-122.1061 360,-140.991 360,-140.991"/>
<polygon fill="#000000" stroke="#000000" points="356.5001,-140.9909 360,-150.991 363.5001,-140.991 356.5001,-140.9909"/>
</g>
<!-- DejaAccordionHeaderComponent -->
<g id="node4" class="node">
<title>DejaAccordionHeaderComponent</title>
<polygon fill="#ffffb3" stroke="#000000" points="238.757,-122 31.243,-122 31.243,-86 238.757,-86 238.757,-122"/>
<text text-anchor="middle" x="135" y="-99.8" font-family="Times,serif" font-size="14.00" fill="#000000">DejaAccordionHeaderComponent</text>
</g>
<!-- DejaAccordionHeaderComponent&#45;&gt;DejaAccordionModule -->
<g id="edge4" class="edge">
<title>DejaAccordionHeaderComponent&#45;&gt;DejaAccordionModule</title>
<path fill="none" stroke="#000000" d="M166.7095,-122.0225C166.7095,-139.3734 166.7095,-163 166.7095,-163 166.7095,-163 277.2006,-163 277.2006,-163"/>
<polygon fill="#000000" stroke="#000000" points="277.2006,-166.5001 287.2006,-163 277.2005,-159.5001 277.2006,-166.5001"/>
</g>
<!-- DejaAccordionBodyComponent  -->
<g id="node6" class="node">
<title>DejaAccordionBodyComponent </title>
<polygon fill="#fb8072" stroke="#000000" points="865.1827,-252 664.8173,-252 664.8173,-216 865.1827,-216 865.1827,-252"/>
<text text-anchor="middle" x="765" y="-229.8" font-family="Times,serif" font-size="14.00" fill="#000000">DejaAccordionBodyComponent </text>
</g>
<!-- DejaAccordionModule&#45;&gt;DejaAccordionBodyComponent  -->
<g id="edge5" class="edge">
<title>DejaAccordionModule&#45;&gt;DejaAccordionBodyComponent </title>
<path fill="none" stroke="#000000" stroke-dasharray="5,2" d="M432.5872,-173C540.2351,-173 729.6363,-173 729.6363,-173 729.6363,-173 729.6363,-205.698 729.6363,-205.698"/>
<polygon fill="#000000" stroke="#000000" points="726.1364,-205.698 729.6363,-215.698 733.1364,-205.698 726.1364,-205.698"/>
</g>
<!-- DejaAccordionComponent  -->
<g id="node7" class="node">
<title>DejaAccordionComponent </title>
<polygon fill="#fb8072" stroke="#000000" points="646.3462,-252 475.6538,-252 475.6538,-216 646.3462,-216 646.3462,-252"/>
<text text-anchor="middle" x="561" y="-229.8" font-family="Times,serif" font-size="14.00" fill="#000000">DejaAccordionComponent </text>
</g>
<!-- DejaAccordionModule&#45;&gt;DejaAccordionComponent  -->
<g id="edge6" class="edge">
<title>DejaAccordionModule&#45;&gt;DejaAccordionComponent </title>
<path fill="none" stroke="#000000" stroke-dasharray="5,2" d="M432.6964,-180C480.0923,-180 533.1924,-180 533.1924,-180 533.1924,-180 533.1924,-205.7181 533.1924,-205.7181"/>
<polygon fill="#000000" stroke="#000000" points="529.6925,-205.718 533.1924,-215.7181 536.6925,-205.7181 529.6925,-205.718"/>
</g>
<!-- DejaAccordionGroupComponent  -->
<g id="node8" class="node">
<title>DejaAccordionGroupComponent </title>
<polygon fill="#fb8072" stroke="#000000" points="458.113,-252 251.887,-252 251.887,-216 458.113,-216 458.113,-252"/>
<text text-anchor="middle" x="355" y="-229.8" font-family="Times,serif" font-size="14.00" fill="#000000">DejaAccordionGroupComponent </text>
</g>
<!-- DejaAccordionModule&#45;&gt;DejaAccordionGroupComponent  -->
<g id="edge7" class="edge">
<title>DejaAccordionModule&#45;&gt;DejaAccordionGroupComponent </title>
<path fill="none" stroke="#000000" stroke-dasharray="5,2" d="M360,-187.1061C360,-187.1061 360,-205.991 360,-205.991"/>
<polygon fill="#000000" stroke="#000000" points="356.5001,-205.9909 360,-215.991 363.5001,-205.991 356.5001,-205.9909"/>
</g>
<!-- DejaAccordionHeaderComponent  -->
<g id="node9" class="node">
<title>DejaAccordionHeaderComponent </title>
<polygon fill="#fb8072" stroke="#000000" points="234.2569,-252 23.7431,-252 23.7431,-216 234.2569,-216 234.2569,-252"/>
<text text-anchor="middle" x="129" y="-229.8" font-family="Times,serif" font-size="14.00" fill="#000000">DejaAccordionHeaderComponent </text>
</g>
<!-- DejaAccordionModule&#45;&gt;DejaAccordionHeaderComponent  -->
<g id="edge8" class="edge">
<title>DejaAccordionModule&#45;&gt;DejaAccordionHeaderComponent </title>
<path fill="none" stroke="#000000" stroke-dasharray="5,2" d="M287.3082,-175C210.0925,-175 99.0405,-175 99.0405,-175 99.0405,-175 99.0405,-205.9775 99.0405,-205.9775"/>
<polygon fill="#000000" stroke="#000000" points="95.5404,-205.9775 99.0405,-215.9775 102.5404,-205.9774 95.5404,-205.9775"/>
</g>
</g>
</svg>
