<?xml version="1.0" encoding="UTF-8" standalone="no"?>
<!DOCTYPE svg PUBLIC "-//W3C//DTD SVG 1.1//EN"
 "http://www.w3.org/Graphics/SVG/1.1/DTD/svg11.dtd">
<!-- Generated by graphviz version 2.40.1 (20161225.0304)
 -->
<!-- Title: dependencies Pages: 1 -->
<svg width="530pt" height="284pt"
 viewBox="0.00 0.00 530.00 284.00" xmlns="http://www.w3.org/2000/svg" xmlns:xlink="http://www.w3.org/1999/xlink">
<g id="graph0" class="graph" transform="scale(1 1) rotate(0) translate(4 280)">
<title>dependencies</title>
<polygon fill="#ffffff" stroke="transparent" points="-4,4 -4,-280 526,-280 526,4 -4,4"/>
<text text-anchor="start" x="240.0091" y="-42.4" font-family="sans-serif" font-weight="bold" font-size="14.00" fill="#000000">Legend</text>
<polygon fill="#ffffb3" stroke="transparent" points="27,-10 27,-30 47,-30 47,-10 27,-10"/>
<text text-anchor="start" x="50.629" y="-15.4" font-family="sans-serif" font-size="14.00" fill="#000000"> &#160;Declarations</text>
<polygon fill="#8dd3c7" stroke="transparent" points="140,-10 140,-30 160,-30 160,-10 140,-10"/>
<text text-anchor="start" x="163.7251" y="-15.4" font-family="sans-serif" font-size="14.00" fill="#000000"> &#160;Module</text>
<polygon fill="#80b1d3" stroke="transparent" points="226,-10 226,-30 246,-30 246,-10 226,-10"/>
<text text-anchor="start" x="249.7812" y="-15.4" font-family="sans-serif" font-size="14.00" fill="#000000"> &#160;Bootstrap</text>
<polygon fill="#fdb462" stroke="transparent" points="323,-10 323,-30 343,-30 343,-10 323,-10"/>
<text text-anchor="start" x="346.6732" y="-15.4" font-family="sans-serif" font-size="14.00" fill="#000000"> &#160;Providers</text>
<polygon fill="#fb8072" stroke="transparent" points="419,-10 419,-30 439,-30 439,-10 419,-10"/>
<text text-anchor="start" x="442.7258" y="-15.4" font-family="sans-serif" font-size="14.00" fill="#000000"> &#160;Exports</text>
<g id="clust1" class="cluster">
<title>cluster_DejaIntervalSelectorModule</title>
<polygon fill="none" stroke="#000000" stroke-dasharray="1,5" points="8,-70 8,-268 514,-268 514,-70 8,-70"/>
</g>
<g id="clust2" class="cluster">
<title>cluster_DejaIntervalSelectorModule_declarations</title>
<polygon fill="none" stroke="#000000" points="19,-78 19,-130 503,-130 503,-78 19,-78"/>
</g>
<g id="clust6" class="cluster">
<title>cluster_DejaIntervalSelectorModule_exports</title>
<polygon fill="none" stroke="#000000" points="16,-208 16,-260 506,-260 506,-208 16,-208"/>
</g>
<!-- DejaIntervalSelectorComponent -->
<g id="node1" class="node">
<title>DejaIntervalSelectorComponent</title>
<polygon fill="#ffffb3" stroke="#000000" points="494.6587,-122 297.3413,-122 297.3413,-86 494.6587,-86 494.6587,-122"/>
<text text-anchor="middle" x="396" y="-99.8" font-family="Times,serif" font-size="14.00" fill="#000000">DejaIntervalSelectorComponent</text>
</g>
<!-- DejaIntervalSelectorModule -->
<g id="node3" class="node">
<title>DejaIntervalSelectorModule</title>
<polygon fill="#8dd3c7" stroke="#000000" points="241.8764,-187 238.8764,-191 217.8764,-191 214.8764,-187 66.1236,-187 66.1236,-151 241.8764,-151 241.8764,-187"/>
<text text-anchor="middle" x="154" y="-164.8" font-family="Times,serif" font-size="14.00" fill="#000000">DejaIntervalSelectorModule</text>
</g>
<!-- DejaIntervalSelectorComponent&#45;&gt;DejaIntervalSelectorModule -->
<g id="edge1" class="edge">
<title>DejaIntervalSelectorComponent&#45;&gt;DejaIntervalSelectorModule</title>
<path fill="none" stroke="#000000" d="M428.9431,-122.0225C428.9431,-139.3734 428.9431,-163 428.9431,-163 428.9431,-163 251.7497,-163 251.7497,-163"/>
<polygon fill="#000000" stroke="#000000" points="251.7497,-159.5001 241.7497,-163 251.7496,-166.5001 251.7497,-159.5001"/>
</g>
<!-- DejaIntervalSelectorBoundaryComponent -->
<g id="node2" class="node">
<title>DejaIntervalSelectorBoundaryComponent</title>
<polygon fill="#ffffb3" stroke="#000000" points="279.3707,-122 26.6293,-122 26.6293,-86 279.3707,-86 279.3707,-122"/>
<text text-anchor="middle" x="153" y="-99.8" font-family="Times,serif" font-size="14.00" fill="#000000">DejaIntervalSelectorBoundaryComponent</text>
</g>
<!-- DejaIntervalSelectorBoundaryComponent&#45;&gt;DejaIntervalSelectorModule -->
<g id="edge2" class="edge">
<title>DejaIntervalSelectorBoundaryComponent&#45;&gt;DejaIntervalSelectorModule</title>
<path fill="none" stroke="#000000" d="M154,-122.1061C154,-122.1061 154,-140.991 154,-140.991"/>
<polygon fill="#000000" stroke="#000000" points="150.5001,-140.9909 154,-150.991 157.5001,-140.991 150.5001,-140.9909"/>
</g>
<!-- DejaIntervalSelectorComponent  -->
<g id="node4" class="node">
<title>DejaIntervalSelectorComponent </title>
<polygon fill="#fb8072" stroke="#000000" points="498.1589,-252 297.8411,-252 297.8411,-216 498.1589,-216 498.1589,-252"/>
<text text-anchor="middle" x="398" y="-229.8" font-family="Times,serif" font-size="14.00" fill="#000000">DejaIntervalSelectorComponent </text>
</g>
<!-- DejaIntervalSelectorModule&#45;&gt;DejaIntervalSelectorComponent  -->
<g id="edge3" class="edge">
<title>DejaIntervalSelectorModule&#45;&gt;DejaIntervalSelectorComponent </title>
<path fill="none" stroke="#000000" stroke-dasharray="5,2" d="M241.8552,-175C299.1343,-175 363.3069,-175 363.3069,-175 363.3069,-175 363.3069,-205.9775 363.3069,-205.9775"/>
<polygon fill="#000000" stroke="#000000" points="359.807,-205.9774 363.3069,-215.9775 366.807,-205.9775 359.807,-205.9774"/>
</g>
<!-- DejaIntervalSelectorBoundaryComponent  -->
<g id="node5" class="node">
<title>DejaIntervalSelectorBoundaryComponent </title>
<polygon fill="#fb8072" stroke="#000000" points="279.8704,-252 24.1296,-252 24.1296,-216 279.8704,-216 279.8704,-252"/>
<text text-anchor="middle" x="152" y="-229.8" font-family="Times,serif" font-size="14.00" fill="#000000">DejaIntervalSelectorBoundaryComponent </text>
</g>
<!-- DejaIntervalSelectorModule&#45;&gt;DejaIntervalSelectorBoundaryComponent  -->
<g id="edge4" class="edge">
<title>DejaIntervalSelectorModule&#45;&gt;DejaIntervalSelectorBoundaryComponent </title>
<path fill="none" stroke="#000000" stroke-dasharray="5,2" d="M154,-187.1061C154,-187.1061 154,-205.991 154,-205.991"/>
<polygon fill="#000000" stroke="#000000" points="150.5001,-205.9909 154,-215.991 157.5001,-205.991 150.5001,-205.9909"/>
</g>
</g>
</svg>
