<?xml version="1.0" encoding="UTF-8" standalone="no"?>
<!DOCTYPE svg PUBLIC "-//W3C//DTD SVG 1.1//EN"
 "http://www.w3.org/Graphics/SVG/1.1/DTD/svg11.dtd">
<!-- Generated by graphviz version 2.40.1 (20161225.0304)
 -->
<!-- Title: dependencies Pages: 1 -->
<svg width="1035pt" height="284pt"
 viewBox="0.00 0.00 1035.00 284.00" xmlns="http://www.w3.org/2000/svg" xmlns:xlink="http://www.w3.org/1999/xlink">
<g id="graph0" class="graph" transform="scale(1 1) rotate(0) translate(4 280)">
<title>dependencies</title>
<polygon fill="#ffffff" stroke="transparent" points="-4,4 -4,-280 1031,-280 1031,4 -4,4"/>
<text text-anchor="start" x="492.5091" y="-42.4" font-family="sans-serif" font-weight="bold" font-size="14.00" fill="#000000">Legend</text>
<polygon fill="#ffffb3" stroke="transparent" points="279.5,-10 279.5,-30 299.5,-30 299.5,-10 279.5,-10"/>
<text text-anchor="start" x="303.129" y="-15.4" font-family="sans-serif" font-size="14.00" fill="#000000"> &#160;Declarations</text>
<polygon fill="#8dd3c7" stroke="transparent" points="392.5,-10 392.5,-30 412.5,-30 412.5,-10 392.5,-10"/>
<text text-anchor="start" x="416.2251" y="-15.4" font-family="sans-serif" font-size="14.00" fill="#000000"> &#160;Module</text>
<polygon fill="#80b1d3" stroke="transparent" points="478.5,-10 478.5,-30 498.5,-30 498.5,-10 478.5,-10"/>
<text text-anchor="start" x="502.2812" y="-15.4" font-family="sans-serif" font-size="14.00" fill="#000000"> &#160;Bootstrap</text>
<polygon fill="#fdb462" stroke="transparent" points="575.5,-10 575.5,-30 595.5,-30 595.5,-10 575.5,-10"/>
<text text-anchor="start" x="599.1732" y="-15.4" font-family="sans-serif" font-size="14.00" fill="#000000"> &#160;Providers</text>
<polygon fill="#fb8072" stroke="transparent" points="671.5,-10 671.5,-30 691.5,-30 691.5,-10 671.5,-10"/>
<text text-anchor="start" x="695.2258" y="-15.4" font-family="sans-serif" font-size="14.00" fill="#000000"> &#160;Exports</text>
<g id="clust1" class="cluster">
<title>cluster_DejaTreeListModule</title>
<polygon fill="none" stroke="#000000" stroke-dasharray="1,5" points="8,-70 8,-268 1019,-268 1019,-70 8,-70"/>
</g>
<g id="clust2" class="cluster">
<title>cluster_DejaTreeListModule_declarations</title>
<polygon fill="none" stroke="#000000" points="839,-78 839,-130 1011,-130 1011,-78 839,-78"/>
</g>
<g id="clust4" class="cluster">
<title>cluster_DejaTreeListModule_imports</title>
<polygon fill="none" stroke="#000000" points="16,-78 16,-130 831,-130 831,-78 16,-78"/>
</g>
<g id="clust5" class="cluster">
<title>cluster_DejaTreeListModule_exports</title>
<polygon fill="none" stroke="#000000" points="392,-208 392,-260 566,-260 566,-208 392,-208"/>
</g>
<!-- DejaTreeListComponent -->
<g id="node1" class="node">
<title>DejaTreeListComponent</title>
<polygon fill="#ffffb3" stroke="#000000" points="1002.6797,-122 847.3203,-122 847.3203,-86 1002.6797,-86 1002.6797,-122"/>
<text text-anchor="middle" x="925" y="-99.8" font-family="Times,serif" font-size="14.00" fill="#000000">DejaTreeListComponent</text>
</g>
<!-- DejaTreeListModule -->
<g id="node2" class="node">
<title>DejaTreeListModule</title>
<polygon fill="#8dd3c7" stroke="#000000" points="545.8976,-187 542.8976,-191 521.8976,-191 518.8976,-187 412.1024,-187 412.1024,-151 545.8976,-151 545.8976,-187"/>
<text text-anchor="middle" x="479" y="-164.8" font-family="Times,serif" font-size="14.00" fill="#000000">DejaTreeListModule</text>
</g>
<!-- DejaTreeListComponent&#45;&gt;DejaTreeListModule -->
<g id="edge1" class="edge">
<title>DejaTreeListComponent&#45;&gt;DejaTreeListModule</title>
<path fill="none" stroke="#000000" d="M925,-122.2843C925,-143.3211 925,-175 925,-175 925,-175 555.7707,-175 555.7707,-175"/>
<polygon fill="#000000" stroke="#000000" points="555.7707,-171.5001 545.7707,-175 555.7707,-178.5001 555.7707,-171.5001"/>
</g>
<!-- DejaTreeListComponent  -->
<g id="node8" class="node">
<title>DejaTreeListComponent </title>
<polygon fill="#fb8072" stroke="#000000" points="558.1799,-252 399.8201,-252 399.8201,-216 558.1799,-216 558.1799,-252"/>
<text text-anchor="middle" x="479" y="-229.8" font-family="Times,serif" font-size="14.00" fill="#000000">DejaTreeListComponent </text>
</g>
<!-- DejaTreeListModule&#45;&gt;DejaTreeListComponent  -->
<g id="edge7" class="edge">
<title>DejaTreeListModule&#45;&gt;DejaTreeListComponent </title>
<path fill="none" stroke="#000000" stroke-dasharray="5,2" d="M479,-187.1061C479,-187.1061 479,-205.991 479,-205.991"/>
<polygon fill="#000000" stroke="#000000" points="475.5001,-205.9909 479,-215.991 482.5001,-205.991 475.5001,-205.9909"/>
</g>
<!-- DejaChildValidatorModule -->
<g id="node3" class="node">
<title>DejaChildValidatorModule</title>
<polygon fill="#8dd3c7" stroke="#000000" points="822.9622,-122 819.9622,-126 798.9622,-126 795.9622,-122 653.0378,-122 653.0378,-86 822.9622,-86 822.9622,-122"/>
<text text-anchor="middle" x="738" y="-99.8" font-family="Times,serif" font-size="14.00" fill="#000000">DejaChildValidatorModule</text>
</g>
<!-- DejaChildValidatorModule&#45;&gt;DejaTreeListModule -->
<g id="edge2" class="edge">
<title>DejaChildValidatorModule&#45;&gt;DejaTreeListModule</title>
<path fill="none" stroke="#000000" d="M738,-122.0225C738,-139.3734 738,-163 738,-163 738,-163 555.6989,-163 555.6989,-163"/>
<polygon fill="#000000" stroke="#000000" points="555.699,-159.5001 545.6989,-163 555.6989,-166.5001 555.699,-159.5001"/>
</g>
<!-- DejaListLoaderModule -->
<g id="node4" class="node">
<title>DejaListLoaderModule</title>
<polygon fill="#8dd3c7" stroke="#000000" points="634.8975,-122 631.8975,-126 610.8975,-126 607.8975,-122 487.1025,-122 487.1025,-86 634.8975,-86 634.8975,-122"/>
<text text-anchor="middle" x="561" y="-99.8" font-family="Times,serif" font-size="14.00" fill="#000000">DejaListLoaderModule</text>
</g>
<!-- DejaListLoaderModule&#45;&gt;DejaTreeListModule -->
<g id="edge3" class="edge">
<title>DejaListLoaderModule&#45;&gt;DejaTreeListModule</title>
<path fill="none" stroke="#000000" d="M516.5,-122.1061C516.5,-122.1061 516.5,-140.991 516.5,-140.991"/>
<polygon fill="#000000" stroke="#000000" points="513.0001,-140.9909 516.5,-150.991 520.0001,-140.991 513.0001,-140.9909"/>
</g>
<!-- DejaDragDropModule -->
<g id="node5" class="node">
<title>DejaDragDropModule</title>
<polygon fill="#8dd3c7" stroke="#000000" points="469.2255,-122 466.2255,-126 445.2255,-126 442.2255,-122 326.7745,-122 326.7745,-86 469.2255,-86 469.2255,-122"/>
<text text-anchor="middle" x="398" y="-99.8" font-family="Times,serif" font-size="14.00" fill="#000000">DejaDragDropModule</text>
</g>
<!-- DejaDragDropModule&#45;&gt;DejaTreeListModule -->
<g id="edge4" class="edge">
<title>DejaDragDropModule&#45;&gt;DejaTreeListModule</title>
<path fill="none" stroke="#000000" d="M440.8321,-122.1061C440.8321,-122.1061 440.8321,-140.991 440.8321,-140.991"/>
<polygon fill="#000000" stroke="#000000" points="437.3321,-140.9909 440.8321,-150.991 444.3321,-140.991 437.3321,-140.9909"/>
</g>
<!-- DejaTextMetricsModule -->
<g id="node6" class="node">
<title>DejaTextMetricsModule</title>
<polygon fill="#8dd3c7" stroke="#000000" points="308.3947,-122 305.3947,-126 284.3947,-126 281.3947,-122 153.6053,-122 153.6053,-86 308.3947,-86 308.3947,-122"/>
<text text-anchor="middle" x="231" y="-99.8" font-family="Times,serif" font-size="14.00" fill="#000000">DejaTextMetricsModule</text>
</g>
<!-- DejaTextMetricsModule&#45;&gt;DejaTreeListModule -->
<g id="edge5" class="edge">
<title>DejaTextMetricsModule&#45;&gt;DejaTreeListModule</title>
<path fill="none" stroke="#000000" d="M231,-122.0225C231,-139.3734 231,-163 231,-163 231,-163 402.2143,-163 402.2143,-163"/>
<polygon fill="#000000" stroke="#000000" points="402.2144,-166.5001 412.2143,-163 402.2143,-159.5001 402.2144,-166.5001"/>
</g>
<!-- DejaItemModule -->
<g id="node7" class="node">
<title>DejaItemModule</title>
<polygon fill="#8dd3c7" stroke="#000000" points="135.6332,-122 132.6332,-126 111.6332,-126 108.6332,-122 24.3668,-122 24.3668,-86 135.6332,-86 135.6332,-122"/>
<text text-anchor="middle" x="80" y="-99.8" font-family="Times,serif" font-size="14.00" fill="#000000">DejaItemModule</text>
</g>
<!-- DejaItemModule&#45;&gt;DejaTreeListModule -->
<g id="edge6" class="edge">
<title>DejaItemModule&#45;&gt;DejaTreeListModule</title>
<path fill="none" stroke="#000000" d="M80,-122.2843C80,-143.3211 80,-175 80,-175 80,-175 402.2164,-175 402.2164,-175"/>
<polygon fill="#000000" stroke="#000000" points="402.2164,-178.5001 412.2164,-175 402.2163,-171.5001 402.2164,-178.5001"/>
</g>
</g>
</svg>
