<?xml version="1.0" encoding="UTF-8" standalone="no"?>
<!DOCTYPE svg PUBLIC "-//W3C//DTD SVG 1.1//EN"
 "http://www.w3.org/Graphics/SVG/1.1/DTD/svg11.dtd">
<!-- Generated by graphviz version 2.40.1 (20161225.0304)
 -->
<!-- Title: dependencies Pages: 1 -->
<svg width="1034pt" height="284pt"
 viewBox="0.00 0.00 1034.00 284.00" xmlns="http://www.w3.org/2000/svg" xmlns:xlink="http://www.w3.org/1999/xlink">
<g id="graph0" class="graph" transform="scale(1 1) rotate(0) translate(4 280)">
<title>dependencies</title>
<polygon fill="#ffffff" stroke="transparent" points="-4,4 -4,-280 1030,-280 1030,4 -4,4"/>
<text text-anchor="start" x="492.0091" y="-42.4" font-family="sans-serif" font-weight="bold" font-size="14.00" fill="#000000">Legend</text>
<polygon fill="#ffffb3" stroke="transparent" points="279,-10 279,-30 299,-30 299,-10 279,-10"/>
<text text-anchor="start" x="302.629" y="-15.4" font-family="sans-serif" font-size="14.00" fill="#000000"> &#160;Declarations</text>
<polygon fill="#8dd3c7" stroke="transparent" points="392,-10 392,-30 412,-30 412,-10 392,-10"/>
<text text-anchor="start" x="415.7251" y="-15.4" font-family="sans-serif" font-size="14.00" fill="#000000"> &#160;Module</text>
<polygon fill="#80b1d3" stroke="transparent" points="478,-10 478,-30 498,-30 498,-10 478,-10"/>
<text text-anchor="start" x="501.7812" y="-15.4" font-family="sans-serif" font-size="14.00" fill="#000000"> &#160;Bootstrap</text>
<polygon fill="#fdb462" stroke="transparent" points="575,-10 575,-30 595,-30 595,-10 575,-10"/>
<text text-anchor="start" x="598.6732" y="-15.4" font-family="sans-serif" font-size="14.00" fill="#000000"> &#160;Providers</text>
<polygon fill="#fb8072" stroke="transparent" points="671,-10 671,-30 691,-30 691,-10 671,-10"/>
<text text-anchor="start" x="694.7258" y="-15.4" font-family="sans-serif" font-size="14.00" fill="#000000"> &#160;Exports</text>
<g id="clust1" class="cluster">
<title>cluster_DejaTreeListModule</title>
<polygon fill="none" stroke="#000000" stroke-dasharray="1,5" points="8,-70 8,-268 1018,-268 1018,-70 8,-70"/>
</g>
<g id="clust2" class="cluster">
<title>cluster_DejaTreeListModule_declarations</title>
<polygon fill="none" stroke="#000000" points="838,-78 838,-130 1010,-130 1010,-78 838,-78"/>
</g>
<g id="clust4" class="cluster">
<title>cluster_DejaTreeListModule_imports</title>
<polygon fill="none" stroke="#000000" points="16,-78 16,-130 830,-130 830,-78 16,-78"/>
</g>
<g id="clust5" class="cluster">
<title>cluster_DejaTreeListModule_exports</title>
<polygon fill="none" stroke="#000000" points="403,-208 403,-260 577,-260 577,-208 403,-208"/>
</g>
<!-- DejaTreeListComponent -->
<g id="node1" class="node">
<title>DejaTreeListComponent</title>
<polygon fill="#ffffb3" stroke="#000000" points="1001.6797,-122 846.3203,-122 846.3203,-86 1001.6797,-86 1001.6797,-122"/>
<text text-anchor="middle" x="924" y="-99.8" font-family="Times,serif" font-size="14.00" fill="#000000">DejaTreeListComponent</text>
</g>
<!-- DejaTreeListModule -->
<g id="node2" class="node">
<title>DejaTreeListModule</title>
<polygon fill="#8dd3c7" stroke="#000000" points="556.8976,-187 553.8976,-191 532.8976,-191 529.8976,-187 423.1024,-187 423.1024,-151 556.8976,-151 556.8976,-187"/>
<text text-anchor="middle" x="490" y="-164.8" font-family="Times,serif" font-size="14.00" fill="#000000">DejaTreeListModule</text>
</g>
<!-- DejaTreeListComponent&#45;&gt;DejaTreeListModule -->
<g id="edge1" class="edge">
<title>DejaTreeListComponent&#45;&gt;DejaTreeListModule</title>
<path fill="none" stroke="#000000" d="M924,-122.2843C924,-143.3211 924,-175 924,-175 924,-175 566.8614,-175 566.8614,-175"/>
<polygon fill="#000000" stroke="#000000" points="566.8614,-171.5001 556.8614,-175 566.8613,-178.5001 566.8614,-171.5001"/>
</g>
<!-- DejaTreeListComponent  -->
<g id="node8" class="node">
<title>DejaTreeListComponent </title>
<polygon fill="#fb8072" stroke="#000000" points="569.1799,-252 410.8201,-252 410.8201,-216 569.1799,-216 569.1799,-252"/>
<text text-anchor="middle" x="490" y="-229.8" font-family="Times,serif" font-size="14.00" fill="#000000">DejaTreeListComponent </text>
</g>
<!-- DejaTreeListModule&#45;&gt;DejaTreeListComponent  -->
<g id="edge7" class="edge">
<title>DejaTreeListModule&#45;&gt;DejaTreeListComponent </title>
<path fill="none" stroke="#000000" stroke-dasharray="5,2" d="M490,-187.1061C490,-187.1061 490,-205.991 490,-205.991"/>
<polygon fill="#000000" stroke="#000000" points="486.5001,-205.9909 490,-215.991 493.5001,-205.991 486.5001,-205.9909"/>
</g>
<!-- DejaChildValidatorModule -->
<g id="node3" class="node">
<title>DejaChildValidatorModule</title>
<polygon fill="#8dd3c7" stroke="#000000" points="821.9622,-122 818.9622,-126 797.9622,-126 794.9622,-122 652.0378,-122 652.0378,-86 821.9622,-86 821.9622,-122"/>
<text text-anchor="middle" x="737" y="-99.8" font-family="Times,serif" font-size="14.00" fill="#000000">DejaChildValidatorModule</text>
</g>
<!-- DejaChildValidatorModule&#45;&gt;DejaTreeListModule -->
<g id="edge2" class="edge">
<title>DejaChildValidatorModule&#45;&gt;DejaTreeListModule</title>
<path fill="none" stroke="#000000" d="M737,-122.0225C737,-139.3734 737,-163 737,-163 737,-163 566.8418,-163 566.8418,-163"/>
<polygon fill="#000000" stroke="#000000" points="566.8418,-159.5001 556.8418,-163 566.8417,-166.5001 566.8418,-159.5001"/>
</g>
<!-- DejaDragDropModule -->
<g id="node4" class="node">
<title>DejaDragDropModule</title>
<polygon fill="#8dd3c7" stroke="#000000" points="634.2255,-122 631.2255,-126 610.2255,-126 607.2255,-122 491.7745,-122 491.7745,-86 634.2255,-86 634.2255,-122"/>
<text text-anchor="middle" x="563" y="-99.8" font-family="Times,serif" font-size="14.00" fill="#000000">DejaDragDropModule</text>
</g>
<!-- DejaDragDropModule&#45;&gt;DejaTreeListModule -->
<g id="edge3" class="edge">
<title>DejaDragDropModule&#45;&gt;DejaTreeListModule</title>
<path fill="none" stroke="#000000" d="M524.168,-122.1061C524.168,-122.1061 524.168,-140.991 524.168,-140.991"/>
<polygon fill="#000000" stroke="#000000" points="520.668,-140.9909 524.168,-150.991 527.668,-140.991 520.668,-140.9909"/>
</g>
<!-- DejaItemModule -->
<g id="node5" class="node">
<title>DejaItemModule</title>
<polygon fill="#8dd3c7" stroke="#000000" points="473.6332,-122 470.6332,-126 449.6332,-126 446.6332,-122 362.3668,-122 362.3668,-86 473.6332,-86 473.6332,-122"/>
<text text-anchor="middle" x="418" y="-99.8" font-family="Times,serif" font-size="14.00" fill="#000000">DejaItemModule</text>
</g>
<!-- DejaItemModule&#45;&gt;DejaTreeListModule -->
<g id="edge4" class="edge">
<title>DejaItemModule&#45;&gt;DejaTreeListModule</title>
<path fill="none" stroke="#000000" d="M448.5589,-122.1061C448.5589,-122.1061 448.5589,-140.991 448.5589,-140.991"/>
<polygon fill="#000000" stroke="#000000" points="445.059,-140.9909 448.5589,-150.991 452.059,-140.991 445.059,-140.9909"/>
</g>
<!-- DejaListLoaderModule -->
<g id="node6" class="node">
<title>DejaListLoaderModule</title>
<polygon fill="#8dd3c7" stroke="#000000" points="343.8975,-122 340.8975,-126 319.8975,-126 316.8975,-122 196.1025,-122 196.1025,-86 343.8975,-86 343.8975,-122"/>
<text text-anchor="middle" x="270" y="-99.8" font-family="Times,serif" font-size="14.00" fill="#000000">DejaListLoaderModule</text>
</g>
<!-- DejaListLoaderModule&#45;&gt;DejaTreeListModule -->
<g id="edge5" class="edge">
<title>DejaListLoaderModule&#45;&gt;DejaTreeListModule</title>
<path fill="none" stroke="#000000" d="M270,-122.0225C270,-139.3734 270,-163 270,-163 270,-163 413.0967,-163 413.0967,-163"/>
<polygon fill="#000000" stroke="#000000" points="413.0967,-166.5001 423.0967,-163 413.0967,-159.5001 413.0967,-166.5001"/>
</g>
<!-- DejaTextMetricsModule -->
<g id="node7" class="node">
<title>DejaTextMetricsModule</title>
<polygon fill="#8dd3c7" stroke="#000000" points="178.3947,-122 175.3947,-126 154.3947,-126 151.3947,-122 23.6053,-122 23.6053,-86 178.3947,-86 178.3947,-122"/>
<text text-anchor="middle" x="101" y="-99.8" font-family="Times,serif" font-size="14.00" fill="#000000">DejaTextMetricsModule</text>
</g>
<!-- DejaTextMetricsModule&#45;&gt;DejaTreeListModule -->
<g id="edge6" class="edge">
<title>DejaTextMetricsModule&#45;&gt;DejaTreeListModule</title>
<path fill="none" stroke="#000000" d="M101,-122.2843C101,-143.3211 101,-175 101,-175 101,-175 413.1285,-175 413.1285,-175"/>
<polygon fill="#000000" stroke="#000000" points="413.1286,-178.5001 423.1285,-175 413.1285,-171.5001 413.1286,-178.5001"/>
</g>
</g>
</svg>
