<?xml version="1.0" encoding="UTF-8" standalone="no"?>
<!DOCTYPE svg PUBLIC "-//W3C//DTD SVG 1.1//EN"
 "http://www.w3.org/Graphics/SVG/1.1/DTD/svg11.dtd">
<!-- Generated by graphviz version 2.40.1 (20161225.0304)
 -->
<!-- Title: dependencies Pages: 1 -->
<svg width="1563pt" height="284pt"
 viewBox="0.00 0.00 1563.00 284.00" xmlns="http://www.w3.org/2000/svg" xmlns:xlink="http://www.w3.org/1999/xlink">
<g id="graph0" class="graph" transform="scale(1 1) rotate(0) translate(4 280)">
<title>dependencies</title>
<polygon fill="#ffffff" stroke="transparent" points="-4,4 -4,-280 1559,-280 1559,4 -4,4"/>
<text text-anchor="start" x="756.5091" y="-42.4" font-family="sans-serif" font-weight="bold" font-size="14.00" fill="#000000">Legend</text>
<polygon fill="#ffffb3" stroke="transparent" points="543.5,-10 543.5,-30 563.5,-30 563.5,-10 543.5,-10"/>
<text text-anchor="start" x="567.129" y="-15.4" font-family="sans-serif" font-size="14.00" fill="#000000"> &#160;Declarations</text>
<polygon fill="#8dd3c7" stroke="transparent" points="656.5,-10 656.5,-30 676.5,-30 676.5,-10 656.5,-10"/>
<text text-anchor="start" x="680.2251" y="-15.4" font-family="sans-serif" font-size="14.00" fill="#000000"> &#160;Module</text>
<polygon fill="#80b1d3" stroke="transparent" points="742.5,-10 742.5,-30 762.5,-30 762.5,-10 742.5,-10"/>
<text text-anchor="start" x="766.2812" y="-15.4" font-family="sans-serif" font-size="14.00" fill="#000000"> &#160;Bootstrap</text>
<polygon fill="#fdb462" stroke="transparent" points="839.5,-10 839.5,-30 859.5,-30 859.5,-10 839.5,-10"/>
<text text-anchor="start" x="863.1732" y="-15.4" font-family="sans-serif" font-size="14.00" fill="#000000"> &#160;Providers</text>
<polygon fill="#fb8072" stroke="transparent" points="935.5,-10 935.5,-30 955.5,-30 955.5,-10 935.5,-10"/>
<text text-anchor="start" x="959.2258" y="-15.4" font-family="sans-serif" font-size="14.00" fill="#000000"> &#160;Exports</text>
<g id="clust1" class="cluster">
<title>cluster_DejaTreeListModule</title>
<polygon fill="none" stroke="#000000" stroke-dasharray="1,5" points="8,-70 8,-268 1547,-268 1547,-70 8,-70"/>
</g>
<g id="clust2" class="cluster">
<title>cluster_DejaTreeListModule_declarations</title>
<polygon fill="none" stroke="#000000" points="1367,-78 1367,-130 1539,-130 1539,-78 1367,-78"/>
</g>
<g id="clust4" class="cluster">
<title>cluster_DejaTreeListModule_imports</title>
<polygon fill="none" stroke="#000000" points="16,-78 16,-130 1359,-130 1359,-78 16,-78"/>
</g>
<g id="clust5" class="cluster">
<title>cluster_DejaTreeListModule_exports</title>
<polygon fill="none" stroke="#000000" points="762,-208 762,-260 936,-260 936,-208 762,-208"/>
</g>
<!-- DejaTreeListComponent -->
<g id="node1" class="node">
<title>DejaTreeListComponent</title>
<polygon fill="#ffffb3" stroke="#000000" points="1530.6797,-122 1375.3203,-122 1375.3203,-86 1530.6797,-86 1530.6797,-122"/>
<text text-anchor="middle" x="1453" y="-99.8" font-family="Times,serif" font-size="14.00" fill="#000000">DejaTreeListComponent</text>
</g>
<!-- DejaTreeListModule -->
<g id="node2" class="node">
<title>DejaTreeListModule</title>
<polygon fill="#8dd3c7" stroke="#000000" points="915.8976,-187 912.8976,-191 891.8976,-191 888.8976,-187 782.1024,-187 782.1024,-151 915.8976,-151 915.8976,-187"/>
<text text-anchor="middle" x="849" y="-164.8" font-family="Times,serif" font-size="14.00" fill="#000000">DejaTreeListModule</text>
</g>
<!-- DejaTreeListComponent&#45;&gt;DejaTreeListModule -->
<g id="edge1" class="edge">
<title>DejaTreeListComponent&#45;&gt;DejaTreeListModule</title>
<path fill="none" stroke="#000000" d="M1453,-122.0109C1453,-144.4852 1453,-180 1453,-180 1453,-180 925.9463,-180 925.9463,-180"/>
<polygon fill="#000000" stroke="#000000" points="925.9464,-176.5001 915.9463,-180 925.9463,-183.5001 925.9464,-176.5001"/>
</g>
<!-- DejaTreeListComponent  -->
<g id="node12" class="node">
<title>DejaTreeListComponent </title>
<polygon fill="#fb8072" stroke="#000000" points="928.1799,-252 769.8201,-252 769.8201,-216 928.1799,-216 928.1799,-252"/>
<text text-anchor="middle" x="849" y="-229.8" font-family="Times,serif" font-size="14.00" fill="#000000">DejaTreeListComponent </text>
</g>
<!-- DejaTreeListModule&#45;&gt;DejaTreeListComponent  -->
<g id="edge11" class="edge">
<title>DejaTreeListModule&#45;&gt;DejaTreeListComponent </title>
<path fill="none" stroke="#000000" stroke-dasharray="5,2" d="M849,-187.1061C849,-187.1061 849,-205.991 849,-205.991"/>
<polygon fill="#000000" stroke="#000000" points="845.5001,-205.9909 849,-215.991 852.5001,-205.991 845.5001,-205.9909"/>
</g>
<!-- CommonModule -->
<g id="node3" class="node">
<title>CommonModule</title>
<polygon fill="#8dd3c7" stroke="#000000" points="1350.6681,-122 1347.6681,-126 1326.6681,-126 1323.6681,-122 1239.3319,-122 1239.3319,-86 1350.6681,-86 1350.6681,-122"/>
<text text-anchor="middle" x="1295" y="-99.8" font-family="Times,serif" font-size="14.00" fill="#000000">CommonModule</text>
</g>
<!-- CommonModule&#45;&gt;DejaTreeListModule -->
<g id="edge2" class="edge">
<title>CommonModule&#45;&gt;DejaTreeListModule</title>
<path fill="none" stroke="#000000" d="M1295,-122.1289C1295,-142.5724 1295,-173 1295,-173 1295,-173 925.7707,-173 925.7707,-173"/>
<polygon fill="#000000" stroke="#000000" points="925.7707,-169.5001 915.7707,-173 925.7707,-176.5001 925.7707,-169.5001"/>
</g>
<!-- FormsModule -->
<g id="node4" class="node">
<title>FormsModule</title>
<polygon fill="#8dd3c7" stroke="#000000" points="1221.8288,-122 1218.8288,-126 1197.8288,-126 1194.8288,-122 1126.1712,-122 1126.1712,-86 1221.8288,-86 1221.8288,-122"/>
<text text-anchor="middle" x="1174" y="-99.8" font-family="Times,serif" font-size="14.00" fill="#000000">FormsModule</text>
</g>
<!-- FormsModule&#45;&gt;DejaTreeListModule -->
<g id="edge3" class="edge">
<title>FormsModule&#45;&gt;DejaTreeListModule</title>
<path fill="none" stroke="#000000" d="M1174,-122.2667C1174,-140.5552 1174,-166 1174,-166 1174,-166 925.9461,-166 925.9461,-166"/>
<polygon fill="#000000" stroke="#000000" points="925.9462,-162.5001 915.9461,-166 925.9461,-169.5001 925.9462,-162.5001"/>
</g>
<!-- MdButtonModule -->
<g id="node5" class="node">
<title>MdButtonModule</title>
<polygon fill="#8dd3c7" stroke="#000000" points="1108.6123,-122 1105.6123,-126 1084.6123,-126 1081.6123,-122 991.3877,-122 991.3877,-86 1108.6123,-86 1108.6123,-122"/>
<text text-anchor="middle" x="1050" y="-99.8" font-family="Times,serif" font-size="14.00" fill="#000000">MdButtonModule</text>
</g>
<!-- MdButtonModule&#45;&gt;DejaTreeListModule -->
<g id="edge4" class="edge">
<title>MdButtonModule&#45;&gt;DejaTreeListModule</title>
<path fill="none" stroke="#000000" d="M1050,-122.0091C1050,-138.0494 1050,-159 1050,-159 1050,-159 925.9301,-159 925.9301,-159"/>
<polygon fill="#000000" stroke="#000000" points="925.9301,-155.5001 915.9301,-159 925.9301,-162.5001 925.9301,-155.5001"/>
</g>
<!-- MdInputModule -->
<g id="node6" class="node">
<title>MdInputModule</title>
<polygon fill="#8dd3c7" stroke="#000000" points="973.0465,-122 970.0465,-126 949.0465,-126 946.0465,-122 864.9535,-122 864.9535,-86 973.0465,-86 973.0465,-122"/>
<text text-anchor="middle" x="919" y="-99.8" font-family="Times,serif" font-size="14.00" fill="#000000">MdInputModule</text>
</g>
<!-- MdInputModule&#45;&gt;DejaTreeListModule -->
<g id="edge5" class="edge">
<title>MdInputModule&#45;&gt;DejaTreeListModule</title>
<path fill="none" stroke="#000000" d="M890.2129,-122.1061C890.2129,-122.1061 890.2129,-140.991 890.2129,-140.991"/>
<polygon fill="#000000" stroke="#000000" points="886.7129,-140.9909 890.2129,-150.991 893.7129,-140.991 886.7129,-140.9909"/>
</g>
<!-- MdCheckboxModule -->
<g id="node7" class="node">
<title>MdCheckboxModule</title>
<polygon fill="#8dd3c7" stroke="#000000" points="846.7604,-122 843.7604,-126 822.7604,-126 819.7604,-122 711.2396,-122 711.2396,-86 846.7604,-86 846.7604,-122"/>
<text text-anchor="middle" x="779" y="-99.8" font-family="Times,serif" font-size="14.00" fill="#000000">MdCheckboxModule</text>
</g>
<!-- MdCheckboxModule&#45;&gt;DejaTreeListModule -->
<g id="edge6" class="edge">
<title>MdCheckboxModule&#45;&gt;DejaTreeListModule</title>
<path fill="none" stroke="#000000" d="M814.5908,-122.1061C814.5908,-122.1061 814.5908,-140.991 814.5908,-140.991"/>
<polygon fill="#000000" stroke="#000000" points="811.0909,-140.9909 814.5908,-150.991 818.0909,-140.991 811.0909,-140.9909"/>
</g>
<!-- DejaChildValidatorModule -->
<g id="node8" class="node">
<title>DejaChildValidatorModule</title>
<polygon fill="#8dd3c7" stroke="#000000" points="692.9622,-122 689.9622,-126 668.9622,-126 665.9622,-122 523.0378,-122 523.0378,-86 692.9622,-86 692.9622,-122"/>
<text text-anchor="middle" x="608" y="-99.8" font-family="Times,serif" font-size="14.00" fill="#000000">DejaChildValidatorModule</text>
</g>
<!-- DejaChildValidatorModule&#45;&gt;DejaTreeListModule -->
<g id="edge7" class="edge">
<title>DejaChildValidatorModule&#45;&gt;DejaTreeListModule</title>
<path fill="none" stroke="#000000" d="M608,-122.0091C608,-138.0494 608,-159 608,-159 608,-159 772.1881,-159 772.1881,-159"/>
<polygon fill="#000000" stroke="#000000" points="772.1881,-162.5001 782.1881,-159 772.1881,-155.5001 772.1881,-162.5001"/>
</g>
<!-- DejaListLoaderModule -->
<g id="node9" class="node">
<title>DejaListLoaderModule</title>
<polygon fill="#8dd3c7" stroke="#000000" points="504.8975,-122 501.8975,-126 480.8975,-126 477.8975,-122 357.1025,-122 357.1025,-86 504.8975,-86 504.8975,-122"/>
<text text-anchor="middle" x="431" y="-99.8" font-family="Times,serif" font-size="14.00" fill="#000000">DejaListLoaderModule</text>
</g>
<!-- DejaListLoaderModule&#45;&gt;DejaTreeListModule -->
<g id="edge8" class="edge">
<title>DejaListLoaderModule&#45;&gt;DejaTreeListModule</title>
<path fill="none" stroke="#000000" d="M431,-122.2667C431,-140.5552 431,-166 431,-166 431,-166 771.8411,-166 771.8411,-166"/>
<polygon fill="#000000" stroke="#000000" points="771.8411,-169.5001 781.8411,-166 771.841,-162.5001 771.8411,-169.5001"/>
</g>
<!-- DejaDragDropModule -->
<g id="node10" class="node">
<title>DejaDragDropModule</title>
<polygon fill="#8dd3c7" stroke="#000000" points="339.2255,-122 336.2255,-126 315.2255,-126 312.2255,-122 196.7745,-122 196.7745,-86 339.2255,-86 339.2255,-122"/>
<text text-anchor="middle" x="268" y="-99.8" font-family="Times,serif" font-size="14.00" fill="#000000">DejaDragDropModule</text>
</g>
<!-- DejaDragDropModule&#45;&gt;DejaTreeListModule -->
<g id="edge9" class="edge">
<title>DejaDragDropModule&#45;&gt;DejaTreeListModule</title>
<path fill="none" stroke="#000000" d="M268,-122.1289C268,-142.5724 268,-173 268,-173 268,-173 772.0684,-173 772.0684,-173"/>
<polygon fill="#000000" stroke="#000000" points="772.0684,-176.5001 782.0684,-173 772.0683,-169.5001 772.0684,-176.5001"/>
</g>
<!-- DejaTextMetricsModule -->
<g id="node11" class="node">
<title>DejaTextMetricsModule</title>
<polygon fill="#8dd3c7" stroke="#000000" points="178.3947,-122 175.3947,-126 154.3947,-126 151.3947,-122 23.6053,-122 23.6053,-86 178.3947,-86 178.3947,-122"/>
<text text-anchor="middle" x="101" y="-99.8" font-family="Times,serif" font-size="14.00" fill="#000000">DejaTextMetricsModule</text>
</g>
<!-- DejaTextMetricsModule&#45;&gt;DejaTreeListModule -->
<g id="edge10" class="edge">
<title>DejaTextMetricsModule&#45;&gt;DejaTreeListModule</title>
<path fill="none" stroke="#000000" d="M101,-122.0109C101,-144.4852 101,-180 101,-180 101,-180 772.2912,-180 772.2912,-180"/>
<polygon fill="#000000" stroke="#000000" points="772.2912,-183.5001 782.2912,-180 772.2912,-176.5001 772.2912,-183.5001"/>
</g>
</g>
</svg>
