<?xml version="1.0" encoding="UTF-8" standalone="no"?>
<!DOCTYPE svg PUBLIC "-//W3C//DTD SVG 1.1//EN"
 "http://www.w3.org/Graphics/SVG/1.1/DTD/svg11.dtd">
<!-- Generated by graphviz version 2.40.1 (20161225.0304)
 -->
<!-- Title: dependencies Pages: 1 -->
<svg width="504pt" height="284pt"
 viewBox="0.00 0.00 504.00 284.00" xmlns="http://www.w3.org/2000/svg" xmlns:xlink="http://www.w3.org/1999/xlink">
<g id="graph0" class="graph" transform="scale(1 1) rotate(0) translate(4 280)">
<title>dependencies</title>
<polygon fill="#ffffff" stroke="transparent" points="-4,4 -4,-280 500,-280 500,4 -4,4"/>
<text text-anchor="start" x="227.0091" y="-42.4" font-family="sans-serif" font-weight="bold" font-size="14.00" fill="#000000">Legend</text>
<polygon fill="#ffffb3" stroke="transparent" points="14,-10 14,-30 34,-30 34,-10 14,-10"/>
<text text-anchor="start" x="37.629" y="-15.4" font-family="sans-serif" font-size="14.00" fill="#000000"> &#160;Declarations</text>
<polygon fill="#8dd3c7" stroke="transparent" points="127,-10 127,-30 147,-30 147,-10 127,-10"/>
<text text-anchor="start" x="150.7251" y="-15.4" font-family="sans-serif" font-size="14.00" fill="#000000"> &#160;Module</text>
<polygon fill="#80b1d3" stroke="transparent" points="213,-10 213,-30 233,-30 233,-10 213,-10"/>
<text text-anchor="start" x="236.7812" y="-15.4" font-family="sans-serif" font-size="14.00" fill="#000000"> &#160;Bootstrap</text>
<polygon fill="#fdb462" stroke="transparent" points="310,-10 310,-30 330,-30 330,-10 310,-10"/>
<text text-anchor="start" x="333.6732" y="-15.4" font-family="sans-serif" font-size="14.00" fill="#000000"> &#160;Providers</text>
<polygon fill="#fb8072" stroke="transparent" points="406,-10 406,-30 426,-30 426,-10 406,-10"/>
<text text-anchor="start" x="429.7258" y="-15.4" font-family="sans-serif" font-size="14.00" fill="#000000"> &#160;Exports</text>
<g id="clust1" class="cluster">
<title>cluster_DejaSortingModule</title>
<polygon fill="none" stroke="#000000" stroke-dasharray="1,5" points="61,-70 61,-268 435,-268 435,-70 61,-70"/>
</g>
<g id="clust2" class="cluster">
<title>cluster_DejaSortingModule_declarations</title>
<polygon fill="none" stroke="#000000" points="229,-78 229,-130 427,-130 427,-78 229,-78"/>
</g>
<g id="clust5" class="cluster">
<title>cluster_DejaSortingModule_exports</title>
<polygon fill="none" stroke="#000000" points="147,-208 147,-260 349,-260 349,-208 147,-208"/>
</g>
<g id="clust7" class="cluster">
<title>cluster_DejaSortingModule_providers</title>
<polygon fill="none" stroke="#000000" points="69,-78 69,-130 221,-130 221,-78 69,-78"/>
</g>
<!-- DejaSortIndicatorComponent -->
<g id="node1" class="node">
<title>DejaSortIndicatorComponent</title>
<polygon fill="#ffffb3" stroke="#000000" points="418.6246,-122 237.3754,-122 237.3754,-86 418.6246,-86 418.6246,-122"/>
<text text-anchor="middle" x="328" y="-99.8" font-family="Times,serif" font-size="14.00" fill="#000000">DejaSortIndicatorComponent</text>
</g>
<!-- DejaSortingModule -->
<g id="node2" class="node">
<title>DejaSortingModule</title>
<polygon fill="#8dd3c7" stroke="#000000" points="311.7008,-187 308.7008,-191 287.7008,-191 284.7008,-187 184.2992,-187 184.2992,-151 311.7008,-151 311.7008,-187"/>
<text text-anchor="middle" x="248" y="-164.8" font-family="Times,serif" font-size="14.00" fill="#000000">DejaSortingModule</text>
</g>
<!-- DejaSortIndicatorComponent&#45;&gt;DejaSortingModule -->
<g id="edge1" class="edge">
<title>DejaSortIndicatorComponent&#45;&gt;DejaSortingModule</title>
<path fill="none" stroke="#000000" d="M274.3941,-122.1061C274.3941,-122.1061 274.3941,-140.991 274.3941,-140.991"/>
<polygon fill="#000000" stroke="#000000" points="270.8942,-140.9909 274.3941,-150.991 277.8942,-140.991 270.8942,-140.9909"/>
</g>
<!-- DejaSortIndicatorComponent  -->
<g id="node3" class="node">
<title>DejaSortIndicatorComponent </title>
<polygon fill="#fb8072" stroke="#000000" points="340.6242,-252 155.3758,-252 155.3758,-216 340.6242,-216 340.6242,-252"/>
<text text-anchor="middle" x="248" y="-229.8" font-family="Times,serif" font-size="14.00" fill="#000000">DejaSortIndicatorComponent </text>
</g>
<!-- DejaSortingModule&#45;&gt;DejaSortIndicatorComponent  -->
<g id="edge2" class="edge">
<title>DejaSortingModule&#45;&gt;DejaSortIndicatorComponent </title>
<path fill="none" stroke="#000000" stroke-dasharray="5,2" d="M248,-187.1061C248,-187.1061 248,-205.991 248,-205.991"/>
<polygon fill="#000000" stroke="#000000" points="244.5001,-205.9909 248,-215.991 251.5001,-205.991 244.5001,-205.9909"/>
</g>
<!-- SortingService -->
<g id="node4" class="node">
<title>SortingService</title>
<ellipse fill="#fdb462" stroke="#000000" cx="145" cy="-104" rx="68.3555" ry="18"/>
<text text-anchor="middle" x="145" y="-99.8" font-family="Times,serif" font-size="14.00" fill="#000000">SortingService</text>
</g>
<!-- SortingService&#45;&gt;DejaSortingModule -->
<g id="edge3" class="edge">
<title>SortingService&#45;&gt;DejaSortingModule</title>
<path fill="none" stroke="#000000" d="M198.9137,-115.3221C198.9137,-115.3221 198.9137,-140.9424 198.9137,-140.9424"/>
<polygon fill="#000000" stroke="#000000" points="195.4138,-140.9424 198.9137,-150.9424 202.4138,-140.9425 195.4138,-140.9424"/>
</g>
</g>
</svg>
