<?xml version="1.0" encoding="UTF-8" standalone="no"?>
<!DOCTYPE svg PUBLIC "-//W3C//DTD SVG 1.1//EN"
 "http://www.w3.org/Graphics/SVG/1.1/DTD/svg11.dtd">
<!-- Generated by graphviz version 2.40.1 (20161225.0304)
 -->
<!-- Title: dependencies Pages: 1 -->
<svg width="629pt" height="349pt"
 viewBox="0.00 0.00 629.00 349.00" xmlns="http://www.w3.org/2000/svg" xmlns:xlink="http://www.w3.org/1999/xlink">
<g id="graph0" class="graph" transform="scale(1 1) rotate(0) translate(4 345)">
<title>dependencies</title>
<polygon fill="#ffffff" stroke="transparent" points="-4,4 -4,-345 625,-345 625,4 -4,4"/>
<text text-anchor="start" x="289.5091" y="-42.4" font-family="sans-serif" font-weight="bold" font-size="14.00" fill="#000000">Legend</text>
<polygon fill="#ffffb3" stroke="transparent" points="76.5,-10 76.5,-30 96.5,-30 96.5,-10 76.5,-10"/>
<text text-anchor="start" x="100.129" y="-15.4" font-family="sans-serif" font-size="14.00" fill="#000000"> &#160;Declarations</text>
<polygon fill="#8dd3c7" stroke="transparent" points="189.5,-10 189.5,-30 209.5,-30 209.5,-10 189.5,-10"/>
<text text-anchor="start" x="213.2251" y="-15.4" font-family="sans-serif" font-size="14.00" fill="#000000"> &#160;Module</text>
<polygon fill="#80b1d3" stroke="transparent" points="275.5,-10 275.5,-30 295.5,-30 295.5,-10 275.5,-10"/>
<text text-anchor="start" x="299.2812" y="-15.4" font-family="sans-serif" font-size="14.00" fill="#000000"> &#160;Bootstrap</text>
<polygon fill="#fdb462" stroke="transparent" points="372.5,-10 372.5,-30 392.5,-30 392.5,-10 372.5,-10"/>
<text text-anchor="start" x="396.1732" y="-15.4" font-family="sans-serif" font-size="14.00" fill="#000000"> &#160;Providers</text>
<polygon fill="#fb8072" stroke="transparent" points="468.5,-10 468.5,-30 488.5,-30 488.5,-10 468.5,-10"/>
<text text-anchor="start" x="492.2258" y="-15.4" font-family="sans-serif" font-size="14.00" fill="#000000"> &#160;Exports</text>
<g id="clust1" class="cluster">
<title>cluster_DejaAutosizeTextAreaModule</title>
<polygon fill="none" stroke="#000000" stroke-dasharray="1,5" points="8,-70 8,-333 613,-333 613,-70 8,-70"/>
</g>
<g id="clust2" class="cluster">
<title>cluster_DejaAutosizeTextAreaModule_declarations</title>
<polygon fill="none" stroke="#000000" points="391,-143 391,-195 605,-195 605,-143 391,-143"/>
</g>
<g id="clust3" class="cluster">
<title>cluster_DejaAutosizeTextAreaModule_DejaAutosizeTextAreaDirective_providers</title>
<polygon fill="none" stroke="#000000" points="139,-78 139,-130 605,-130 605,-78 139,-78"/>
</g>
<g id="clust4" class="cluster">
<title>cluster_DejaAutosizeTextAreaModule_imports</title>
<polygon fill="none" stroke="#000000" points="16,-143 16,-195 383,-195 383,-143 16,-143"/>
</g>
<g id="clust5" class="cluster">
<title>cluster_DejaAutosizeTextAreaModule_exports</title>
<polygon fill="none" stroke="#000000" points="150,-273 150,-325 366,-325 366,-273 150,-273"/>
</g>
<!-- DejaAutosizeTextAreaDirective -->
<g id="node1" class="node">
<title>DejaAutosizeTextAreaDirective</title>
<polygon fill="#ffffb3" stroke="#000000" points="596.625,-187 399.375,-187 399.375,-151 596.625,-151 596.625,-187"/>
<text text-anchor="middle" x="498" y="-164.8" font-family="Times,serif" font-size="14.00" fill="#000000">DejaAutosizeTextAreaDirective</text>
</g>
<!-- DejaAutosizeTextAreaModule -->
<g id="node2" class="node">
<title>DejaAutosizeTextAreaModule</title>
<polygon fill="#8dd3c7" stroke="#000000" points="352.0924,-252 349.0924,-256 328.0924,-256 325.0924,-252 163.9076,-252 163.9076,-216 352.0924,-216 352.0924,-252"/>
<text text-anchor="middle" x="258" y="-229.8" font-family="Times,serif" font-size="14.00" fill="#000000">DejaAutosizeTextAreaModule</text>
</g>
<!-- DejaAutosizeTextAreaDirective&#45;&gt;DejaAutosizeTextAreaModule -->
<g id="edge1" class="edge">
<title>DejaAutosizeTextAreaDirective&#45;&gt;DejaAutosizeTextAreaModule</title>
<path fill="none" stroke="#000000" d="M498,-187.1061C498,-206.3391 498,-234 498,-234 498,-234 362.1655,-234 362.1655,-234"/>
<polygon fill="#000000" stroke="#000000" points="362.1656,-230.5001 352.1655,-234 362.1655,-237.5001 362.1656,-230.5001"/>
</g>
<!-- DejaAutosizeTextAreaDirective  -->
<g id="node7" class="node">
<title>DejaAutosizeTextAreaDirective </title>
<polygon fill="#fb8072" stroke="#000000" points="358.1253,-317 157.8747,-317 157.8747,-281 358.1253,-281 358.1253,-317"/>
<text text-anchor="middle" x="258" y="-294.8" font-family="Times,serif" font-size="14.00" fill="#000000">DejaAutosizeTextAreaDirective </text>
</g>
<!-- DejaAutosizeTextAreaModule&#45;&gt;DejaAutosizeTextAreaDirective  -->
<g id="edge6" class="edge">
<title>DejaAutosizeTextAreaModule&#45;&gt;DejaAutosizeTextAreaDirective </title>
<path fill="none" stroke="#000000" stroke-dasharray="5,2" d="M258,-252.1061C258,-252.1061 258,-270.991 258,-270.991"/>
<polygon fill="#000000" stroke="#000000" points="254.5001,-270.9909 258,-280.991 261.5001,-270.991 254.5001,-270.9909"/>
</g>
<!-- { provide: NG_VALIDATORS, useExisting: , multi: &#160;} -->
<g id="node3" class="node">
<title>{ provide: NG_VALIDATORS, useExisting: , multi: &#160;}</title>
<ellipse fill="#fdb462" stroke="#000000" cx="372" cy="-104" rx="225.4746" ry="18"/>
<text text-anchor="middle" x="372" y="-99.8" font-family="Times,serif" font-size="14.00" fill="#000000">{ provide: NG_VALIDATORS, useExisting: , multi: &#160;}</text>
</g>
<!-- { provide: NG_VALIDATORS, useExisting: , multi: &#160;}&#45;&gt;DejaAutosizeTextAreaDirective -->
<g id="edge2" class="edge">
<title>{ provide: NG_VALIDATORS, useExisting: , multi: &#160;}&#45;&gt;DejaAutosizeTextAreaDirective</title>
<path fill="none" stroke="#000000" d="M498,-119.0757C498,-119.0757 498,-140.7642 498,-140.7642"/>
<polygon fill="#000000" stroke="#000000" points="494.5001,-140.7642 498,-150.7642 501.5001,-140.7642 494.5001,-140.7642"/>
</g>
<!-- CommonModule -->
<g id="node4" class="node">
<title>CommonModule</title>
<polygon fill="#8dd3c7" stroke="#000000" points="374.6681,-187 371.6681,-191 350.6681,-191 347.6681,-187 263.3319,-187 263.3319,-151 374.6681,-151 374.6681,-187"/>
<text text-anchor="middle" x="319" y="-164.8" font-family="Times,serif" font-size="14.00" fill="#000000">CommonModule</text>
</g>
<!-- CommonModule&#45;&gt;DejaAutosizeTextAreaModule -->
<g id="edge3" class="edge">
<title>CommonModule&#45;&gt;DejaAutosizeTextAreaModule</title>
<path fill="none" stroke="#000000" d="M307.7311,-187.1061C307.7311,-187.1061 307.7311,-205.991 307.7311,-205.991"/>
<polygon fill="#000000" stroke="#000000" points="304.2312,-205.9909 307.7311,-215.991 311.2312,-205.991 304.2312,-205.9909"/>
</g>
<!-- FormsModule -->
<g id="node5" class="node">
<title>FormsModule</title>
<polygon fill="#8dd3c7" stroke="#000000" points="245.8288,-187 242.8288,-191 221.8288,-191 218.8288,-187 150.1712,-187 150.1712,-151 245.8288,-151 245.8288,-187"/>
<text text-anchor="middle" x="198" y="-164.8" font-family="Times,serif" font-size="14.00" fill="#000000">FormsModule</text>
</g>
<!-- FormsModule&#45;&gt;DejaAutosizeTextAreaModule -->
<g id="edge4" class="edge">
<title>FormsModule&#45;&gt;DejaAutosizeTextAreaModule</title>
<path fill="none" stroke="#000000" d="M204.6841,-187.1061C204.6841,-187.1061 204.6841,-205.991 204.6841,-205.991"/>
<polygon fill="#000000" stroke="#000000" points="201.1841,-205.9909 204.6841,-215.991 208.1841,-205.991 201.1841,-205.9909"/>
</g>
<!-- MdInputModule -->
<g id="node6" class="node">
<title>MdInputModule</title>
<polygon fill="#8dd3c7" stroke="#000000" points="132.0465,-187 129.0465,-191 108.0465,-191 105.0465,-187 23.9535,-187 23.9535,-151 132.0465,-151 132.0465,-187"/>
<text text-anchor="middle" x="78" y="-164.8" font-family="Times,serif" font-size="14.00" fill="#000000">MdInputModule</text>
</g>
<!-- MdInputModule&#45;&gt;DejaAutosizeTextAreaModule -->
<g id="edge5" class="edge">
<title>MdInputModule&#45;&gt;DejaAutosizeTextAreaModule</title>
<path fill="none" stroke="#000000" d="M78,-187.1061C78,-206.3391 78,-234 78,-234 78,-234 153.7826,-234 153.7826,-234"/>
<polygon fill="#000000" stroke="#000000" points="153.7827,-237.5001 163.7826,-234 153.7826,-230.5001 153.7827,-237.5001"/>
</g>
</g>
</svg>
