<?xml version="1.0" encoding="UTF-8" standalone="no"?>
<!DOCTYPE svg PUBLIC "-//W3C//DTD SVG 1.1//EN"
 "http://www.w3.org/Graphics/SVG/1.1/DTD/svg11.dtd">
<!-- Generated by graphviz version 2.40.1 (20161225.0304)
 -->
<!-- Title: dependencies Pages: 1 -->
<svg width="934pt" height="349pt"
 viewBox="0.00 0.00 934.00 349.00" xmlns="http://www.w3.org/2000/svg" xmlns:xlink="http://www.w3.org/1999/xlink">
<g id="graph0" class="graph" transform="scale(1 1) rotate(0) translate(4 345)">
<title>dependencies</title>
<polygon fill="#ffffff" stroke="transparent" points="-4,4 -4,-345 930,-345 930,4 -4,4"/>
<text text-anchor="start" x="442.0091" y="-42.4" font-family="sans-serif" font-weight="bold" font-size="14.00" fill="#000000">Legend</text>
<polygon fill="#ffffb3" stroke="transparent" points="229,-10 229,-30 249,-30 249,-10 229,-10"/>
<text text-anchor="start" x="252.629" y="-15.4" font-family="sans-serif" font-size="14.00" fill="#000000"> &#160;Declarations</text>
<polygon fill="#8dd3c7" stroke="transparent" points="342,-10 342,-30 362,-30 362,-10 342,-10"/>
<text text-anchor="start" x="365.7251" y="-15.4" font-family="sans-serif" font-size="14.00" fill="#000000"> &#160;Module</text>
<polygon fill="#80b1d3" stroke="transparent" points="428,-10 428,-30 448,-30 448,-10 428,-10"/>
<text text-anchor="start" x="451.7812" y="-15.4" font-family="sans-serif" font-size="14.00" fill="#000000"> &#160;Bootstrap</text>
<polygon fill="#fdb462" stroke="transparent" points="525,-10 525,-30 545,-30 545,-10 525,-10"/>
<text text-anchor="start" x="548.6732" y="-15.4" font-family="sans-serif" font-size="14.00" fill="#000000"> &#160;Providers</text>
<polygon fill="#fb8072" stroke="transparent" points="621,-10 621,-30 641,-30 641,-10 621,-10"/>
<text text-anchor="start" x="644.7258" y="-15.4" font-family="sans-serif" font-size="14.00" fill="#000000"> &#160;Exports</text>
<g id="clust1" class="cluster">
<title>cluster_DejaAutosizeTextAreaModule</title>
<polygon fill="none" stroke="#000000" stroke-dasharray="1,5" points="8,-70 8,-333 918,-333 918,-70 8,-70"/>
</g>
<g id="clust2" class="cluster">
<title>cluster_DejaAutosizeTextAreaModule_declarations</title>
<polygon fill="none" stroke="#000000" points="356,-143 356,-195 570,-195 570,-143 356,-143"/>
</g>
<g id="clust3" class="cluster">
<title>cluster_DejaAutosizeTextAreaModule_DejaAutosizeTextAreaDirective_providers</title>
<polygon fill="none" stroke="#000000" points="16,-78 16,-130 910,-130 910,-78 16,-78"/>
</g>
<g id="clust5" class="cluster">
<title>cluster_DejaAutosizeTextAreaModule_exports</title>
<polygon fill="none" stroke="#000000" points="355,-273 355,-325 571,-325 571,-273 355,-273"/>
</g>
<!-- DejaAutosizeTextAreaDirective -->
<g id="node1" class="node">
<title>DejaAutosizeTextAreaDirective</title>
<polygon fill="#ffffb3" stroke="#000000" points="561.625,-187 364.375,-187 364.375,-151 561.625,-151 561.625,-187"/>
<text text-anchor="middle" x="463" y="-164.8" font-family="Times,serif" font-size="14.00" fill="#000000">DejaAutosizeTextAreaDirective</text>
</g>
<!-- DejaAutosizeTextAreaModule -->
<g id="node2" class="node">
<title>DejaAutosizeTextAreaModule</title>
<polygon fill="#8dd3c7" stroke="#000000" points="557.0924,-252 554.0924,-256 533.0924,-256 530.0924,-252 368.9076,-252 368.9076,-216 557.0924,-216 557.0924,-252"/>
<text text-anchor="middle" x="463" y="-229.8" font-family="Times,serif" font-size="14.00" fill="#000000">DejaAutosizeTextAreaModule</text>
</g>
<!-- DejaAutosizeTextAreaDirective&#45;&gt;DejaAutosizeTextAreaModule -->
<g id="edge1" class="edge">
<title>DejaAutosizeTextAreaDirective&#45;&gt;DejaAutosizeTextAreaModule</title>
<path fill="none" stroke="#000000" d="M463,-187.1061C463,-187.1061 463,-205.991 463,-205.991"/>
<polygon fill="#000000" stroke="#000000" points="459.5001,-205.9909 463,-215.991 466.5001,-205.991 459.5001,-205.9909"/>
</g>
<!-- DejaAutosizeTextAreaDirective  -->
<g id="node4" class="node">
<title>DejaAutosizeTextAreaDirective </title>
<polygon fill="#fb8072" stroke="#000000" points="563.1253,-317 362.8747,-317 362.8747,-281 563.1253,-281 563.1253,-317"/>
<text text-anchor="middle" x="463" y="-294.8" font-family="Times,serif" font-size="14.00" fill="#000000">DejaAutosizeTextAreaDirective </text>
</g>
<!-- DejaAutosizeTextAreaModule&#45;&gt;DejaAutosizeTextAreaDirective  -->
<g id="edge3" class="edge">
<title>DejaAutosizeTextAreaModule&#45;&gt;DejaAutosizeTextAreaDirective </title>
<path fill="none" stroke="#000000" stroke-dasharray="5,2" d="M463,-252.1061C463,-252.1061 463,-270.991 463,-270.991"/>
<polygon fill="#000000" stroke="#000000" points="459.5001,-270.9909 463,-280.991 466.5001,-270.991 459.5001,-270.9909"/>
</g>
<!-- { provide: NG_VALIDATORS, useExisting: forwardRef(() =&gt; DejaAutosizeTextAreaDirective), multi: true } -->
<g id="node3" class="node">
<title>{ provide: NG_VALIDATORS, useExisting: forwardRef(() =&gt; DejaAutosizeTextAreaDirective), multi: true }</title>
<ellipse fill="#fdb462" stroke="#000000" cx="463" cy="-104" rx="438.5352" ry="18"/>
<text text-anchor="middle" x="463" y="-99.8" font-family="Times,serif" font-size="14.00" fill="#000000">{ provide: NG_VALIDATORS, useExisting: forwardRef(() =&gt; DejaAutosizeTextAreaDirective), multi: true }</text>
</g>
<!-- { provide: NG_VALIDATORS, useExisting: forwardRef(() =&gt; DejaAutosizeTextAreaDirective), multi: true }&#45;&gt;DejaAutosizeTextAreaDirective -->
<g id="edge2" class="edge">
<title>{ provide: NG_VALIDATORS, useExisting: forwardRef(() =&gt; DejaAutosizeTextAreaDirective), multi: true }&#45;&gt;DejaAutosizeTextAreaDirective</title>
<path fill="none" stroke="#000000" d="M463,-122.1061C463,-122.1061 463,-140.991 463,-140.991"/>
<polygon fill="#000000" stroke="#000000" points="459.5001,-140.9909 463,-150.991 466.5001,-140.991 459.5001,-140.9909"/>
</g>
</g>
</svg>
