<?xml version="1.0" encoding="UTF-8" standalone="no"?>
<!DOCTYPE svg PUBLIC "-//W3C//DTD SVG 1.1//EN"
 "http://www.w3.org/Graphics/SVG/1.1/DTD/svg11.dtd">
<!-- Generated by graphviz version 2.40.1 (20161225.0304)
 -->
<!-- Title: dependencies Pages: 1 -->
<svg width="1345pt" height="284pt"
 viewBox="0.00 0.00 1345.00 284.00" xmlns="http://www.w3.org/2000/svg" xmlns:xlink="http://www.w3.org/1999/xlink">
<g id="graph0" class="graph" transform="scale(1 1) rotate(0) translate(4 280)">
<title>dependencies</title>
<polygon fill="#ffffff" stroke="transparent" points="-4,4 -4,-280 1341,-280 1341,4 -4,4"/>
<text text-anchor="start" x="647.5091" y="-42.4" font-family="sans-serif" font-weight="bold" font-size="14.00" fill="#000000">Legend</text>
<polygon fill="#ffffb3" stroke="transparent" points="434.5,-10 434.5,-30 454.5,-30 454.5,-10 434.5,-10"/>
<text text-anchor="start" x="458.129" y="-15.4" font-family="sans-serif" font-size="14.00" fill="#000000"> &#160;Declarations</text>
<polygon fill="#8dd3c7" stroke="transparent" points="547.5,-10 547.5,-30 567.5,-30 567.5,-10 547.5,-10"/>
<text text-anchor="start" x="571.2251" y="-15.4" font-family="sans-serif" font-size="14.00" fill="#000000"> &#160;Module</text>
<polygon fill="#80b1d3" stroke="transparent" points="633.5,-10 633.5,-30 653.5,-30 653.5,-10 633.5,-10"/>
<text text-anchor="start" x="657.2812" y="-15.4" font-family="sans-serif" font-size="14.00" fill="#000000"> &#160;Bootstrap</text>
<polygon fill="#fdb462" stroke="transparent" points="730.5,-10 730.5,-30 750.5,-30 750.5,-10 730.5,-10"/>
<text text-anchor="start" x="754.1732" y="-15.4" font-family="sans-serif" font-size="14.00" fill="#000000"> &#160;Providers</text>
<polygon fill="#fb8072" stroke="transparent" points="826.5,-10 826.5,-30 846.5,-30 846.5,-10 826.5,-10"/>
<text text-anchor="start" x="850.2258" y="-15.4" font-family="sans-serif" font-size="14.00" fill="#000000"> &#160;Exports</text>
<g id="clust1" class="cluster">
<title>cluster_DejaSelectModule</title>
<polygon fill="none" stroke="#000000" stroke-dasharray="1,5" points="8,-70 8,-268 1329,-268 1329,-70 8,-70"/>
</g>
<g id="clust2" class="cluster">
<title>cluster_DejaSelectModule_declarations</title>
<polygon fill="none" stroke="#000000" points="1163,-78 1163,-130 1321,-130 1321,-78 1163,-78"/>
</g>
<g id="clust4" class="cluster">
<title>cluster_DejaSelectModule_imports</title>
<polygon fill="none" stroke="#000000" points="16,-78 16,-130 1155,-130 1155,-78 16,-78"/>
</g>
<g id="clust5" class="cluster">
<title>cluster_DejaSelectModule_exports</title>
<polygon fill="none" stroke="#000000" points="647,-208 647,-260 809,-260 809,-208 647,-208"/>
</g>
<!-- DejaSelectComponent -->
<g id="node1" class="node">
<title>DejaSelectComponent</title>
<polygon fill="#ffffb3" stroke="#000000" points="1312.9664,-122 1171.0336,-122 1171.0336,-86 1312.9664,-86 1312.9664,-122"/>
<text text-anchor="middle" x="1242" y="-99.8" font-family="Times,serif" font-size="14.00" fill="#000000">DejaSelectComponent</text>
</g>
<!-- DejaSelectModule -->
<g id="node2" class="node">
<title>DejaSelectModule</title>
<polygon fill="#8dd3c7" stroke="#000000" points="788.1839,-187 785.1839,-191 764.1839,-191 761.1839,-187 667.8161,-187 667.8161,-151 788.1839,-151 788.1839,-187"/>
<text text-anchor="middle" x="728" y="-164.8" font-family="Times,serif" font-size="14.00" fill="#000000">DejaSelectModule</text>
</g>
<!-- DejaSelectComponent&#45;&gt;DejaSelectModule -->
<g id="edge1" class="edge">
<title>DejaSelectComponent&#45;&gt;DejaSelectModule</title>
<path fill="none" stroke="#000000" d="M1242,-122.0109C1242,-144.4852 1242,-180 1242,-180 1242,-180 798.2208,-180 798.2208,-180"/>
<polygon fill="#000000" stroke="#000000" points="798.2209,-176.5001 788.2208,-180 798.2208,-183.5001 798.2209,-176.5001"/>
</g>
<!-- DejaSelectComponent  -->
<g id="node11" class="node">
<title>DejaSelectComponent </title>
<polygon fill="#fb8072" stroke="#000000" points="800.9672,-252 655.0328,-252 655.0328,-216 800.9672,-216 800.9672,-252"/>
<text text-anchor="middle" x="728" y="-229.8" font-family="Times,serif" font-size="14.00" fill="#000000">DejaSelectComponent </text>
</g>
<!-- DejaSelectModule&#45;&gt;DejaSelectComponent  -->
<g id="edge10" class="edge">
<title>DejaSelectModule&#45;&gt;DejaSelectComponent </title>
<path fill="none" stroke="#000000" stroke-dasharray="5,2" d="M728,-187.1061C728,-187.1061 728,-205.991 728,-205.991"/>
<polygon fill="#000000" stroke="#000000" points="724.5001,-205.9909 728,-215.991 731.5001,-205.991 724.5001,-205.9909"/>
</g>
<!-- CommonModule -->
<g id="node3" class="node">
<title>CommonModule</title>
<polygon fill="#8dd3c7" stroke="#000000" points="1146.6681,-122 1143.6681,-126 1122.6681,-126 1119.6681,-122 1035.3319,-122 1035.3319,-86 1146.6681,-86 1146.6681,-122"/>
<text text-anchor="middle" x="1091" y="-99.8" font-family="Times,serif" font-size="14.00" fill="#000000">CommonModule</text>
</g>
<!-- CommonModule&#45;&gt;DejaSelectModule -->
<g id="edge2" class="edge">
<title>CommonModule&#45;&gt;DejaSelectModule</title>
<path fill="none" stroke="#000000" d="M1091,-122.1289C1091,-142.5724 1091,-173 1091,-173 1091,-173 798.3496,-173 798.3496,-173"/>
<polygon fill="#000000" stroke="#000000" points="798.3496,-169.5001 788.3496,-173 798.3495,-176.5001 798.3496,-169.5001"/>
</g>
<!-- FormsModule -->
<g id="node4" class="node">
<title>FormsModule</title>
<polygon fill="#8dd3c7" stroke="#000000" points="1017.8288,-122 1014.8288,-126 993.8288,-126 990.8288,-122 922.1712,-122 922.1712,-86 1017.8288,-86 1017.8288,-122"/>
<text text-anchor="middle" x="970" y="-99.8" font-family="Times,serif" font-size="14.00" fill="#000000">FormsModule</text>
</g>
<!-- FormsModule&#45;&gt;DejaSelectModule -->
<g id="edge3" class="edge">
<title>FormsModule&#45;&gt;DejaSelectModule</title>
<path fill="none" stroke="#000000" d="M970,-122.2667C970,-140.5552 970,-166 970,-166 970,-166 798.1312,-166 798.1312,-166"/>
<polygon fill="#000000" stroke="#000000" points="798.1312,-162.5001 788.1312,-166 798.1311,-169.5001 798.1312,-162.5001"/>
</g>
<!-- MdIconModule -->
<g id="node5" class="node">
<title>MdIconModule</title>
<polygon fill="#8dd3c7" stroke="#000000" points="903.8697,-122 900.8697,-126 879.8697,-126 876.8697,-122 800.1303,-122 800.1303,-86 903.8697,-86 903.8697,-122"/>
<text text-anchor="middle" x="852" y="-99.8" font-family="Times,serif" font-size="14.00" fill="#000000">MdIconModule</text>
</g>
<!-- MdIconModule&#45;&gt;DejaSelectModule -->
<g id="edge4" class="edge">
<title>MdIconModule&#45;&gt;DejaSelectModule</title>
<path fill="none" stroke="#000000" d="M852.334,-122.0091C852.334,-138.0494 852.334,-159 852.334,-159 852.334,-159 798.3459,-159 798.3459,-159"/>
<polygon fill="#000000" stroke="#000000" points="798.346,-155.5001 788.3459,-159 798.3459,-162.5001 798.346,-155.5001"/>
</g>
<!-- MdInputModule -->
<g id="node6" class="node">
<title>MdInputModule</title>
<polygon fill="#8dd3c7" stroke="#000000" points="782.0465,-122 779.0465,-126 758.0465,-126 755.0465,-122 673.9535,-122 673.9535,-86 782.0465,-86 782.0465,-122"/>
<text text-anchor="middle" x="728" y="-99.8" font-family="Times,serif" font-size="14.00" fill="#000000">MdInputModule</text>
</g>
<!-- MdInputModule&#45;&gt;DejaSelectModule -->
<g id="edge5" class="edge">
<title>MdInputModule&#45;&gt;DejaSelectModule</title>
<path fill="none" stroke="#000000" d="M728,-122.1061C728,-122.1061 728,-140.991 728,-140.991"/>
<polygon fill="#000000" stroke="#000000" points="724.5001,-140.9909 728,-150.991 731.5001,-140.991 724.5001,-140.9909"/>
</g>
<!-- DejaChildValidatorModule -->
<g id="node7" class="node">
<title>DejaChildValidatorModule</title>
<polygon fill="#8dd3c7" stroke="#000000" points="655.9622,-122 652.9622,-126 631.9622,-126 628.9622,-122 486.0378,-122 486.0378,-86 655.9622,-86 655.9622,-122"/>
<text text-anchor="middle" x="571" y="-99.8" font-family="Times,serif" font-size="14.00" fill="#000000">DejaChildValidatorModule</text>
</g>
<!-- DejaChildValidatorModule&#45;&gt;DejaSelectModule -->
<g id="edge6" class="edge">
<title>DejaChildValidatorModule&#45;&gt;DejaSelectModule</title>
<path fill="none" stroke="#000000" d="M570.6428,-122.0091C570.6428,-138.0494 570.6428,-159 570.6428,-159 570.6428,-159 657.6116,-159 657.6116,-159"/>
<polygon fill="#000000" stroke="#000000" points="657.6117,-162.5001 667.6116,-159 657.6116,-155.5001 657.6117,-162.5001"/>
</g>
<!-- DejaChipsModule -->
<g id="node8" class="node">
<title>DejaChipsModule</title>
<polygon fill="#8dd3c7" stroke="#000000" points="468.1485,-122 465.1485,-126 444.1485,-126 441.1485,-122 349.8515,-122 349.8515,-86 468.1485,-86 468.1485,-122"/>
<text text-anchor="middle" x="409" y="-99.8" font-family="Times,serif" font-size="14.00" fill="#000000">DejaChipsModule</text>
</g>
<!-- DejaChipsModule&#45;&gt;DejaSelectModule -->
<g id="edge7" class="edge">
<title>DejaChipsModule&#45;&gt;DejaSelectModule</title>
<path fill="none" stroke="#000000" d="M409,-122.2667C409,-140.5552 409,-166 409,-166 409,-166 657.6235,-166 657.6235,-166"/>
<polygon fill="#000000" stroke="#000000" points="657.6235,-169.5001 667.6235,-166 657.6235,-162.5001 657.6235,-169.5001"/>
</g>
<!-- DejaDropDownModule -->
<g id="node9" class="node">
<title>DejaDropDownModule</title>
<polygon fill="#8dd3c7" stroke="#000000" points="331.4566,-122 328.4566,-126 307.4566,-126 304.4566,-122 182.5434,-122 182.5434,-86 331.4566,-86 331.4566,-122"/>
<text text-anchor="middle" x="257" y="-99.8" font-family="Times,serif" font-size="14.00" fill="#000000">DejaDropDownModule</text>
</g>
<!-- DejaDropDownModule&#45;&gt;DejaSelectModule -->
<g id="edge8" class="edge">
<title>DejaDropDownModule&#45;&gt;DejaSelectModule</title>
<path fill="none" stroke="#000000" d="M257,-122.1289C257,-142.5724 257,-173 257,-173 257,-173 657.8691,-173 657.8691,-173"/>
<polygon fill="#000000" stroke="#000000" points="657.8692,-176.5001 667.8691,-173 657.8691,-169.5001 657.8692,-176.5001"/>
</g>
<!-- DejaBackdropModule -->
<g id="node10" class="node">
<title>DejaBackdropModule</title>
<polygon fill="#8dd3c7" stroke="#000000" points="164.4032,-122 161.4032,-126 140.4032,-126 137.4032,-122 23.5968,-122 23.5968,-86 164.4032,-86 164.4032,-122"/>
<text text-anchor="middle" x="94" y="-99.8" font-family="Times,serif" font-size="14.00" fill="#000000">DejaBackdropModule</text>
</g>
<!-- DejaBackdropModule&#45;&gt;DejaSelectModule -->
<g id="edge9" class="edge">
<title>DejaBackdropModule&#45;&gt;DejaSelectModule</title>
<path fill="none" stroke="#000000" d="M94,-122.0109C94,-144.4852 94,-180 94,-180 94,-180 657.7832,-180 657.7832,-180"/>
<polygon fill="#000000" stroke="#000000" points="657.7833,-183.5001 667.7832,-180 657.7832,-176.5001 657.7833,-183.5001"/>
</g>
</g>
</svg>
