<?xml version="1.0" encoding="UTF-8" standalone="no"?>
<!DOCTYPE svg PUBLIC "-//W3C//DTD SVG 1.1//EN"
 "http://www.w3.org/Graphics/SVG/1.1/DTD/svg11.dtd">
<!-- Generated by graphviz version 2.40.1 (20161225.0304)
 -->
<!-- Title: dependencies Pages: 1 -->
<svg width="920pt" height="284pt"
 viewBox="0.00 0.00 920.00 284.00" xmlns="http://www.w3.org/2000/svg" xmlns:xlink="http://www.w3.org/1999/xlink">
<g id="graph0" class="graph" transform="scale(1 1) rotate(0) translate(4 280)">
<title>dependencies</title>
<polygon fill="#ffffff" stroke="transparent" points="-4,4 -4,-280 916,-280 916,4 -4,4"/>
<text text-anchor="start" x="435.0091" y="-42.4" font-family="sans-serif" font-weight="bold" font-size="14.00" fill="#000000">Legend</text>
<polygon fill="#ffffb3" stroke="transparent" points="222,-10 222,-30 242,-30 242,-10 222,-10"/>
<text text-anchor="start" x="245.629" y="-15.4" font-family="sans-serif" font-size="14.00" fill="#000000"> &#160;Declarations</text>
<polygon fill="#8dd3c7" stroke="transparent" points="335,-10 335,-30 355,-30 355,-10 335,-10"/>
<text text-anchor="start" x="358.7251" y="-15.4" font-family="sans-serif" font-size="14.00" fill="#000000"> &#160;Module</text>
<polygon fill="#80b1d3" stroke="transparent" points="421,-10 421,-30 441,-30 441,-10 421,-10"/>
<text text-anchor="start" x="444.7812" y="-15.4" font-family="sans-serif" font-size="14.00" fill="#000000"> &#160;Bootstrap</text>
<polygon fill="#fdb462" stroke="transparent" points="518,-10 518,-30 538,-30 538,-10 518,-10"/>
<text text-anchor="start" x="541.6732" y="-15.4" font-family="sans-serif" font-size="14.00" fill="#000000"> &#160;Providers</text>
<polygon fill="#fb8072" stroke="transparent" points="614,-10 614,-30 634,-30 634,-10 614,-10"/>
<text text-anchor="start" x="637.7258" y="-15.4" font-family="sans-serif" font-size="14.00" fill="#000000"> &#160;Exports</text>
<g id="clust1" class="cluster">
<title>cluster_DejaSelectModule</title>
<polygon fill="none" stroke="#000000" stroke-dasharray="1,5" points="8,-70 8,-268 904,-268 904,-70 8,-70"/>
</g>
<g id="clust2" class="cluster">
<title>cluster_DejaSelectModule_declarations</title>
<polygon fill="none" stroke="#000000" points="738,-78 738,-130 896,-130 896,-78 738,-78"/>
</g>
<g id="clust4" class="cluster">
<title>cluster_DejaSelectModule_imports</title>
<polygon fill="none" stroke="#000000" points="16,-78 16,-130 730,-130 730,-78 16,-78"/>
</g>
<g id="clust5" class="cluster">
<title>cluster_DejaSelectModule_exports</title>
<polygon fill="none" stroke="#000000" points="327,-208 327,-260 489,-260 489,-208 327,-208"/>
</g>
<!-- DejaSelectComponent -->
<g id="node1" class="node">
<title>DejaSelectComponent</title>
<polygon fill="#ffffb3" stroke="#000000" points="887.9664,-122 746.0336,-122 746.0336,-86 887.9664,-86 887.9664,-122"/>
<text text-anchor="middle" x="817" y="-99.8" font-family="Times,serif" font-size="14.00" fill="#000000">DejaSelectComponent</text>
</g>
<!-- DejaSelectModule -->
<g id="node2" class="node">
<title>DejaSelectModule</title>
<polygon fill="#8dd3c7" stroke="#000000" points="468.1839,-187 465.1839,-191 444.1839,-191 441.1839,-187 347.8161,-187 347.8161,-151 468.1839,-151 468.1839,-187"/>
<text text-anchor="middle" x="408" y="-164.8" font-family="Times,serif" font-size="14.00" fill="#000000">DejaSelectModule</text>
</g>
<!-- DejaSelectComponent&#45;&gt;DejaSelectModule -->
<g id="edge1" class="edge">
<title>DejaSelectComponent&#45;&gt;DejaSelectModule</title>
<path fill="none" stroke="#000000" d="M817,-122.2843C817,-143.3211 817,-175 817,-175 817,-175 478.3494,-175 478.3494,-175"/>
<polygon fill="#000000" stroke="#000000" points="478.3494,-171.5001 468.3494,-175 478.3493,-178.5001 478.3494,-171.5001"/>
</g>
<!-- DejaSelectComponent  -->
<g id="node8" class="node">
<title>DejaSelectComponent </title>
<polygon fill="#fb8072" stroke="#000000" points="480.9672,-252 335.0328,-252 335.0328,-216 480.9672,-216 480.9672,-252"/>
<text text-anchor="middle" x="408" y="-229.8" font-family="Times,serif" font-size="14.00" fill="#000000">DejaSelectComponent </text>
</g>
<!-- DejaSelectModule&#45;&gt;DejaSelectComponent  -->
<g id="edge7" class="edge">
<title>DejaSelectModule&#45;&gt;DejaSelectComponent </title>
<path fill="none" stroke="#000000" stroke-dasharray="5,2" d="M408,-187.1061C408,-187.1061 408,-205.991 408,-205.991"/>
<polygon fill="#000000" stroke="#000000" points="404.5001,-205.9909 408,-215.991 411.5001,-205.991 404.5001,-205.9909"/>
</g>
<!-- DejaChildValidatorModule -->
<g id="node3" class="node">
<title>DejaChildValidatorModule</title>
<polygon fill="#8dd3c7" stroke="#000000" points="721.9622,-122 718.9622,-126 697.9622,-126 694.9622,-122 552.0378,-122 552.0378,-86 721.9622,-86 721.9622,-122"/>
<text text-anchor="middle" x="637" y="-99.8" font-family="Times,serif" font-size="14.00" fill="#000000">DejaChildValidatorModule</text>
</g>
<!-- DejaChildValidatorModule&#45;&gt;DejaSelectModule -->
<g id="edge2" class="edge">
<title>DejaChildValidatorModule&#45;&gt;DejaSelectModule</title>
<path fill="none" stroke="#000000" d="M637,-122.0225C637,-139.3734 637,-163 637,-163 637,-163 478.1671,-163 478.1671,-163"/>
<polygon fill="#000000" stroke="#000000" points="478.1671,-159.5001 468.1671,-163 478.167,-166.5001 478.1671,-159.5001"/>
</g>
<!-- DejaChipsModule -->
<g id="node4" class="node">
<title>DejaChipsModule</title>
<polygon fill="#8dd3c7" stroke="#000000" points="534.1485,-122 531.1485,-126 510.1485,-126 507.1485,-122 415.8515,-122 415.8515,-86 534.1485,-86 534.1485,-122"/>
<text text-anchor="middle" x="475" y="-99.8" font-family="Times,serif" font-size="14.00" fill="#000000">DejaChipsModule</text>
</g>
<!-- DejaChipsModule&#45;&gt;DejaSelectModule -->
<g id="edge3" class="edge">
<title>DejaChipsModule&#45;&gt;DejaSelectModule</title>
<path fill="none" stroke="#000000" d="M441.884,-122.1061C441.884,-122.1061 441.884,-140.991 441.884,-140.991"/>
<polygon fill="#000000" stroke="#000000" points="438.384,-140.9909 441.884,-150.991 445.384,-140.991 438.384,-140.9909"/>
</g>
<!-- DejaItemModule -->
<g id="node5" class="node">
<title>DejaItemModule</title>
<polygon fill="#8dd3c7" stroke="#000000" points="397.6332,-122 394.6332,-126 373.6332,-126 370.6332,-122 286.3668,-122 286.3668,-86 397.6332,-86 397.6332,-122"/>
<text text-anchor="middle" x="342" y="-99.8" font-family="Times,serif" font-size="14.00" fill="#000000">DejaItemModule</text>
</g>
<!-- DejaItemModule&#45;&gt;DejaSelectModule -->
<g id="edge4" class="edge">
<title>DejaItemModule&#45;&gt;DejaSelectModule</title>
<path fill="none" stroke="#000000" d="M372.8622,-122.1061C372.8622,-122.1061 372.8622,-140.991 372.8622,-140.991"/>
<polygon fill="#000000" stroke="#000000" points="369.3623,-140.9909 372.8622,-150.991 376.3623,-140.991 369.3623,-140.9909"/>
</g>
<!-- DejaOverlayModule -->
<g id="node6" class="node">
<title>DejaOverlayModule</title>
<polygon fill="#8dd3c7" stroke="#000000" points="268.5632,-122 265.5632,-126 244.5632,-126 241.5632,-122 137.4368,-122 137.4368,-86 268.5632,-86 268.5632,-122"/>
<text text-anchor="middle" x="203" y="-99.8" font-family="Times,serif" font-size="14.00" fill="#000000">DejaOverlayModule</text>
</g>
<!-- DejaOverlayModule&#45;&gt;DejaSelectModule -->
<g id="edge5" class="edge">
<title>DejaOverlayModule&#45;&gt;DejaSelectModule</title>
<path fill="none" stroke="#000000" d="M203,-122.0225C203,-139.3734 203,-163 203,-163 203,-163 337.8784,-163 337.8784,-163"/>
<polygon fill="#000000" stroke="#000000" points="337.8784,-166.5001 347.8784,-163 337.8784,-159.5001 337.8784,-166.5001"/>
</g>
<!-- MediaModule -->
<g id="node7" class="node">
<title>MediaModule</title>
<polygon fill="#8dd3c7" stroke="#000000" points="119.8147,-122 116.8147,-126 95.8147,-126 92.8147,-122 24.1853,-122 24.1853,-86 119.8147,-86 119.8147,-122"/>
<text text-anchor="middle" x="72" y="-99.8" font-family="Times,serif" font-size="14.00" fill="#000000">MediaModule</text>
</g>
<!-- MediaModule&#45;&gt;DejaSelectModule -->
<g id="edge6" class="edge">
<title>MediaModule&#45;&gt;DejaSelectModule</title>
<path fill="none" stroke="#000000" d="M72,-122.2843C72,-143.3211 72,-175 72,-175 72,-175 337.5419,-175 337.5419,-175"/>
<polygon fill="#000000" stroke="#000000" points="337.5419,-178.5001 347.5419,-175 337.5418,-171.5001 337.5419,-178.5001"/>
</g>
</g>
</svg>
