<?xml version="1.0" encoding="UTF-8" standalone="no"?>
<!DOCTYPE svg PUBLIC "-//W3C//DTD SVG 1.1//EN"
 "http://www.w3.org/Graphics/SVG/1.1/DTD/svg11.dtd">
<!-- Generated by graphviz version 2.40.1 (20161225.0304)
 -->
<!-- Title: dependencies Pages: 1 -->
<svg width="921pt" height="284pt"
 viewBox="0.00 0.00 921.00 284.00" xmlns="http://www.w3.org/2000/svg" xmlns:xlink="http://www.w3.org/1999/xlink">
<g id="graph0" class="graph" transform="scale(1 1) rotate(0) translate(4 280)">
<title>dependencies</title>
<polygon fill="#ffffff" stroke="transparent" points="-4,4 -4,-280 917,-280 917,4 -4,4"/>
<text text-anchor="start" x="435.5091" y="-42.4" font-family="sans-serif" font-weight="bold" font-size="14.00" fill="#000000">Legend</text>
<polygon fill="#ffffb3" stroke="transparent" points="222.5,-10 222.5,-30 242.5,-30 242.5,-10 222.5,-10"/>
<text text-anchor="start" x="246.129" y="-15.4" font-family="sans-serif" font-size="14.00" fill="#000000"> &#160;Declarations</text>
<polygon fill="#8dd3c7" stroke="transparent" points="335.5,-10 335.5,-30 355.5,-30 355.5,-10 335.5,-10"/>
<text text-anchor="start" x="359.2251" y="-15.4" font-family="sans-serif" font-size="14.00" fill="#000000"> &#160;Module</text>
<polygon fill="#80b1d3" stroke="transparent" points="421.5,-10 421.5,-30 441.5,-30 441.5,-10 421.5,-10"/>
<text text-anchor="start" x="445.2812" y="-15.4" font-family="sans-serif" font-size="14.00" fill="#000000"> &#160;Bootstrap</text>
<polygon fill="#fdb462" stroke="transparent" points="518.5,-10 518.5,-30 538.5,-30 538.5,-10 518.5,-10"/>
<text text-anchor="start" x="542.1732" y="-15.4" font-family="sans-serif" font-size="14.00" fill="#000000"> &#160;Providers</text>
<polygon fill="#fb8072" stroke="transparent" points="614.5,-10 614.5,-30 634.5,-30 634.5,-10 614.5,-10"/>
<text text-anchor="start" x="638.2258" y="-15.4" font-family="sans-serif" font-size="14.00" fill="#000000"> &#160;Exports</text>
<g id="clust1" class="cluster">
<title>cluster_DejaSelectModule</title>
<polygon fill="none" stroke="#000000" stroke-dasharray="1,5" points="8,-70 8,-268 905,-268 905,-70 8,-70"/>
</g>
<g id="clust2" class="cluster">
<title>cluster_DejaSelectModule_declarations</title>
<polygon fill="none" stroke="#000000" points="739,-78 739,-130 897,-130 897,-78 739,-78"/>
</g>
<g id="clust4" class="cluster">
<title>cluster_DejaSelectModule_imports</title>
<polygon fill="none" stroke="#000000" points="16,-78 16,-130 731,-130 731,-78 16,-78"/>
</g>
<g id="clust5" class="cluster">
<title>cluster_DejaSelectModule_exports</title>
<polygon fill="none" stroke="#000000" points="378,-208 378,-260 540,-260 540,-208 378,-208"/>
</g>
<!-- DejaSelectComponent -->
<g id="node1" class="node">
<title>DejaSelectComponent</title>
<polygon fill="#ffffb3" stroke="#000000" points="888.9664,-122 747.0336,-122 747.0336,-86 888.9664,-86 888.9664,-122"/>
<text text-anchor="middle" x="818" y="-99.8" font-family="Times,serif" font-size="14.00" fill="#000000">DejaSelectComponent</text>
</g>
<!-- DejaSelectModule -->
<g id="node2" class="node">
<title>DejaSelectModule</title>
<polygon fill="#8dd3c7" stroke="#000000" points="519.1839,-187 516.1839,-191 495.1839,-191 492.1839,-187 398.8161,-187 398.8161,-151 519.1839,-151 519.1839,-187"/>
<text text-anchor="middle" x="459" y="-164.8" font-family="Times,serif" font-size="14.00" fill="#000000">DejaSelectModule</text>
</g>
<!-- DejaSelectComponent&#45;&gt;DejaSelectModule -->
<g id="edge1" class="edge">
<title>DejaSelectComponent&#45;&gt;DejaSelectModule</title>
<path fill="none" stroke="#000000" d="M818,-122.2843C818,-143.3211 818,-175 818,-175 818,-175 529.4935,-175 529.4935,-175"/>
<polygon fill="#000000" stroke="#000000" points="529.4935,-171.5001 519.4935,-175 529.4935,-178.5001 529.4935,-171.5001"/>
</g>
<!-- DejaSelectComponent  -->
<g id="node8" class="node">
<title>DejaSelectComponent </title>
<polygon fill="#fb8072" stroke="#000000" points="531.9672,-252 386.0328,-252 386.0328,-216 531.9672,-216 531.9672,-252"/>
<text text-anchor="middle" x="459" y="-229.8" font-family="Times,serif" font-size="14.00" fill="#000000">DejaSelectComponent </text>
</g>
<!-- DejaSelectModule&#45;&gt;DejaSelectComponent  -->
<g id="edge7" class="edge">
<title>DejaSelectModule&#45;&gt;DejaSelectComponent </title>
<path fill="none" stroke="#000000" stroke-dasharray="5,2" d="M459,-187.1061C459,-187.1061 459,-205.991 459,-205.991"/>
<polygon fill="#000000" stroke="#000000" points="455.5001,-205.9909 459,-215.991 462.5001,-205.991 455.5001,-205.9909"/>
</g>
<!-- MediaModule -->
<g id="node3" class="node">
<title>MediaModule</title>
<polygon fill="#8dd3c7" stroke="#000000" points="722.8147,-122 719.8147,-126 698.8147,-126 695.8147,-122 627.1853,-122 627.1853,-86 722.8147,-86 722.8147,-122"/>
<text text-anchor="middle" x="675" y="-99.8" font-family="Times,serif" font-size="14.00" fill="#000000">MediaModule</text>
</g>
<!-- MediaModule&#45;&gt;DejaSelectModule -->
<g id="edge2" class="edge">
<title>MediaModule&#45;&gt;DejaSelectModule</title>
<path fill="none" stroke="#000000" d="M675,-122.0225C675,-139.3734 675,-163 675,-163 675,-163 529.168,-163 529.168,-163"/>
<polygon fill="#000000" stroke="#000000" points="529.1681,-159.5001 519.168,-163 529.168,-166.5001 529.1681,-159.5001"/>
</g>
<!-- DejaOverlayModule -->
<g id="node4" class="node">
<title>DejaOverlayModule</title>
<polygon fill="#8dd3c7" stroke="#000000" points="609.5632,-122 606.5632,-126 585.5632,-126 582.5632,-122 478.4368,-122 478.4368,-86 609.5632,-86 609.5632,-122"/>
<text text-anchor="middle" x="544" y="-99.8" font-family="Times,serif" font-size="14.00" fill="#000000">DejaOverlayModule</text>
</g>
<!-- DejaOverlayModule&#45;&gt;DejaSelectModule -->
<g id="edge3" class="edge">
<title>DejaOverlayModule&#45;&gt;DejaSelectModule</title>
<path fill="none" stroke="#000000" d="M498.7802,-122.1061C498.7802,-122.1061 498.7802,-140.991 498.7802,-140.991"/>
<polygon fill="#000000" stroke="#000000" points="495.2802,-140.9909 498.7802,-150.991 502.2802,-140.991 495.2802,-140.9909"/>
</g>
<!-- DejaChildValidatorModule -->
<g id="node5" class="node">
<title>DejaChildValidatorModule</title>
<polygon fill="#8dd3c7" stroke="#000000" points="459.9622,-122 456.9622,-126 435.9622,-126 432.9622,-122 290.0378,-122 290.0378,-86 459.9622,-86 459.9622,-122"/>
<text text-anchor="middle" x="375" y="-99.8" font-family="Times,serif" font-size="14.00" fill="#000000">DejaChildValidatorModule</text>
</g>
<!-- DejaChildValidatorModule&#45;&gt;DejaSelectModule -->
<g id="edge4" class="edge">
<title>DejaChildValidatorModule&#45;&gt;DejaSelectModule</title>
<path fill="none" stroke="#000000" d="M429.4446,-122.1061C429.4446,-122.1061 429.4446,-140.991 429.4446,-140.991"/>
<polygon fill="#000000" stroke="#000000" points="425.9447,-140.9909 429.4446,-150.991 432.9447,-140.991 425.9447,-140.9909"/>
</g>
<!-- DejaChipsModule -->
<g id="node6" class="node">
<title>DejaChipsModule</title>
<polygon fill="#8dd3c7" stroke="#000000" points="272.1485,-122 269.1485,-126 248.1485,-126 245.1485,-122 153.8515,-122 153.8515,-86 272.1485,-86 272.1485,-122"/>
<text text-anchor="middle" x="213" y="-99.8" font-family="Times,serif" font-size="14.00" fill="#000000">DejaChipsModule</text>
</g>
<!-- DejaChipsModule&#45;&gt;DejaSelectModule -->
<g id="edge5" class="edge">
<title>DejaChipsModule&#45;&gt;DejaSelectModule</title>
<path fill="none" stroke="#000000" d="M213,-122.0225C213,-139.3734 213,-163 213,-163 213,-163 388.8216,-163 388.8216,-163"/>
<polygon fill="#000000" stroke="#000000" points="388.8217,-166.5001 398.8216,-163 388.8216,-159.5001 388.8217,-166.5001"/>
</g>
<!-- DejaItemModule -->
<g id="node7" class="node">
<title>DejaItemModule</title>
<polygon fill="#8dd3c7" stroke="#000000" points="135.6332,-122 132.6332,-126 111.6332,-126 108.6332,-122 24.3668,-122 24.3668,-86 135.6332,-86 135.6332,-122"/>
<text text-anchor="middle" x="80" y="-99.8" font-family="Times,serif" font-size="14.00" fill="#000000">DejaItemModule</text>
</g>
<!-- DejaItemModule&#45;&gt;DejaSelectModule -->
<g id="edge6" class="edge">
<title>DejaItemModule&#45;&gt;DejaSelectModule</title>
<path fill="none" stroke="#000000" d="M80,-122.2843C80,-143.3211 80,-175 80,-175 80,-175 388.5272,-175 388.5272,-175"/>
<polygon fill="#000000" stroke="#000000" points="388.5273,-178.5001 398.5272,-175 388.5272,-171.5001 388.5273,-178.5001"/>
</g>
</g>
</svg>
