<?xml version="1.0" encoding="UTF-8" standalone="no"?>
<!DOCTYPE svg PUBLIC "-//W3C//DTD SVG 1.1//EN"
 "http://www.w3.org/Graphics/SVG/1.1/DTD/svg11.dtd">
<!-- Generated by graphviz version 2.40.1 (20161225.0304)
 -->
<!-- Title: dependencies Pages: 1 -->
<svg width="1086pt" height="284pt"
 viewBox="0.00 0.00 1086.00 284.00" xmlns="http://www.w3.org/2000/svg" xmlns:xlink="http://www.w3.org/1999/xlink">
<g id="graph0" class="graph" transform="scale(1 1) rotate(0) translate(4 280)">
<title>dependencies</title>
<polygon fill="#ffffff" stroke="transparent" points="-4,4 -4,-280 1082,-280 1082,4 -4,4"/>
<text text-anchor="start" x="518.0091" y="-42.4" font-family="sans-serif" font-weight="bold" font-size="14.00" fill="#000000">Legend</text>
<polygon fill="#ffffb3" stroke="transparent" points="305,-10 305,-30 325,-30 325,-10 305,-10"/>
<text text-anchor="start" x="328.629" y="-15.4" font-family="sans-serif" font-size="14.00" fill="#000000"> &#160;Declarations</text>
<polygon fill="#8dd3c7" stroke="transparent" points="418,-10 418,-30 438,-30 438,-10 418,-10"/>
<text text-anchor="start" x="441.7251" y="-15.4" font-family="sans-serif" font-size="14.00" fill="#000000"> &#160;Module</text>
<polygon fill="#80b1d3" stroke="transparent" points="504,-10 504,-30 524,-30 524,-10 504,-10"/>
<text text-anchor="start" x="527.7812" y="-15.4" font-family="sans-serif" font-size="14.00" fill="#000000"> &#160;Bootstrap</text>
<polygon fill="#fdb462" stroke="transparent" points="601,-10 601,-30 621,-30 621,-10 601,-10"/>
<text text-anchor="start" x="624.6732" y="-15.4" font-family="sans-serif" font-size="14.00" fill="#000000"> &#160;Providers</text>
<polygon fill="#fb8072" stroke="transparent" points="697,-10 697,-30 717,-30 717,-10 697,-10"/>
<text text-anchor="start" x="720.7258" y="-15.4" font-family="sans-serif" font-size="14.00" fill="#000000"> &#160;Exports</text>
<g id="clust1" class="cluster">
<title>cluster_DejaSelectModule</title>
<polygon fill="none" stroke="#000000" stroke-dasharray="1,5" points="8,-70 8,-268 1070,-268 1070,-70 8,-70"/>
</g>
<g id="clust2" class="cluster">
<title>cluster_DejaSelectModule_declarations</title>
<polygon fill="none" stroke="#000000" points="904,-78 904,-130 1062,-130 1062,-78 904,-78"/>
</g>
<g id="clust4" class="cluster">
<title>cluster_DejaSelectModule_imports</title>
<polygon fill="none" stroke="#000000" points="16,-78 16,-130 896,-130 896,-78 16,-78"/>
</g>
<g id="clust5" class="cluster">
<title>cluster_DejaSelectModule_exports</title>
<polygon fill="none" stroke="#000000" points="427,-208 427,-260 589,-260 589,-208 427,-208"/>
</g>
<!-- DejaSelectComponent -->
<g id="node1" class="node">
<title>DejaSelectComponent</title>
<polygon fill="#ffffb3" stroke="#000000" points="1053.9664,-122 912.0336,-122 912.0336,-86 1053.9664,-86 1053.9664,-122"/>
<text text-anchor="middle" x="983" y="-99.8" font-family="Times,serif" font-size="14.00" fill="#000000">DejaSelectComponent</text>
</g>
<!-- DejaSelectModule -->
<g id="node2" class="node">
<title>DejaSelectModule</title>
<polygon fill="#8dd3c7" stroke="#000000" points="568.1839,-187 565.1839,-191 544.1839,-191 541.1839,-187 447.8161,-187 447.8161,-151 568.1839,-151 568.1839,-187"/>
<text text-anchor="middle" x="508" y="-164.8" font-family="Times,serif" font-size="14.00" fill="#000000">DejaSelectModule</text>
</g>
<!-- DejaSelectComponent&#45;&gt;DejaSelectModule -->
<g id="edge1" class="edge">
<title>DejaSelectComponent&#45;&gt;DejaSelectModule</title>
<path fill="none" stroke="#000000" d="M983,-122.2921C983,-144.2057 983,-178 983,-178 983,-178 578.1591,-178 578.1591,-178"/>
<polygon fill="#000000" stroke="#000000" points="578.1591,-174.5001 568.1591,-178 578.159,-181.5001 578.1591,-174.5001"/>
</g>
<!-- DejaSelectComponent  -->
<g id="node9" class="node">
<title>DejaSelectComponent </title>
<polygon fill="#fb8072" stroke="#000000" points="580.9672,-252 435.0328,-252 435.0328,-216 580.9672,-216 580.9672,-252"/>
<text text-anchor="middle" x="508" y="-229.8" font-family="Times,serif" font-size="14.00" fill="#000000">DejaSelectComponent </text>
</g>
<!-- DejaSelectModule&#45;&gt;DejaSelectComponent  -->
<g id="edge8" class="edge">
<title>DejaSelectModule&#45;&gt;DejaSelectComponent </title>
<path fill="none" stroke="#000000" stroke-dasharray="5,2" d="M508,-187.1061C508,-187.1061 508,-205.991 508,-205.991"/>
<polygon fill="#000000" stroke="#000000" points="504.5001,-205.9909 508,-215.991 511.5001,-205.991 504.5001,-205.9909"/>
</g>
<!-- DejaChildValidatorModule -->
<g id="node3" class="node">
<title>DejaChildValidatorModule</title>
<polygon fill="#8dd3c7" stroke="#000000" points="887.9622,-122 884.9622,-126 863.9622,-126 860.9622,-122 718.0378,-122 718.0378,-86 887.9622,-86 887.9622,-122"/>
<text text-anchor="middle" x="803" y="-99.8" font-family="Times,serif" font-size="14.00" fill="#000000">DejaChildValidatorModule</text>
</g>
<!-- DejaChildValidatorModule&#45;&gt;DejaSelectModule -->
<g id="edge2" class="edge">
<title>DejaChildValidatorModule&#45;&gt;DejaSelectModule</title>
<path fill="none" stroke="#000000" d="M803,-122.1061C803,-141.3391 803,-169 803,-169 803,-169 578.4095,-169 578.4095,-169"/>
<polygon fill="#000000" stroke="#000000" points="578.4095,-165.5001 568.4095,-169 578.4095,-172.5001 578.4095,-165.5001"/>
</g>
<!-- DejaChipsModule -->
<g id="node4" class="node">
<title>DejaChipsModule</title>
<polygon fill="#8dd3c7" stroke="#000000" points="700.1485,-122 697.1485,-126 676.1485,-126 673.1485,-122 581.8515,-122 581.8515,-86 700.1485,-86 700.1485,-122"/>
<text text-anchor="middle" x="641" y="-99.8" font-family="Times,serif" font-size="14.00" fill="#000000">DejaChipsModule</text>
</g>
<!-- DejaChipsModule&#45;&gt;DejaSelectModule -->
<g id="edge3" class="edge">
<title>DejaChipsModule&#45;&gt;DejaSelectModule</title>
<path fill="none" stroke="#000000" d="M641,-122.027C641,-138.3976 641,-160 641,-160 641,-160 578.2737,-160 578.2737,-160"/>
<polygon fill="#000000" stroke="#000000" points="578.2738,-156.5001 568.2737,-160 578.2737,-163.5001 578.2738,-156.5001"/>
</g>
<!-- DejaItemModule -->
<g id="node5" class="node">
<title>DejaItemModule</title>
<polygon fill="#8dd3c7" stroke="#000000" points="563.6332,-122 560.6332,-126 539.6332,-126 536.6332,-122 452.3668,-122 452.3668,-86 563.6332,-86 563.6332,-122"/>
<text text-anchor="middle" x="508" y="-99.8" font-family="Times,serif" font-size="14.00" fill="#000000">DejaItemModule</text>
</g>
<!-- DejaItemModule&#45;&gt;DejaSelectModule -->
<g id="edge4" class="edge">
<title>DejaItemModule&#45;&gt;DejaSelectModule</title>
<path fill="none" stroke="#000000" d="M508,-122.1061C508,-122.1061 508,-140.991 508,-140.991"/>
<polygon fill="#000000" stroke="#000000" points="504.5001,-140.9909 508,-150.991 511.5001,-140.991 504.5001,-140.9909"/>
</g>
<!-- DejaListLoaderModule -->
<g id="node6" class="node">
<title>DejaListLoaderModule</title>
<polygon fill="#8dd3c7" stroke="#000000" points="433.8975,-122 430.8975,-126 409.8975,-126 406.8975,-122 286.1025,-122 286.1025,-86 433.8975,-86 433.8975,-122"/>
<text text-anchor="middle" x="360" y="-99.8" font-family="Times,serif" font-size="14.00" fill="#000000">DejaListLoaderModule</text>
</g>
<!-- DejaListLoaderModule&#45;&gt;DejaSelectModule -->
<g id="edge5" class="edge">
<title>DejaListLoaderModule&#45;&gt;DejaSelectModule</title>
<path fill="none" stroke="#000000" d="M360,-122.027C360,-138.3976 360,-160 360,-160 360,-160 437.8027,-160 437.8027,-160"/>
<polygon fill="#000000" stroke="#000000" points="437.8028,-163.5001 447.8027,-160 437.8027,-156.5001 437.8028,-163.5001"/>
</g>
<!-- DejaOverlayModule -->
<g id="node7" class="node">
<title>DejaOverlayModule</title>
<polygon fill="#8dd3c7" stroke="#000000" points="268.5632,-122 265.5632,-126 244.5632,-126 241.5632,-122 137.4368,-122 137.4368,-86 268.5632,-86 268.5632,-122"/>
<text text-anchor="middle" x="203" y="-99.8" font-family="Times,serif" font-size="14.00" fill="#000000">DejaOverlayModule</text>
</g>
<!-- DejaOverlayModule&#45;&gt;DejaSelectModule -->
<g id="edge6" class="edge">
<title>DejaOverlayModule&#45;&gt;DejaSelectModule</title>
<path fill="none" stroke="#000000" d="M203,-122.1061C203,-141.3391 203,-169 203,-169 203,-169 437.7418,-169 437.7418,-169"/>
<polygon fill="#000000" stroke="#000000" points="437.7418,-172.5001 447.7418,-169 437.7418,-165.5001 437.7418,-172.5001"/>
</g>
<!-- MediaModule -->
<g id="node8" class="node">
<title>MediaModule</title>
<polygon fill="#8dd3c7" stroke="#000000" points="119.8147,-122 116.8147,-126 95.8147,-126 92.8147,-122 24.1853,-122 24.1853,-86 119.8147,-86 119.8147,-122"/>
<text text-anchor="middle" x="72" y="-99.8" font-family="Times,serif" font-size="14.00" fill="#000000">MediaModule</text>
</g>
<!-- MediaModule&#45;&gt;DejaSelectModule -->
<g id="edge7" class="edge">
<title>MediaModule&#45;&gt;DejaSelectModule</title>
<path fill="none" stroke="#000000" d="M72,-122.2921C72,-144.2057 72,-178 72,-178 72,-178 437.8338,-178 437.8338,-178"/>
<polygon fill="#000000" stroke="#000000" points="437.8339,-181.5001 447.8338,-178 437.8338,-174.5001 437.8339,-181.5001"/>
</g>
</g>
</svg>
