<?xml version="1.0" encoding="UTF-8" standalone="no"?>
<!DOCTYPE svg PUBLIC "-//W3C//DTD SVG 1.1//EN"
 "http://www.w3.org/Graphics/SVG/1.1/DTD/svg11.dtd">
<!-- Generated by graphviz version 2.40.1 (20161225.0304)
 -->
<!-- Title: dependencies Pages: 1 -->
<svg width="753pt" height="284pt"
 viewBox="0.00 0.00 753.00 284.00" xmlns="http://www.w3.org/2000/svg" xmlns:xlink="http://www.w3.org/1999/xlink">
<g id="graph0" class="graph" transform="scale(1 1) rotate(0) translate(4 280)">
<title>dependencies</title>
<polygon fill="#ffffff" stroke="transparent" points="-4,4 -4,-280 749,-280 749,4 -4,4"/>
<text text-anchor="start" x="351.5091" y="-42.4" font-family="sans-serif" font-weight="bold" font-size="14.00" fill="#000000">Legend</text>
<polygon fill="#ffffb3" stroke="transparent" points="138.5,-10 138.5,-30 158.5,-30 158.5,-10 138.5,-10"/>
<text text-anchor="start" x="162.129" y="-15.4" font-family="sans-serif" font-size="14.00" fill="#000000"> &#160;Declarations</text>
<polygon fill="#8dd3c7" stroke="transparent" points="251.5,-10 251.5,-30 271.5,-30 271.5,-10 251.5,-10"/>
<text text-anchor="start" x="275.2251" y="-15.4" font-family="sans-serif" font-size="14.00" fill="#000000"> &#160;Module</text>
<polygon fill="#80b1d3" stroke="transparent" points="337.5,-10 337.5,-30 357.5,-30 357.5,-10 337.5,-10"/>
<text text-anchor="start" x="361.2812" y="-15.4" font-family="sans-serif" font-size="14.00" fill="#000000"> &#160;Bootstrap</text>
<polygon fill="#fdb462" stroke="transparent" points="434.5,-10 434.5,-30 454.5,-30 454.5,-10 434.5,-10"/>
<text text-anchor="start" x="458.1732" y="-15.4" font-family="sans-serif" font-size="14.00" fill="#000000"> &#160;Providers</text>
<polygon fill="#fb8072" stroke="transparent" points="530.5,-10 530.5,-30 550.5,-30 550.5,-10 530.5,-10"/>
<text text-anchor="start" x="554.2258" y="-15.4" font-family="sans-serif" font-size="14.00" fill="#000000"> &#160;Exports</text>
<g id="clust1" class="cluster">
<title>cluster_DejaMessageBoxModule</title>
<polygon fill="none" stroke="#000000" stroke-dasharray="1,5" points="8,-70 8,-268 737,-268 737,-70 8,-70"/>
</g>
<g id="clust2" class="cluster">
<title>cluster_DejaMessageBoxModule_declarations</title>
<polygon fill="none" stroke="#000000" points="533,-78 533,-130 729,-130 729,-78 533,-78"/>
</g>
<g id="clust4" class="cluster">
<title>cluster_DejaMessageBoxModule_imports</title>
<polygon fill="none" stroke="#000000" points="16,-78 16,-130 525,-130 525,-78 16,-78"/>
</g>
<g id="clust5" class="cluster">
<title>cluster_DejaMessageBoxModule_exports</title>
<polygon fill="none" stroke="#000000" points="234,-208 234,-260 434,-260 434,-208 234,-208"/>
</g>
<!-- DejaMessageBoxComponent -->
<g id="node1" class="node">
<title>DejaMessageBoxComponent</title>
<polygon fill="#ffffb3" stroke="#000000" points="721.073,-122 540.927,-122 540.927,-86 721.073,-86 721.073,-122"/>
<text text-anchor="middle" x="631" y="-99.8" font-family="Times,serif" font-size="14.00" fill="#000000">DejaMessageBoxComponent</text>
</g>
<!-- DejaMessageBoxModule -->
<g id="node2" class="node">
<title>DejaMessageBoxModule</title>
<polygon fill="#8dd3c7" stroke="#000000" points="413.2907,-187 410.2907,-191 389.2907,-191 386.2907,-187 254.7093,-187 254.7093,-151 413.2907,-151 413.2907,-187"/>
<text text-anchor="middle" x="334" y="-164.8" font-family="Times,serif" font-size="14.00" fill="#000000">DejaMessageBoxModule</text>
</g>
<!-- DejaMessageBoxComponent&#45;&gt;DejaMessageBoxModule -->
<g id="edge1" class="edge">
<title>DejaMessageBoxComponent&#45;&gt;DejaMessageBoxModule</title>
<path fill="none" stroke="#000000" d="M631,-122.1061C631,-141.3391 631,-169 631,-169 631,-169 423.2004,-169 423.2004,-169"/>
<polygon fill="#000000" stroke="#000000" points="423.2004,-165.5001 413.2004,-169 423.2004,-172.5001 423.2004,-165.5001"/>
</g>
<!-- DejaMessageBoxComponent  -->
<g id="node7" class="node">
<title>DejaMessageBoxComponent </title>
<polygon fill="#fb8072" stroke="#000000" points="425.5735,-252 242.4265,-252 242.4265,-216 425.5735,-216 425.5735,-252"/>
<text text-anchor="middle" x="334" y="-229.8" font-family="Times,serif" font-size="14.00" fill="#000000">DejaMessageBoxComponent </text>
</g>
<!-- DejaMessageBoxModule&#45;&gt;DejaMessageBoxComponent  -->
<g id="edge6" class="edge">
<title>DejaMessageBoxModule&#45;&gt;DejaMessageBoxComponent </title>
<path fill="none" stroke="#000000" stroke-dasharray="5,2" d="M334,-187.1061C334,-187.1061 334,-205.991 334,-205.991"/>
<polygon fill="#000000" stroke="#000000" points="330.5001,-205.9909 334,-215.991 337.5001,-205.991 330.5001,-205.9909"/>
</g>
<!-- CommonModule -->
<g id="node3" class="node">
<title>CommonModule</title>
<polygon fill="#8dd3c7" stroke="#000000" points="516.6681,-122 513.6681,-126 492.6681,-126 489.6681,-122 405.3319,-122 405.3319,-86 516.6681,-86 516.6681,-122"/>
<text text-anchor="middle" x="461" y="-99.8" font-family="Times,serif" font-size="14.00" fill="#000000">CommonModule</text>
</g>
<!-- CommonModule&#45;&gt;DejaMessageBoxModule -->
<g id="edge2" class="edge">
<title>CommonModule&#45;&gt;DejaMessageBoxModule</title>
<path fill="none" stroke="#000000" d="M409.1557,-122.1061C409.1557,-122.1061 409.1557,-140.991 409.1557,-140.991"/>
<polygon fill="#000000" stroke="#000000" points="405.6558,-140.9909 409.1557,-150.991 412.6558,-140.991 405.6558,-140.9909"/>
</g>
<!-- MdCardModule -->
<g id="node4" class="node">
<title>MdCardModule</title>
<polygon fill="#8dd3c7" stroke="#000000" points="387.2064,-122 384.2064,-126 363.2064,-126 360.2064,-122 280.7936,-122 280.7936,-86 387.2064,-86 387.2064,-122"/>
<text text-anchor="middle" x="334" y="-99.8" font-family="Times,serif" font-size="14.00" fill="#000000">MdCardModule</text>
</g>
<!-- MdCardModule&#45;&gt;DejaMessageBoxModule -->
<g id="edge3" class="edge">
<title>MdCardModule&#45;&gt;DejaMessageBoxModule</title>
<path fill="none" stroke="#000000" d="M334,-122.1061C334,-122.1061 334,-140.991 334,-140.991"/>
<polygon fill="#000000" stroke="#000000" points="330.5001,-140.9909 334,-150.991 337.5001,-140.991 330.5001,-140.9909"/>
</g>
<!-- MdIconModule -->
<g id="node5" class="node">
<title>MdIconModule</title>
<polygon fill="#8dd3c7" stroke="#000000" points="262.8697,-122 259.8697,-126 238.8697,-126 235.8697,-122 159.1303,-122 159.1303,-86 262.8697,-86 262.8697,-122"/>
<text text-anchor="middle" x="211" y="-99.8" font-family="Times,serif" font-size="14.00" fill="#000000">MdIconModule</text>
</g>
<!-- MdIconModule&#45;&gt;DejaMessageBoxModule -->
<g id="edge4" class="edge">
<title>MdIconModule&#45;&gt;DejaMessageBoxModule</title>
<path fill="none" stroke="#000000" d="M258.8948,-122.1061C258.8948,-122.1061 258.8948,-140.991 258.8948,-140.991"/>
<polygon fill="#000000" stroke="#000000" points="255.3949,-140.9909 258.8948,-150.991 262.3949,-140.991 255.3949,-140.9909"/>
</g>
<!-- MdButtonModule -->
<g id="node6" class="node">
<title>MdButtonModule</title>
<polygon fill="#8dd3c7" stroke="#000000" points="141.6123,-122 138.6123,-126 117.6123,-126 114.6123,-122 24.3877,-122 24.3877,-86 141.6123,-86 141.6123,-122"/>
<text text-anchor="middle" x="83" y="-99.8" font-family="Times,serif" font-size="14.00" fill="#000000">MdButtonModule</text>
</g>
<!-- MdButtonModule&#45;&gt;DejaMessageBoxModule -->
<g id="edge5" class="edge">
<title>MdButtonModule&#45;&gt;DejaMessageBoxModule</title>
<path fill="none" stroke="#000000" d="M83,-122.1061C83,-141.3391 83,-169 83,-169 83,-169 244.582,-169 244.582,-169"/>
<polygon fill="#000000" stroke="#000000" points="244.5821,-172.5001 254.582,-169 244.582,-165.5001 244.5821,-172.5001"/>
</g>
</g>
</svg>
