<?xml version="1.0" encoding="UTF-8" standalone="no"?>
<!DOCTYPE svg PUBLIC "-//W3C//DTD SVG 1.1//EN"
 "http://www.w3.org/Graphics/SVG/1.1/DTD/svg11.dtd">
<!-- Generated by graphviz version 2.40.1 (20161225.0304)
 -->
<!-- Title: dependencies Pages: 1 -->
<svg width="504pt" height="284pt"
 viewBox="0.00 0.00 504.00 284.00" xmlns="http://www.w3.org/2000/svg" xmlns:xlink="http://www.w3.org/1999/xlink">
<g id="graph0" class="graph" transform="scale(1 1) rotate(0) translate(4 280)">
<title>dependencies</title>
<polygon fill="#ffffff" stroke="transparent" points="-4,4 -4,-280 500,-280 500,4 -4,4"/>
<text text-anchor="start" x="227.0091" y="-42.4" font-family="sans-serif" font-weight="bold" font-size="14.00" fill="#000000">Legend</text>
<polygon fill="#ffffb3" stroke="transparent" points="14,-10 14,-30 34,-30 34,-10 14,-10"/>
<text text-anchor="start" x="37.629" y="-15.4" font-family="sans-serif" font-size="14.00" fill="#000000"> &#160;Declarations</text>
<polygon fill="#8dd3c7" stroke="transparent" points="127,-10 127,-30 147,-30 147,-10 127,-10"/>
<text text-anchor="start" x="150.7251" y="-15.4" font-family="sans-serif" font-size="14.00" fill="#000000"> &#160;Module</text>
<polygon fill="#80b1d3" stroke="transparent" points="213,-10 213,-30 233,-30 233,-10 213,-10"/>
<text text-anchor="start" x="236.7812" y="-15.4" font-family="sans-serif" font-size="14.00" fill="#000000"> &#160;Bootstrap</text>
<polygon fill="#fdb462" stroke="transparent" points="310,-10 310,-30 330,-30 330,-10 310,-10"/>
<text text-anchor="start" x="333.6732" y="-15.4" font-family="sans-serif" font-size="14.00" fill="#000000"> &#160;Providers</text>
<polygon fill="#fb8072" stroke="transparent" points="406,-10 406,-30 426,-30 426,-10 406,-10"/>
<text text-anchor="start" x="429.7258" y="-15.4" font-family="sans-serif" font-size="14.00" fill="#000000"> &#160;Exports</text>
<g id="clust1" class="cluster">
<title>cluster_DejaViewPortModule</title>
<polygon fill="none" stroke="#000000" stroke-dasharray="1,5" points="12,-70 12,-268 484,-268 484,-70 12,-70"/>
</g>
<g id="clust2" class="cluster">
<title>cluster_DejaViewPortModule_declarations</title>
<polygon fill="none" stroke="#000000" points="298,-78 298,-130 476,-130 476,-78 298,-78"/>
</g>
<g id="clust4" class="cluster">
<title>cluster_DejaViewPortModule_imports</title>
<polygon fill="none" stroke="#000000" points="20,-78 20,-130 290,-130 290,-78 20,-78"/>
</g>
<g id="clust5" class="cluster">
<title>cluster_DejaViewPortModule_exports</title>
<polygon fill="none" stroke="#000000" points="136,-208 136,-260 316,-260 316,-208 136,-208"/>
</g>
<!-- DejaViewPortComponent -->
<g id="node1" class="node">
<title>DejaViewPortComponent</title>
<polygon fill="#ffffb3" stroke="#000000" points="467.9115,-122 306.0885,-122 306.0885,-86 467.9115,-86 467.9115,-122"/>
<text text-anchor="middle" x="387" y="-99.8" font-family="Times,serif" font-size="14.00" fill="#000000">DejaViewPortComponent</text>
</g>
<!-- DejaViewPortModule -->
<g id="node2" class="node">
<title>DejaViewPortModule</title>
<polygon fill="#8dd3c7" stroke="#000000" points="295.6289,-187 292.6289,-191 271.6289,-191 268.6289,-187 156.3711,-187 156.3711,-151 295.6289,-151 295.6289,-187"/>
<text text-anchor="middle" x="226" y="-164.8" font-family="Times,serif" font-size="14.00" fill="#000000">DejaViewPortModule</text>
</g>
<!-- DejaViewPortComponent&#45;&gt;DejaViewPortModule -->
<g id="edge1" class="edge">
<title>DejaViewPortComponent&#45;&gt;DejaViewPortModule</title>
<path fill="none" stroke="#000000" d="M305.925,-104C295.751,-104 288.824,-104 288.824,-104 288.824,-104 288.824,-140.8939 288.824,-140.8939"/>
<polygon fill="#000000" stroke="#000000" points="285.3241,-140.8938 288.824,-150.8939 292.3241,-140.8939 285.3241,-140.8938"/>
</g>
<!-- DejaViewPortComponent  -->
<g id="node5" class="node">
<title>DejaViewPortComponent </title>
<polygon fill="#fb8072" stroke="#000000" points="308.411,-252 143.589,-252 143.589,-216 308.411,-216 308.411,-252"/>
<text text-anchor="middle" x="226" y="-229.8" font-family="Times,serif" font-size="14.00" fill="#000000">DejaViewPortComponent </text>
</g>
<!-- DejaViewPortModule&#45;&gt;DejaViewPortComponent  -->
<g id="edge4" class="edge">
<title>DejaViewPortModule&#45;&gt;DejaViewPortComponent </title>
<path fill="none" stroke="#000000" stroke-dasharray="5,2" d="M226,-187.1061C226,-187.1061 226,-205.991 226,-205.991"/>
<polygon fill="#000000" stroke="#000000" points="222.5001,-205.9909 226,-215.991 229.5001,-205.991 222.5001,-205.9909"/>
</g>
<!-- CommonModule -->
<g id="node3" class="node">
<title>CommonModule</title>
<polygon fill="#8dd3c7" stroke="#000000" points="281.6681,-122 278.6681,-126 257.6681,-126 254.6681,-122 170.3319,-122 170.3319,-86 281.6681,-86 281.6681,-122"/>
<text text-anchor="middle" x="226" y="-99.8" font-family="Times,serif" font-size="14.00" fill="#000000">CommonModule</text>
</g>
<!-- CommonModule&#45;&gt;DejaViewPortModule -->
<g id="edge2" class="edge">
<title>CommonModule&#45;&gt;DejaViewPortModule</title>
<path fill="none" stroke="#000000" d="M226,-122.1061C226,-122.1061 226,-140.991 226,-140.991"/>
<polygon fill="#000000" stroke="#000000" points="222.5001,-140.9909 226,-150.991 229.5001,-140.991 222.5001,-140.9909"/>
</g>
<!-- FlexLayoutModule -->
<g id="node4" class="node">
<title>FlexLayoutModule</title>
<polygon fill="#8dd3c7" stroke="#000000" points="152.0954,-122 149.0954,-126 128.0954,-126 125.0954,-122 27.9046,-122 27.9046,-86 152.0954,-86 152.0954,-122"/>
<text text-anchor="middle" x="90" y="-99.8" font-family="Times,serif" font-size="14.00" fill="#000000">FlexLayoutModule</text>
</g>
<!-- FlexLayoutModule&#45;&gt;DejaViewPortModule -->
<g id="edge3" class="edge">
<title>FlexLayoutModule&#45;&gt;DejaViewPortModule</title>
<path fill="none" stroke="#000000" d="M147.7961,-122.1061C147.7961,-141.3391 147.7961,-169 147.7961,-169 147.7961,-169 148.633,-169 148.633,-169"/>
<polygon fill="#000000" stroke="#000000" points="146.1653,-172.5001 156.1653,-169 146.1652,-165.5001 146.1653,-172.5001"/>
</g>
</g>
</svg>
