<?xml version="1.0" encoding="UTF-8" standalone="no"?>
<!DOCTYPE svg PUBLIC "-//W3C//DTD SVG 1.1//EN"
 "http://www.w3.org/Graphics/SVG/1.1/DTD/svg11.dtd">
<!-- Generated by graphviz version 2.40.1 (20161225.0304)
 -->
<!-- Title: dependencies Pages: 1 -->
<svg width="1332pt" height="284pt"
 viewBox="0.00 0.00 1332.00 284.00" xmlns="http://www.w3.org/2000/svg" xmlns:xlink="http://www.w3.org/1999/xlink">
<g id="graph0" class="graph" transform="scale(1 1) rotate(0) translate(4 280)">
<title>dependencies</title>
<polygon fill="#ffffff" stroke="transparent" points="-4,4 -4,-280 1328,-280 1328,4 -4,4"/>
<text text-anchor="start" x="641.0091" y="-42.4" font-family="sans-serif" font-weight="bold" font-size="14.00" fill="#000000">Legend</text>
<polygon fill="#ffffb3" stroke="transparent" points="428,-10 428,-30 448,-30 448,-10 428,-10"/>
<text text-anchor="start" x="451.629" y="-15.4" font-family="sans-serif" font-size="14.00" fill="#000000"> &#160;Declarations</text>
<polygon fill="#8dd3c7" stroke="transparent" points="541,-10 541,-30 561,-30 561,-10 541,-10"/>
<text text-anchor="start" x="564.7251" y="-15.4" font-family="sans-serif" font-size="14.00" fill="#000000"> &#160;Module</text>
<polygon fill="#80b1d3" stroke="transparent" points="627,-10 627,-30 647,-30 647,-10 627,-10"/>
<text text-anchor="start" x="650.7812" y="-15.4" font-family="sans-serif" font-size="14.00" fill="#000000"> &#160;Bootstrap</text>
<polygon fill="#fdb462" stroke="transparent" points="724,-10 724,-30 744,-30 744,-10 724,-10"/>
<text text-anchor="start" x="747.6732" y="-15.4" font-family="sans-serif" font-size="14.00" fill="#000000"> &#160;Providers</text>
<polygon fill="#fb8072" stroke="transparent" points="820,-10 820,-30 840,-30 840,-10 820,-10"/>
<text text-anchor="start" x="843.7258" y="-15.4" font-family="sans-serif" font-size="14.00" fill="#000000"> &#160;Exports</text>
<g id="clust1" class="cluster">
<title>cluster_DejaTilesModule</title>
<polygon fill="none" stroke="#000000" stroke-dasharray="1,5" points="8,-70 8,-268 1316,-268 1316,-70 8,-70"/>
</g>
<g id="clust2" class="cluster">
<title>cluster_DejaTilesModule_declarations</title>
<polygon fill="none" stroke="#000000" points="643,-78 643,-130 1308,-130 1308,-78 643,-78"/>
</g>
<g id="clust7" class="cluster">
<title>cluster_DejaTilesModule_imports</title>
<polygon fill="none" stroke="#000000" points="288,-78 288,-130 635,-130 635,-78 288,-78"/>
</g>
<g id="clust8" class="cluster">
<title>cluster_DejaTilesModule_exports</title>
<polygon fill="none" stroke="#000000" points="467,-208 467,-260 962,-260 962,-208 467,-208"/>
</g>
<g id="clust10" class="cluster">
<title>cluster_DejaTilesModule_providers</title>
<polygon fill="none" stroke="#000000" points="16,-78 16,-130 280,-130 280,-78 16,-78"/>
</g>
<!-- DejaTileComponent -->
<g id="node1" class="node">
<title>DejaTileComponent</title>
<polygon fill="#ffffb3" stroke="#000000" points="1300.3076,-122 1169.6924,-122 1169.6924,-86 1300.3076,-86 1300.3076,-122"/>
<text text-anchor="middle" x="1235" y="-99.8" font-family="Times,serif" font-size="14.00" fill="#000000">DejaTileComponent</text>
</g>
<!-- DejaTilesModule -->
<g id="node5" class="node">
<title>DejaTilesModule</title>
<polygon fill="#8dd3c7" stroke="#000000" points="788.9692,-187 785.9692,-191 764.9692,-191 761.9692,-187 675.0308,-187 675.0308,-151 788.9692,-151 788.9692,-187"/>
<text text-anchor="middle" x="732" y="-164.8" font-family="Times,serif" font-size="14.00" fill="#000000">DejaTilesModule</text>
</g>
<!-- DejaTileComponent&#45;&gt;DejaTilesModule -->
<g id="edge1" class="edge">
<title>DejaTileComponent&#45;&gt;DejaTilesModule</title>
<path fill="none" stroke="#000000" d="M1235,-122.1289C1235,-142.5724 1235,-173 1235,-173 1235,-173 799.2108,-173 799.2108,-173"/>
<polygon fill="#000000" stroke="#000000" points="799.2108,-169.5001 789.2108,-173 799.2107,-176.5001 799.2108,-169.5001"/>
</g>
<!-- DejaTilesComponent -->
<g id="node2" class="node">
<title>DejaTilesComponent</title>
<polygon fill="#ffffb3" stroke="#000000" points="1151.752,-122 1016.248,-122 1016.248,-86 1151.752,-86 1151.752,-122"/>
<text text-anchor="middle" x="1084" y="-99.8" font-family="Times,serif" font-size="14.00" fill="#000000">DejaTilesComponent</text>
</g>
<!-- DejaTilesComponent&#45;&gt;DejaTilesModule -->
<g id="edge2" class="edge">
<title>DejaTilesComponent&#45;&gt;DejaTilesModule</title>
<path fill="none" stroke="#000000" d="M1084,-122.2667C1084,-140.5552 1084,-166 1084,-166 1084,-166 799.3383,-166 799.3383,-166"/>
<polygon fill="#000000" stroke="#000000" points="799.3383,-162.5001 789.3383,-166 799.3383,-169.5001 799.3383,-162.5001"/>
</g>
<!-- DejaTileGroupComponent -->
<g id="node3" class="node">
<title>DejaTileGroupComponent</title>
<polygon fill="#ffffb3" stroke="#000000" points="998.0744,-122 831.9256,-122 831.9256,-86 998.0744,-86 998.0744,-122"/>
<text text-anchor="middle" x="915" y="-99.8" font-family="Times,serif" font-size="14.00" fill="#000000">DejaTileGroupComponent</text>
</g>
<!-- DejaTileGroupComponent&#45;&gt;DejaTilesModule -->
<g id="edge3" class="edge">
<title>DejaTileGroupComponent&#45;&gt;DejaTilesModule</title>
<path fill="none" stroke="#000000" d="M892.9332,-122.0091C892.9332,-138.0494 892.9332,-159 892.9332,-159 892.9332,-159 799.1922,-159 799.1922,-159"/>
<polygon fill="#000000" stroke="#000000" points="799.1922,-155.5001 789.1922,-159 799.1921,-162.5001 799.1922,-155.5001"/>
</g>
<!-- DejaTilePositionDirective -->
<g id="node4" class="node">
<title>DejaTilePositionDirective</title>
<polygon fill="#ffffb3" stroke="#000000" points="813.4566,-122 650.5434,-122 650.5434,-86 813.4566,-86 813.4566,-122"/>
<text text-anchor="middle" x="732" y="-99.8" font-family="Times,serif" font-size="14.00" fill="#000000">DejaTilePositionDirective</text>
</g>
<!-- DejaTilePositionDirective&#45;&gt;DejaTilesModule -->
<g id="edge4" class="edge">
<title>DejaTilePositionDirective&#45;&gt;DejaTilesModule</title>
<path fill="none" stroke="#000000" d="M732,-122.1061C732,-122.1061 732,-140.991 732,-140.991"/>
<polygon fill="#000000" stroke="#000000" points="728.5001,-140.9909 732,-150.991 735.5001,-140.991 728.5001,-140.9909"/>
</g>
<!-- DejaTileComponent  -->
<g id="node8" class="node">
<title>DejaTileComponent </title>
<polygon fill="#fb8072" stroke="#000000" points="953.8073,-252 820.1927,-252 820.1927,-216 953.8073,-216 953.8073,-252"/>
<text text-anchor="middle" x="887" y="-229.8" font-family="Times,serif" font-size="14.00" fill="#000000">DejaTileComponent </text>
</g>
<!-- DejaTilesModule&#45;&gt;DejaTileComponent  -->
<g id="edge7" class="edge">
<title>DejaTilesModule&#45;&gt;DejaTileComponent </title>
<path fill="none" stroke="#000000" stroke-dasharray="5,2" d="M789.1365,-180C808.8263,-180 826.0296,-180 826.0296,-180 826.0296,-180 826.0296,-205.7181 826.0296,-205.7181"/>
<polygon fill="#000000" stroke="#000000" points="822.5297,-205.718 826.0296,-215.7181 829.5297,-205.7181 822.5297,-205.718"/>
</g>
<!-- DejaTilesComponent  -->
<g id="node9" class="node">
<title>DejaTilesComponent </title>
<polygon fill="#fb8072" stroke="#000000" points="801.752,-252 662.248,-252 662.248,-216 801.752,-216 801.752,-252"/>
<text text-anchor="middle" x="732" y="-229.8" font-family="Times,serif" font-size="14.00" fill="#000000">DejaTilesComponent </text>
</g>
<!-- DejaTilesModule&#45;&gt;DejaTilesComponent  -->
<g id="edge8" class="edge">
<title>DejaTilesModule&#45;&gt;DejaTilesComponent </title>
<path fill="none" stroke="#000000" stroke-dasharray="5,2" d="M732,-187.1061C732,-187.1061 732,-205.991 732,-205.991"/>
<polygon fill="#000000" stroke="#000000" points="728.5001,-205.9909 732,-215.991 735.5001,-205.991 728.5001,-205.9909"/>
</g>
<!-- DejaTileGroupComponent  -->
<g id="node10" class="node">
<title>DejaTileGroupComponent </title>
<polygon fill="#fb8072" stroke="#000000" points="644.5749,-252 475.4251,-252 475.4251,-216 644.5749,-216 644.5749,-252"/>
<text text-anchor="middle" x="560" y="-229.8" font-family="Times,serif" font-size="14.00" fill="#000000">DejaTileGroupComponent </text>
</g>
<!-- DejaTilesModule&#45;&gt;DejaTileGroupComponent  -->
<g id="edge9" class="edge">
<title>DejaTilesModule&#45;&gt;DejaTileGroupComponent </title>
<path fill="none" stroke="#000000" stroke-dasharray="5,2" d="M674.8303,-180C654.293,-180 636.1009,-180 636.1009,-180 636.1009,-180 636.1009,-205.7181 636.1009,-205.7181"/>
<polygon fill="#000000" stroke="#000000" points="632.6009,-205.718 636.1009,-215.7181 639.6009,-205.7181 632.6009,-205.718"/>
</g>
<!-- DejaMouseDragDropModule -->
<g id="node6" class="node">
<title>DejaMouseDragDropModule</title>
<polygon fill="#8dd3c7" stroke="#000000" points="627.3291,-122 624.3291,-126 603.3291,-126 600.3291,-122 446.6709,-122 446.6709,-86 627.3291,-86 627.3291,-122"/>
<text text-anchor="middle" x="537" y="-99.8" font-family="Times,serif" font-size="14.00" fill="#000000">DejaMouseDragDropModule</text>
</g>
<!-- DejaMouseDragDropModule&#45;&gt;DejaTilesModule -->
<g id="edge5" class="edge">
<title>DejaMouseDragDropModule&#45;&gt;DejaTilesModule</title>
<path fill="none" stroke="#000000" d="M551.3137,-122.0091C551.3137,-138.0494 551.3137,-159 551.3137,-159 551.3137,-159 664.8297,-159 664.8297,-159"/>
<polygon fill="#000000" stroke="#000000" points="664.8297,-162.5001 674.8297,-159 664.8297,-155.5001 664.8297,-162.5001"/>
</g>
<!-- DejaEditableModule -->
<g id="node7" class="node">
<title>DejaEditableModule</title>
<polygon fill="#8dd3c7" stroke="#000000" points="428.1303,-122 425.1303,-126 404.1303,-126 401.1303,-122 295.8697,-122 295.8697,-86 428.1303,-86 428.1303,-122"/>
<text text-anchor="middle" x="362" y="-99.8" font-family="Times,serif" font-size="14.00" fill="#000000">DejaEditableModule</text>
</g>
<!-- DejaEditableModule&#45;&gt;DejaTilesModule -->
<g id="edge6" class="edge">
<title>DejaEditableModule&#45;&gt;DejaTilesModule</title>
<path fill="none" stroke="#000000" d="M362,-122.2667C362,-140.5552 362,-166 362,-166 362,-166 664.9984,-166 664.9984,-166"/>
<polygon fill="#000000" stroke="#000000" points="664.9984,-169.5001 674.9984,-166 664.9983,-162.5001 664.9984,-169.5001"/>
</g>
<!-- DejaMouseDragDropService -->
<g id="node11" class="node">
<title>DejaMouseDragDropService</title>
<ellipse fill="#fdb462" stroke="#000000" cx="148" cy="-104" rx="123.7963" ry="18"/>
<text text-anchor="middle" x="148" y="-99.8" font-family="Times,serif" font-size="14.00" fill="#000000">DejaMouseDragDropService</text>
</g>
<!-- DejaMouseDragDropService&#45;&gt;DejaTilesModule -->
<g id="edge10" class="edge">
<title>DejaMouseDragDropService&#45;&gt;DejaTilesModule</title>
<path fill="none" stroke="#000000" d="M148,-122.1289C148,-142.5724 148,-173 148,-173 148,-173 664.9403,-173 664.9403,-173"/>
<polygon fill="#000000" stroke="#000000" points="664.9403,-176.5001 674.9403,-173 664.9403,-169.5001 664.9403,-176.5001"/>
</g>
</g>
</svg>
