<?xml version="1.0" encoding="UTF-8" standalone="no"?>
<!DOCTYPE svg PUBLIC "-//W3C//DTD SVG 1.1//EN"
 "http://www.w3.org/Graphics/SVG/1.1/DTD/svg11.dtd">
<!-- Generated by graphviz version 2.40.1 (20161225.0304)
 -->
<!-- Title: dependencies Pages: 1 -->
<svg width="1332pt" height="284pt"
 viewBox="0.00 0.00 1332.00 284.00" xmlns="http://www.w3.org/2000/svg" xmlns:xlink="http://www.w3.org/1999/xlink">
<g id="graph0" class="graph" transform="scale(1 1) rotate(0) translate(4 280)">
<title>dependencies</title>
<polygon fill="#ffffff" stroke="transparent" points="-4,4 -4,-280 1328,-280 1328,4 -4,4"/>
<text text-anchor="start" x="641.0091" y="-42.4" font-family="sans-serif" font-weight="bold" font-size="14.00" fill="#000000">Legend</text>
<polygon fill="#ffffb3" stroke="transparent" points="428,-10 428,-30 448,-30 448,-10 428,-10"/>
<text text-anchor="start" x="451.629" y="-15.4" font-family="sans-serif" font-size="14.00" fill="#000000"> &#160;Declarations</text>
<polygon fill="#8dd3c7" stroke="transparent" points="541,-10 541,-30 561,-30 561,-10 541,-10"/>
<text text-anchor="start" x="564.7251" y="-15.4" font-family="sans-serif" font-size="14.00" fill="#000000"> &#160;Module</text>
<polygon fill="#80b1d3" stroke="transparent" points="627,-10 627,-30 647,-30 647,-10 627,-10"/>
<text text-anchor="start" x="650.7812" y="-15.4" font-family="sans-serif" font-size="14.00" fill="#000000"> &#160;Bootstrap</text>
<polygon fill="#fdb462" stroke="transparent" points="724,-10 724,-30 744,-30 744,-10 724,-10"/>
<text text-anchor="start" x="747.6732" y="-15.4" font-family="sans-serif" font-size="14.00" fill="#000000"> &#160;Providers</text>
<polygon fill="#fb8072" stroke="transparent" points="820,-10 820,-30 840,-30 840,-10 820,-10"/>
<text text-anchor="start" x="843.7258" y="-15.4" font-family="sans-serif" font-size="14.00" fill="#000000"> &#160;Exports</text>
<g id="clust1" class="cluster">
<title>cluster_DejaTilesModule</title>
<polygon fill="none" stroke="#000000" stroke-dasharray="1,5" points="8,-70 8,-268 1316,-268 1316,-70 8,-70"/>
</g>
<g id="clust2" class="cluster">
<title>cluster_DejaTilesModule_declarations</title>
<polygon fill="none" stroke="#000000" points="643,-78 643,-130 1308,-130 1308,-78 643,-78"/>
</g>
<g id="clust7" class="cluster">
<title>cluster_DejaTilesModule_imports</title>
<polygon fill="none" stroke="#000000" points="288,-78 288,-130 635,-130 635,-78 288,-78"/>
</g>
<g id="clust8" class="cluster">
<title>cluster_DejaTilesModule_exports</title>
<polygon fill="none" stroke="#000000" points="469,-208 469,-260 964,-260 964,-208 469,-208"/>
</g>
<g id="clust10" class="cluster">
<title>cluster_DejaTilesModule_providers</title>
<polygon fill="none" stroke="#000000" points="16,-78 16,-130 280,-130 280,-78 16,-78"/>
</g>
<!-- DejaTileComponent -->
<g id="node1" class="node">
<title>DejaTileComponent</title>
<polygon fill="#ffffb3" stroke="#000000" points="1300.3076,-122 1169.6924,-122 1169.6924,-86 1300.3076,-86 1300.3076,-122"/>
<text text-anchor="middle" x="1235" y="-99.8" font-family="Times,serif" font-size="14.00" fill="#000000">DejaTileComponent</text>
</g>
<!-- DejaTilesModule -->
<g id="node5" class="node">
<title>DejaTilesModule</title>
<polygon fill="#8dd3c7" stroke="#000000" points="775.9692,-187 772.9692,-191 751.9692,-191 748.9692,-187 662.0308,-187 662.0308,-151 775.9692,-151 775.9692,-187"/>
<text text-anchor="middle" x="719" y="-164.8" font-family="Times,serif" font-size="14.00" fill="#000000">DejaTilesModule</text>
</g>
<!-- DejaTileComponent&#45;&gt;DejaTilesModule -->
<g id="edge1" class="edge">
<title>DejaTileComponent&#45;&gt;DejaTilesModule</title>
<path fill="none" stroke="#000000" d="M1235,-122.1289C1235,-142.5724 1235,-173 1235,-173 1235,-173 786.1926,-173 786.1926,-173"/>
<polygon fill="#000000" stroke="#000000" points="786.1926,-169.5001 776.1926,-173 786.1925,-176.5001 786.1926,-169.5001"/>
</g>
<!-- DejaTileGroupComponent -->
<g id="node2" class="node">
<title>DejaTileGroupComponent</title>
<polygon fill="#ffffb3" stroke="#000000" points="1152.0744,-122 985.9256,-122 985.9256,-86 1152.0744,-86 1152.0744,-122"/>
<text text-anchor="middle" x="1069" y="-99.8" font-family="Times,serif" font-size="14.00" fill="#000000">DejaTileGroupComponent</text>
</g>
<!-- DejaTileGroupComponent&#45;&gt;DejaTilesModule -->
<g id="edge2" class="edge">
<title>DejaTileGroupComponent&#45;&gt;DejaTilesModule</title>
<path fill="none" stroke="#000000" d="M1069,-122.2667C1069,-140.5552 1069,-166 1069,-166 1069,-166 786.0125,-166 786.0125,-166"/>
<polygon fill="#000000" stroke="#000000" points="786.0125,-162.5001 776.0125,-166 786.0125,-169.5001 786.0125,-162.5001"/>
</g>
<!-- DejaTilePositionDirective -->
<g id="node3" class="node">
<title>DejaTilePositionDirective</title>
<polygon fill="#ffffb3" stroke="#000000" points="967.4566,-122 804.5434,-122 804.5434,-86 967.4566,-86 967.4566,-122"/>
<text text-anchor="middle" x="886" y="-99.8" font-family="Times,serif" font-size="14.00" fill="#000000">DejaTilePositionDirective</text>
</g>
<!-- DejaTilePositionDirective&#45;&gt;DejaTilesModule -->
<g id="edge3" class="edge">
<title>DejaTilePositionDirective&#45;&gt;DejaTilesModule</title>
<path fill="none" stroke="#000000" d="M813.3091,-122.0091C813.3091,-138.0494 813.3091,-159 813.3091,-159 813.3091,-159 786.0356,-159 786.0356,-159"/>
<polygon fill="#000000" stroke="#000000" points="786.0357,-155.5001 776.0356,-159 786.0356,-162.5001 786.0357,-155.5001"/>
</g>
<!-- DejaTilesComponent -->
<g id="node4" class="node">
<title>DejaTilesComponent</title>
<polygon fill="#ffffb3" stroke="#000000" points="786.752,-122 651.248,-122 651.248,-86 786.752,-86 786.752,-122"/>
<text text-anchor="middle" x="719" y="-99.8" font-family="Times,serif" font-size="14.00" fill="#000000">DejaTilesComponent</text>
</g>
<!-- DejaTilesComponent&#45;&gt;DejaTilesModule -->
<g id="edge4" class="edge">
<title>DejaTilesComponent&#45;&gt;DejaTilesModule</title>
<path fill="none" stroke="#000000" d="M719,-122.1061C719,-122.1061 719,-140.991 719,-140.991"/>
<polygon fill="#000000" stroke="#000000" points="715.5001,-140.9909 719,-150.991 722.5001,-140.991 715.5001,-140.9909"/>
</g>
<!-- DejaTileComponent  -->
<g id="node8" class="node">
<title>DejaTileComponent </title>
<polygon fill="#fb8072" stroke="#000000" points="955.8073,-252 822.1927,-252 822.1927,-216 955.8073,-216 955.8073,-252"/>
<text text-anchor="middle" x="889" y="-229.8" font-family="Times,serif" font-size="14.00" fill="#000000">DejaTileComponent </text>
</g>
<!-- DejaTilesModule&#45;&gt;DejaTileComponent  -->
<g id="edge7" class="edge">
<title>DejaTilesModule&#45;&gt;DejaTileComponent </title>
<path fill="none" stroke="#000000" stroke-dasharray="5,2" d="M776.0805,-180C825.4672,-180 889,-180 889,-180 889,-180 889,-205.7181 889,-205.7181"/>
<polygon fill="#000000" stroke="#000000" points="885.5001,-205.718 889,-215.7181 892.5001,-205.7181 885.5001,-205.718"/>
</g>
<!-- DejaTileGroupComponent  -->
<g id="node9" class="node">
<title>DejaTileGroupComponent </title>
<polygon fill="#fb8072" stroke="#000000" points="803.5749,-252 634.4251,-252 634.4251,-216 803.5749,-216 803.5749,-252"/>
<text text-anchor="middle" x="719" y="-229.8" font-family="Times,serif" font-size="14.00" fill="#000000">DejaTileGroupComponent </text>
</g>
<!-- DejaTilesModule&#45;&gt;DejaTileGroupComponent  -->
<g id="edge8" class="edge">
<title>DejaTilesModule&#45;&gt;DejaTileGroupComponent </title>
<path fill="none" stroke="#000000" stroke-dasharray="5,2" d="M719,-187.1061C719,-187.1061 719,-205.991 719,-205.991"/>
<polygon fill="#000000" stroke="#000000" points="715.5001,-205.9909 719,-215.991 722.5001,-205.991 715.5001,-205.9909"/>
</g>
<!-- DejaTilesComponent  -->
<g id="node10" class="node">
<title>DejaTilesComponent </title>
<polygon fill="#fb8072" stroke="#000000" points="616.752,-252 477.248,-252 477.248,-216 616.752,-216 616.752,-252"/>
<text text-anchor="middle" x="547" y="-229.8" font-family="Times,serif" font-size="14.00" fill="#000000">DejaTilesComponent </text>
</g>
<!-- DejaTilesModule&#45;&gt;DejaTilesComponent  -->
<g id="edge9" class="edge">
<title>DejaTilesModule&#45;&gt;DejaTilesComponent </title>
<path fill="none" stroke="#000000" stroke-dasharray="5,2" d="M661.87,-180C614.7662,-180 555.6555,-180 555.6555,-180 555.6555,-180 555.6555,-205.7181 555.6555,-205.7181"/>
<polygon fill="#000000" stroke="#000000" points="552.1556,-205.718 555.6555,-215.7181 559.1556,-205.7181 552.1556,-205.718"/>
</g>
<!-- DejaEditableModule -->
<g id="node6" class="node">
<title>DejaEditableModule</title>
<polygon fill="#8dd3c7" stroke="#000000" points="627.1303,-122 624.1303,-126 603.1303,-126 600.1303,-122 494.8697,-122 494.8697,-86 627.1303,-86 627.1303,-122"/>
<text text-anchor="middle" x="561" y="-99.8" font-family="Times,serif" font-size="14.00" fill="#000000">DejaEditableModule</text>
</g>
<!-- DejaEditableModule&#45;&gt;DejaTilesModule -->
<g id="edge5" class="edge">
<title>DejaEditableModule&#45;&gt;DejaTilesModule</title>
<path fill="none" stroke="#000000" d="M621.9704,-122.0091C621.9704,-138.0494 621.9704,-159 621.9704,-159 621.9704,-159 651.9962,-159 651.9962,-159"/>
<polygon fill="#000000" stroke="#000000" points="651.9963,-162.5001 661.9962,-159 651.9962,-155.5001 651.9963,-162.5001"/>
</g>
<!-- DejaMouseDragDropModule -->
<g id="node7" class="node">
<title>DejaMouseDragDropModule</title>
<polygon fill="#8dd3c7" stroke="#000000" points="476.3291,-122 473.3291,-126 452.3291,-126 449.3291,-122 295.6709,-122 295.6709,-86 476.3291,-86 476.3291,-122"/>
<text text-anchor="middle" x="386" y="-99.8" font-family="Times,serif" font-size="14.00" fill="#000000">DejaMouseDragDropModule</text>
</g>
<!-- DejaMouseDragDropModule&#45;&gt;DejaTilesModule -->
<g id="edge6" class="edge">
<title>DejaMouseDragDropModule&#45;&gt;DejaTilesModule</title>
<path fill="none" stroke="#000000" d="M386,-122.2667C386,-140.5552 386,-166 386,-166 386,-166 651.7553,-166 651.7553,-166"/>
<polygon fill="#000000" stroke="#000000" points="651.7553,-169.5001 661.7553,-166 651.7552,-162.5001 651.7553,-169.5001"/>
</g>
<!-- DejaMouseDragDropService -->
<g id="node11" class="node">
<title>DejaMouseDragDropService</title>
<ellipse fill="#fdb462" stroke="#000000" cx="148" cy="-104" rx="123.7963" ry="18"/>
<text text-anchor="middle" x="148" y="-99.8" font-family="Times,serif" font-size="14.00" fill="#000000">DejaMouseDragDropService</text>
</g>
<!-- DejaMouseDragDropService&#45;&gt;DejaTilesModule -->
<g id="edge10" class="edge">
<title>DejaMouseDragDropService&#45;&gt;DejaTilesModule</title>
<path fill="none" stroke="#000000" d="M148,-122.1289C148,-142.5724 148,-173 148,-173 148,-173 651.8996,-173 651.8996,-173"/>
<polygon fill="#000000" stroke="#000000" points="651.8997,-176.5001 661.8996,-173 651.8996,-169.5001 651.8997,-176.5001"/>
</g>
</g>
</svg>
