<?xml version="1.0" encoding="UTF-8" standalone="no"?>
<!DOCTYPE svg PUBLIC "-//W3C//DTD SVG 1.1//EN"
 "http://www.w3.org/Graphics/SVG/1.1/DTD/svg11.dtd">
<!-- Generated by graphviz version 2.40.1 (20161225.0304)
 -->
<!-- Title: dependencies Pages: 1 -->
<svg width="2208pt" height="284pt"
 viewBox="0.00 0.00 2208.00 284.00" xmlns="http://www.w3.org/2000/svg" xmlns:xlink="http://www.w3.org/1999/xlink">
<g id="graph0" class="graph" transform="scale(1 1) rotate(0) translate(4 280)">
<title>dependencies</title>
<polygon fill="#ffffff" stroke="transparent" points="-4,4 -4,-280 2204,-280 2204,4 -4,4"/>
<text text-anchor="start" x="1079.0091" y="-42.4" font-family="sans-serif" font-weight="bold" font-size="14.00" fill="#000000">Legend</text>
<polygon fill="#ffffb3" stroke="transparent" points="866,-10 866,-30 886,-30 886,-10 866,-10"/>
<text text-anchor="start" x="889.629" y="-15.4" font-family="sans-serif" font-size="14.00" fill="#000000"> &#160;Declarations</text>
<polygon fill="#8dd3c7" stroke="transparent" points="979,-10 979,-30 999,-30 999,-10 979,-10"/>
<text text-anchor="start" x="1002.7251" y="-15.4" font-family="sans-serif" font-size="14.00" fill="#000000"> &#160;Module</text>
<polygon fill="#80b1d3" stroke="transparent" points="1065,-10 1065,-30 1085,-30 1085,-10 1065,-10"/>
<text text-anchor="start" x="1088.7812" y="-15.4" font-family="sans-serif" font-size="14.00" fill="#000000"> &#160;Bootstrap</text>
<polygon fill="#fdb462" stroke="transparent" points="1162,-10 1162,-30 1182,-30 1182,-10 1162,-10"/>
<text text-anchor="start" x="1185.6732" y="-15.4" font-family="sans-serif" font-size="14.00" fill="#000000"> &#160;Providers</text>
<polygon fill="#fb8072" stroke="transparent" points="1258,-10 1258,-30 1278,-30 1278,-10 1258,-10"/>
<text text-anchor="start" x="1281.7258" y="-15.4" font-family="sans-serif" font-size="14.00" fill="#000000"> &#160;Exports</text>
<g id="clust1" class="cluster">
<title>cluster_DejaTilesModule</title>
<polygon fill="none" stroke="#000000" stroke-dasharray="1,5" points="8,-70 8,-268 2192,-268 2192,-70 8,-70"/>
</g>
<g id="clust2" class="cluster">
<title>cluster_DejaTilesModule_declarations</title>
<polygon fill="none" stroke="#000000" points="1297,-78 1297,-130 2184,-130 2184,-78 1297,-78"/>
</g>
<g id="clust8" class="cluster">
<title>cluster_DejaTilesModule_imports</title>
<polygon fill="none" stroke="#000000" points="288,-78 288,-130 1289,-130 1289,-78 288,-78"/>
</g>
<g id="clust9" class="cluster">
<title>cluster_DejaTilesModule_exports</title>
<polygon fill="none" stroke="#000000" points="869,-208 869,-260 1364,-260 1364,-208 869,-208"/>
</g>
<g id="clust11" class="cluster">
<title>cluster_DejaTilesModule_providers</title>
<polygon fill="none" stroke="#000000" points="16,-78 16,-130 280,-130 280,-78 16,-78"/>
</g>
<!-- DejaTileComponent -->
<g id="node1" class="node">
<title>DejaTileComponent</title>
<polygon fill="#ffffb3" stroke="#000000" points="2176.3076,-122 2045.6924,-122 2045.6924,-86 2176.3076,-86 2176.3076,-122"/>
<text text-anchor="middle" x="2111" y="-99.8" font-family="Times,serif" font-size="14.00" fill="#000000">DejaTileComponent</text>
</g>
<!-- DejaTilesModule -->
<g id="node6" class="node">
<title>DejaTilesModule</title>
<polygon fill="#8dd3c7" stroke="#000000" points="1175.9692,-187 1172.9692,-191 1151.9692,-191 1148.9692,-187 1062.0308,-187 1062.0308,-151 1175.9692,-151 1175.9692,-187"/>
<text text-anchor="middle" x="1119" y="-164.8" font-family="Times,serif" font-size="14.00" fill="#000000">DejaTilesModule</text>
</g>
<!-- DejaTileComponent&#45;&gt;DejaTilesModule -->
<g id="edge1" class="edge">
<title>DejaTileComponent&#45;&gt;DejaTilesModule</title>
<path fill="none" stroke="#000000" d="M2111,-122.0449C2111,-143.6623 2111,-177 2111,-177 2111,-177 1186.259,-177 1186.259,-177"/>
<polygon fill="#000000" stroke="#000000" points="1186.2591,-173.5001 1176.259,-177 1186.259,-180.5001 1186.2591,-173.5001"/>
</g>
<!-- DejaTileGroupComponent -->
<g id="node2" class="node">
<title>DejaTileGroupComponent</title>
<polygon fill="#ffffb3" stroke="#000000" points="2028.0744,-122 1861.9256,-122 1861.9256,-86 2028.0744,-86 2028.0744,-122"/>
<text text-anchor="middle" x="1945" y="-99.8" font-family="Times,serif" font-size="14.00" fill="#000000">DejaTileGroupComponent</text>
</g>
<!-- DejaTileGroupComponent&#45;&gt;DejaTilesModule -->
<g id="edge2" class="edge">
<title>DejaTileGroupComponent&#45;&gt;DejaTilesModule</title>
<path fill="none" stroke="#000000" d="M1945,-122.2228C1945,-142.3652 1945,-172 1945,-172 1945,-172 1186.1002,-172 1186.1002,-172"/>
<polygon fill="#000000" stroke="#000000" points="1186.1003,-168.5001 1176.1002,-172 1186.1002,-175.5001 1186.1003,-168.5001"/>
</g>
<!-- DejaTilePositionDirective -->
<g id="node3" class="node">
<title>DejaTilePositionDirective</title>
<polygon fill="#ffffb3" stroke="#000000" points="1843.4566,-122 1680.5434,-122 1680.5434,-86 1843.4566,-86 1843.4566,-122"/>
<text text-anchor="middle" x="1762" y="-99.8" font-family="Times,serif" font-size="14.00" fill="#000000">DejaTilePositionDirective</text>
</g>
<!-- DejaTilePositionDirective&#45;&gt;DejaTilesModule -->
<g id="edge3" class="edge">
<title>DejaTilePositionDirective&#45;&gt;DejaTilesModule</title>
<path fill="none" stroke="#000000" d="M1762,-122.2222C1762,-140.8285 1762,-167 1762,-167 1762,-167 1186.062,-167 1186.062,-167"/>
<polygon fill="#000000" stroke="#000000" points="1186.062,-163.5001 1176.062,-167 1186.0619,-170.5001 1186.062,-163.5001"/>
</g>
<!-- DejaTilesComponent -->
<g id="node4" class="node">
<title>DejaTilesComponent</title>
<polygon fill="#ffffb3" stroke="#000000" points="1662.752,-122 1527.248,-122 1527.248,-86 1662.752,-86 1662.752,-122"/>
<text text-anchor="middle" x="1595" y="-99.8" font-family="Times,serif" font-size="14.00" fill="#000000">DejaTilesComponent</text>
</g>
<!-- DejaTilesComponent&#45;&gt;DejaTilesModule -->
<g id="edge4" class="edge">
<title>DejaTilesComponent&#45;&gt;DejaTilesModule</title>
<path fill="none" stroke="#000000" d="M1595,-122.0336C1595,-139.0597 1595,-162 1595,-162 1595,-162 1186.4167,-162 1186.4167,-162"/>
<polygon fill="#000000" stroke="#000000" points="1186.4168,-158.5001 1176.4167,-162 1186.4167,-165.5001 1186.4168,-158.5001"/>
</g>
<!-- TileGroupStyleEditorComponent -->
<g id="node5" class="node">
<title>TileGroupStyleEditorComponent</title>
<polygon fill="#ffffb3" stroke="#000000" points="1508.9212,-122 1305.0788,-122 1305.0788,-86 1508.9212,-86 1508.9212,-122"/>
<text text-anchor="middle" x="1407" y="-99.8" font-family="Times,serif" font-size="14.00" fill="#000000">TileGroupStyleEditorComponent</text>
</g>
<!-- TileGroupStyleEditorComponent&#45;&gt;DejaTilesModule -->
<g id="edge5" class="edge">
<title>TileGroupStyleEditorComponent&#45;&gt;DejaTilesModule</title>
<path fill="none" stroke="#000000" d="M1330.5966,-122.2396C1330.5966,-137.5706 1330.5966,-157 1330.5966,-157 1330.5966,-157 1185.9824,-157 1185.9824,-157"/>
<polygon fill="#000000" stroke="#000000" points="1185.9824,-153.5001 1175.9824,-157 1185.9823,-160.5001 1185.9824,-153.5001"/>
</g>
<!-- DejaTileComponent  -->
<g id="node13" class="node">
<title>DejaTileComponent </title>
<polygon fill="#fb8072" stroke="#000000" points="1355.8073,-252 1222.1927,-252 1222.1927,-216 1355.8073,-216 1355.8073,-252"/>
<text text-anchor="middle" x="1289" y="-229.8" font-family="Times,serif" font-size="14.00" fill="#000000">DejaTileComponent </text>
</g>
<!-- DejaTilesModule&#45;&gt;DejaTileComponent  -->
<g id="edge12" class="edge">
<title>DejaTilesModule&#45;&gt;DejaTileComponent </title>
<path fill="none" stroke="#000000" stroke-dasharray="5,2" d="M1176.3377,-182C1212.1423,-182 1251.4812,-182 1251.4812,-182 1251.4812,-182 1251.4812,-205.8129 1251.4812,-205.8129"/>
<polygon fill="#000000" stroke="#000000" points="1247.9813,-205.8129 1251.4812,-215.8129 1254.9813,-205.813 1247.9813,-205.8129"/>
</g>
<!-- DejaTileGroupComponent  -->
<g id="node14" class="node">
<title>DejaTileGroupComponent </title>
<polygon fill="#fb8072" stroke="#000000" points="1203.5749,-252 1034.4251,-252 1034.4251,-216 1203.5749,-216 1203.5749,-252"/>
<text text-anchor="middle" x="1119" y="-229.8" font-family="Times,serif" font-size="14.00" fill="#000000">DejaTileGroupComponent </text>
</g>
<!-- DejaTilesModule&#45;&gt;DejaTileGroupComponent  -->
<g id="edge13" class="edge">
<title>DejaTilesModule&#45;&gt;DejaTileGroupComponent </title>
<path fill="none" stroke="#000000" stroke-dasharray="5,2" d="M1119,-187.1061C1119,-187.1061 1119,-205.991 1119,-205.991"/>
<polygon fill="#000000" stroke="#000000" points="1115.5001,-205.9909 1119,-215.991 1122.5001,-205.991 1115.5001,-205.9909"/>
</g>
<!-- DejaTilesComponent  -->
<g id="node15" class="node">
<title>DejaTilesComponent </title>
<polygon fill="#fb8072" stroke="#000000" points="1016.752,-252 877.248,-252 877.248,-216 1016.752,-216 1016.752,-252"/>
<text text-anchor="middle" x="947" y="-229.8" font-family="Times,serif" font-size="14.00" fill="#000000">DejaTilesComponent </text>
</g>
<!-- DejaTilesModule&#45;&gt;DejaTilesComponent  -->
<g id="edge14" class="edge">
<title>DejaTilesModule&#45;&gt;DejaTilesComponent </title>
<path fill="none" stroke="#000000" stroke-dasharray="5,2" d="M1061.8409,-182C1030.3457,-182 997.5703,-182 997.5703,-182 997.5703,-182 997.5703,-205.8129 997.5703,-205.8129"/>
<polygon fill="#000000" stroke="#000000" points="994.0704,-205.8129 997.5703,-215.8129 1001.0704,-205.813 994.0704,-205.8129"/>
</g>
<!-- DejaColorSelectorModule -->
<g id="node7" class="node">
<title>DejaColorSelectorModule</title>
<polygon fill="#8dd3c7" stroke="#000000" points="1280.7324,-122 1277.7324,-126 1256.7324,-126 1253.7324,-122 1117.2676,-122 1117.2676,-86 1280.7324,-86 1280.7324,-122"/>
<text text-anchor="middle" x="1199" y="-99.8" font-family="Times,serif" font-size="14.00" fill="#000000">DejaColorSelectorModule</text>
</g>
<!-- DejaColorSelectorModule&#45;&gt;DejaTilesModule -->
<g id="edge6" class="edge">
<title>DejaColorSelectorModule&#45;&gt;DejaTilesModule</title>
<path fill="none" stroke="#000000" d="M1146.5593,-122.1061C1146.5593,-122.1061 1146.5593,-140.991 1146.5593,-140.991"/>
<polygon fill="#000000" stroke="#000000" points="1143.0593,-140.9909 1146.5593,-150.991 1150.0593,-140.991 1143.0593,-140.9909"/>
</g>
<!-- DejaEditorModule -->
<g id="node8" class="node">
<title>DejaEditorModule</title>
<polygon fill="#8dd3c7" stroke="#000000" points="1099.4706,-122 1096.4706,-126 1075.4706,-126 1072.4706,-122 978.5294,-122 978.5294,-86 1099.4706,-86 1099.4706,-122"/>
<text text-anchor="middle" x="1039" y="-99.8" font-family="Times,serif" font-size="14.00" fill="#000000">DejaEditorModule</text>
</g>
<!-- DejaEditorModule&#45;&gt;DejaTilesModule -->
<g id="edge7" class="edge">
<title>DejaEditorModule&#45;&gt;DejaTilesModule</title>
<path fill="none" stroke="#000000" d="M1080.7504,-122.1061C1080.7504,-122.1061 1080.7504,-140.991 1080.7504,-140.991"/>
<polygon fill="#000000" stroke="#000000" points="1077.2504,-140.9909 1080.7504,-150.991 1084.2504,-140.991 1077.2504,-140.9909"/>
</g>
<!-- DejaMouseDragDropModule -->
<g id="node9" class="node">
<title>DejaMouseDragDropModule</title>
<polygon fill="#8dd3c7" stroke="#000000" points="960.3291,-122 957.3291,-126 936.3291,-126 933.3291,-122 779.6709,-122 779.6709,-86 960.3291,-86 960.3291,-122"/>
<text text-anchor="middle" x="870" y="-99.8" font-family="Times,serif" font-size="14.00" fill="#000000">DejaMouseDragDropModule</text>
</g>
<!-- DejaMouseDragDropModule&#45;&gt;DejaTilesModule -->
<g id="edge8" class="edge">
<title>DejaMouseDragDropModule&#45;&gt;DejaTilesModule</title>
<path fill="none" stroke="#000000" d="M918.8943,-122.2396C918.8943,-137.5706 918.8943,-157 918.8943,-157 918.8943,-157 1051.9255,-157 1051.9255,-157"/>
<polygon fill="#000000" stroke="#000000" points="1051.9256,-160.5001 1061.9255,-157 1051.9255,-153.5001 1051.9256,-160.5001"/>
</g>
<!-- DejaNumericStepperModule -->
<g id="node10" class="node">
<title>DejaNumericStepperModule</title>
<polygon fill="#8dd3c7" stroke="#000000" points="761.717,-122 758.717,-126 737.717,-126 734.717,-122 584.283,-122 584.283,-86 761.717,-86 761.717,-122"/>
<text text-anchor="middle" x="673" y="-99.8" font-family="Times,serif" font-size="14.00" fill="#000000">DejaNumericStepperModule</text>
</g>
<!-- DejaNumericStepperModule&#45;&gt;DejaTilesModule -->
<g id="edge9" class="edge">
<title>DejaNumericStepperModule&#45;&gt;DejaTilesModule</title>
<path fill="none" stroke="#000000" d="M673,-122.0336C673,-139.0597 673,-162 673,-162 673,-162 1051.6064,-162 1051.6064,-162"/>
<polygon fill="#000000" stroke="#000000" points="1051.6064,-165.5001 1061.6064,-162 1051.6063,-158.5001 1051.6064,-165.5001"/>
</g>
<!-- DejaOverlayModule -->
<g id="node11" class="node">
<title>DejaOverlayModule</title>
<polygon fill="#8dd3c7" stroke="#000000" points="566.5632,-122 563.5632,-126 542.5632,-126 539.5632,-122 435.4368,-122 435.4368,-86 566.5632,-86 566.5632,-122"/>
<text text-anchor="middle" x="501" y="-99.8" font-family="Times,serif" font-size="14.00" fill="#000000">DejaOverlayModule</text>
</g>
<!-- DejaOverlayModule&#45;&gt;DejaTilesModule -->
<g id="edge10" class="edge">
<title>DejaOverlayModule&#45;&gt;DejaTilesModule</title>
<path fill="none" stroke="#000000" d="M501,-122.2222C501,-140.8285 501,-167 501,-167 501,-167 1051.9678,-167 1051.9678,-167"/>
<polygon fill="#000000" stroke="#000000" points="1051.9678,-170.5001 1061.9678,-167 1051.9677,-163.5001 1051.9678,-170.5001"/>
</g>
<!-- DejaPopupModule -->
<g id="node12" class="node">
<title>DejaPopupModule</title>
<polygon fill="#8dd3c7" stroke="#000000" points="417.759,-122 414.759,-126 393.759,-126 390.759,-122 296.241,-122 296.241,-86 417.759,-86 417.759,-122"/>
<text text-anchor="middle" x="357" y="-99.8" font-family="Times,serif" font-size="14.00" fill="#000000">DejaPopupModule</text>
</g>
<!-- DejaPopupModule&#45;&gt;DejaTilesModule -->
<g id="edge11" class="edge">
<title>DejaPopupModule&#45;&gt;DejaTilesModule</title>
<path fill="none" stroke="#000000" d="M357,-122.2228C357,-142.3652 357,-172 357,-172 357,-172 1051.7262,-172 1051.7262,-172"/>
<polygon fill="#000000" stroke="#000000" points="1051.7262,-175.5001 1061.7262,-172 1051.7261,-168.5001 1051.7262,-175.5001"/>
</g>
<!-- DejaMouseDragDropService -->
<g id="node16" class="node">
<title>DejaMouseDragDropService</title>
<ellipse fill="#fdb462" stroke="#000000" cx="148" cy="-104" rx="123.7963" ry="18"/>
<text text-anchor="middle" x="148" y="-99.8" font-family="Times,serif" font-size="14.00" fill="#000000">DejaMouseDragDropService</text>
</g>
<!-- DejaMouseDragDropService&#45;&gt;DejaTilesModule -->
<g id="edge15" class="edge">
<title>DejaMouseDragDropService&#45;&gt;DejaTilesModule</title>
<path fill="none" stroke="#000000" d="M148,-122.0449C148,-143.6623 148,-177 148,-177 148,-177 1051.8846,-177 1051.8846,-177"/>
<polygon fill="#000000" stroke="#000000" points="1051.8847,-180.5001 1061.8846,-177 1051.8846,-173.5001 1051.8847,-180.5001"/>
</g>
</g>
</svg>
