<?xml version="1.0" encoding="UTF-8" standalone="no"?>
<!DOCTYPE svg PUBLIC "-//W3C//DTD SVG 1.1//EN"
 "http://www.w3.org/Graphics/SVG/1.1/DTD/svg11.dtd">
<!-- Generated by graphviz version 2.40.1 (20161225.0304)
 -->
<!-- Title: dependencies Pages: 1 -->
<svg width="1924pt" height="284pt"
 viewBox="0.00 0.00 1924.00 284.00" xmlns="http://www.w3.org/2000/svg" xmlns:xlink="http://www.w3.org/1999/xlink">
<g id="graph0" class="graph" transform="scale(1 1) rotate(0) translate(4 280)">
<title>dependencies</title>
<polygon fill="#ffffff" stroke="transparent" points="-4,4 -4,-280 1920,-280 1920,4 -4,4"/>
<text text-anchor="start" x="937.0091" y="-42.4" font-family="sans-serif" font-weight="bold" font-size="14.00" fill="#000000">Legend</text>
<polygon fill="#ffffb3" stroke="transparent" points="724,-10 724,-30 744,-30 744,-10 724,-10"/>
<text text-anchor="start" x="747.629" y="-15.4" font-family="sans-serif" font-size="14.00" fill="#000000"> &#160;Declarations</text>
<polygon fill="#8dd3c7" stroke="transparent" points="837,-10 837,-30 857,-30 857,-10 837,-10"/>
<text text-anchor="start" x="860.7251" y="-15.4" font-family="sans-serif" font-size="14.00" fill="#000000"> &#160;Module</text>
<polygon fill="#80b1d3" stroke="transparent" points="923,-10 923,-30 943,-30 943,-10 923,-10"/>
<text text-anchor="start" x="946.7812" y="-15.4" font-family="sans-serif" font-size="14.00" fill="#000000"> &#160;Bootstrap</text>
<polygon fill="#fdb462" stroke="transparent" points="1020,-10 1020,-30 1040,-30 1040,-10 1020,-10"/>
<text text-anchor="start" x="1043.6732" y="-15.4" font-family="sans-serif" font-size="14.00" fill="#000000"> &#160;Providers</text>
<polygon fill="#fb8072" stroke="transparent" points="1116,-10 1116,-30 1136,-30 1136,-10 1116,-10"/>
<text text-anchor="start" x="1139.7258" y="-15.4" font-family="sans-serif" font-size="14.00" fill="#000000"> &#160;Exports</text>
<g id="clust1" class="cluster">
<title>cluster_DejaTilesModule</title>
<polygon fill="none" stroke="#000000" stroke-dasharray="1,5" points="8,-70 8,-268 1908,-268 1908,-70 8,-70"/>
</g>
<g id="clust2" class="cluster">
<title>cluster_DejaTilesModule_declarations</title>
<polygon fill="none" stroke="#000000" points="1235,-78 1235,-130 1900,-130 1900,-78 1235,-78"/>
</g>
<g id="clust7" class="cluster">
<title>cluster_DejaTilesModule_imports</title>
<polygon fill="none" stroke="#000000" points="448,-78 448,-130 1227,-130 1227,-78 448,-78"/>
</g>
<g id="clust8" class="cluster">
<title>cluster_DejaTilesModule_exports</title>
<polygon fill="none" stroke="#000000" points="777,-208 777,-260 1272,-260 1272,-208 777,-208"/>
</g>
<g id="clust10" class="cluster">
<title>cluster_DejaTilesModule_providers</title>
<polygon fill="none" stroke="#000000" points="16,-78 16,-130 440,-130 440,-78 16,-78"/>
</g>
<!-- DejaTileComponent -->
<g id="node1" class="node">
<title>DejaTileComponent</title>
<polygon fill="#ffffb3" stroke="#000000" points="1892.3076,-122 1761.6924,-122 1761.6924,-86 1892.3076,-86 1892.3076,-122"/>
<text text-anchor="middle" x="1827" y="-99.8" font-family="Times,serif" font-size="14.00" fill="#000000">DejaTileComponent</text>
</g>
<!-- DejaTilesModule -->
<g id="node5" class="node">
<title>DejaTilesModule</title>
<polygon fill="#8dd3c7" stroke="#000000" points="1098.9692,-187 1095.9692,-191 1074.9692,-191 1071.9692,-187 985.0308,-187 985.0308,-151 1098.9692,-151 1098.9692,-187"/>
<text text-anchor="middle" x="1042" y="-164.8" font-family="Times,serif" font-size="14.00" fill="#000000">DejaTilesModule</text>
</g>
<!-- DejaTileComponent&#45;&gt;DejaTilesModule -->
<g id="edge1" class="edge">
<title>DejaTileComponent&#45;&gt;DejaTilesModule</title>
<path fill="none" stroke="#000000" d="M1827,-122.2843C1827,-143.3211 1827,-175 1827,-175 1827,-175 1109.0876,-175 1109.0876,-175"/>
<polygon fill="#000000" stroke="#000000" points="1109.0876,-171.5001 1099.0876,-175 1109.0876,-178.5001 1109.0876,-171.5001"/>
</g>
<!-- DejaTilesComponent -->
<g id="node2" class="node">
<title>DejaTilesComponent</title>
<polygon fill="#ffffb3" stroke="#000000" points="1743.752,-122 1608.248,-122 1608.248,-86 1743.752,-86 1743.752,-122"/>
<text text-anchor="middle" x="1676" y="-99.8" font-family="Times,serif" font-size="14.00" fill="#000000">DejaTilesComponent</text>
</g>
<!-- DejaTilesComponent&#45;&gt;DejaTilesModule -->
<g id="edge2" class="edge">
<title>DejaTilesComponent&#45;&gt;DejaTilesModule</title>
<path fill="none" stroke="#000000" d="M1676,-122.1061C1676,-141.3391 1676,-169 1676,-169 1676,-169 1109.1011,-169 1109.1011,-169"/>
<polygon fill="#000000" stroke="#000000" points="1109.1011,-165.5001 1099.1011,-169 1109.101,-172.5001 1109.1011,-165.5001"/>
</g>
<!-- DejaTileGroupComponent -->
<g id="node3" class="node">
<title>DejaTileGroupComponent</title>
<polygon fill="#ffffb3" stroke="#000000" points="1590.0744,-122 1423.9256,-122 1423.9256,-86 1590.0744,-86 1590.0744,-122"/>
<text text-anchor="middle" x="1507" y="-99.8" font-family="Times,serif" font-size="14.00" fill="#000000">DejaTileGroupComponent</text>
</g>
<!-- DejaTileGroupComponent&#45;&gt;DejaTilesModule -->
<g id="edge3" class="edge">
<title>DejaTileGroupComponent&#45;&gt;DejaTilesModule</title>
<path fill="none" stroke="#000000" d="M1507,-122.0225C1507,-139.3734 1507,-163 1507,-163 1507,-163 1109.0181,-163 1109.0181,-163"/>
<polygon fill="#000000" stroke="#000000" points="1109.0182,-159.5001 1099.0181,-163 1109.0181,-166.5001 1109.0182,-159.5001"/>
</g>
<!-- DejaTilePositionDirective -->
<g id="node4" class="node">
<title>DejaTilePositionDirective</title>
<polygon fill="#ffffb3" stroke="#000000" points="1405.4566,-122 1242.5434,-122 1242.5434,-86 1405.4566,-86 1405.4566,-122"/>
<text text-anchor="middle" x="1324" y="-99.8" font-family="Times,serif" font-size="14.00" fill="#000000">DejaTilePositionDirective</text>
</g>
<!-- DejaTilePositionDirective&#45;&gt;DejaTilesModule -->
<g id="edge4" class="edge">
<title>DejaTilePositionDirective&#45;&gt;DejaTilesModule</title>
<path fill="none" stroke="#000000" d="M1253.2127,-122.2396C1253.2127,-137.5706 1253.2127,-157 1253.2127,-157 1253.2127,-157 1109.1572,-157 1109.1572,-157"/>
<polygon fill="#000000" stroke="#000000" points="1109.1572,-153.5001 1099.1572,-157 1109.1571,-160.5001 1109.1572,-153.5001"/>
</g>
<!-- DejaTileComponent  -->
<g id="node11" class="node">
<title>DejaTileComponent </title>
<polygon fill="#fb8072" stroke="#000000" points="1263.8073,-252 1130.1927,-252 1130.1927,-216 1263.8073,-216 1263.8073,-252"/>
<text text-anchor="middle" x="1197" y="-229.8" font-family="Times,serif" font-size="14.00" fill="#000000">DejaTileComponent </text>
</g>
<!-- DejaTilesModule&#45;&gt;DejaTileComponent  -->
<g id="edge10" class="edge">
<title>DejaTilesModule&#45;&gt;DejaTileComponent </title>
<path fill="none" stroke="#000000" stroke-dasharray="5,2" d="M1099.3307,-181C1135.1309,-181 1174.4651,-181 1174.4651,-181 1174.4651,-181 1174.4651,-205.7604 1174.4651,-205.7604"/>
<polygon fill="#000000" stroke="#000000" points="1170.9652,-205.7604 1174.4651,-215.7604 1177.9652,-205.7604 1170.9652,-205.7604"/>
</g>
<!-- DejaTilesComponent  -->
<g id="node12" class="node">
<title>DejaTilesComponent </title>
<polygon fill="#fb8072" stroke="#000000" points="1111.752,-252 972.248,-252 972.248,-216 1111.752,-216 1111.752,-252"/>
<text text-anchor="middle" x="1042" y="-229.8" font-family="Times,serif" font-size="14.00" fill="#000000">DejaTilesComponent </text>
</g>
<!-- DejaTilesModule&#45;&gt;DejaTilesComponent  -->
<g id="edge11" class="edge">
<title>DejaTilesModule&#45;&gt;DejaTilesComponent </title>
<path fill="none" stroke="#000000" stroke-dasharray="5,2" d="M1042,-187.1061C1042,-187.1061 1042,-205.991 1042,-205.991"/>
<polygon fill="#000000" stroke="#000000" points="1038.5001,-205.9909 1042,-215.991 1045.5001,-205.991 1038.5001,-205.9909"/>
</g>
<!-- DejaTileGroupComponent  -->
<g id="node13" class="node">
<title>DejaTileGroupComponent </title>
<polygon fill="#fb8072" stroke="#000000" points="954.5749,-252 785.4251,-252 785.4251,-216 954.5749,-216 954.5749,-252"/>
<text text-anchor="middle" x="870" y="-229.8" font-family="Times,serif" font-size="14.00" fill="#000000">DejaTileGroupComponent </text>
</g>
<!-- DejaTilesModule&#45;&gt;DejaTileGroupComponent  -->
<g id="edge12" class="edge">
<title>DejaTilesModule&#45;&gt;DejaTileGroupComponent </title>
<path fill="none" stroke="#000000" stroke-dasharray="5,2" d="M984.9575,-181C938.376,-181 880.206,-181 880.206,-181 880.206,-181 880.206,-205.7604 880.206,-205.7604"/>
<polygon fill="#000000" stroke="#000000" points="876.7061,-205.7604 880.206,-215.7604 883.7061,-205.7604 876.7061,-205.7604"/>
</g>
<!-- CommonModule -->
<g id="node6" class="node">
<title>CommonModule</title>
<polygon fill="#8dd3c7" stroke="#000000" points="1218.6681,-122 1215.6681,-126 1194.6681,-126 1191.6681,-122 1107.3319,-122 1107.3319,-86 1218.6681,-86 1218.6681,-122"/>
<text text-anchor="middle" x="1163" y="-99.8" font-family="Times,serif" font-size="14.00" fill="#000000">CommonModule</text>
</g>
<!-- CommonModule&#45;&gt;DejaTilesModule -->
<g id="edge5" class="edge">
<title>CommonModule&#45;&gt;DejaTilesModule</title>
<path fill="none" stroke="#000000" d="M1107.2417,-104C1099.6069,-104 1094.3243,-104 1094.3243,-104 1094.3243,-104 1094.3243,-140.8939 1094.3243,-140.8939"/>
<polygon fill="#000000" stroke="#000000" points="1090.8244,-140.8938 1094.3243,-150.8939 1097.8244,-140.8939 1090.8244,-140.8938"/>
</g>
<!-- FormsModule -->
<g id="node7" class="node">
<title>FormsModule</title>
<polygon fill="#8dd3c7" stroke="#000000" points="1089.8288,-122 1086.8288,-126 1065.8288,-126 1062.8288,-122 994.1712,-122 994.1712,-86 1089.8288,-86 1089.8288,-122"/>
<text text-anchor="middle" x="1042" y="-99.8" font-family="Times,serif" font-size="14.00" fill="#000000">FormsModule</text>
</g>
<!-- FormsModule&#45;&gt;DejaTilesModule -->
<g id="edge6" class="edge">
<title>FormsModule&#45;&gt;DejaTilesModule</title>
<path fill="none" stroke="#000000" d="M1042,-122.1061C1042,-122.1061 1042,-140.991 1042,-140.991"/>
<polygon fill="#000000" stroke="#000000" points="1038.5001,-140.9909 1042,-150.991 1045.5001,-140.991 1038.5001,-140.9909"/>
</g>
<!-- MdProgressSpinnerModule -->
<g id="node8" class="node">
<title>MdProgressSpinnerModule</title>
<polygon fill="#8dd3c7" stroke="#000000" points="976.2506,-122 973.2506,-126 952.2506,-126 949.2506,-122 805.7494,-122 805.7494,-86 976.2506,-86 976.2506,-122"/>
<text text-anchor="middle" x="891" y="-99.8" font-family="Times,serif" font-size="14.00" fill="#000000">MdProgressSpinnerModule</text>
</g>
<!-- MdProgressSpinnerModule&#45;&gt;DejaTilesModule -->
<g id="edge7" class="edge">
<title>MdProgressSpinnerModule&#45;&gt;DejaTilesModule</title>
<path fill="none" stroke="#000000" d="M976.3678,-104C984.4344,-104 989.6757,-104 989.6757,-104 989.6757,-104 989.6757,-140.8939 989.6757,-140.8939"/>
<polygon fill="#000000" stroke="#000000" points="986.1757,-140.8938 989.6757,-150.8939 993.1757,-140.8939 986.1757,-140.8938"/>
</g>
<!-- DejaMouseDragDropModule -->
<g id="node9" class="node">
<title>DejaMouseDragDropModule</title>
<polygon fill="#8dd3c7" stroke="#000000" points="787.3291,-122 784.3291,-126 763.3291,-126 760.3291,-122 606.6709,-122 606.6709,-86 787.3291,-86 787.3291,-122"/>
<text text-anchor="middle" x="697" y="-99.8" font-family="Times,serif" font-size="14.00" fill="#000000">DejaMouseDragDropModule</text>
</g>
<!-- DejaMouseDragDropModule&#45;&gt;DejaTilesModule -->
<g id="edge8" class="edge">
<title>DejaMouseDragDropModule&#45;&gt;DejaTilesModule</title>
<path fill="none" stroke="#000000" d="M695.8992,-122.2396C695.8992,-137.5706 695.8992,-157 695.8992,-157 695.8992,-157 974.8485,-157 974.8485,-157"/>
<polygon fill="#000000" stroke="#000000" points="974.8485,-160.5001 984.8485,-157 974.8484,-153.5001 974.8485,-160.5001"/>
</g>
<!-- DejaEditableModule -->
<g id="node10" class="node">
<title>DejaEditableModule</title>
<polygon fill="#8dd3c7" stroke="#000000" points="588.1303,-122 585.1303,-126 564.1303,-126 561.1303,-122 455.8697,-122 455.8697,-86 588.1303,-86 588.1303,-122"/>
<text text-anchor="middle" x="522" y="-99.8" font-family="Times,serif" font-size="14.00" fill="#000000">DejaEditableModule</text>
</g>
<!-- DejaEditableModule&#45;&gt;DejaTilesModule -->
<g id="edge9" class="edge">
<title>DejaEditableModule&#45;&gt;DejaTilesModule</title>
<path fill="none" stroke="#000000" d="M522,-122.0225C522,-139.3734 522,-163 522,-163 522,-163 974.8634,-163 974.8634,-163"/>
<polygon fill="#000000" stroke="#000000" points="974.8635,-166.5001 984.8634,-163 974.8634,-159.5001 974.8635,-166.5001"/>
</g>
<!-- CloningService -->
<g id="node14" class="node">
<title>CloningService</title>
<ellipse fill="#fdb462" stroke="#000000" cx="361" cy="-104" rx="71.2268" ry="18"/>
<text text-anchor="middle" x="361" y="-99.8" font-family="Times,serif" font-size="14.00" fill="#000000">CloningService</text>
</g>
<!-- CloningService&#45;&gt;DejaTilesModule -->
<g id="edge13" class="edge">
<title>CloningService&#45;&gt;DejaTilesModule</title>
<path fill="none" stroke="#000000" d="M361,-122.1061C361,-141.3391 361,-169 361,-169 361,-169 974.8178,-169 974.8178,-169"/>
<polygon fill="#000000" stroke="#000000" points="974.8178,-172.5001 984.8178,-169 974.8177,-165.5001 974.8178,-172.5001"/>
</g>
<!-- DejaMouseDragDropService -->
<g id="node15" class="node">
<title>DejaMouseDragDropService</title>
<ellipse fill="#fdb462" stroke="#000000" cx="148" cy="-104" rx="123.7963" ry="18"/>
<text text-anchor="middle" x="148" y="-99.8" font-family="Times,serif" font-size="14.00" fill="#000000">DejaMouseDragDropService</text>
</g>
<!-- DejaMouseDragDropService&#45;&gt;DejaTilesModule -->
<g id="edge14" class="edge">
<title>DejaMouseDragDropService&#45;&gt;DejaTilesModule</title>
<path fill="none" stroke="#000000" d="M148,-122.2843C148,-143.3211 148,-175 148,-175 148,-175 974.7163,-175 974.7163,-175"/>
<polygon fill="#000000" stroke="#000000" points="974.7163,-178.5001 984.7163,-175 974.7163,-171.5001 974.7163,-178.5001"/>
</g>
</g>
</svg>
