<?xml version="1.0" encoding="UTF-8" standalone="no"?>
<!DOCTYPE svg PUBLIC "-//W3C//DTD SVG 1.1//EN"
 "http://www.w3.org/Graphics/SVG/1.1/DTD/svg11.dtd">
<!-- Generated by graphviz version 2.40.1 (20161225.0304)
 -->
<!-- Title: dependencies Pages: 1 -->
<svg width="504pt" height="284pt"
 viewBox="0.00 0.00 504.00 284.00" xmlns="http://www.w3.org/2000/svg" xmlns:xlink="http://www.w3.org/1999/xlink">
<g id="graph0" class="graph" transform="scale(1 1) rotate(0) translate(4 280)">
<title>dependencies</title>
<polygon fill="#ffffff" stroke="transparent" points="-4,4 -4,-280 500,-280 500,4 -4,4"/>
<text text-anchor="start" x="227.0091" y="-42.4" font-family="sans-serif" font-weight="bold" font-size="14.00" fill="#000000">Legend</text>
<polygon fill="#ffffb3" stroke="transparent" points="14,-10 14,-30 34,-30 34,-10 14,-10"/>
<text text-anchor="start" x="37.629" y="-15.4" font-family="sans-serif" font-size="14.00" fill="#000000"> &#160;Declarations</text>
<polygon fill="#8dd3c7" stroke="transparent" points="127,-10 127,-30 147,-30 147,-10 127,-10"/>
<text text-anchor="start" x="150.7251" y="-15.4" font-family="sans-serif" font-size="14.00" fill="#000000"> &#160;Module</text>
<polygon fill="#80b1d3" stroke="transparent" points="213,-10 213,-30 233,-30 233,-10 213,-10"/>
<text text-anchor="start" x="236.7812" y="-15.4" font-family="sans-serif" font-size="14.00" fill="#000000"> &#160;Bootstrap</text>
<polygon fill="#fdb462" stroke="transparent" points="310,-10 310,-30 330,-30 330,-10 310,-10"/>
<text text-anchor="start" x="333.6732" y="-15.4" font-family="sans-serif" font-size="14.00" fill="#000000"> &#160;Providers</text>
<polygon fill="#fb8072" stroke="transparent" points="406,-10 406,-30 426,-30 426,-10 406,-10"/>
<text text-anchor="start" x="429.7258" y="-15.4" font-family="sans-serif" font-size="14.00" fill="#000000"> &#160;Exports</text>
<g id="clust1" class="cluster">
<title>cluster_DejaOverlayModule</title>
<polygon fill="none" stroke="#000000" stroke-dasharray="1,5" points="96,-70 96,-268 400,-268 400,-70 96,-70"/>
</g>
<g id="clust2" class="cluster">
<title>cluster_DejaOverlayModule_declarations</title>
<polygon fill="none" stroke="#000000" points="224,-78 224,-130 392,-130 392,-78 224,-78"/>
</g>
<g id="clust4" class="cluster">
<title>cluster_DejaOverlayModule_imports</title>
<polygon fill="none" stroke="#000000" points="104,-78 104,-130 216,-130 216,-78 104,-78"/>
</g>
<g id="clust5" class="cluster">
<title>cluster_DejaOverlayModule_exports</title>
<polygon fill="none" stroke="#000000" points="162,-208 162,-260 334,-260 334,-208 162,-208"/>
</g>
<!-- DejaOverlayComponent -->
<g id="node1" class="node">
<title>DejaOverlayComponent</title>
<polygon fill="#ffffb3" stroke="#000000" points="384.3459,-122 231.6541,-122 231.6541,-86 384.3459,-86 384.3459,-122"/>
<text text-anchor="middle" x="308" y="-99.8" font-family="Times,serif" font-size="14.00" fill="#000000">DejaOverlayComponent</text>
</g>
<!-- DejaOverlayModule -->
<g id="node2" class="node">
<title>DejaOverlayModule</title>
<polygon fill="#8dd3c7" stroke="#000000" points="313.5632,-187 310.5632,-191 289.5632,-191 286.5632,-187 182.4368,-187 182.4368,-151 313.5632,-151 313.5632,-187"/>
<text text-anchor="middle" x="248" y="-164.8" font-family="Times,serif" font-size="14.00" fill="#000000">DejaOverlayModule</text>
</g>
<!-- DejaOverlayComponent&#45;&gt;DejaOverlayModule -->
<g id="edge1" class="edge">
<title>DejaOverlayComponent&#45;&gt;DejaOverlayModule</title>
<path fill="none" stroke="#000000" d="M272.5544,-122.1061C272.5544,-122.1061 272.5544,-140.991 272.5544,-140.991"/>
<polygon fill="#000000" stroke="#000000" points="269.0544,-140.9909 272.5544,-150.991 276.0544,-140.991 269.0544,-140.9909"/>
</g>
<!-- DejaOverlayComponent  -->
<g id="node4" class="node">
<title>DejaOverlayComponent </title>
<polygon fill="#fb8072" stroke="#000000" points="326.3462,-252 169.6538,-252 169.6538,-216 326.3462,-216 326.3462,-252"/>
<text text-anchor="middle" x="248" y="-229.8" font-family="Times,serif" font-size="14.00" fill="#000000">DejaOverlayComponent </text>
</g>
<!-- DejaOverlayModule&#45;&gt;DejaOverlayComponent  -->
<g id="edge3" class="edge">
<title>DejaOverlayModule&#45;&gt;DejaOverlayComponent </title>
<path fill="none" stroke="#000000" stroke-dasharray="5,2" d="M248,-187.1061C248,-187.1061 248,-205.991 248,-205.991"/>
<polygon fill="#000000" stroke="#000000" points="244.5001,-205.9909 248,-215.991 251.5001,-205.991 244.5001,-205.9909"/>
</g>
<!-- MediaModule -->
<g id="node3" class="node">
<title>MediaModule</title>
<polygon fill="#8dd3c7" stroke="#000000" points="207.8147,-122 204.8147,-126 183.8147,-126 180.8147,-122 112.1853,-122 112.1853,-86 207.8147,-86 207.8147,-122"/>
<text text-anchor="middle" x="160" y="-99.8" font-family="Times,serif" font-size="14.00" fill="#000000">MediaModule</text>
</g>
<!-- MediaModule&#45;&gt;DejaOverlayModule -->
<g id="edge2" class="edge">
<title>MediaModule&#45;&gt;DejaOverlayModule</title>
<path fill="none" stroke="#000000" d="M195.0628,-122.1061C195.0628,-122.1061 195.0628,-140.991 195.0628,-140.991"/>
<polygon fill="#000000" stroke="#000000" points="191.5628,-140.9909 195.0628,-150.991 198.5628,-140.991 191.5628,-140.9909"/>
</g>
</g>
</svg>
