<?xml version="1.0" encoding="UTF-8" standalone="no"?>
<!DOCTYPE svg PUBLIC "-//W3C//DTD SVG 1.1//EN"
 "http://www.w3.org/Graphics/SVG/1.1/DTD/svg11.dtd">
<!-- Generated by graphviz version 2.40.1 (20161225.0304)
 -->
<!-- Title: dependencies Pages: 1 -->
<svg width="504pt" height="396pt"
 viewBox="0.00 0.00 504.00 395.59" xmlns="http://www.w3.org/2000/svg" xmlns:xlink="http://www.w3.org/1999/xlink">
<g id="graph0" class="graph" transform="scale(1 1) rotate(0) translate(4 391.5901)">
<title>dependencies</title>
<polygon fill="#ffffff" stroke="transparent" points="-4,4 -4,-391.5901 500,-391.5901 500,4 -4,4"/>
<text text-anchor="start" x="227.0091" y="-42.4" font-family="sans-serif" font-weight="bold" font-size="14.00" fill="#000000">Legend</text>
<polygon fill="#ffffb3" stroke="transparent" points="14,-10 14,-30 34,-30 34,-10 14,-10"/>
<text text-anchor="start" x="37.629" y="-15.4" font-family="sans-serif" font-size="14.00" fill="#000000"> &#160;Declarations</text>
<polygon fill="#8dd3c7" stroke="transparent" points="127,-10 127,-30 147,-30 147,-10 127,-10"/>
<text text-anchor="start" x="150.7251" y="-15.4" font-family="sans-serif" font-size="14.00" fill="#000000"> &#160;Module</text>
<polygon fill="#80b1d3" stroke="transparent" points="213,-10 213,-30 233,-30 233,-10 213,-10"/>
<text text-anchor="start" x="236.7812" y="-15.4" font-family="sans-serif" font-size="14.00" fill="#000000"> &#160;Bootstrap</text>
<polygon fill="#fdb462" stroke="transparent" points="310,-10 310,-30 330,-30 330,-10 310,-10"/>
<text text-anchor="start" x="333.6732" y="-15.4" font-family="sans-serif" font-size="14.00" fill="#000000"> &#160;Providers</text>
<polygon fill="#fb8072" stroke="transparent" points="406,-10 406,-30 426,-30 426,-10 406,-10"/>
<text text-anchor="start" x="429.7258" y="-15.4" font-family="sans-serif" font-size="14.00" fill="#000000"> &#160;Exports</text>
<g id="clust1" class="cluster">
<title>cluster_DejaEditorModule</title>
<polygon fill="none" stroke="#000000" stroke-dasharray="1,5" points="67,-70 67,-379.5901 429,-379.5901 429,-70 67,-70"/>
</g>
<g id="clust2" class="cluster">
<title>cluster_DejaEditorModule_declarations</title>
<polygon fill="none" stroke="#000000" points="263,-189.5901 263,-241.5901 421,-241.5901 421,-189.5901 263,-189.5901"/>
</g>
<g id="clust3" class="cluster">
<title>cluster_DejaEditorModule_DejaEditorComponent_providers</title>
<polygon fill="none" stroke="#000000" points="223,-78 223,-176.5901 421,-176.5901 421,-78 223,-78"/>
</g>
<g id="clust5" class="cluster">
<title>cluster_DejaEditorModule_exports</title>
<polygon fill="none" stroke="#000000" points="171,-319.5901 171,-371.5901 333,-371.5901 333,-319.5901 171,-319.5901"/>
</g>
<g id="clust7" class="cluster">
<title>cluster_DejaEditorModule_providers</title>
<polygon fill="none" stroke="#000000" points="75,-189.5901 75,-241.5901 255,-241.5901 255,-189.5901 75,-189.5901"/>
</g>
<!-- DejaEditorComponent -->
<g id="node1" class="node">
<title>DejaEditorComponent</title>
<polygon fill="#ffffb3" stroke="#000000" points="413.2534,-233.5901 270.7466,-233.5901 270.7466,-197.5901 413.2534,-197.5901 413.2534,-233.5901"/>
<text text-anchor="middle" x="342" y="-211.3901" font-family="Times,serif" font-size="14.00" fill="#000000">DejaEditorComponent</text>
</g>
<!-- DejaEditorModule -->
<g id="node2" class="node">
<title>DejaEditorModule</title>
<polygon fill="#8dd3c7" stroke="#000000" points="312.4706,-298.5901 309.4706,-302.5901 288.4706,-302.5901 285.4706,-298.5901 191.5294,-298.5901 191.5294,-262.5901 312.4706,-262.5901 312.4706,-298.5901"/>
<text text-anchor="middle" x="252" y="-276.3901" font-family="Times,serif" font-size="14.00" fill="#000000">DejaEditorModule</text>
</g>
<!-- DejaEditorComponent&#45;&gt;DejaEditorModule -->
<g id="edge1" class="edge">
<title>DejaEditorComponent&#45;&gt;DejaEditorModule</title>
<path fill="none" stroke="#000000" d="M291.5544,-233.6962C291.5544,-233.6962 291.5544,-252.581 291.5544,-252.581"/>
<polygon fill="#000000" stroke="#000000" points="288.0544,-252.581 291.5544,-262.581 295.0544,-252.5811 288.0544,-252.581"/>
</g>
<!-- DejaEditorComponent  -->
<g id="node4" class="node">
<title>DejaEditorComponent </title>
<polygon fill="#fb8072" stroke="#000000" points="325.2534,-363.5901 178.7466,-363.5901 178.7466,-327.5901 325.2534,-327.5901 325.2534,-363.5901"/>
<text text-anchor="middle" x="252" y="-341.3901" font-family="Times,serif" font-size="14.00" fill="#000000">DejaEditorComponent </text>
</g>
<!-- DejaEditorModule&#45;&gt;DejaEditorComponent  -->
<g id="edge3" class="edge">
<title>DejaEditorModule&#45;&gt;DejaEditorComponent </title>
<path fill="none" stroke="#000000" stroke-dasharray="5,2" d="M252,-298.6962C252,-298.6962 252,-317.581 252,-317.581"/>
<polygon fill="#000000" stroke="#000000" points="248.5001,-317.581 252,-327.581 255.5001,-317.5811 248.5001,-317.581"/>
</g>
<!-- {
 &#160;&#160;&#160;: , : (() =&gt; ), : true
} -->
<g id="node3" class="node">
<title>{
 &#160;&#160;&#160;: , : (() =&gt; ), : true
}</title>
<ellipse fill="#fdb462" stroke="#000000" cx="322" cy="-127.295" rx="91.4557" ry="41.0911"/>
<text text-anchor="middle" x="322" y="-139.895" font-family="Times,serif" font-size="14.00" fill="#000000">{</text>
<text text-anchor="middle" x="322" y="-123.095" font-family="Times,serif" font-size="14.00" fill="#000000"> &#160;&#160;&#160;: , : (() =&gt; ), : true</text>
<text text-anchor="middle" x="322" y="-106.295" font-family="Times,serif" font-size="14.00" fill="#000000">}</text>
</g>
<!-- {
 &#160;&#160;&#160;: , : (() =&gt; ), : true
}&#45;&gt;DejaEditorComponent -->
<g id="edge2" class="edge">
<title>{
 &#160;&#160;&#160;: , : (() =&gt; ), : true
}&#45;&gt;DejaEditorComponent</title>
<path fill="none" stroke="#000000" d="M342,-167.8247C342,-167.8247 342,-187.3455 342,-187.3455"/>
<polygon fill="#000000" stroke="#000000" points="338.5001,-187.3455 342,-197.3455 345.5001,-187.3455 338.5001,-187.3455"/>
</g>
<!-- DejaEditorService -->
<g id="node5" class="node">
<title>DejaEditorService</title>
<ellipse fill="#fdb462" stroke="#000000" cx="165" cy="-215.5901" rx="82.2179" ry="18"/>
<text text-anchor="middle" x="165" y="-211.3901" font-family="Times,serif" font-size="14.00" fill="#000000">DejaEditorService</text>
</g>
<!-- DejaEditorService&#45;&gt;DejaEditorModule -->
<g id="edge4" class="edge">
<title>DejaEditorService&#45;&gt;DejaEditorModule</title>
<path fill="none" stroke="#000000" d="M219.4368,-229.3749C219.4368,-229.3749 219.4368,-252.1375 219.4368,-252.1375"/>
<polygon fill="#000000" stroke="#000000" points="215.9369,-252.1375 219.4368,-262.1375 222.9369,-252.1376 215.9369,-252.1375"/>
</g>
</g>
</svg>
