<?xml version="1.0" encoding="UTF-8" standalone="no"?>
<!DOCTYPE svg PUBLIC "-//W3C//DTD SVG 1.1//EN"
 "http://www.w3.org/Graphics/SVG/1.1/DTD/svg11.dtd">
<!-- Generated by graphviz version 2.40.1 (20161225.0304)
 -->
<!-- Title: dependencies Pages: 1 -->
<svg width="504pt" height="284pt"
 viewBox="0.00 0.00 504.00 284.00" xmlns="http://www.w3.org/2000/svg" xmlns:xlink="http://www.w3.org/1999/xlink">
<g id="graph0" class="graph" transform="scale(1 1) rotate(0) translate(4 280)">
<title>dependencies</title>
<polygon fill="#ffffff" stroke="transparent" points="-4,4 -4,-280 500,-280 500,4 -4,4"/>
<text text-anchor="start" x="227.0091" y="-42.4" font-family="sans-serif" font-weight="bold" font-size="14.00" fill="#000000">Legend</text>
<polygon fill="#ffffb3" stroke="transparent" points="14,-10 14,-30 34,-30 34,-10 14,-10"/>
<text text-anchor="start" x="37.629" y="-15.4" font-family="sans-serif" font-size="14.00" fill="#000000"> &#160;Declarations</text>
<polygon fill="#8dd3c7" stroke="transparent" points="127,-10 127,-30 147,-30 147,-10 127,-10"/>
<text text-anchor="start" x="150.7251" y="-15.4" font-family="sans-serif" font-size="14.00" fill="#000000"> &#160;Module</text>
<polygon fill="#80b1d3" stroke="transparent" points="213,-10 213,-30 233,-30 233,-10 213,-10"/>
<text text-anchor="start" x="236.7812" y="-15.4" font-family="sans-serif" font-size="14.00" fill="#000000"> &#160;Bootstrap</text>
<polygon fill="#fdb462" stroke="transparent" points="310,-10 310,-30 330,-30 330,-10 310,-10"/>
<text text-anchor="start" x="333.6732" y="-15.4" font-family="sans-serif" font-size="14.00" fill="#000000"> &#160;Providers</text>
<polygon fill="#fb8072" stroke="transparent" points="406,-10 406,-30 426,-30 426,-10 406,-10"/>
<text text-anchor="start" x="429.7258" y="-15.4" font-family="sans-serif" font-size="14.00" fill="#000000"> &#160;Exports</text>
<g id="clust1" class="cluster">
<title>cluster_DejaRangeModule</title>
<polygon fill="none" stroke="#000000" stroke-dasharray="1,5" points="30,-70 30,-268 466,-268 466,-70 30,-70"/>
</g>
<g id="clust2" class="cluster">
<title>cluster_DejaRangeModule_declarations</title>
<polygon fill="none" stroke="#000000" points="298,-78 298,-130 458,-130 458,-78 298,-78"/>
</g>
<g id="clust4" class="cluster">
<title>cluster_DejaRangeModule_imports</title>
<polygon fill="none" stroke="#000000" points="38,-78 38,-130 290,-130 290,-78 38,-78"/>
</g>
<g id="clust5" class="cluster">
<title>cluster_DejaRangeModule_exports</title>
<polygon fill="none" stroke="#000000" points="144,-208 144,-260 308,-260 308,-208 144,-208"/>
</g>
<!-- DejaRangeComponent -->
<g id="node1" class="node">
<title>DejaRangeComponent</title>
<polygon fill="#ffffb3" stroke="#000000" points="449.5254,-122 306.4746,-122 306.4746,-86 449.5254,-86 449.5254,-122"/>
<text text-anchor="middle" x="378" y="-99.8" font-family="Times,serif" font-size="14.00" fill="#000000">DejaRangeComponent</text>
</g>
<!-- DejaRangeModule -->
<g id="node2" class="node">
<title>DejaRangeModule</title>
<polygon fill="#8dd3c7" stroke="#000000" points="286.7423,-187 283.7423,-191 262.7423,-191 259.7423,-187 165.2577,-187 165.2577,-151 286.7423,-151 286.7423,-187"/>
<text text-anchor="middle" x="226" y="-164.8" font-family="Times,serif" font-size="14.00" fill="#000000">DejaRangeModule</text>
</g>
<!-- DejaRangeComponent&#45;&gt;DejaRangeModule -->
<g id="edge1" class="edge">
<title>DejaRangeComponent&#45;&gt;DejaRangeModule</title>
<path fill="none" stroke="#000000" d="M378,-122.1061C378,-141.3391 378,-169 378,-169 378,-169 296.9484,-169 296.9484,-169"/>
<polygon fill="#000000" stroke="#000000" points="296.9484,-165.5001 286.9484,-169 296.9484,-172.5001 296.9484,-165.5001"/>
</g>
<!-- DejaRangeComponent  -->
<g id="node5" class="node">
<title>DejaRangeComponent </title>
<polygon fill="#fb8072" stroke="#000000" points="299.5246,-252 152.4754,-252 152.4754,-216 299.5246,-216 299.5246,-252"/>
<text text-anchor="middle" x="226" y="-229.8" font-family="Times,serif" font-size="14.00" fill="#000000">DejaRangeComponent </text>
</g>
<!-- DejaRangeModule&#45;&gt;DejaRangeComponent  -->
<g id="edge4" class="edge">
<title>DejaRangeModule&#45;&gt;DejaRangeComponent </title>
<path fill="none" stroke="#000000" stroke-dasharray="5,2" d="M226,-187.1061C226,-187.1061 226,-205.991 226,-205.991"/>
<polygon fill="#000000" stroke="#000000" points="222.5001,-205.9909 226,-215.991 229.5001,-205.991 222.5001,-205.9909"/>
</g>
<!-- CommonModule -->
<g id="node3" class="node">
<title>CommonModule</title>
<polygon fill="#8dd3c7" stroke="#000000" points="281.6681,-122 278.6681,-126 257.6681,-126 254.6681,-122 170.3319,-122 170.3319,-86 281.6681,-86 281.6681,-122"/>
<text text-anchor="middle" x="226" y="-99.8" font-family="Times,serif" font-size="14.00" fill="#000000">CommonModule</text>
</g>
<!-- CommonModule&#45;&gt;DejaRangeModule -->
<g id="edge2" class="edge">
<title>CommonModule&#45;&gt;DejaRangeModule</title>
<path fill="none" stroke="#000000" d="M226,-122.1061C226,-122.1061 226,-140.991 226,-140.991"/>
<polygon fill="#000000" stroke="#000000" points="222.5001,-140.9909 226,-150.991 229.5001,-140.991 222.5001,-140.9909"/>
</g>
<!-- MaterialModule -->
<g id="node4" class="node">
<title>MaterialModule</title>
<polygon fill="#8dd3c7" stroke="#000000" points="152.4706,-122 149.4706,-126 128.4706,-126 125.4706,-122 45.5294,-122 45.5294,-86 152.4706,-86 152.4706,-122"/>
<text text-anchor="middle" x="99" y="-99.8" font-family="Times,serif" font-size="14.00" fill="#000000">MaterialModule</text>
</g>
<!-- MaterialModule&#45;&gt;DejaRangeModule -->
<g id="edge3" class="edge">
<title>MaterialModule&#45;&gt;DejaRangeModule</title>
<path fill="none" stroke="#000000" d="M99,-122.1061C99,-141.3391 99,-169 99,-169 99,-169 155.1038,-169 155.1038,-169"/>
<polygon fill="#000000" stroke="#000000" points="155.1039,-172.5001 165.1038,-169 155.1038,-165.5001 155.1039,-172.5001"/>
</g>
</g>
</svg>
