<?xml version="1.0" encoding="UTF-8" standalone="no"?>
<!DOCTYPE svg PUBLIC "-//W3C//DTD SVG 1.1//EN"
 "http://www.w3.org/Graphics/SVG/1.1/DTD/svg11.dtd">
<!-- Generated by graphviz version 2.40.1 (20161225.0304)
 -->
<!-- Title: dependencies Pages: 1 -->
<svg width="667pt" height="284pt"
 viewBox="0.00 0.00 667.00 284.00" xmlns="http://www.w3.org/2000/svg" xmlns:xlink="http://www.w3.org/1999/xlink">
<g id="graph0" class="graph" transform="scale(1 1) rotate(0) translate(4 280)">
<title>dependencies</title>
<polygon fill="#ffffff" stroke="transparent" points="-4,4 -4,-280 663,-280 663,4 -4,4"/>
<text text-anchor="start" x="308.5091" y="-42.4" font-family="sans-serif" font-weight="bold" font-size="14.00" fill="#000000">Legend</text>
<polygon fill="#ffffb3" stroke="transparent" points="95.5,-10 95.5,-30 115.5,-30 115.5,-10 95.5,-10"/>
<text text-anchor="start" x="119.129" y="-15.4" font-family="sans-serif" font-size="14.00" fill="#000000"> &#160;Declarations</text>
<polygon fill="#8dd3c7" stroke="transparent" points="208.5,-10 208.5,-30 228.5,-30 228.5,-10 208.5,-10"/>
<text text-anchor="start" x="232.2251" y="-15.4" font-family="sans-serif" font-size="14.00" fill="#000000"> &#160;Module</text>
<polygon fill="#80b1d3" stroke="transparent" points="294.5,-10 294.5,-30 314.5,-30 314.5,-10 294.5,-10"/>
<text text-anchor="start" x="318.2812" y="-15.4" font-family="sans-serif" font-size="14.00" fill="#000000"> &#160;Bootstrap</text>
<polygon fill="#fdb462" stroke="transparent" points="391.5,-10 391.5,-30 411.5,-30 411.5,-10 391.5,-10"/>
<text text-anchor="start" x="415.1732" y="-15.4" font-family="sans-serif" font-size="14.00" fill="#000000"> &#160;Providers</text>
<polygon fill="#fb8072" stroke="transparent" points="487.5,-10 487.5,-30 507.5,-30 507.5,-10 487.5,-10"/>
<text text-anchor="start" x="511.2258" y="-15.4" font-family="sans-serif" font-size="14.00" fill="#000000"> &#160;Exports</text>
<g id="clust1" class="cluster">
<title>cluster_DejaPipeModule</title>
<polygon fill="none" stroke="#000000" stroke-dasharray="1,5" points="8,-70 8,-268 651,-268 651,-70 8,-70"/>
</g>
<g id="clust2" class="cluster">
<title>cluster_DejaPipeModule_declarations</title>
<polygon fill="none" stroke="#000000" points="24,-78 24,-130 634,-130 634,-78 24,-78"/>
</g>
<g id="clust9" class="cluster">
<title>cluster_DejaPipeModule_exports</title>
<polygon fill="none" stroke="#000000" points="16,-208 16,-260 643,-260 643,-208 16,-208"/>
</g>
<!-- KeysPipe -->
<g id="node1" class="node">
<title>KeysPipe</title>
<polygon fill="#ffffb3" stroke="#000000" points="625.6545,-122 556.3455,-122 556.3455,-86 625.6545,-86 625.6545,-122"/>
<text text-anchor="middle" x="591" y="-99.8" font-family="Times,serif" font-size="14.00" fill="#000000">KeysPipe</text>
</g>
<!-- DejaPipeModule -->
<g id="node6" class="node">
<title>DejaPipeModule</title>
<polygon fill="#8dd3c7" stroke="#000000" points="365.3641,-187 362.3641,-191 341.3641,-191 338.3641,-187 254.6359,-187 254.6359,-151 365.3641,-151 365.3641,-187"/>
<text text-anchor="middle" x="310" y="-164.8" font-family="Times,serif" font-size="14.00" fill="#000000">DejaPipeModule</text>
</g>
<!-- KeysPipe&#45;&gt;DejaPipeModule -->
<g id="edge1" class="edge">
<title>KeysPipe&#45;&gt;DejaPipeModule</title>
<path fill="none" stroke="#000000" d="M604.3589,-122.2667C604.3589,-140.5552 604.3589,-166 604.3589,-166 604.3589,-166 375.3667,-166 375.3667,-166"/>
<polygon fill="#000000" stroke="#000000" points="375.3667,-162.5001 365.3667,-166 375.3666,-169.5001 375.3667,-162.5001"/>
</g>
<!-- StringToDateFormatPipe -->
<g id="node2" class="node">
<title>StringToDateFormatPipe</title>
<polygon fill="#ffffb3" stroke="#000000" points="537.5309,-122 380.4691,-122 380.4691,-86 537.5309,-86 537.5309,-122"/>
<text text-anchor="middle" x="459" y="-99.8" font-family="Times,serif" font-size="14.00" fill="#000000">StringToDateFormatPipe</text>
</g>
<!-- StringToDateFormatPipe&#45;&gt;DejaPipeModule -->
<g id="edge2" class="edge">
<title>StringToDateFormatPipe&#45;&gt;DejaPipeModule</title>
<path fill="none" stroke="#000000" d="M486.005,-122.0091C486.005,-138.0494 486.005,-159 486.005,-159 486.005,-159 375.6891,-159 375.6891,-159"/>
<polygon fill="#000000" stroke="#000000" points="375.6891,-155.5001 365.6891,-159 375.6891,-162.5001 375.6891,-155.5001"/>
</g>
<!-- SafeHTMLPipe -->
<g id="node3" class="node">
<title>SafeHTMLPipe</title>
<polygon fill="#ffffb3" stroke="#000000" points="362.9174,-122 257.0826,-122 257.0826,-86 362.9174,-86 362.9174,-122"/>
<text text-anchor="middle" x="310" y="-99.8" font-family="Times,serif" font-size="14.00" fill="#000000">SafeHTMLPipe</text>
</g>
<!-- SafeHTMLPipe&#45;&gt;DejaPipeModule -->
<g id="edge3" class="edge">
<title>SafeHTMLPipe&#45;&gt;DejaPipeModule</title>
<path fill="none" stroke="#000000" d="M310,-122.1061C310,-122.1061 310,-140.991 310,-140.991"/>
<polygon fill="#000000" stroke="#000000" points="306.5001,-140.9909 310,-150.991 313.5001,-140.991 306.5001,-140.9909"/>
</g>
<!-- SafeStylePipe -->
<g id="node4" class="node">
<title>SafeStylePipe</title>
<polygon fill="#ffffb3" stroke="#000000" points="239.0397,-122 144.9603,-122 144.9603,-86 239.0397,-86 239.0397,-122"/>
<text text-anchor="middle" x="192" y="-99.8" font-family="Times,serif" font-size="14.00" fill="#000000">SafeStylePipe</text>
</g>
<!-- SafeStylePipe&#45;&gt;DejaPipeModule -->
<g id="edge4" class="edge">
<title>SafeStylePipe&#45;&gt;DejaPipeModule</title>
<path fill="none" stroke="#000000" d="M206.9231,-122.0091C206.9231,-138.0494 206.9231,-159 206.9231,-159 206.9231,-159 244.5391,-159 244.5391,-159"/>
<polygon fill="#000000" stroke="#000000" points="244.5392,-162.5001 254.5391,-159 244.5391,-155.5001 244.5392,-162.5001"/>
</g>
<!-- TimeAgoPipe -->
<g id="node5" class="node">
<title>TimeAgoPipe</title>
<polygon fill="#ffffb3" stroke="#000000" points="126.0439,-122 31.9561,-122 31.9561,-86 126.0439,-86 126.0439,-122"/>
<text text-anchor="middle" x="79" y="-99.8" font-family="Times,serif" font-size="14.00" fill="#000000">TimeAgoPipe</text>
</g>
<!-- TimeAgoPipe&#45;&gt;DejaPipeModule -->
<g id="edge5" class="edge">
<title>TimeAgoPipe&#45;&gt;DejaPipeModule</title>
<path fill="none" stroke="#000000" d="M91.9238,-122.2667C91.9238,-140.5552 91.9238,-166 91.9238,-166 91.9238,-166 244.4059,-166 244.4059,-166"/>
<polygon fill="#000000" stroke="#000000" points="244.4059,-169.5001 254.4059,-166 244.4059,-162.5001 244.4059,-169.5001"/>
</g>
<!-- KeysPipe  -->
<g id="node7" class="node">
<title>KeysPipe </title>
<polygon fill="#fb8072" stroke="#000000" points="634.6538,-252 561.3462,-252 561.3462,-216 634.6538,-216 634.6538,-252"/>
<text text-anchor="middle" x="598" y="-229.8" font-family="Times,serif" font-size="14.00" fill="#000000">KeysPipe </text>
</g>
<!-- DejaPipeModule&#45;&gt;KeysPipe  -->
<g id="edge6" class="edge">
<title>DejaPipeModule&#45;&gt;KeysPipe </title>
<path fill="none" stroke="#000000" stroke-dasharray="5,2" d="M365.5525,-173C445.3418,-173 582.8911,-173 582.8911,-173 582.8911,-173 582.8911,-205.698 582.8911,-205.698"/>
<polygon fill="#000000" stroke="#000000" points="579.3912,-205.698 582.8911,-215.698 586.3912,-205.698 579.3912,-205.698"/>
</g>
<!-- StringToDateFormatPipe  -->
<g id="node8" class="node">
<title>StringToDateFormatPipe </title>
<polygon fill="#fb8072" stroke="#000000" points="543.5302,-252 382.4698,-252 382.4698,-216 543.5302,-216 543.5302,-252"/>
<text text-anchor="middle" x="463" y="-229.8" font-family="Times,serif" font-size="14.00" fill="#000000">StringToDateFormatPipe </text>
</g>
<!-- DejaPipeModule&#45;&gt;StringToDateFormatPipe  -->
<g id="edge7" class="edge">
<title>DejaPipeModule&#45;&gt;StringToDateFormatPipe </title>
<path fill="none" stroke="#000000" stroke-dasharray="5,2" d="M365.5813,-180C398.6622,-180 434.245,-180 434.245,-180 434.245,-180 434.245,-205.7181 434.245,-205.7181"/>
<polygon fill="#000000" stroke="#000000" points="430.7451,-205.718 434.245,-215.7181 437.7451,-205.7181 430.7451,-205.718"/>
</g>
<!-- SafeHTMLPipe  -->
<g id="node9" class="node">
<title>SafeHTMLPipe </title>
<polygon fill="#fb8072" stroke="#000000" points="364.4166,-252 255.5834,-252 255.5834,-216 364.4166,-216 364.4166,-252"/>
<text text-anchor="middle" x="310" y="-229.8" font-family="Times,serif" font-size="14.00" fill="#000000">SafeHTMLPipe </text>
</g>
<!-- DejaPipeModule&#45;&gt;SafeHTMLPipe  -->
<g id="edge8" class="edge">
<title>DejaPipeModule&#45;&gt;SafeHTMLPipe </title>
<path fill="none" stroke="#000000" stroke-dasharray="5,2" d="M310,-187.1061C310,-187.1061 310,-205.991 310,-205.991"/>
<polygon fill="#000000" stroke="#000000" points="306.5001,-205.9909 310,-215.991 313.5001,-205.991 306.5001,-205.9909"/>
</g>
<!-- SafeStylePipe  -->
<g id="node10" class="node">
<title>SafeStylePipe </title>
<polygon fill="#fb8072" stroke="#000000" points="238.0386,-252 139.9614,-252 139.9614,-216 238.0386,-216 238.0386,-252"/>
<text text-anchor="middle" x="189" y="-229.8" font-family="Times,serif" font-size="14.00" fill="#000000">SafeStylePipe </text>
</g>
<!-- DejaPipeModule&#45;&gt;SafeStylePipe  -->
<g id="edge9" class="edge">
<title>DejaPipeModule&#45;&gt;SafeStylePipe </title>
<path fill="none" stroke="#000000" stroke-dasharray="5,2" d="M254.2642,-180C217.4003,-180 175.8269,-180 175.8269,-180 175.8269,-180 175.8269,-205.7181 175.8269,-205.7181"/>
<polygon fill="#000000" stroke="#000000" points="172.327,-205.718 175.8269,-215.7181 179.327,-205.7181 172.327,-205.718"/>
</g>
<!-- TimeAgoPipe  -->
<g id="node11" class="node">
<title>TimeAgoPipe </title>
<polygon fill="#fb8072" stroke="#000000" points="122.0428,-252 23.9572,-252 23.9572,-216 122.0428,-216 122.0428,-252"/>
<text text-anchor="middle" x="73" y="-229.8" font-family="Times,serif" font-size="14.00" fill="#000000">TimeAgoPipe </text>
</g>
<!-- DejaPipeModule&#45;&gt;TimeAgoPipe  -->
<g id="edge10" class="edge">
<title>DejaPipeModule&#45;&gt;TimeAgoPipe </title>
<path fill="none" stroke="#000000" stroke-dasharray="5,2" d="M254.6138,-173C181.4714,-173 61.8262,-173 61.8262,-173 61.8262,-173 61.8262,-205.698 61.8262,-205.698"/>
<polygon fill="#000000" stroke="#000000" points="58.3263,-205.698 61.8262,-215.698 65.3263,-205.698 58.3263,-205.698"/>
</g>
</g>
</svg>
