<?xml version="1.0" encoding="UTF-8" standalone="no"?>
<!DOCTYPE svg PUBLIC "-//W3C//DTD SVG 1.1//EN"
 "http://www.w3.org/Graphics/SVG/1.1/DTD/svg11.dtd">
<!-- Generated by graphviz version 2.40.1 (20161225.0304)
 -->
<!-- Title: dependencies Pages: 1 -->
<svg width="504pt" height="284pt"
 viewBox="0.00 0.00 504.00 284.00" xmlns="http://www.w3.org/2000/svg" xmlns:xlink="http://www.w3.org/1999/xlink">
<g id="graph0" class="graph" transform="scale(1 1) rotate(0) translate(4 280)">
<title>dependencies</title>
<polygon fill="#ffffff" stroke="transparent" points="-4,4 -4,-280 500,-280 500,4 -4,4"/>
<text text-anchor="start" x="227.0091" y="-42.4" font-family="sans-serif" font-weight="bold" font-size="14.00" fill="#000000">Legend</text>
<polygon fill="#ffffb3" stroke="transparent" points="14,-10 14,-30 34,-30 34,-10 14,-10"/>
<text text-anchor="start" x="37.629" y="-15.4" font-family="sans-serif" font-size="14.00" fill="#000000"> &#160;Declarations</text>
<polygon fill="#8dd3c7" stroke="transparent" points="127,-10 127,-30 147,-30 147,-10 127,-10"/>
<text text-anchor="start" x="150.7251" y="-15.4" font-family="sans-serif" font-size="14.00" fill="#000000"> &#160;Module</text>
<polygon fill="#80b1d3" stroke="transparent" points="213,-10 213,-30 233,-30 233,-10 213,-10"/>
<text text-anchor="start" x="236.7812" y="-15.4" font-family="sans-serif" font-size="14.00" fill="#000000"> &#160;Bootstrap</text>
<polygon fill="#fdb462" stroke="transparent" points="310,-10 310,-30 330,-30 330,-10 310,-10"/>
<text text-anchor="start" x="333.6732" y="-15.4" font-family="sans-serif" font-size="14.00" fill="#000000"> &#160;Providers</text>
<polygon fill="#fb8072" stroke="transparent" points="406,-10 406,-30 426,-30 426,-10 406,-10"/>
<text text-anchor="start" x="429.7258" y="-15.4" font-family="sans-serif" font-size="14.00" fill="#000000"> &#160;Exports</text>
<g id="clust1" class="cluster">
<title>cluster_DejaBoldQueryModule</title>
<polygon fill="none" stroke="#000000" stroke-dasharray="1,5" points="22.5,-70 22.5,-268 473.5,-268 473.5,-70 22.5,-70"/>
</g>
<g id="clust2" class="cluster">
<title>cluster_DejaBoldQueryModule_declarations</title>
<polygon fill="none" stroke="#000000" points="279.5,-78 279.5,-130 465.5,-130 465.5,-78 279.5,-78"/>
</g>
<g id="clust4" class="cluster">
<title>cluster_DejaBoldQueryModule_imports</title>
<polygon fill="none" stroke="#000000" points="30.5,-78 30.5,-130 271.5,-130 271.5,-78 30.5,-78"/>
</g>
<g id="clust5" class="cluster">
<title>cluster_DejaBoldQueryModule_exports</title>
<polygon fill="none" stroke="#000000" points="112.5,-208 112.5,-260 302.5,-260 302.5,-208 112.5,-208"/>
</g>
<!-- DejaBoldQueryComponent -->
<g id="node1" class="node">
<title>DejaBoldQueryComponent</title>
<polygon fill="#ffffb3" stroke="#000000" points="457.4678,-122 287.5322,-122 287.5322,-86 457.4678,-86 457.4678,-122"/>
<text text-anchor="middle" x="372.5" y="-99.8" font-family="Times,serif" font-size="14.00" fill="#000000">DejaBoldQueryComponent</text>
</g>
<!-- DejaBoldQueryModule -->
<g id="node2" class="node">
<title>DejaBoldQueryModule</title>
<polygon fill="#8dd3c7" stroke="#000000" points="281.6853,-187 278.6853,-191 257.6853,-191 254.6853,-187 133.3147,-187 133.3147,-151 281.6853,-151 281.6853,-187"/>
<text text-anchor="middle" x="207.5" y="-164.8" font-family="Times,serif" font-size="14.00" fill="#000000">DejaBoldQueryModule</text>
</g>
<!-- DejaBoldQueryComponent&#45;&gt;DejaBoldQueryModule -->
<g id="edge1" class="edge">
<title>DejaBoldQueryComponent&#45;&gt;DejaBoldQueryModule</title>
<path fill="none" stroke="#000000" d="M287.224,-104C278.3308,-104 272.4632,-104 272.4632,-104 272.4632,-104 272.4632,-140.8939 272.4632,-140.8939"/>
<polygon fill="#000000" stroke="#000000" points="268.9633,-140.8938 272.4632,-150.8939 275.9633,-140.8939 268.9633,-140.8938"/>
</g>
<!-- DejaBoldQueryComponent  -->
<g id="node5" class="node">
<title>DejaBoldQueryComponent </title>
<polygon fill="#fb8072" stroke="#000000" points="294.4684,-252 120.5316,-252 120.5316,-216 294.4684,-216 294.4684,-252"/>
<text text-anchor="middle" x="207.5" y="-229.8" font-family="Times,serif" font-size="14.00" fill="#000000">DejaBoldQueryComponent </text>
</g>
<!-- DejaBoldQueryModule&#45;&gt;DejaBoldQueryComponent  -->
<g id="edge4" class="edge">
<title>DejaBoldQueryModule&#45;&gt;DejaBoldQueryComponent </title>
<path fill="none" stroke="#000000" stroke-dasharray="5,2" d="M207.5,-187.1061C207.5,-187.1061 207.5,-205.991 207.5,-205.991"/>
<polygon fill="#000000" stroke="#000000" points="204.0001,-205.9909 207.5,-215.991 211.0001,-205.991 204.0001,-205.9909"/>
</g>
<!-- CommonModule -->
<g id="node3" class="node">
<title>CommonModule</title>
<polygon fill="#8dd3c7" stroke="#000000" points="263.1681,-122 260.1681,-126 239.1681,-126 236.1681,-122 151.8319,-122 151.8319,-86 263.1681,-86 263.1681,-122"/>
<text text-anchor="middle" x="207.5" y="-99.8" font-family="Times,serif" font-size="14.00" fill="#000000">CommonModule</text>
</g>
<!-- CommonModule&#45;&gt;DejaBoldQueryModule -->
<g id="edge2" class="edge">
<title>CommonModule&#45;&gt;DejaBoldQueryModule</title>
<path fill="none" stroke="#000000" d="M207.5,-122.1061C207.5,-122.1061 207.5,-140.991 207.5,-140.991"/>
<polygon fill="#000000" stroke="#000000" points="204.0001,-140.9909 207.5,-150.991 211.0001,-140.991 204.0001,-140.9909"/>
</g>
<!-- FormsModule -->
<g id="node4" class="node">
<title>FormsModule</title>
<polygon fill="#8dd3c7" stroke="#000000" points="134.3288,-122 131.3288,-126 110.3288,-126 107.3288,-122 38.6712,-122 38.6712,-86 134.3288,-86 134.3288,-122"/>
<text text-anchor="middle" x="86.5" y="-99.8" font-family="Times,serif" font-size="14.00" fill="#000000">FormsModule</text>
</g>
<!-- FormsModule&#45;&gt;DejaBoldQueryModule -->
<g id="edge3" class="edge">
<title>FormsModule&#45;&gt;DejaBoldQueryModule</title>
<path fill="none" stroke="#000000" d="M127.0868,-122.1061C127.0868,-141.3391 127.0868,-169 127.0868,-169 127.0868,-169 127.7177,-169 127.7177,-169"/>
<polygon fill="#000000" stroke="#000000" points="123.3967,-172.5002 133.3966,-169 123.3966,-165.5002 123.3967,-172.5002"/>
</g>
</g>
</svg>
