<?xml version="1.0" encoding="UTF-8" standalone="no"?>
<!DOCTYPE svg PUBLIC "-//W3C//DTD SVG 1.1//EN"
 "http://www.w3.org/Graphics/SVG/1.1/DTD/svg11.dtd">
<!-- Generated by graphviz version 2.40.1 (20161225.0304)
 -->
<!-- Title: dependencies Pages: 1 -->
<svg width="504pt" height="284pt"
 viewBox="0.00 0.00 504.00 284.00" xmlns="http://www.w3.org/2000/svg" xmlns:xlink="http://www.w3.org/1999/xlink">
<g id="graph0" class="graph" transform="scale(1 1) rotate(0) translate(4 280)">
<title>dependencies</title>
<polygon fill="#ffffff" stroke="transparent" points="-4,4 -4,-280 500,-280 500,4 -4,4"/>
<text text-anchor="start" x="227.0091" y="-42.4" font-family="sans-serif" font-weight="bold" font-size="14.00" fill="#000000">Legend</text>
<polygon fill="#ffffb3" stroke="transparent" points="14,-10 14,-30 34,-30 34,-10 14,-10"/>
<text text-anchor="start" x="37.629" y="-15.4" font-family="sans-serif" font-size="14.00" fill="#000000"> &#160;Declarations</text>
<polygon fill="#8dd3c7" stroke="transparent" points="127,-10 127,-30 147,-30 147,-10 127,-10"/>
<text text-anchor="start" x="150.7251" y="-15.4" font-family="sans-serif" font-size="14.00" fill="#000000"> &#160;Module</text>
<polygon fill="#80b1d3" stroke="transparent" points="213,-10 213,-30 233,-30 233,-10 213,-10"/>
<text text-anchor="start" x="236.7812" y="-15.4" font-family="sans-serif" font-size="14.00" fill="#000000"> &#160;Bootstrap</text>
<polygon fill="#fdb462" stroke="transparent" points="310,-10 310,-30 330,-30 330,-10 310,-10"/>
<text text-anchor="start" x="333.6732" y="-15.4" font-family="sans-serif" font-size="14.00" fill="#000000"> &#160;Providers</text>
<polygon fill="#fb8072" stroke="transparent" points="406,-10 406,-30 426,-30 426,-10 406,-10"/>
<text text-anchor="start" x="429.7258" y="-15.4" font-family="sans-serif" font-size="14.00" fill="#000000"> &#160;Exports</text>
<g id="clust1" class="cluster">
<title>cluster_DejaTagModule</title>
<polygon fill="none" stroke="#000000" stroke-dasharray="1,5" points="96,-70 96,-268 400,-268 400,-70 96,-70"/>
</g>
<g id="clust2" class="cluster">
<title>cluster_DejaTagModule_declarations</title>
<polygon fill="none" stroke="#000000" points="246,-78 246,-130 392,-130 392,-78 246,-78"/>
</g>
<g id="clust4" class="cluster">
<title>cluster_DejaTagModule_imports</title>
<polygon fill="none" stroke="#000000" points="104,-78 104,-130 238,-130 238,-78 104,-78"/>
</g>
<g id="clust5" class="cluster">
<title>cluster_DejaTagModule_exports</title>
<polygon fill="none" stroke="#000000" points="173,-208 173,-260 323,-260 323,-208 173,-208"/>
</g>
<!-- DejaTagComponent -->
<g id="node1" class="node">
<title>DejaTagComponent</title>
<polygon fill="#ffffb3" stroke="#000000" points="383.5269,-122 254.4731,-122 254.4731,-86 383.5269,-86 383.5269,-122"/>
<text text-anchor="middle" x="319" y="-99.8" font-family="Times,serif" font-size="14.00" fill="#000000">DejaTagComponent</text>
</g>
<!-- DejaTagModule -->
<g id="node2" class="node">
<title>DejaTagModule</title>
<polygon fill="#8dd3c7" stroke="#000000" points="301.7437,-187 298.7437,-191 277.7437,-191 274.7437,-187 194.2563,-187 194.2563,-151 301.7437,-151 301.7437,-187"/>
<text text-anchor="middle" x="248" y="-164.8" font-family="Times,serif" font-size="14.00" fill="#000000">DejaTagModule</text>
</g>
<!-- DejaTagComponent&#45;&gt;DejaTagModule -->
<g id="edge1" class="edge">
<title>DejaTagComponent&#45;&gt;DejaTagModule</title>
<path fill="none" stroke="#000000" d="M278.0544,-122.1061C278.0544,-122.1061 278.0544,-140.991 278.0544,-140.991"/>
<polygon fill="#000000" stroke="#000000" points="274.5544,-140.9909 278.0544,-150.991 281.5544,-140.991 274.5544,-140.9909"/>
</g>
<!-- DejaTagComponent  -->
<g id="node4" class="node">
<title>DejaTagComponent </title>
<polygon fill="#fb8072" stroke="#000000" points="314.526,-252 181.474,-252 181.474,-216 314.526,-216 314.526,-252"/>
<text text-anchor="middle" x="248" y="-229.8" font-family="Times,serif" font-size="14.00" fill="#000000">DejaTagComponent </text>
</g>
<!-- DejaTagModule&#45;&gt;DejaTagComponent  -->
<g id="edge3" class="edge">
<title>DejaTagModule&#45;&gt;DejaTagComponent </title>
<path fill="none" stroke="#000000" stroke-dasharray="5,2" d="M248,-187.1061C248,-187.1061 248,-205.991 248,-205.991"/>
<polygon fill="#000000" stroke="#000000" points="244.5001,-205.9909 248,-215.991 251.5001,-205.991 244.5001,-205.9909"/>
</g>
<!-- DejaChipsModule -->
<g id="node3" class="node">
<title>DejaChipsModule</title>
<polygon fill="#8dd3c7" stroke="#000000" points="230.1485,-122 227.1485,-126 206.1485,-126 203.1485,-122 111.8515,-122 111.8515,-86 230.1485,-86 230.1485,-122"/>
<text text-anchor="middle" x="171" y="-99.8" font-family="Times,serif" font-size="14.00" fill="#000000">DejaChipsModule</text>
</g>
<!-- DejaChipsModule&#45;&gt;DejaTagModule -->
<g id="edge2" class="edge">
<title>DejaChipsModule&#45;&gt;DejaTagModule</title>
<path fill="none" stroke="#000000" d="M212.2262,-122.1061C212.2262,-122.1061 212.2262,-140.991 212.2262,-140.991"/>
<polygon fill="#000000" stroke="#000000" points="208.7262,-140.9909 212.2262,-150.991 215.7262,-140.991 208.7262,-140.9909"/>
</g>
</g>
</svg>
