<?xml version="1.0" encoding="UTF-8" standalone="no"?>
<!DOCTYPE svg PUBLIC "-//W3C//DTD SVG 1.1//EN"
 "http://www.w3.org/Graphics/SVG/1.1/DTD/svg11.dtd">
<!-- Generated by graphviz version 2.40.1 (20161225.0304)
 -->
<!-- Title: dependencies Pages: 1 -->
<svg width="1588pt" height="284pt"
 viewBox="0.00 0.00 1588.00 284.00" xmlns="http://www.w3.org/2000/svg" xmlns:xlink="http://www.w3.org/1999/xlink">
<g id="graph0" class="graph" transform="scale(1 1) rotate(0) translate(4 280)">
<title>dependencies</title>
<polygon fill="#ffffff" stroke="transparent" points="-4,4 -4,-280 1584,-280 1584,4 -4,4"/>
<text text-anchor="start" x="769.0091" y="-42.4" font-family="sans-serif" font-weight="bold" font-size="14.00" fill="#000000">Legend</text>
<polygon fill="#ffffb3" stroke="transparent" points="556,-10 556,-30 576,-30 576,-10 556,-10"/>
<text text-anchor="start" x="579.629" y="-15.4" font-family="sans-serif" font-size="14.00" fill="#000000"> &#160;Declarations</text>
<polygon fill="#8dd3c7" stroke="transparent" points="669,-10 669,-30 689,-30 689,-10 669,-10"/>
<text text-anchor="start" x="692.7251" y="-15.4" font-family="sans-serif" font-size="14.00" fill="#000000"> &#160;Module</text>
<polygon fill="#80b1d3" stroke="transparent" points="755,-10 755,-30 775,-30 775,-10 755,-10"/>
<text text-anchor="start" x="778.7812" y="-15.4" font-family="sans-serif" font-size="14.00" fill="#000000"> &#160;Bootstrap</text>
<polygon fill="#fdb462" stroke="transparent" points="852,-10 852,-30 872,-30 872,-10 852,-10"/>
<text text-anchor="start" x="875.6732" y="-15.4" font-family="sans-serif" font-size="14.00" fill="#000000"> &#160;Providers</text>
<polygon fill="#fb8072" stroke="transparent" points="948,-10 948,-30 968,-30 968,-10 948,-10"/>
<text text-anchor="start" x="971.7258" y="-15.4" font-family="sans-serif" font-size="14.00" fill="#000000"> &#160;Exports</text>
<g id="clust1" class="cluster">
<title>cluster_DejaGridModule</title>
<polygon fill="none" stroke="#000000" stroke-dasharray="1,5" points="8,-70 8,-268 1572,-268 1572,-70 8,-70"/>
</g>
<g id="clust2" class="cluster">
<title>cluster_DejaGridModule_declarations</title>
<polygon fill="none" stroke="#000000" points="616,-78 616,-130 1564,-130 1564,-78 616,-78"/>
</g>
<g id="clust8" class="cluster">
<title>cluster_DejaGridModule_imports</title>
<polygon fill="none" stroke="#000000" points="16,-78 16,-130 608,-130 608,-78 16,-78"/>
</g>
<g id="clust9" class="cluster">
<title>cluster_DejaGridModule_exports</title>
<polygon fill="none" stroke="#000000" points="209,-208 209,-260 1173,-260 1173,-208 209,-208"/>
</g>
<!-- DejaGridComponent -->
<g id="node1" class="node">
<title>DejaGridComponent</title>
<polygon fill="#ffffb3" stroke="#000000" points="1555.9173,-122 1422.0827,-122 1422.0827,-86 1555.9173,-86 1555.9173,-122"/>
<text text-anchor="middle" x="1489" y="-99.8" font-family="Times,serif" font-size="14.00" fill="#000000">DejaGridComponent</text>
</g>
<!-- DejaGridModule -->
<g id="node6" class="node">
<title>DejaGridModule</title>
<polygon fill="#8dd3c7" stroke="#000000" points="759.6346,-187 756.6346,-191 735.6346,-191 732.6346,-187 648.3654,-187 648.3654,-151 759.6346,-151 759.6346,-187"/>
<text text-anchor="middle" x="704" y="-164.8" font-family="Times,serif" font-size="14.00" fill="#000000">DejaGridModule</text>
</g>
<!-- DejaGridComponent&#45;&gt;DejaGridModule -->
<g id="edge1" class="edge">
<title>DejaGridComponent&#45;&gt;DejaGridModule</title>
<path fill="none" stroke="#000000" d="M1489,-122.2228C1489,-142.3652 1489,-172 1489,-172 1489,-172 769.826,-172 769.826,-172"/>
<polygon fill="#000000" stroke="#000000" points="769.826,-168.5001 759.826,-172 769.8259,-175.5001 769.826,-168.5001"/>
</g>
<!-- DejaGridGroupAreaComponent -->
<g id="node2" class="node">
<title>DejaGridGroupAreaComponent</title>
<polygon fill="#ffffb3" stroke="#000000" points="1404.3806,-122 1207.6194,-122 1207.6194,-86 1404.3806,-86 1404.3806,-122"/>
<text text-anchor="middle" x="1306" y="-99.8" font-family="Times,serif" font-size="14.00" fill="#000000">DejaGridGroupAreaComponent</text>
</g>
<!-- DejaGridGroupAreaComponent&#45;&gt;DejaGridModule -->
<g id="edge2" class="edge">
<title>DejaGridGroupAreaComponent&#45;&gt;DejaGridModule</title>
<path fill="none" stroke="#000000" d="M1306,-122.2222C1306,-140.8285 1306,-167 1306,-167 1306,-167 769.8246,-167 769.8246,-167"/>
<polygon fill="#000000" stroke="#000000" points="769.8247,-163.5001 759.8246,-167 769.8246,-170.5001 769.8247,-163.5001"/>
</g>
<!-- DejaGridHeaderComponent -->
<g id="node3" class="node">
<title>DejaGridHeaderComponent</title>
<polygon fill="#ffffb3" stroke="#000000" points="1189.8277,-122 1016.1723,-122 1016.1723,-86 1189.8277,-86 1189.8277,-122"/>
<text text-anchor="middle" x="1103" y="-99.8" font-family="Times,serif" font-size="14.00" fill="#000000">DejaGridHeaderComponent</text>
</g>
<!-- DejaGridHeaderComponent&#45;&gt;DejaGridModule -->
<g id="edge3" class="edge">
<title>DejaGridHeaderComponent&#45;&gt;DejaGridModule</title>
<path fill="none" stroke="#000000" d="M1022.314,-122.0336C1022.314,-139.0597 1022.314,-162 1022.314,-162 1022.314,-162 769.8103,-162 769.8103,-162"/>
<polygon fill="#000000" stroke="#000000" points="769.8103,-158.5001 759.8103,-162 769.8103,-165.5001 769.8103,-158.5001"/>
</g>
<!-- DejaGridParentRowComponent -->
<g id="node4" class="node">
<title>DejaGridParentRowComponent</title>
<polygon fill="#ffffb3" stroke="#000000" points="997.6232,-122 802.3768,-122 802.3768,-86 997.6232,-86 997.6232,-122"/>
<text text-anchor="middle" x="900" y="-99.8" font-family="Times,serif" font-size="14.00" fill="#000000">DejaGridParentRowComponent</text>
</g>
<!-- DejaGridParentRowComponent&#45;&gt;DejaGridModule -->
<g id="edge4" class="edge">
<title>DejaGridParentRowComponent&#45;&gt;DejaGridModule</title>
<path fill="none" stroke="#000000" d="M806.6243,-122.2396C806.6243,-137.5706 806.6243,-157 806.6243,-157 806.6243,-157 769.8168,-157 769.8168,-157"/>
<polygon fill="#000000" stroke="#000000" points="769.8169,-153.5001 759.8168,-157 769.8168,-160.5001 769.8169,-153.5001"/>
</g>
<!-- DejaGridRowComponent -->
<g id="node5" class="node">
<title>DejaGridRowComponent</title>
<polygon fill="#ffffb3" stroke="#000000" points="783.8599,-122 624.1401,-122 624.1401,-86 783.8599,-86 783.8599,-122"/>
<text text-anchor="middle" x="704" y="-99.8" font-family="Times,serif" font-size="14.00" fill="#000000">DejaGridRowComponent</text>
</g>
<!-- DejaGridRowComponent&#45;&gt;DejaGridModule -->
<g id="edge5" class="edge">
<title>DejaGridRowComponent&#45;&gt;DejaGridModule</title>
<path fill="none" stroke="#000000" d="M704,-122.1061C704,-122.1061 704,-140.991 704,-140.991"/>
<polygon fill="#000000" stroke="#000000" points="700.5001,-140.9909 704,-150.991 707.5001,-140.991 700.5001,-140.9909"/>
</g>
<!-- DejaGridComponent  -->
<g id="node11" class="node">
<title>DejaGridComponent </title>
<polygon fill="#fb8072" stroke="#000000" points="1165.4166,-252 1028.5834,-252 1028.5834,-216 1165.4166,-216 1165.4166,-252"/>
<text text-anchor="middle" x="1097" y="-229.8" font-family="Times,serif" font-size="14.00" fill="#000000">DejaGridComponent </text>
</g>
<!-- DejaGridModule&#45;&gt;DejaGridComponent  -->
<g id="edge10" class="edge">
<title>DejaGridModule&#45;&gt;DejaGridComponent </title>
<path fill="none" stroke="#000000" stroke-dasharray="5,2" d="M759.89,-177C868.3903,-177 1097,-177 1097,-177 1097,-177 1097,-205.9648 1097,-205.9648"/>
<polygon fill="#000000" stroke="#000000" points="1093.5001,-205.9648 1097,-215.9648 1100.5001,-205.9649 1093.5001,-205.9648"/>
</g>
<!-- DejaGridGroupAreaComponent  -->
<g id="node12" class="node">
<title>DejaGridGroupAreaComponent </title>
<polygon fill="#fb8072" stroke="#000000" points="1010.8802,-252 811.1198,-252 811.1198,-216 1010.8802,-216 1010.8802,-252"/>
<text text-anchor="middle" x="911" y="-229.8" font-family="Times,serif" font-size="14.00" fill="#000000">DejaGridGroupAreaComponent </text>
</g>
<!-- DejaGridModule&#45;&gt;DejaGridGroupAreaComponent  -->
<g id="edge11" class="edge">
<title>DejaGridModule&#45;&gt;DejaGridGroupAreaComponent </title>
<path fill="none" stroke="#000000" stroke-dasharray="5,2" d="M759.8325,-182C819.1398,-182 904.4356,-182 904.4356,-182 904.4356,-182 904.4356,-205.8129 904.4356,-205.8129"/>
<polygon fill="#000000" stroke="#000000" points="900.9357,-205.8129 904.4356,-215.8129 907.9357,-205.813 900.9357,-205.8129"/>
</g>
<!-- DejaGridHeaderComponent  -->
<g id="node13" class="node">
<title>DejaGridHeaderComponent </title>
<polygon fill="#fb8072" stroke="#000000" points="792.8279,-252 615.1721,-252 615.1721,-216 792.8279,-216 792.8279,-252"/>
<text text-anchor="middle" x="704" y="-229.8" font-family="Times,serif" font-size="14.00" fill="#000000">DejaGridHeaderComponent </text>
</g>
<!-- DejaGridModule&#45;&gt;DejaGridHeaderComponent  -->
<g id="edge12" class="edge">
<title>DejaGridModule&#45;&gt;DejaGridHeaderComponent </title>
<path fill="none" stroke="#000000" stroke-dasharray="5,2" d="M704,-187.1061C704,-187.1061 704,-205.991 704,-205.991"/>
<polygon fill="#000000" stroke="#000000" points="700.5001,-205.9909 704,-215.991 707.5001,-205.991 700.5001,-205.9909"/>
</g>
<!-- DejaGridParentRowComponent  -->
<g id="node14" class="node">
<title>DejaGridParentRowComponent </title>
<polygon fill="#fb8072" stroke="#000000" points="597.6228,-252 398.3772,-252 398.3772,-216 597.6228,-216 597.6228,-252"/>
<text text-anchor="middle" x="498" y="-229.8" font-family="Times,serif" font-size="14.00" fill="#000000">DejaGridParentRowComponent </text>
</g>
<!-- DejaGridModule&#45;&gt;DejaGridParentRowComponent  -->
<g id="edge13" class="edge">
<title>DejaGridModule&#45;&gt;DejaGridParentRowComponent </title>
<path fill="none" stroke="#000000" stroke-dasharray="5,2" d="M647.8871,-182C593.8656,-182 520.3045,-182 520.3045,-182 520.3045,-182 520.3045,-205.8129 520.3045,-205.8129"/>
<polygon fill="#000000" stroke="#000000" points="516.8046,-205.8129 520.3045,-215.8129 523.8046,-205.813 516.8046,-205.8129"/>
</g>
<!-- DejaGridRowComponent  -->
<g id="node15" class="node">
<title>DejaGridRowComponent </title>
<polygon fill="#fb8072" stroke="#000000" points="380.8602,-252 217.1398,-252 217.1398,-216 380.8602,-216 380.8602,-252"/>
<text text-anchor="middle" x="299" y="-229.8" font-family="Times,serif" font-size="14.00" fill="#000000">DejaGridRowComponent </text>
</g>
<!-- DejaGridModule&#45;&gt;DejaGridRowComponent  -->
<g id="edge14" class="edge">
<title>DejaGridModule&#45;&gt;DejaGridRowComponent </title>
<path fill="none" stroke="#000000" stroke-dasharray="5,2" d="M648.012,-177C548.3793,-177 350.6586,-177 350.6586,-177 350.6586,-177 350.6586,-205.9648 350.6586,-205.9648"/>
<polygon fill="#000000" stroke="#000000" points="347.1587,-205.9648 350.6586,-215.9648 354.1587,-205.9649 347.1587,-205.9648"/>
</g>
<!-- DejaChipsModule -->
<g id="node7" class="node">
<title>DejaChipsModule</title>
<polygon fill="#8dd3c7" stroke="#000000" points="600.1485,-122 597.1485,-126 576.1485,-126 573.1485,-122 481.8515,-122 481.8515,-86 600.1485,-86 600.1485,-122"/>
<text text-anchor="middle" x="541" y="-99.8" font-family="Times,serif" font-size="14.00" fill="#000000">DejaChipsModule</text>
</g>
<!-- DejaChipsModule&#45;&gt;DejaGridModule -->
<g id="edge6" class="edge">
<title>DejaChipsModule&#45;&gt;DejaGridModule</title>
<path fill="none" stroke="#000000" d="M558.9329,-122.2396C558.9329,-137.5706 558.9329,-157 558.9329,-157 558.9329,-157 638.3282,-157 638.3282,-157"/>
<polygon fill="#000000" stroke="#000000" points="638.3282,-160.5001 648.3282,-157 638.3281,-153.5001 638.3282,-160.5001"/>
</g>
<!-- DejaDragDropModule -->
<g id="node8" class="node">
<title>DejaDragDropModule</title>
<polygon fill="#8dd3c7" stroke="#000000" points="463.2255,-122 460.2255,-126 439.2255,-126 436.2255,-122 320.7745,-122 320.7745,-86 463.2255,-86 463.2255,-122"/>
<text text-anchor="middle" x="392" y="-99.8" font-family="Times,serif" font-size="14.00" fill="#000000">DejaDragDropModule</text>
</g>
<!-- DejaDragDropModule&#45;&gt;DejaGridModule -->
<g id="edge7" class="edge">
<title>DejaDragDropModule&#45;&gt;DejaGridModule</title>
<path fill="none" stroke="#000000" d="M430.9006,-122.0336C430.9006,-139.0597 430.9006,-162 430.9006,-162 430.9006,-162 638.0753,-162 638.0753,-162"/>
<polygon fill="#000000" stroke="#000000" points="638.0753,-165.5001 648.0753,-162 638.0752,-158.5001 638.0753,-165.5001"/>
</g>
<!-- DejaSortingModule -->
<g id="node9" class="node">
<title>DejaSortingModule</title>
<polygon fill="#8dd3c7" stroke="#000000" points="302.7008,-122 299.7008,-126 278.7008,-126 275.7008,-122 175.2992,-122 175.2992,-86 302.7008,-86 302.7008,-122"/>
<text text-anchor="middle" x="239" y="-99.8" font-family="Times,serif" font-size="14.00" fill="#000000">DejaSortingModule</text>
</g>
<!-- DejaSortingModule&#45;&gt;DejaGridModule -->
<g id="edge8" class="edge">
<title>DejaSortingModule&#45;&gt;DejaGridModule</title>
<path fill="none" stroke="#000000" d="M259.9602,-122.2222C259.9602,-140.8285 259.9602,-167 259.9602,-167 259.9602,-167 638.2117,-167 638.2117,-167"/>
<polygon fill="#000000" stroke="#000000" points="638.2117,-170.5001 648.2117,-167 638.2116,-163.5001 638.2117,-170.5001"/>
</g>
<!-- DejaTreeListModule -->
<g id="node10" class="node">
<title>DejaTreeListModule</title>
<polygon fill="#8dd3c7" stroke="#000000" points="157.8976,-122 154.8976,-126 133.8976,-126 130.8976,-122 24.1024,-122 24.1024,-86 157.8976,-86 157.8976,-122"/>
<text text-anchor="middle" x="91" y="-99.8" font-family="Times,serif" font-size="14.00" fill="#000000">DejaTreeListModule</text>
</g>
<!-- DejaTreeListModule&#45;&gt;DejaGridModule -->
<g id="edge9" class="edge">
<title>DejaTreeListModule&#45;&gt;DejaGridModule</title>
<path fill="none" stroke="#000000" d="M91,-122.2228C91,-142.3652 91,-172 91,-172 91,-172 638.2475,-172 638.2475,-172"/>
<polygon fill="#000000" stroke="#000000" points="638.2475,-175.5001 648.2475,-172 638.2475,-168.5001 638.2475,-175.5001"/>
</g>
</g>
</svg>
