<?xml version="1.0" encoding="UTF-8" standalone="no"?>
<!DOCTYPE svg PUBLIC "-//W3C//DTD SVG 1.1//EN"
 "http://www.w3.org/Graphics/SVG/1.1/DTD/svg11.dtd">
<!-- Generated by graphviz version 2.40.1 (20161225.0304)
 -->
<!-- Title: dependencies Pages: 1 -->
<svg width="1694pt" height="284pt"
 viewBox="0.00 0.00 1694.00 284.00" xmlns="http://www.w3.org/2000/svg" xmlns:xlink="http://www.w3.org/1999/xlink">
<g id="graph0" class="graph" transform="scale(1 1) rotate(0) translate(4 280)">
<title>dependencies</title>
<polygon fill="#ffffff" stroke="transparent" points="-4,4 -4,-280 1690,-280 1690,4 -4,4"/>
<text text-anchor="start" x="822.0091" y="-42.4" font-family="sans-serif" font-weight="bold" font-size="14.00" fill="#000000">Legend</text>
<polygon fill="#ffffb3" stroke="transparent" points="609,-10 609,-30 629,-30 629,-10 609,-10"/>
<text text-anchor="start" x="632.629" y="-15.4" font-family="sans-serif" font-size="14.00" fill="#000000"> &#160;Declarations</text>
<polygon fill="#8dd3c7" stroke="transparent" points="722,-10 722,-30 742,-30 742,-10 722,-10"/>
<text text-anchor="start" x="745.7251" y="-15.4" font-family="sans-serif" font-size="14.00" fill="#000000"> &#160;Module</text>
<polygon fill="#80b1d3" stroke="transparent" points="808,-10 808,-30 828,-30 828,-10 808,-10"/>
<text text-anchor="start" x="831.7812" y="-15.4" font-family="sans-serif" font-size="14.00" fill="#000000"> &#160;Bootstrap</text>
<polygon fill="#fdb462" stroke="transparent" points="905,-10 905,-30 925,-30 925,-10 905,-10"/>
<text text-anchor="start" x="928.6732" y="-15.4" font-family="sans-serif" font-size="14.00" fill="#000000"> &#160;Providers</text>
<polygon fill="#fb8072" stroke="transparent" points="1001,-10 1001,-30 1021,-30 1021,-10 1001,-10"/>
<text text-anchor="start" x="1024.7258" y="-15.4" font-family="sans-serif" font-size="14.00" fill="#000000"> &#160;Exports</text>
<g id="clust1" class="cluster">
<title>cluster_DejaGridModule</title>
<polygon fill="none" stroke="#000000" stroke-dasharray="1,5" points="8,-70 8,-268 1678,-268 1678,-70 8,-70"/>
</g>
<g id="clust2" class="cluster">
<title>cluster_DejaGridModule_declarations</title>
<polygon fill="none" stroke="#000000" points="722,-78 722,-130 1670,-130 1670,-78 722,-78"/>
</g>
<g id="clust8" class="cluster">
<title>cluster_DejaGridModule_imports</title>
<polygon fill="none" stroke="#000000" points="16,-78 16,-130 714,-130 714,-78 16,-78"/>
</g>
<g id="clust9" class="cluster">
<title>cluster_DejaGridModule_exports</title>
<polygon fill="none" stroke="#000000" points="218,-208 218,-260 1182,-260 1182,-208 218,-208"/>
</g>
<!-- DejaGridComponent -->
<g id="node1" class="node">
<title>DejaGridComponent</title>
<polygon fill="#ffffb3" stroke="#000000" points="1661.9173,-122 1528.0827,-122 1528.0827,-86 1661.9173,-86 1661.9173,-122"/>
<text text-anchor="middle" x="1595" y="-99.8" font-family="Times,serif" font-size="14.00" fill="#000000">DejaGridComponent</text>
</g>
<!-- DejaGridModule -->
<g id="node6" class="node">
<title>DejaGridModule</title>
<polygon fill="#8dd3c7" stroke="#000000" points="794.6346,-187 791.6346,-191 770.6346,-191 767.6346,-187 683.3654,-187 683.3654,-151 794.6346,-151 794.6346,-187"/>
<text text-anchor="middle" x="739" y="-164.8" font-family="Times,serif" font-size="14.00" fill="#000000">DejaGridModule</text>
</g>
<!-- DejaGridComponent&#45;&gt;DejaGridModule -->
<g id="edge1" class="edge">
<title>DejaGridComponent&#45;&gt;DejaGridModule</title>
<path fill="none" stroke="#000000" d="M1595,-122.2228C1595,-142.3652 1595,-172 1595,-172 1595,-172 804.8344,-172 804.8344,-172"/>
<polygon fill="#000000" stroke="#000000" points="804.8344,-168.5001 794.8344,-172 804.8343,-175.5001 804.8344,-168.5001"/>
</g>
<!-- DejaGridRowComponent -->
<g id="node2" class="node">
<title>DejaGridRowComponent</title>
<polygon fill="#ffffb3" stroke="#000000" points="1509.8599,-122 1350.1401,-122 1350.1401,-86 1509.8599,-86 1509.8599,-122"/>
<text text-anchor="middle" x="1430" y="-99.8" font-family="Times,serif" font-size="14.00" fill="#000000">DejaGridRowComponent</text>
</g>
<!-- DejaGridRowComponent&#45;&gt;DejaGridModule -->
<g id="edge2" class="edge">
<title>DejaGridRowComponent&#45;&gt;DejaGridModule</title>
<path fill="none" stroke="#000000" d="M1430,-122.2222C1430,-140.8285 1430,-167 1430,-167 1430,-167 804.6704,-167 804.6704,-167"/>
<polygon fill="#000000" stroke="#000000" points="804.6704,-163.5001 794.6704,-167 804.6704,-170.5001 804.6704,-163.5001"/>
</g>
<!-- DejaGridParentRowComponent -->
<g id="node3" class="node">
<title>DejaGridParentRowComponent</title>
<polygon fill="#ffffb3" stroke="#000000" points="1331.6232,-122 1136.3768,-122 1136.3768,-86 1331.6232,-86 1331.6232,-122"/>
<text text-anchor="middle" x="1234" y="-99.8" font-family="Times,serif" font-size="14.00" fill="#000000">DejaGridParentRowComponent</text>
</g>
<!-- DejaGridParentRowComponent&#45;&gt;DejaGridModule -->
<g id="edge3" class="edge">
<title>DejaGridParentRowComponent&#45;&gt;DejaGridModule</title>
<path fill="none" stroke="#000000" d="M1155.3234,-122.0336C1155.3234,-139.0597 1155.3234,-162 1155.3234,-162 1155.3234,-162 804.7152,-162 804.7152,-162"/>
<polygon fill="#000000" stroke="#000000" points="804.7153,-158.5001 794.7152,-162 804.7152,-165.5001 804.7153,-158.5001"/>
</g>
<!-- DejaGridHeaderComponent -->
<g id="node4" class="node">
<title>DejaGridHeaderComponent</title>
<polygon fill="#ffffb3" stroke="#000000" points="1117.8277,-122 944.1723,-122 944.1723,-86 1117.8277,-86 1117.8277,-122"/>
<text text-anchor="middle" x="1031" y="-99.8" font-family="Times,serif" font-size="14.00" fill="#000000">DejaGridHeaderComponent</text>
</g>
<!-- DejaGridHeaderComponent&#45;&gt;DejaGridModule -->
<g id="edge4" class="edge">
<title>DejaGridHeaderComponent&#45;&gt;DejaGridModule</title>
<path fill="none" stroke="#000000" d="M981.8831,-122.2396C981.8831,-137.5706 981.8831,-157 981.8831,-157 981.8831,-157 804.7223,-157 804.7223,-157"/>
<polygon fill="#000000" stroke="#000000" points="804.7223,-153.5001 794.7223,-157 804.7222,-160.5001 804.7223,-153.5001"/>
</g>
<!-- DejaGridGroupAreaComponent -->
<g id="node5" class="node">
<title>DejaGridGroupAreaComponent</title>
<polygon fill="#ffffb3" stroke="#000000" points="926.3806,-122 729.6194,-122 729.6194,-86 926.3806,-86 926.3806,-122"/>
<text text-anchor="middle" x="828" y="-99.8" font-family="Times,serif" font-size="14.00" fill="#000000">DejaGridGroupAreaComponent</text>
</g>
<!-- DejaGridGroupAreaComponent&#45;&gt;DejaGridModule -->
<g id="edge5" class="edge">
<title>DejaGridGroupAreaComponent&#45;&gt;DejaGridModule</title>
<path fill="none" stroke="#000000" d="M762.3135,-122.1061C762.3135,-122.1061 762.3135,-140.991 762.3135,-140.991"/>
<polygon fill="#000000" stroke="#000000" points="758.8135,-140.9909 762.3135,-150.991 765.8135,-140.991 758.8135,-140.9909"/>
</g>
<!-- DejaGridComponent  -->
<g id="node12" class="node">
<title>DejaGridComponent </title>
<polygon fill="#fb8072" stroke="#000000" points="1174.4166,-252 1037.5834,-252 1037.5834,-216 1174.4166,-216 1174.4166,-252"/>
<text text-anchor="middle" x="1106" y="-229.8" font-family="Times,serif" font-size="14.00" fill="#000000">DejaGridComponent </text>
</g>
<!-- DejaGridModule&#45;&gt;DejaGridComponent  -->
<g id="edge11" class="edge">
<title>DejaGridModule&#45;&gt;DejaGridComponent </title>
<path fill="none" stroke="#000000" stroke-dasharray="5,2" d="M794.934,-177C891.1422,-177 1077.7278,-177 1077.7278,-177 1077.7278,-177 1077.7278,-205.9648 1077.7278,-205.9648"/>
<polygon fill="#000000" stroke="#000000" points="1074.2278,-205.9648 1077.7278,-215.9648 1081.2278,-205.9649 1074.2278,-205.9648"/>
</g>
<!-- DejaGridRowComponent  -->
<g id="node13" class="node">
<title>DejaGridRowComponent </title>
<polygon fill="#fb8072" stroke="#000000" points="1019.8602,-252 856.1398,-252 856.1398,-216 1019.8602,-216 1019.8602,-252"/>
<text text-anchor="middle" x="938" y="-229.8" font-family="Times,serif" font-size="14.00" fill="#000000">DejaGridRowComponent </text>
</g>
<!-- DejaGridModule&#45;&gt;DejaGridRowComponent  -->
<g id="edge12" class="edge">
<title>DejaGridModule&#45;&gt;DejaGridRowComponent </title>
<path fill="none" stroke="#000000" stroke-dasharray="5,2" d="M794.8296,-182C838.2832,-182 891.2551,-182 891.2551,-182 891.2551,-182 891.2551,-205.8129 891.2551,-205.8129"/>
<polygon fill="#000000" stroke="#000000" points="887.7552,-205.8129 891.2551,-215.8129 894.7552,-205.813 887.7552,-205.8129"/>
</g>
<!-- DejaGridParentRowComponent  -->
<g id="node14" class="node">
<title>DejaGridParentRowComponent </title>
<polygon fill="#fb8072" stroke="#000000" points="838.6228,-252 639.3772,-252 639.3772,-216 838.6228,-216 838.6228,-252"/>
<text text-anchor="middle" x="739" y="-229.8" font-family="Times,serif" font-size="14.00" fill="#000000">DejaGridParentRowComponent </text>
</g>
<!-- DejaGridModule&#45;&gt;DejaGridParentRowComponent  -->
<g id="edge13" class="edge">
<title>DejaGridModule&#45;&gt;DejaGridParentRowComponent </title>
<path fill="none" stroke="#000000" stroke-dasharray="5,2" d="M739,-187.1061C739,-187.1061 739,-205.991 739,-205.991"/>
<polygon fill="#000000" stroke="#000000" points="735.5001,-205.9909 739,-215.991 742.5001,-205.991 735.5001,-205.9909"/>
</g>
<!-- DejaGridHeaderComponent  -->
<g id="node15" class="node">
<title>DejaGridHeaderComponent </title>
<polygon fill="#fb8072" stroke="#000000" points="621.8279,-252 444.1721,-252 444.1721,-216 621.8279,-216 621.8279,-252"/>
<text text-anchor="middle" x="533" y="-229.8" font-family="Times,serif" font-size="14.00" fill="#000000">DejaGridHeaderComponent </text>
</g>
<!-- DejaGridModule&#45;&gt;DejaGridHeaderComponent  -->
<g id="edge14" class="edge">
<title>DejaGridModule&#45;&gt;DejaGridHeaderComponent </title>
<path fill="none" stroke="#000000" stroke-dasharray="5,2" d="M683.0279,-182C647.3994,-182 607.915,-182 607.915,-182 607.915,-182 607.915,-205.8129 607.915,-205.8129"/>
<polygon fill="#000000" stroke="#000000" points="604.4151,-205.8129 607.915,-215.8129 611.4151,-205.813 604.4151,-205.8129"/>
</g>
<!-- DejaGridGroupAreaComponent  -->
<g id="node16" class="node">
<title>DejaGridGroupAreaComponent </title>
<polygon fill="#fb8072" stroke="#000000" points="425.8802,-252 226.1198,-252 226.1198,-216 425.8802,-216 425.8802,-252"/>
<text text-anchor="middle" x="326" y="-229.8" font-family="Times,serif" font-size="14.00" fill="#000000">DejaGridGroupAreaComponent </text>
</g>
<!-- DejaGridModule&#45;&gt;DejaGridGroupAreaComponent  -->
<g id="edge15" class="edge">
<title>DejaGridModule&#45;&gt;DejaGridGroupAreaComponent </title>
<path fill="none" stroke="#000000" stroke-dasharray="5,2" d="M683.0086,-177C581.6443,-177 378.1208,-177 378.1208,-177 378.1208,-177 378.1208,-205.9648 378.1208,-205.9648"/>
<polygon fill="#000000" stroke="#000000" points="374.6209,-205.9648 378.1208,-215.9648 381.6209,-205.9649 374.6209,-205.9648"/>
</g>
<!-- CommonModule -->
<g id="node7" class="node">
<title>CommonModule</title>
<polygon fill="#8dd3c7" stroke="#000000" points="705.6681,-122 702.6681,-126 681.6681,-126 678.6681,-122 594.3319,-122 594.3319,-86 705.6681,-86 705.6681,-122"/>
<text text-anchor="middle" x="650" y="-99.8" font-family="Times,serif" font-size="14.00" fill="#000000">CommonModule</text>
</g>
<!-- CommonModule&#45;&gt;DejaGridModule -->
<g id="edge6" class="edge">
<title>CommonModule&#45;&gt;DejaGridModule</title>
<path fill="none" stroke="#000000" d="M694.5084,-122.1061C694.5084,-122.1061 694.5084,-140.991 694.5084,-140.991"/>
<polygon fill="#000000" stroke="#000000" points="691.0085,-140.9909 694.5084,-150.991 698.0085,-140.991 691.0085,-140.9909"/>
</g>
<!-- FormsModule -->
<g id="node8" class="node">
<title>FormsModule</title>
<polygon fill="#8dd3c7" stroke="#000000" points="576.8288,-122 573.8288,-126 552.8288,-126 549.8288,-122 481.1712,-122 481.1712,-86 576.8288,-86 576.8288,-122"/>
<text text-anchor="middle" x="529" y="-99.8" font-family="Times,serif" font-size="14.00" fill="#000000">FormsModule</text>
</g>
<!-- FormsModule&#45;&gt;DejaGridModule -->
<g id="edge7" class="edge">
<title>FormsModule&#45;&gt;DejaGridModule</title>
<path fill="none" stroke="#000000" d="M529,-122.2396C529,-137.5706 529,-157 529,-157 529,-157 673.2752,-157 673.2752,-157"/>
<polygon fill="#000000" stroke="#000000" points="673.2752,-160.5001 683.2752,-157 673.2752,-153.5001 673.2752,-160.5001"/>
</g>
<!-- DejaTreeListModule -->
<g id="node9" class="node">
<title>DejaTreeListModule</title>
<polygon fill="#8dd3c7" stroke="#000000" points="463.8976,-122 460.8976,-126 439.8976,-126 436.8976,-122 330.1024,-122 330.1024,-86 463.8976,-86 463.8976,-122"/>
<text text-anchor="middle" x="397" y="-99.8" font-family="Times,serif" font-size="14.00" fill="#000000">DejaTreeListModule</text>
</g>
<!-- DejaTreeListModule&#45;&gt;DejaGridModule -->
<g id="edge8" class="edge">
<title>DejaTreeListModule&#45;&gt;DejaGridModule</title>
<path fill="none" stroke="#000000" d="M454.0174,-122.0336C454.0174,-139.0597 454.0174,-162 454.0174,-162 454.0174,-162 673.0366,-162 673.0366,-162"/>
<polygon fill="#000000" stroke="#000000" points="673.0367,-165.5001 683.0366,-162 673.0366,-158.5001 673.0367,-165.5001"/>
</g>
<!-- DejaDragDropModule -->
<g id="node10" class="node">
<title>DejaDragDropModule</title>
<polygon fill="#8dd3c7" stroke="#000000" points="312.2255,-122 309.2255,-126 288.2255,-126 285.2255,-122 169.7745,-122 169.7745,-86 312.2255,-86 312.2255,-122"/>
<text text-anchor="middle" x="241" y="-99.8" font-family="Times,serif" font-size="14.00" fill="#000000">DejaDragDropModule</text>
</g>
<!-- DejaDragDropModule&#45;&gt;DejaGridModule -->
<g id="edge9" class="edge">
<title>DejaDragDropModule&#45;&gt;DejaGridModule</title>
<path fill="none" stroke="#000000" d="M269.2112,-122.2222C269.2112,-140.8285 269.2112,-167 269.2112,-167 269.2112,-167 673.2642,-167 673.2642,-167"/>
<polygon fill="#000000" stroke="#000000" points="673.2643,-170.5001 683.2642,-167 673.2642,-163.5001 673.2643,-170.5001"/>
</g>
<!-- DejaSortingModule -->
<g id="node11" class="node">
<title>DejaSortingModule</title>
<polygon fill="#8dd3c7" stroke="#000000" points="151.7008,-122 148.7008,-126 127.7008,-126 124.7008,-122 24.2992,-122 24.2992,-86 151.7008,-86 151.7008,-122"/>
<text text-anchor="middle" x="88" y="-99.8" font-family="Times,serif" font-size="14.00" fill="#000000">DejaSortingModule</text>
</g>
<!-- DejaSortingModule&#45;&gt;DejaGridModule -->
<g id="edge10" class="edge">
<title>DejaSortingModule&#45;&gt;DejaGridModule</title>
<path fill="none" stroke="#000000" d="M88,-122.2228C88,-142.3652 88,-172 88,-172 88,-172 673.2147,-172 673.2147,-172"/>
<polygon fill="#000000" stroke="#000000" points="673.2147,-175.5001 683.2147,-172 673.2146,-168.5001 673.2147,-175.5001"/>
</g>
</g>
</svg>
