<?xml version="1.0" encoding="UTF-8" standalone="no"?>
<!DOCTYPE svg PUBLIC "-//W3C//DTD SVG 1.1//EN"
 "http://www.w3.org/Graphics/SVG/1.1/DTD/svg11.dtd">
<!-- Generated by graphviz version 2.40.1 (20161225.0304)
 -->
<!-- Title: dependencies Pages: 1 -->
<svg width="1588pt" height="284pt"
 viewBox="0.00 0.00 1588.00 284.00" xmlns="http://www.w3.org/2000/svg" xmlns:xlink="http://www.w3.org/1999/xlink">
<g id="graph0" class="graph" transform="scale(1 1) rotate(0) translate(4 280)">
<title>dependencies</title>
<polygon fill="#ffffff" stroke="transparent" points="-4,4 -4,-280 1584,-280 1584,4 -4,4"/>
<text text-anchor="start" x="769.0091" y="-42.4" font-family="sans-serif" font-weight="bold" font-size="14.00" fill="#000000">Legend</text>
<polygon fill="#ffffb3" stroke="transparent" points="556,-10 556,-30 576,-30 576,-10 556,-10"/>
<text text-anchor="start" x="579.629" y="-15.4" font-family="sans-serif" font-size="14.00" fill="#000000"> &#160;Declarations</text>
<polygon fill="#8dd3c7" stroke="transparent" points="669,-10 669,-30 689,-30 689,-10 669,-10"/>
<text text-anchor="start" x="692.7251" y="-15.4" font-family="sans-serif" font-size="14.00" fill="#000000"> &#160;Module</text>
<polygon fill="#80b1d3" stroke="transparent" points="755,-10 755,-30 775,-30 775,-10 755,-10"/>
<text text-anchor="start" x="778.7812" y="-15.4" font-family="sans-serif" font-size="14.00" fill="#000000"> &#160;Bootstrap</text>
<polygon fill="#fdb462" stroke="transparent" points="852,-10 852,-30 872,-30 872,-10 852,-10"/>
<text text-anchor="start" x="875.6732" y="-15.4" font-family="sans-serif" font-size="14.00" fill="#000000"> &#160;Providers</text>
<polygon fill="#fb8072" stroke="transparent" points="948,-10 948,-30 968,-30 968,-10 948,-10"/>
<text text-anchor="start" x="971.7258" y="-15.4" font-family="sans-serif" font-size="14.00" fill="#000000"> &#160;Exports</text>
<g id="clust1" class="cluster">
<title>cluster_DejaGridModule</title>
<polygon fill="none" stroke="#000000" stroke-dasharray="1,5" points="8,-70 8,-268 1572,-268 1572,-70 8,-70"/>
</g>
<g id="clust2" class="cluster">
<title>cluster_DejaGridModule_declarations</title>
<polygon fill="none" stroke="#000000" points="616,-78 616,-130 1564,-130 1564,-78 616,-78"/>
</g>
<g id="clust8" class="cluster">
<title>cluster_DejaGridModule_imports</title>
<polygon fill="none" stroke="#000000" points="16,-78 16,-130 608,-130 608,-78 16,-78"/>
</g>
<g id="clust9" class="cluster">
<title>cluster_DejaGridModule_exports</title>
<polygon fill="none" stroke="#000000" points="201,-208 201,-260 1165,-260 1165,-208 201,-208"/>
</g>
<!-- DejaGridComponent -->
<g id="node1" class="node">
<title>DejaGridComponent</title>
<polygon fill="#ffffb3" stroke="#000000" points="1555.9173,-122 1422.0827,-122 1422.0827,-86 1555.9173,-86 1555.9173,-122"/>
<text text-anchor="middle" x="1489" y="-99.8" font-family="Times,serif" font-size="14.00" fill="#000000">DejaGridComponent</text>
</g>
<!-- DejaGridModule -->
<g id="node6" class="node">
<title>DejaGridModule</title>
<polygon fill="#8dd3c7" stroke="#000000" points="777.6346,-187 774.6346,-191 753.6346,-191 750.6346,-187 666.3654,-187 666.3654,-151 777.6346,-151 777.6346,-187"/>
<text text-anchor="middle" x="722" y="-164.8" font-family="Times,serif" font-size="14.00" fill="#000000">DejaGridModule</text>
</g>
<!-- DejaGridComponent&#45;&gt;DejaGridModule -->
<g id="edge1" class="edge">
<title>DejaGridComponent&#45;&gt;DejaGridModule</title>
<path fill="none" stroke="#000000" d="M1489,-122.2228C1489,-142.3652 1489,-172 1489,-172 1489,-172 787.7786,-172 787.7786,-172"/>
<polygon fill="#000000" stroke="#000000" points="787.7786,-168.5001 777.7786,-172 787.7785,-175.5001 787.7786,-168.5001"/>
</g>
<!-- DejaGridRowComponent -->
<g id="node2" class="node">
<title>DejaGridRowComponent</title>
<polygon fill="#ffffb3" stroke="#000000" points="1403.8599,-122 1244.1401,-122 1244.1401,-86 1403.8599,-86 1403.8599,-122"/>
<text text-anchor="middle" x="1324" y="-99.8" font-family="Times,serif" font-size="14.00" fill="#000000">DejaGridRowComponent</text>
</g>
<!-- DejaGridRowComponent&#45;&gt;DejaGridModule -->
<g id="edge2" class="edge">
<title>DejaGridRowComponent&#45;&gt;DejaGridModule</title>
<path fill="none" stroke="#000000" d="M1324,-122.2222C1324,-140.8285 1324,-167 1324,-167 1324,-167 787.8246,-167 787.8246,-167"/>
<polygon fill="#000000" stroke="#000000" points="787.8247,-163.5001 777.8246,-167 787.8246,-170.5001 787.8247,-163.5001"/>
</g>
<!-- DejaGridParentRowComponent -->
<g id="node3" class="node">
<title>DejaGridParentRowComponent</title>
<polygon fill="#ffffb3" stroke="#000000" points="1225.6232,-122 1030.3768,-122 1030.3768,-86 1225.6232,-86 1225.6232,-122"/>
<text text-anchor="middle" x="1128" y="-99.8" font-family="Times,serif" font-size="14.00" fill="#000000">DejaGridParentRowComponent</text>
</g>
<!-- DejaGridParentRowComponent&#45;&gt;DejaGridModule -->
<g id="edge3" class="edge">
<title>DejaGridParentRowComponent&#45;&gt;DejaGridModule</title>
<path fill="none" stroke="#000000" d="M1093.8234,-122.0336C1093.8234,-139.0597 1093.8234,-162 1093.8234,-162 1093.8234,-162 787.6657,-162 787.6657,-162"/>
<polygon fill="#000000" stroke="#000000" points="787.6658,-158.5001 777.6657,-162 787.6657,-165.5001 787.6658,-158.5001"/>
</g>
<!-- DejaGridHeaderComponent -->
<g id="node4" class="node">
<title>DejaGridHeaderComponent</title>
<polygon fill="#ffffb3" stroke="#000000" points="1011.8277,-122 838.1723,-122 838.1723,-86 1011.8277,-86 1011.8277,-122"/>
<text text-anchor="middle" x="925" y="-99.8" font-family="Times,serif" font-size="14.00" fill="#000000">DejaGridHeaderComponent</text>
</g>
<!-- DejaGridHeaderComponent&#45;&gt;DejaGridModule -->
<g id="edge4" class="edge">
<title>DejaGridHeaderComponent&#45;&gt;DejaGridModule</title>
<path fill="none" stroke="#000000" d="M893.7734,-122.2396C893.7734,-137.5706 893.7734,-157 893.7734,-157 893.7734,-157 787.7699,-157 787.7699,-157"/>
<polygon fill="#000000" stroke="#000000" points="787.7699,-153.5001 777.7699,-157 787.7699,-160.5001 787.7699,-153.5001"/>
</g>
<!-- DejaGridGroupAreaComponent -->
<g id="node5" class="node">
<title>DejaGridGroupAreaComponent</title>
<polygon fill="#ffffb3" stroke="#000000" points="820.3806,-122 623.6194,-122 623.6194,-86 820.3806,-86 820.3806,-122"/>
<text text-anchor="middle" x="722" y="-99.8" font-family="Times,serif" font-size="14.00" fill="#000000">DejaGridGroupAreaComponent</text>
</g>
<!-- DejaGridGroupAreaComponent&#45;&gt;DejaGridModule -->
<g id="edge5" class="edge">
<title>DejaGridGroupAreaComponent&#45;&gt;DejaGridModule</title>
<path fill="none" stroke="#000000" d="M722,-122.1061C722,-122.1061 722,-140.991 722,-140.991"/>
<polygon fill="#000000" stroke="#000000" points="718.5001,-140.9909 722,-150.991 725.5001,-140.991 718.5001,-140.9909"/>
</g>
<!-- DejaGridComponent  -->
<g id="node11" class="node">
<title>DejaGridComponent </title>
<polygon fill="#fb8072" stroke="#000000" points="1157.4166,-252 1020.5834,-252 1020.5834,-216 1157.4166,-216 1157.4166,-252"/>
<text text-anchor="middle" x="1089" y="-229.8" font-family="Times,serif" font-size="14.00" fill="#000000">DejaGridComponent </text>
</g>
<!-- DejaGridModule&#45;&gt;DejaGridComponent  -->
<g id="edge10" class="edge">
<title>DejaGridModule&#45;&gt;DejaGridComponent </title>
<path fill="none" stroke="#000000" stroke-dasharray="5,2" d="M777.6418,-177C865.2208,-177 1025.3652,-177 1025.3652,-177 1025.3652,-177 1025.3652,-205.9648 1025.3652,-205.9648"/>
<polygon fill="#000000" stroke="#000000" points="1021.8652,-205.9648 1025.3652,-215.9648 1028.8652,-205.9649 1021.8652,-205.9648"/>
</g>
<!-- DejaGridRowComponent  -->
<g id="node12" class="node">
<title>DejaGridRowComponent </title>
<polygon fill="#fb8072" stroke="#000000" points="1002.8602,-252 839.1398,-252 839.1398,-216 1002.8602,-216 1002.8602,-252"/>
<text text-anchor="middle" x="921" y="-229.8" font-family="Times,serif" font-size="14.00" fill="#000000">DejaGridRowComponent </text>
</g>
<!-- DejaGridModule&#45;&gt;DejaGridRowComponent  -->
<g id="edge11" class="edge">
<title>DejaGridModule&#45;&gt;DejaGridRowComponent </title>
<path fill="none" stroke="#000000" stroke-dasharray="5,2" d="M777.9212,-182C844.9134,-182 948.2266,-182 948.2266,-182 948.2266,-182 948.2266,-205.8129 948.2266,-205.8129"/>
<polygon fill="#000000" stroke="#000000" points="944.7267,-205.8129 948.2266,-215.8129 951.7267,-205.813 944.7267,-205.8129"/>
</g>
<!-- DejaGridParentRowComponent  -->
<g id="node13" class="node">
<title>DejaGridParentRowComponent </title>
<polygon fill="#fb8072" stroke="#000000" points="821.6228,-252 622.3772,-252 622.3772,-216 821.6228,-216 821.6228,-252"/>
<text text-anchor="middle" x="722" y="-229.8" font-family="Times,serif" font-size="14.00" fill="#000000">DejaGridParentRowComponent </text>
</g>
<!-- DejaGridModule&#45;&gt;DejaGridParentRowComponent  -->
<g id="edge12" class="edge">
<title>DejaGridModule&#45;&gt;DejaGridParentRowComponent </title>
<path fill="none" stroke="#000000" stroke-dasharray="5,2" d="M722,-187.1061C722,-187.1061 722,-205.991 722,-205.991"/>
<polygon fill="#000000" stroke="#000000" points="718.5001,-205.9909 722,-215.991 725.5001,-205.991 718.5001,-205.9909"/>
</g>
<!-- DejaGridHeaderComponent  -->
<g id="node14" class="node">
<title>DejaGridHeaderComponent </title>
<polygon fill="#fb8072" stroke="#000000" points="604.8279,-252 427.1721,-252 427.1721,-216 604.8279,-216 604.8279,-252"/>
<text text-anchor="middle" x="516" y="-229.8" font-family="Times,serif" font-size="14.00" fill="#000000">DejaGridHeaderComponent </text>
</g>
<!-- DejaGridModule&#45;&gt;DejaGridHeaderComponent  -->
<g id="edge13" class="edge">
<title>DejaGridModule&#45;&gt;DejaGridHeaderComponent </title>
<path fill="none" stroke="#000000" stroke-dasharray="5,2" d="M666.2248,-182C603.6426,-182 510.7672,-182 510.7672,-182 510.7672,-182 510.7672,-205.8129 510.7672,-205.8129"/>
<polygon fill="#000000" stroke="#000000" points="507.2673,-205.8129 510.7672,-215.8129 514.2673,-205.813 507.2673,-205.8129"/>
</g>
<!-- DejaGridGroupAreaComponent  -->
<g id="node15" class="node">
<title>DejaGridGroupAreaComponent </title>
<polygon fill="#fb8072" stroke="#000000" points="408.8802,-252 209.1198,-252 209.1198,-216 408.8802,-216 408.8802,-252"/>
<text text-anchor="middle" x="309" y="-229.8" font-family="Times,serif" font-size="14.00" fill="#000000">DejaGridGroupAreaComponent </text>
</g>
<!-- DejaGridModule&#45;&gt;DejaGridGroupAreaComponent  -->
<g id="edge14" class="edge">
<title>DejaGridModule&#45;&gt;DejaGridGroupAreaComponent </title>
<path fill="none" stroke="#000000" stroke-dasharray="5,2" d="M666.2112,-177C564.0447,-177 357.2888,-177 357.2888,-177 357.2888,-177 357.2888,-205.9648 357.2888,-205.9648"/>
<polygon fill="#000000" stroke="#000000" points="353.7888,-205.9648 357.2888,-215.9648 360.7888,-205.9649 353.7888,-205.9648"/>
</g>
<!-- DejaTreeListModule -->
<g id="node7" class="node">
<title>DejaTreeListModule</title>
<polygon fill="#8dd3c7" stroke="#000000" points="599.8976,-122 596.8976,-126 575.8976,-126 572.8976,-122 466.1024,-122 466.1024,-86 599.8976,-86 599.8976,-122"/>
<text text-anchor="middle" x="533" y="-99.8" font-family="Times,serif" font-size="14.00" fill="#000000">DejaTreeListModule</text>
</g>
<!-- DejaTreeListModule&#45;&gt;DejaGridModule -->
<g id="edge6" class="edge">
<title>DejaTreeListModule&#45;&gt;DejaGridModule</title>
<path fill="none" stroke="#000000" d="M555.2328,-122.2396C555.2328,-137.5706 555.2328,-157 555.2328,-157 555.2328,-157 656.005,-157 656.005,-157"/>
<polygon fill="#000000" stroke="#000000" points="656.0051,-160.5001 666.005,-157 656.005,-153.5001 656.0051,-160.5001"/>
</g>
<!-- DejaDragDropModule -->
<g id="node8" class="node">
<title>DejaDragDropModule</title>
<polygon fill="#8dd3c7" stroke="#000000" points="448.2255,-122 445.2255,-126 424.2255,-126 421.2255,-122 305.7745,-122 305.7745,-86 448.2255,-86 448.2255,-122"/>
<text text-anchor="middle" x="377" y="-99.8" font-family="Times,serif" font-size="14.00" fill="#000000">DejaDragDropModule</text>
</g>
<!-- DejaDragDropModule&#45;&gt;DejaGridModule -->
<g id="edge7" class="edge">
<title>DejaDragDropModule&#45;&gt;DejaGridModule</title>
<path fill="none" stroke="#000000" d="M437.8494,-122.0336C437.8494,-139.0597 437.8494,-162 437.8494,-162 437.8494,-162 656.2,-162 656.2,-162"/>
<polygon fill="#000000" stroke="#000000" points="656.2001,-165.5001 666.2,-162 656.2,-158.5001 656.2001,-165.5001"/>
</g>
<!-- DejaSortingModule -->
<g id="node9" class="node">
<title>DejaSortingModule</title>
<polygon fill="#8dd3c7" stroke="#000000" points="287.7008,-122 284.7008,-126 263.7008,-126 260.7008,-122 160.2992,-122 160.2992,-86 287.7008,-86 287.7008,-122"/>
<text text-anchor="middle" x="224" y="-99.8" font-family="Times,serif" font-size="14.00" fill="#000000">DejaSortingModule</text>
</g>
<!-- DejaSortingModule&#45;&gt;DejaGridModule -->
<g id="edge8" class="edge">
<title>DejaSortingModule&#45;&gt;DejaGridModule</title>
<path fill="none" stroke="#000000" d="M248.3301,-122.2222C248.3301,-140.8285 248.3301,-167 248.3301,-167 248.3301,-167 656.2712,-167 656.2712,-167"/>
<polygon fill="#000000" stroke="#000000" points="656.2712,-170.5001 666.2712,-167 656.2711,-163.5001 656.2712,-170.5001"/>
</g>
<!-- DejaChipsModule -->
<g id="node10" class="node">
<title>DejaChipsModule</title>
<polygon fill="#8dd3c7" stroke="#000000" points="142.1485,-122 139.1485,-126 118.1485,-126 115.1485,-122 23.8515,-122 23.8515,-86 142.1485,-86 142.1485,-122"/>
<text text-anchor="middle" x="83" y="-99.8" font-family="Times,serif" font-size="14.00" fill="#000000">DejaChipsModule</text>
</g>
<!-- DejaChipsModule&#45;&gt;DejaGridModule -->
<g id="edge9" class="edge">
<title>DejaChipsModule&#45;&gt;DejaGridModule</title>
<path fill="none" stroke="#000000" d="M83,-122.2228C83,-142.3652 83,-172 83,-172 83,-172 656.1322,-172 656.1322,-172"/>
<polygon fill="#000000" stroke="#000000" points="656.1322,-175.5001 666.1322,-172 656.1322,-168.5001 656.1322,-175.5001"/>
</g>
</g>
</svg>
