<?xml version="1.0" encoding="UTF-8" standalone="no"?>
<!DOCTYPE svg PUBLIC "-//W3C//DTD SVG 1.1//EN"
 "http://www.w3.org/Graphics/SVG/1.1/DTD/svg11.dtd">
<!-- Generated by graphviz version 2.40.1 (20161225.0304)
 -->
<!-- Title: dependencies Pages: 1 -->
<svg width="858pt" height="284pt"
 viewBox="0.00 0.00 858.00 284.00" xmlns="http://www.w3.org/2000/svg" xmlns:xlink="http://www.w3.org/1999/xlink">
<g id="graph0" class="graph" transform="scale(1 1) rotate(0) translate(4 280)">
<title>dependencies</title>
<polygon fill="#ffffff" stroke="transparent" points="-4,4 -4,-280 854,-280 854,4 -4,4"/>
<text text-anchor="start" x="404.0091" y="-42.4" font-family="sans-serif" font-weight="bold" font-size="14.00" fill="#000000">Legend</text>
<polygon fill="#ffffb3" stroke="transparent" points="191,-10 191,-30 211,-30 211,-10 191,-10"/>
<text text-anchor="start" x="214.629" y="-15.4" font-family="sans-serif" font-size="14.00" fill="#000000"> &#160;Declarations</text>
<polygon fill="#8dd3c7" stroke="transparent" points="304,-10 304,-30 324,-30 324,-10 304,-10"/>
<text text-anchor="start" x="327.7251" y="-15.4" font-family="sans-serif" font-size="14.00" fill="#000000"> &#160;Module</text>
<polygon fill="#80b1d3" stroke="transparent" points="390,-10 390,-30 410,-30 410,-10 390,-10"/>
<text text-anchor="start" x="413.7812" y="-15.4" font-family="sans-serif" font-size="14.00" fill="#000000"> &#160;Bootstrap</text>
<polygon fill="#fdb462" stroke="transparent" points="487,-10 487,-30 507,-30 507,-10 487,-10"/>
<text text-anchor="start" x="510.6732" y="-15.4" font-family="sans-serif" font-size="14.00" fill="#000000"> &#160;Providers</text>
<polygon fill="#fb8072" stroke="transparent" points="583,-10 583,-30 603,-30 603,-10 583,-10"/>
<text text-anchor="start" x="606.7258" y="-15.4" font-family="sans-serif" font-size="14.00" fill="#000000"> &#160;Exports</text>
<g id="clust1" class="cluster">
<title>cluster_DejaTooltipModule</title>
<polygon fill="none" stroke="#000000" stroke-dasharray="1,5" points="8,-70 8,-268 842,-268 842,-70 8,-70"/>
</g>
<g id="clust2" class="cluster">
<title>cluster_DejaTooltipModule_declarations</title>
<polygon fill="none" stroke="#000000" points="516,-78 516,-130 834,-130 834,-78 516,-78"/>
</g>
<g id="clust5" class="cluster">
<title>cluster_DejaTooltipModule_imports</title>
<polygon fill="none" stroke="#000000" points="214,-78 214,-130 508,-130 508,-78 214,-78"/>
</g>
<g id="clust6" class="cluster">
<title>cluster_DejaTooltipModule_exports</title>
<polygon fill="none" stroke="#000000" points="284,-208 284,-260 610,-260 610,-208 284,-208"/>
</g>
<g id="clust8" class="cluster">
<title>cluster_DejaTooltipModule_providers</title>
<polygon fill="none" stroke="#000000" points="16,-78 16,-130 206,-130 206,-78 16,-78"/>
</g>
<!-- DejaTooltipComponent -->
<g id="node1" class="node">
<title>DejaTooltipComponent</title>
<polygon fill="#ffffb3" stroke="#000000" points="826.4832,-122 677.5168,-122 677.5168,-86 826.4832,-86 826.4832,-122"/>
<text text-anchor="middle" x="752" y="-99.8" font-family="Times,serif" font-size="14.00" fill="#000000">DejaTooltipComponent</text>
</g>
<!-- DejaTooltipModule -->
<g id="node3" class="node">
<title>DejaTooltipModule</title>
<polygon fill="#8dd3c7" stroke="#000000" points="507.7008,-187 504.7008,-191 483.7008,-191 480.7008,-187 380.2992,-187 380.2992,-151 507.7008,-151 507.7008,-187"/>
<text text-anchor="middle" x="444" y="-164.8" font-family="Times,serif" font-size="14.00" fill="#000000">DejaTooltipModule</text>
</g>
<!-- DejaTooltipComponent&#45;&gt;DejaTooltipModule -->
<g id="edge1" class="edge">
<title>DejaTooltipComponent&#45;&gt;DejaTooltipModule</title>
<path fill="none" stroke="#000000" d="M752,-122.1061C752,-141.3391 752,-169 752,-169 752,-169 517.8178,-169 517.8178,-169"/>
<polygon fill="#000000" stroke="#000000" points="517.8178,-165.5001 507.8178,-169 517.8178,-172.5001 517.8178,-165.5001"/>
</g>
<!-- DejaTooltipDirective -->
<g id="node2" class="node">
<title>DejaTooltipDirective</title>
<polygon fill="#ffffb3" stroke="#000000" points="659.7339,-122 524.2661,-122 524.2661,-86 659.7339,-86 659.7339,-122"/>
<text text-anchor="middle" x="592" y="-99.8" font-family="Times,serif" font-size="14.00" fill="#000000">DejaTooltipDirective</text>
</g>
<!-- DejaTooltipDirective&#45;&gt;DejaTooltipModule -->
<g id="edge2" class="edge">
<title>DejaTooltipDirective&#45;&gt;DejaTooltipModule</title>
<path fill="none" stroke="#000000" d="M524.1928,-104C512.3384,-104 503.7171,-104 503.7171,-104 503.7171,-104 503.7171,-140.8939 503.7171,-140.8939"/>
<polygon fill="#000000" stroke="#000000" points="500.2171,-140.8938 503.7171,-150.8939 507.2171,-140.8939 500.2171,-140.8938"/>
</g>
<!-- DejaTooltipComponent  -->
<g id="node6" class="node">
<title>DejaTooltipComponent </title>
<polygon fill="#fb8072" stroke="#000000" points="602.484,-252 449.516,-252 449.516,-216 602.484,-216 602.484,-252"/>
<text text-anchor="middle" x="526" y="-229.8" font-family="Times,serif" font-size="14.00" fill="#000000">DejaTooltipComponent </text>
</g>
<!-- DejaTooltipModule&#45;&gt;DejaTooltipComponent  -->
<g id="edge5" class="edge">
<title>DejaTooltipModule&#45;&gt;DejaTooltipComponent </title>
<path fill="none" stroke="#000000" stroke-dasharray="5,2" d="M478.6794,-187.1061C478.6794,-187.1061 478.6794,-205.991 478.6794,-205.991"/>
<polygon fill="#000000" stroke="#000000" points="475.1794,-205.9909 478.6794,-215.991 482.1794,-205.991 475.1794,-205.9909"/>
</g>
<!-- DejaTooltipDirective  -->
<g id="node7" class="node">
<title>DejaTooltipDirective </title>
<polygon fill="#fb8072" stroke="#000000" points="431.7338,-252 292.2662,-252 292.2662,-216 431.7338,-216 431.7338,-252"/>
<text text-anchor="middle" x="362" y="-229.8" font-family="Times,serif" font-size="14.00" fill="#000000">DejaTooltipDirective </text>
</g>
<!-- DejaTooltipModule&#45;&gt;DejaTooltipDirective  -->
<g id="edge6" class="edge">
<title>DejaTooltipModule&#45;&gt;DejaTooltipDirective </title>
<path fill="none" stroke="#000000" stroke-dasharray="5,2" d="M406.0082,-187.1061C406.0082,-187.1061 406.0082,-205.991 406.0082,-205.991"/>
<polygon fill="#000000" stroke="#000000" points="402.5083,-205.9909 406.0082,-215.991 409.5083,-205.991 402.5083,-205.9909"/>
</g>
<!-- CommonModule -->
<g id="node4" class="node">
<title>CommonModule</title>
<polygon fill="#8dd3c7" stroke="#000000" points="499.6681,-122 496.6681,-126 475.6681,-126 472.6681,-122 388.3319,-122 388.3319,-86 499.6681,-86 499.6681,-122"/>
<text text-anchor="middle" x="444" y="-99.8" font-family="Times,serif" font-size="14.00" fill="#000000">CommonModule</text>
</g>
<!-- CommonModule&#45;&gt;DejaTooltipModule -->
<g id="edge3" class="edge">
<title>CommonModule&#45;&gt;DejaTooltipModule</title>
<path fill="none" stroke="#000000" d="M444,-122.1061C444,-122.1061 444,-140.991 444,-140.991"/>
<polygon fill="#000000" stroke="#000000" points="440.5001,-140.9909 444,-150.991 447.5001,-140.991 440.5001,-140.9909"/>
</g>
<!-- DejaDropDownModule -->
<g id="node5" class="node">
<title>DejaDropDownModule</title>
<polygon fill="#8dd3c7" stroke="#000000" points="370.4566,-122 367.4566,-126 346.4566,-126 343.4566,-122 221.5434,-122 221.5434,-86 370.4566,-86 370.4566,-122"/>
<text text-anchor="middle" x="296" y="-99.8" font-family="Times,serif" font-size="14.00" fill="#000000">DejaDropDownModule</text>
</g>
<!-- DejaDropDownModule&#45;&gt;DejaTooltipModule -->
<g id="edge4" class="edge">
<title>DejaDropDownModule&#45;&gt;DejaTooltipModule</title>
<path fill="none" stroke="#000000" d="M370.4887,-104C378.7653,-104 384.283,-104 384.283,-104 384.283,-104 384.283,-140.8939 384.283,-140.8939"/>
<polygon fill="#000000" stroke="#000000" points="380.783,-140.8938 384.283,-150.8939 387.783,-140.8939 380.783,-140.8938"/>
</g>
<!-- DejaTooltipService -->
<g id="node8" class="node">
<title>DejaTooltipService</title>
<ellipse fill="#fdb462" stroke="#000000" cx="111" cy="-104" rx="86.8126" ry="18"/>
<text text-anchor="middle" x="111" y="-99.8" font-family="Times,serif" font-size="14.00" fill="#000000">DejaTooltipService</text>
</g>
<!-- DejaTooltipService&#45;&gt;DejaTooltipModule -->
<g id="edge7" class="edge">
<title>DejaTooltipService&#45;&gt;DejaTooltipModule</title>
<path fill="none" stroke="#000000" d="M111,-122.1061C111,-141.3391 111,-169 111,-169 111,-169 370.1883,-169 370.1883,-169"/>
<polygon fill="#000000" stroke="#000000" points="370.1883,-172.5001 380.1883,-169 370.1882,-165.5001 370.1883,-172.5001"/>
</g>
</g>
</svg>
