<?xml version="1.0" encoding="UTF-8" standalone="no"?>
<!DOCTYPE svg PUBLIC "-//W3C//DTD SVG 1.1//EN"
 "http://www.w3.org/Graphics/SVG/1.1/DTD/svg11.dtd">
<!-- Generated by graphviz version 2.40.1 (20161225.0304)
 -->
<!-- Title: dependencies Pages: 1 -->
<svg width="726pt" height="284pt"
 viewBox="0.00 0.00 726.00 284.00" xmlns="http://www.w3.org/2000/svg" xmlns:xlink="http://www.w3.org/1999/xlink">
<g id="graph0" class="graph" transform="scale(1 1) rotate(0) translate(4 280)">
<title>dependencies</title>
<polygon fill="#ffffff" stroke="transparent" points="-4,4 -4,-280 722,-280 722,4 -4,4"/>
<text text-anchor="start" x="338.0091" y="-42.4" font-family="sans-serif" font-weight="bold" font-size="14.00" fill="#000000">Legend</text>
<polygon fill="#ffffb3" stroke="transparent" points="125,-10 125,-30 145,-30 145,-10 125,-10"/>
<text text-anchor="start" x="148.629" y="-15.4" font-family="sans-serif" font-size="14.00" fill="#000000"> &#160;Declarations</text>
<polygon fill="#8dd3c7" stroke="transparent" points="238,-10 238,-30 258,-30 258,-10 238,-10"/>
<text text-anchor="start" x="261.7251" y="-15.4" font-family="sans-serif" font-size="14.00" fill="#000000"> &#160;Module</text>
<polygon fill="#80b1d3" stroke="transparent" points="324,-10 324,-30 344,-30 344,-10 324,-10"/>
<text text-anchor="start" x="347.7812" y="-15.4" font-family="sans-serif" font-size="14.00" fill="#000000"> &#160;Bootstrap</text>
<polygon fill="#fdb462" stroke="transparent" points="421,-10 421,-30 441,-30 441,-10 421,-10"/>
<text text-anchor="start" x="444.6732" y="-15.4" font-family="sans-serif" font-size="14.00" fill="#000000"> &#160;Providers</text>
<polygon fill="#fb8072" stroke="transparent" points="517,-10 517,-30 537,-30 537,-10 517,-10"/>
<text text-anchor="start" x="540.7258" y="-15.4" font-family="sans-serif" font-size="14.00" fill="#000000"> &#160;Exports</text>
<g id="clust1" class="cluster">
<title>cluster_DejaMouseDragDropModule</title>
<polygon fill="none" stroke="#000000" stroke-dasharray="1,5" points="8,-70 8,-268 710,-268 710,-70 8,-70"/>
</g>
<g id="clust2" class="cluster">
<title>cluster_DejaMouseDragDropModule_declarations</title>
<polygon fill="none" stroke="#000000" points="22,-78 22,-130 697,-130 697,-78 22,-78"/>
</g>
<g id="clust7" class="cluster">
<title>cluster_DejaMouseDragDropModule_exports</title>
<polygon fill="none" stroke="#000000" points="16,-208 16,-260 702,-260 702,-208 16,-208"/>
</g>
<!-- DejaMouseDragDropCursorComponent -->
<g id="node1" class="node">
<title>DejaMouseDragDropCursorComponent</title>
<polygon fill="#ffffb3" stroke="#000000" points="689.2142,-122 448.7858,-122 448.7858,-86 689.2142,-86 689.2142,-122"/>
<text text-anchor="middle" x="569" y="-99.8" font-family="Times,serif" font-size="14.00" fill="#000000">DejaMouseDragDropCursorComponent</text>
</g>
<!-- DejaMouseDragDropModule -->
<g id="node4" class="node">
<title>DejaMouseDragDropModule</title>
<polygon fill="#8dd3c7" stroke="#000000" points="425.3291,-187 422.3291,-191 401.3291,-191 398.3291,-187 244.6709,-187 244.6709,-151 425.3291,-151 425.3291,-187"/>
<text text-anchor="middle" x="335" y="-164.8" font-family="Times,serif" font-size="14.00" fill="#000000">DejaMouseDragDropModule</text>
</g>
<!-- DejaMouseDragDropCursorComponent&#45;&gt;DejaMouseDragDropModule -->
<g id="edge1" class="edge">
<title>DejaMouseDragDropCursorComponent&#45;&gt;DejaMouseDragDropModule</title>
<path fill="none" stroke="#000000" d="M609.5357,-122.0225C609.5357,-139.3734 609.5357,-163 609.5357,-163 609.5357,-163 435.6541,-163 435.6541,-163"/>
<polygon fill="#000000" stroke="#000000" points="435.6541,-159.5001 425.6541,-163 435.6541,-166.5001 435.6541,-159.5001"/>
</g>
<!-- DejaMouseDraggableDirective -->
<g id="node2" class="node">
<title>DejaMouseDraggableDirective</title>
<polygon fill="#ffffb3" stroke="#000000" points="430.4146,-122 239.5854,-122 239.5854,-86 430.4146,-86 430.4146,-122"/>
<text text-anchor="middle" x="335" y="-99.8" font-family="Times,serif" font-size="14.00" fill="#000000">DejaMouseDraggableDirective</text>
</g>
<!-- DejaMouseDraggableDirective&#45;&gt;DejaMouseDragDropModule -->
<g id="edge2" class="edge">
<title>DejaMouseDraggableDirective&#45;&gt;DejaMouseDragDropModule</title>
<path fill="none" stroke="#000000" d="M335,-122.1061C335,-122.1061 335,-140.991 335,-140.991"/>
<polygon fill="#000000" stroke="#000000" points="331.5001,-140.9909 335,-150.991 338.5001,-140.991 331.5001,-140.9909"/>
</g>
<!-- DejaMouseDroppableDirective -->
<g id="node3" class="node">
<title>DejaMouseDroppableDirective</title>
<polygon fill="#ffffb3" stroke="#000000" points="221.7002,-122 30.2998,-122 30.2998,-86 221.7002,-86 221.7002,-122"/>
<text text-anchor="middle" x="126" y="-99.8" font-family="Times,serif" font-size="14.00" fill="#000000">DejaMouseDroppableDirective</text>
</g>
<!-- DejaMouseDroppableDirective&#45;&gt;DejaMouseDragDropModule -->
<g id="edge3" class="edge">
<title>DejaMouseDroppableDirective&#45;&gt;DejaMouseDragDropModule</title>
<path fill="none" stroke="#000000" d="M156.45,-122.0225C156.45,-139.3734 156.45,-163 156.45,-163 156.45,-163 234.4173,-163 234.4173,-163"/>
<polygon fill="#000000" stroke="#000000" points="234.4173,-166.5001 244.4173,-163 234.4173,-159.5001 234.4173,-166.5001"/>
</g>
<!-- DejaMouseDragDropCursorComponent  -->
<g id="node5" class="node">
<title>DejaMouseDragDropCursorComponent </title>
<polygon fill="#fb8072" stroke="#000000" points="694.2141,-252 449.7859,-252 449.7859,-216 694.2141,-216 694.2141,-252"/>
<text text-anchor="middle" x="572" y="-229.8" font-family="Times,serif" font-size="14.00" fill="#000000">DejaMouseDragDropCursorComponent </text>
</g>
<!-- DejaMouseDragDropModule&#45;&gt;DejaMouseDragDropCursorComponent  -->
<g id="edge4" class="edge">
<title>DejaMouseDragDropModule&#45;&gt;DejaMouseDragDropCursorComponent </title>
<path fill="none" stroke="#000000" stroke-dasharray="5,2" d="M425.5168,-175C476.3652,-175 529.7143,-175 529.7143,-175 529.7143,-175 529.7143,-205.9775 529.7143,-205.9775"/>
<polygon fill="#000000" stroke="#000000" points="526.2144,-205.9774 529.7143,-215.9775 533.2144,-205.9775 526.2144,-205.9774"/>
</g>
<!-- DejaMouseDraggableDirective  -->
<g id="node6" class="node">
<title>DejaMouseDraggableDirective </title>
<polygon fill="#fb8072" stroke="#000000" points="432.415,-252 237.585,-252 237.585,-216 432.415,-216 432.415,-252"/>
<text text-anchor="middle" x="335" y="-229.8" font-family="Times,serif" font-size="14.00" fill="#000000">DejaMouseDraggableDirective </text>
</g>
<!-- DejaMouseDragDropModule&#45;&gt;DejaMouseDraggableDirective  -->
<g id="edge5" class="edge">
<title>DejaMouseDragDropModule&#45;&gt;DejaMouseDraggableDirective </title>
<path fill="none" stroke="#000000" stroke-dasharray="5,2" d="M335,-187.1061C335,-187.1061 335,-205.991 335,-205.991"/>
<polygon fill="#000000" stroke="#000000" points="331.5001,-205.9909 335,-215.991 338.5001,-205.991 331.5001,-205.9909"/>
</g>
<!-- DejaMouseDroppableDirective  -->
<g id="node7" class="node">
<title>DejaMouseDroppableDirective </title>
<polygon fill="#fb8072" stroke="#000000" points="219.7001,-252 24.2999,-252 24.2999,-216 219.7001,-216 219.7001,-252"/>
<text text-anchor="middle" x="122" y="-229.8" font-family="Times,serif" font-size="14.00" fill="#000000">DejaMouseDroppableDirective </text>
</g>
<!-- DejaMouseDragDropModule&#45;&gt;DejaMouseDroppableDirective  -->
<g id="edge6" class="edge">
<title>DejaMouseDragDropModule&#45;&gt;DejaMouseDroppableDirective </title>
<path fill="none" stroke="#000000" stroke-dasharray="5,2" d="M244.6561,-175C176.0047,-175 93.3,-175 93.3,-175 93.3,-175 93.3,-205.9775 93.3,-205.9775"/>
<polygon fill="#000000" stroke="#000000" points="89.8001,-205.9774 93.3,-215.9775 96.8001,-205.9775 89.8001,-205.9774"/>
</g>
</g>
</svg>
