<?xml version="1.0" encoding="UTF-8" standalone="no"?>
<!DOCTYPE svg PUBLIC "-//W3C//DTD SVG 1.1//EN"
 "http://www.w3.org/Graphics/SVG/1.1/DTD/svg11.dtd">
<!-- Generated by graphviz version 2.40.1 (20161225.0304)
 -->
<!-- Title: dependencies Pages: 1 -->
<svg width="726pt" height="284pt"
 viewBox="0.00 0.00 726.00 284.00" xmlns="http://www.w3.org/2000/svg" xmlns:xlink="http://www.w3.org/1999/xlink">
<g id="graph0" class="graph" transform="scale(1 1) rotate(0) translate(4 280)">
<title>dependencies</title>
<polygon fill="#ffffff" stroke="transparent" points="-4,4 -4,-280 722,-280 722,4 -4,4"/>
<text text-anchor="start" x="338.0091" y="-42.4" font-family="sans-serif" font-weight="bold" font-size="14.00" fill="#000000">Legend</text>
<polygon fill="#ffffb3" stroke="transparent" points="125,-10 125,-30 145,-30 145,-10 125,-10"/>
<text text-anchor="start" x="148.629" y="-15.4" font-family="sans-serif" font-size="14.00" fill="#000000"> &#160;Declarations</text>
<polygon fill="#8dd3c7" stroke="transparent" points="238,-10 238,-30 258,-30 258,-10 238,-10"/>
<text text-anchor="start" x="261.7251" y="-15.4" font-family="sans-serif" font-size="14.00" fill="#000000"> &#160;Module</text>
<polygon fill="#80b1d3" stroke="transparent" points="324,-10 324,-30 344,-30 344,-10 324,-10"/>
<text text-anchor="start" x="347.7812" y="-15.4" font-family="sans-serif" font-size="14.00" fill="#000000"> &#160;Bootstrap</text>
<polygon fill="#fdb462" stroke="transparent" points="421,-10 421,-30 441,-30 441,-10 421,-10"/>
<text text-anchor="start" x="444.6732" y="-15.4" font-family="sans-serif" font-size="14.00" fill="#000000"> &#160;Providers</text>
<polygon fill="#fb8072" stroke="transparent" points="517,-10 517,-30 537,-30 537,-10 517,-10"/>
<text text-anchor="start" x="540.7258" y="-15.4" font-family="sans-serif" font-size="14.00" fill="#000000"> &#160;Exports</text>
<g id="clust1" class="cluster">
<title>cluster_DejaMouseDragDropModule</title>
<polygon fill="none" stroke="#000000" stroke-dasharray="1,5" points="8,-70 8,-268 710,-268 710,-70 8,-70"/>
</g>
<g id="clust2" class="cluster">
<title>cluster_DejaMouseDragDropModule_declarations</title>
<polygon fill="none" stroke="#000000" points="22,-78 22,-130 696,-130 696,-78 22,-78"/>
</g>
<g id="clust7" class="cluster">
<title>cluster_DejaMouseDragDropModule_exports</title>
<polygon fill="none" stroke="#000000" points="16,-208 16,-260 702,-260 702,-208 16,-208"/>
</g>
<!-- DejaMouseDraggableDirective -->
<g id="node1" class="node">
<title>DejaMouseDraggableDirective</title>
<polygon fill="#ffffb3" stroke="#000000" points="688.4146,-122 497.5854,-122 497.5854,-86 688.4146,-86 688.4146,-122"/>
<text text-anchor="middle" x="593" y="-99.8" font-family="Times,serif" font-size="14.00" fill="#000000">DejaMouseDraggableDirective</text>
</g>
<!-- DejaMouseDragDropModule -->
<g id="node4" class="node">
<title>DejaMouseDragDropModule</title>
<polygon fill="#8dd3c7" stroke="#000000" points="474.3291,-187 471.3291,-191 450.3291,-191 447.3291,-187 293.6709,-187 293.6709,-151 474.3291,-151 474.3291,-187"/>
<text text-anchor="middle" x="384" y="-164.8" font-family="Times,serif" font-size="14.00" fill="#000000">DejaMouseDragDropModule</text>
</g>
<!-- DejaMouseDraggableDirective&#45;&gt;DejaMouseDragDropModule -->
<g id="edge1" class="edge">
<title>DejaMouseDraggableDirective&#45;&gt;DejaMouseDragDropModule</title>
<path fill="none" stroke="#000000" d="M625.5691,-122.0225C625.5691,-139.3734 625.5691,-163 625.5691,-163 625.5691,-163 484.6387,-163 484.6387,-163"/>
<polygon fill="#000000" stroke="#000000" points="484.6387,-159.5001 474.6387,-163 484.6387,-166.5001 484.6387,-159.5001"/>
</g>
<!-- DejaMouseDroppableDirective -->
<g id="node2" class="node">
<title>DejaMouseDroppableDirective</title>
<polygon fill="#ffffb3" stroke="#000000" points="479.7002,-122 288.2998,-122 288.2998,-86 479.7002,-86 479.7002,-122"/>
<text text-anchor="middle" x="384" y="-99.8" font-family="Times,serif" font-size="14.00" fill="#000000">DejaMouseDroppableDirective</text>
</g>
<!-- DejaMouseDroppableDirective&#45;&gt;DejaMouseDragDropModule -->
<g id="edge2" class="edge">
<title>DejaMouseDroppableDirective&#45;&gt;DejaMouseDragDropModule</title>
<path fill="none" stroke="#000000" d="M384,-122.1061C384,-122.1061 384,-140.991 384,-140.991"/>
<polygon fill="#000000" stroke="#000000" points="380.5001,-140.9909 384,-150.991 387.5001,-140.991 380.5001,-140.9909"/>
</g>
<!-- DejaMouseDragDropCursorComponent -->
<g id="node3" class="node">
<title>DejaMouseDragDropCursorComponent</title>
<polygon fill="#ffffb3" stroke="#000000" points="270.2142,-122 29.7858,-122 29.7858,-86 270.2142,-86 270.2142,-122"/>
<text text-anchor="middle" x="150" y="-99.8" font-family="Times,serif" font-size="14.00" fill="#000000">DejaMouseDragDropCursorComponent</text>
</g>
<!-- DejaMouseDragDropCursorComponent&#45;&gt;DejaMouseDragDropModule -->
<g id="edge3" class="edge">
<title>DejaMouseDragDropCursorComponent&#45;&gt;DejaMouseDragDropModule</title>
<path fill="none" stroke="#000000" d="M188.619,-122.0225C188.619,-139.3734 188.619,-163 188.619,-163 188.619,-163 283.4589,-163 283.4589,-163"/>
<polygon fill="#000000" stroke="#000000" points="283.4589,-166.5001 293.4589,-163 283.4588,-159.5001 283.4589,-166.5001"/>
</g>
<!-- DejaMouseDraggableDirective  -->
<g id="node5" class="node">
<title>DejaMouseDraggableDirective </title>
<polygon fill="#fb8072" stroke="#000000" points="694.415,-252 499.585,-252 499.585,-216 694.415,-216 694.415,-252"/>
<text text-anchor="middle" x="597" y="-229.8" font-family="Times,serif" font-size="14.00" fill="#000000">DejaMouseDraggableDirective </text>
</g>
<!-- DejaMouseDragDropModule&#45;&gt;DejaMouseDraggableDirective  -->
<g id="edge4" class="edge">
<title>DejaMouseDragDropModule&#45;&gt;DejaMouseDraggableDirective </title>
<path fill="none" stroke="#000000" stroke-dasharray="5,2" d="M474.3874,-175C518.7059,-175 562.6809,-175 562.6809,-175 562.6809,-175 562.6809,-205.9775 562.6809,-205.9775"/>
<polygon fill="#000000" stroke="#000000" points="559.181,-205.9774 562.6809,-215.9775 566.181,-205.9775 559.181,-205.9774"/>
</g>
<!-- DejaMouseDroppableDirective  -->
<g id="node6" class="node">
<title>DejaMouseDroppableDirective </title>
<polygon fill="#fb8072" stroke="#000000" points="481.7001,-252 286.2999,-252 286.2999,-216 481.7001,-216 481.7001,-252"/>
<text text-anchor="middle" x="384" y="-229.8" font-family="Times,serif" font-size="14.00" fill="#000000">DejaMouseDroppableDirective </text>
</g>
<!-- DejaMouseDragDropModule&#45;&gt;DejaMouseDroppableDirective  -->
<g id="edge5" class="edge">
<title>DejaMouseDragDropModule&#45;&gt;DejaMouseDroppableDirective </title>
<path fill="none" stroke="#000000" stroke-dasharray="5,2" d="M384,-187.1061C384,-187.1061 384,-205.991 384,-205.991"/>
<polygon fill="#000000" stroke="#000000" points="380.5001,-205.9909 384,-215.991 387.5001,-205.991 380.5001,-205.9909"/>
</g>
<!-- DejaMouseDragDropCursorComponent  -->
<g id="node7" class="node">
<title>DejaMouseDragDropCursorComponent </title>
<polygon fill="#fb8072" stroke="#000000" points="268.2141,-252 23.7859,-252 23.7859,-216 268.2141,-216 268.2141,-252"/>
<text text-anchor="middle" x="146" y="-229.8" font-family="Times,serif" font-size="14.00" fill="#000000">DejaMouseDragDropCursorComponent </text>
</g>
<!-- DejaMouseDragDropModule&#45;&gt;DejaMouseDragDropCursorComponent  -->
<g id="edge6" class="edge">
<title>DejaMouseDragDropModule&#45;&gt;DejaMouseDragDropCursorComponent </title>
<path fill="none" stroke="#000000" stroke-dasharray="5,2" d="M293.6169,-175C213.5031,-175 109.131,-175 109.131,-175 109.131,-175 109.131,-205.9775 109.131,-205.9775"/>
<polygon fill="#000000" stroke="#000000" points="105.6309,-205.9775 109.131,-215.9775 112.6309,-205.9774 105.6309,-205.9775"/>
</g>
</g>
</svg>
