<?xml version="1.0" encoding="UTF-8" standalone="no"?>
<!DOCTYPE svg PUBLIC "-//W3C//DTD SVG 1.1//EN"
 "http://www.w3.org/Graphics/SVG/1.1/DTD/svg11.dtd">
<!-- Generated by graphviz version 2.40.1 (20161225.0304)
 -->
<!-- Title: dependencies Pages: 1 -->
<svg width="504pt" height="284pt"
 viewBox="0.00 0.00 504.00 284.00" xmlns="http://www.w3.org/2000/svg" xmlns:xlink="http://www.w3.org/1999/xlink">
<g id="graph0" class="graph" transform="scale(1 1) rotate(0) translate(4 280)">
<title>dependencies</title>
<polygon fill="#ffffff" stroke="transparent" points="-4,4 -4,-280 500,-280 500,4 -4,4"/>
<text text-anchor="start" x="227.0091" y="-42.4" font-family="sans-serif" font-weight="bold" font-size="14.00" fill="#000000">Legend</text>
<polygon fill="#ffffb3" stroke="transparent" points="14,-10 14,-30 34,-30 34,-10 14,-10"/>
<text text-anchor="start" x="37.629" y="-15.4" font-family="sans-serif" font-size="14.00" fill="#000000"> &#160;Declarations</text>
<polygon fill="#8dd3c7" stroke="transparent" points="127,-10 127,-30 147,-30 147,-10 127,-10"/>
<text text-anchor="start" x="150.7251" y="-15.4" font-family="sans-serif" font-size="14.00" fill="#000000"> &#160;Module</text>
<polygon fill="#80b1d3" stroke="transparent" points="213,-10 213,-30 233,-30 233,-10 213,-10"/>
<text text-anchor="start" x="236.7812" y="-15.4" font-family="sans-serif" font-size="14.00" fill="#000000"> &#160;Bootstrap</text>
<polygon fill="#fdb462" stroke="transparent" points="310,-10 310,-30 330,-30 330,-10 310,-10"/>
<text text-anchor="start" x="333.6732" y="-15.4" font-family="sans-serif" font-size="14.00" fill="#000000"> &#160;Providers</text>
<polygon fill="#fb8072" stroke="transparent" points="406,-10 406,-30 426,-30 426,-10 406,-10"/>
<text text-anchor="start" x="429.7258" y="-15.4" font-family="sans-serif" font-size="14.00" fill="#000000"> &#160;Exports</text>
<g id="clust1" class="cluster">
<title>cluster_DejaChipsModule</title>
<polygon fill="none" stroke="#000000" stroke-dasharray="1,5" points="37.5,-70 37.5,-268 458.5,-268 458.5,-70 37.5,-70"/>
</g>
<g id="clust2" class="cluster">
<title>cluster_DejaChipsModule_declarations</title>
<polygon fill="none" stroke="#000000" points="294.5,-78 294.5,-130 450.5,-130 450.5,-78 294.5,-78"/>
</g>
<g id="clust4" class="cluster">
<title>cluster_DejaChipsModule_imports</title>
<polygon fill="none" stroke="#000000" points="45.5,-78 45.5,-130 286.5,-130 286.5,-78 45.5,-78"/>
</g>
<g id="clust5" class="cluster">
<title>cluster_DejaChipsModule_exports</title>
<polygon fill="none" stroke="#000000" points="142.5,-208 142.5,-260 302.5,-260 302.5,-208 142.5,-208"/>
</g>
<!-- DejaChipsComponent -->
<g id="node1" class="node">
<title>DejaChipsComponent</title>
<polygon fill="#ffffb3" stroke="#000000" points="442.9313,-122 302.0687,-122 302.0687,-86 442.9313,-86 442.9313,-122"/>
<text text-anchor="middle" x="372.5" y="-99.8" font-family="Times,serif" font-size="14.00" fill="#000000">DejaChipsComponent</text>
</g>
<!-- DejaChipsModule -->
<g id="node2" class="node">
<title>DejaChipsModule</title>
<polygon fill="#8dd3c7" stroke="#000000" points="281.6485,-187 278.6485,-191 257.6485,-191 254.6485,-187 163.3515,-187 163.3515,-151 281.6485,-151 281.6485,-187"/>
<text text-anchor="middle" x="222.5" y="-164.8" font-family="Times,serif" font-size="14.00" fill="#000000">DejaChipsModule</text>
</g>
<!-- DejaChipsComponent&#45;&gt;DejaChipsModule -->
<g id="edge1" class="edge">
<title>DejaChipsComponent&#45;&gt;DejaChipsModule</title>
<path fill="none" stroke="#000000" d="M372.5,-122.1061C372.5,-141.3391 372.5,-169 372.5,-169 372.5,-169 291.784,-169 291.784,-169"/>
<polygon fill="#000000" stroke="#000000" points="291.784,-165.5001 281.784,-169 291.7839,-172.5001 291.784,-165.5001"/>
</g>
<!-- DejaChipsComponent  -->
<g id="node5" class="node">
<title>DejaChipsComponent </title>
<polygon fill="#fb8072" stroke="#000000" points="294.4306,-252 150.5694,-252 150.5694,-216 294.4306,-216 294.4306,-252"/>
<text text-anchor="middle" x="222.5" y="-229.8" font-family="Times,serif" font-size="14.00" fill="#000000">DejaChipsComponent </text>
</g>
<!-- DejaChipsModule&#45;&gt;DejaChipsComponent  -->
<g id="edge4" class="edge">
<title>DejaChipsModule&#45;&gt;DejaChipsComponent </title>
<path fill="none" stroke="#000000" stroke-dasharray="5,2" d="M222.5,-187.1061C222.5,-187.1061 222.5,-205.991 222.5,-205.991"/>
<polygon fill="#000000" stroke="#000000" points="219.0001,-205.9909 222.5,-215.991 226.0001,-205.991 219.0001,-205.9909"/>
</g>
<!-- CommonModule -->
<g id="node3" class="node">
<title>CommonModule</title>
<polygon fill="#8dd3c7" stroke="#000000" points="278.1681,-122 275.1681,-126 254.1681,-126 251.1681,-122 166.8319,-122 166.8319,-86 278.1681,-86 278.1681,-122"/>
<text text-anchor="middle" x="222.5" y="-99.8" font-family="Times,serif" font-size="14.00" fill="#000000">CommonModule</text>
</g>
<!-- CommonModule&#45;&gt;DejaChipsModule -->
<g id="edge2" class="edge">
<title>CommonModule&#45;&gt;DejaChipsModule</title>
<path fill="none" stroke="#000000" d="M222.5,-122.1061C222.5,-122.1061 222.5,-140.991 222.5,-140.991"/>
<polygon fill="#000000" stroke="#000000" points="219.0001,-140.9909 222.5,-150.991 226.0001,-140.991 219.0001,-140.9909"/>
</g>
<!-- FormsModule -->
<g id="node4" class="node">
<title>FormsModule</title>
<polygon fill="#8dd3c7" stroke="#000000" points="149.3288,-122 146.3288,-126 125.3288,-126 122.3288,-122 53.6712,-122 53.6712,-86 149.3288,-86 149.3288,-122"/>
<text text-anchor="middle" x="101.5" y="-99.8" font-family="Times,serif" font-size="14.00" fill="#000000">FormsModule</text>
</g>
<!-- FormsModule&#45;&gt;DejaChipsModule -->
<g id="edge3" class="edge">
<title>FormsModule&#45;&gt;DejaChipsModule</title>
<path fill="none" stroke="#000000" d="M101.5,-122.1061C101.5,-141.3391 101.5,-169 101.5,-169 101.5,-169 153.0634,-169 153.0634,-169"/>
<polygon fill="#000000" stroke="#000000" points="153.0635,-172.5001 163.0634,-169 153.0634,-165.5001 153.0635,-172.5001"/>
</g>
</g>
</svg>
