<?xml version="1.0" encoding="UTF-8" standalone="no"?>
<!DOCTYPE svg PUBLIC "-//W3C//DTD SVG 1.1//EN"
 "http://www.w3.org/Graphics/SVG/1.1/DTD/svg11.dtd">
<!-- Generated by graphviz version 2.40.1 (20161225.0304)
 -->
<!-- Title: dependencies Pages: 1 -->
<svg width="504pt" height="284pt"
 viewBox="0.00 0.00 504.00 284.00" xmlns="http://www.w3.org/2000/svg" xmlns:xlink="http://www.w3.org/1999/xlink">
<g id="graph0" class="graph" transform="scale(1 1) rotate(0) translate(4 280)">
<title>dependencies</title>
<polygon fill="#ffffff" stroke="transparent" points="-4,4 -4,-280 500,-280 500,4 -4,4"/>
<text text-anchor="start" x="227.0091" y="-42.4" font-family="sans-serif" font-weight="bold" font-size="14.00" fill="#000000">Legend</text>
<polygon fill="#ffffb3" stroke="transparent" points="14,-10 14,-30 34,-30 34,-10 14,-10"/>
<text text-anchor="start" x="37.629" y="-15.4" font-family="sans-serif" font-size="14.00" fill="#000000"> &#160;Declarations</text>
<polygon fill="#8dd3c7" stroke="transparent" points="127,-10 127,-30 147,-30 147,-10 127,-10"/>
<text text-anchor="start" x="150.7251" y="-15.4" font-family="sans-serif" font-size="14.00" fill="#000000"> &#160;Module</text>
<polygon fill="#80b1d3" stroke="transparent" points="213,-10 213,-30 233,-30 233,-10 213,-10"/>
<text text-anchor="start" x="236.7812" y="-15.4" font-family="sans-serif" font-size="14.00" fill="#000000"> &#160;Bootstrap</text>
<polygon fill="#fdb462" stroke="transparent" points="310,-10 310,-30 330,-30 330,-10 310,-10"/>
<text text-anchor="start" x="333.6732" y="-15.4" font-family="sans-serif" font-size="14.00" fill="#000000"> &#160;Providers</text>
<polygon fill="#fb8072" stroke="transparent" points="406,-10 406,-30 426,-30 426,-10 406,-10"/>
<text text-anchor="start" x="429.7258" y="-15.4" font-family="sans-serif" font-size="14.00" fill="#000000"> &#160;Exports</text>
<g id="clust1" class="cluster">
<title>cluster_DejaFormModule</title>
<polygon fill="none" stroke="#000000" stroke-dasharray="1,5" points="58.5,-70 58.5,-268 437.5,-268 437.5,-70 58.5,-70"/>
</g>
<g id="clust2" class="cluster">
<title>cluster_DejaFormModule_declarations</title>
<polygon fill="none" stroke="#000000" points="70.5,-78 70.5,-130 426.5,-130 426.5,-78 70.5,-78"/>
</g>
<g id="clust6" class="cluster">
<title>cluster_DejaFormModule_exports</title>
<polygon fill="none" stroke="#000000" points="66.5,-208 66.5,-260 429.5,-260 429.5,-208 66.5,-208"/>
</g>
<!-- PendingOnFocusDirective -->
<g id="node1" class="node">
<title>PendingOnFocusDirective</title>
<polygon fill="#ffffb3" stroke="#000000" points="418.5197,-122 254.4803,-122 254.4803,-86 418.5197,-86 418.5197,-122"/>
<text text-anchor="middle" x="336.5" y="-99.8" font-family="Times,serif" font-size="14.00" fill="#000000">PendingOnFocusDirective</text>
</g>
<!-- DejaFormModule -->
<g id="node3" class="node">
<title>DejaFormModule</title>
<polygon fill="#8dd3c7" stroke="#000000" points="215.8104,-187 212.8104,-191 191.8104,-191 188.8104,-187 99.1896,-187 99.1896,-151 215.8104,-151 215.8104,-187"/>
<text text-anchor="middle" x="157.5" y="-164.8" font-family="Times,serif" font-size="14.00" fill="#000000">DejaFormModule</text>
</g>
<!-- PendingOnFocusDirective&#45;&gt;DejaFormModule -->
<g id="edge1" class="edge">
<title>PendingOnFocusDirective&#45;&gt;DejaFormModule</title>
<path fill="none" stroke="#000000" d="M363.9198,-122.0225C363.9198,-139.3734 363.9198,-163 363.9198,-163 363.9198,-163 225.8239,-163 225.8239,-163"/>
<polygon fill="#000000" stroke="#000000" points="225.824,-159.5001 215.8239,-163 225.8239,-166.5001 225.824,-159.5001"/>
</g>
<!-- ValidateOnBlurDirective -->
<g id="node2" class="node">
<title>ValidateOnBlurDirective</title>
<polygon fill="#ffffb3" stroke="#000000" points="236.5002,-122 78.4998,-122 78.4998,-86 236.5002,-86 236.5002,-122"/>
<text text-anchor="middle" x="157.5" y="-99.8" font-family="Times,serif" font-size="14.00" fill="#000000">ValidateOnBlurDirective</text>
</g>
<!-- ValidateOnBlurDirective&#45;&gt;DejaFormModule -->
<g id="edge2" class="edge">
<title>ValidateOnBlurDirective&#45;&gt;DejaFormModule</title>
<path fill="none" stroke="#000000" d="M157.5,-122.1061C157.5,-122.1061 157.5,-140.991 157.5,-140.991"/>
<polygon fill="#000000" stroke="#000000" points="154.0001,-140.9909 157.5,-150.991 161.0001,-140.991 154.0001,-140.9909"/>
</g>
<!-- PendingOnFocusDirective  -->
<g id="node4" class="node">
<title>PendingOnFocusDirective </title>
<polygon fill="#fb8072" stroke="#000000" points="421.519,-252 253.481,-252 253.481,-216 421.519,-216 421.519,-252"/>
<text text-anchor="middle" x="337.5" y="-229.8" font-family="Times,serif" font-size="14.00" fill="#000000">PendingOnFocusDirective </text>
</g>
<!-- DejaFormModule&#45;&gt;PendingOnFocusDirective  -->
<g id="edge3" class="edge">
<title>DejaFormModule&#45;&gt;PendingOnFocusDirective </title>
<path fill="none" stroke="#000000" stroke-dasharray="5,2" d="M215.6713,-175C258.4178,-175 309.0802,-175 309.0802,-175 309.0802,-175 309.0802,-205.9775 309.0802,-205.9775"/>
<polygon fill="#000000" stroke="#000000" points="305.5803,-205.9774 309.0802,-215.9775 312.5803,-205.9775 305.5803,-205.9774"/>
</g>
<!-- ValidateOnBlurDirective  -->
<g id="node5" class="node">
<title>ValidateOnBlurDirective </title>
<polygon fill="#fb8072" stroke="#000000" points="234.9994,-252 74.0006,-252 74.0006,-216 234.9994,-216 234.9994,-252"/>
<text text-anchor="middle" x="154.5" y="-229.8" font-family="Times,serif" font-size="14.00" fill="#000000">ValidateOnBlurDirective </text>
</g>
<!-- DejaFormModule&#45;&gt;ValidateOnBlurDirective  -->
<g id="edge4" class="edge">
<title>DejaFormModule&#45;&gt;ValidateOnBlurDirective </title>
<path fill="none" stroke="#000000" stroke-dasharray="5,2" d="M157.5,-187.1061C157.5,-187.1061 157.5,-205.991 157.5,-205.991"/>
<polygon fill="#000000" stroke="#000000" points="154.0001,-205.9909 157.5,-215.991 161.0001,-205.991 154.0001,-205.9909"/>
</g>
</g>
</svg>
